<svg width="280" height="181" viewBox="0 0 280 181" fill="none" xmlns="http://www.w3.org/2000/svg">
<g clip-path="url(#clip0_195_9831)">
<path d="M118.694 66.5571L119 57.5438L113.512 55.7358C113.287 52.6562 112.776 49.615 112.049 46.6849L116.7 43.2266L113.541 34.7607L107.788 35.2278C106.417 32.4905 104.805 29.8861 103 27.443L105.979 22.4271L99.8524 15.8351L94.7089 18.4908C92.3922 16.5052 89.9504 14.7075 87.3365 13.1176L88.1697 7.36025L80.009 3.6256L76.2701 8.04408C73.4215 7.11196 70.4702 6.4151 67.4169 5.95281L66.0266 0.309338L57.0646 0L55.2948 5.53442C52.217 5.78477 49.2249 6.27655 46.3199 7.00976L42.866 2.3423L34.4713 5.50493L34.9351 11.3068C32.2199 12.7129 29.6379 14.3371 27.2152 16.1588L22.2648 13.1546L15.7039 19.3084L18.3368 24.5184C16.3691 26.8312 14.585 29.3182 13.0308 31.9548L7.32276 31.0912L3.59608 39.3191L8.0009 43.0902C7.07722 45.9633 6.36099 48.9627 5.92704 52.019L0.306077 53.4429L0 62.4562L5.51078 64.2662C5.73591 67.3685 6.24741 70.3871 6.97451 73.3158L2.32416 76.774L5.48357 85.2406L11.2365 84.7722C12.6077 87.5095 14.2191 90.1139 16.0249 92.557L13.0444 97.5729L19.1721 104.166L24.3149 101.509C26.6084 103.494 29.0741 105.294 31.688 106.884L30.831 112.639L38.9917 116.374L42.7544 111.956C45.603 112.888 48.5543 113.585 51.6083 114.047L52.9985 119.691L61.9605 120L63.731 114.466C66.8081 114.215 69.8002 113.723 72.7053 112.99L76.1354 117.656L84.5301 114.494L84.0893 108.694C86.8053 107.288 89.3634 105.662 91.8093 103.841L96.7603 106.846L103.321 100.692L100.688 95.4816C102.656 93.1688 104.44 90.6818 105.994 88.0452L111.702 88.9094L115.429 80.6809L111.024 76.9099C111.948 74.0374 112.663 71.062 113.097 67.9823L118.694 66.5571ZM58.2971 95.756C38.723 95.0797 23.3953 78.5265 24.0659 58.7874C24.7373 39.0249 41.1526 23.5698 60.7267 24.2461C80.3008 24.9224 95.6285 41.4742 94.9572 61.2367C94.2865 80.9758 77.8712 96.4323 58.2971 95.756Z" fill="#EBEBEB"/>
<path d="M272.335 36.4988L274.588 34.396L273.688 32.6227C274.377 31.8237 274.987 30.9649 275.518 30.0803L277.487 30.3778L278.762 27.5637L277.248 26.2755C277.575 25.2801 277.812 24.2589 277.962 23.2289L279.9 22.7431L280 19.6585L278.105 19.047C278.02 18.0034 277.86 16.9741 277.607 15.9536L279.201 14.766L278.115 11.8764L276.137 12.0326C275.668 11.1134 275.118 10.226 274.486 9.37133L275.511 7.66936L273.402 5.41163L271.633 6.31663C270.822 5.62701 269.974 5.01756 269.09 4.48693L269.376 2.51795L266.566 1.23724L265.278 2.75167C264.277 2.42963 263.255 2.19319 262.224 2.04303L261.744 0.111422L258.658 0L258.041 1.89968C257.003 1.97917 255.968 2.14495 254.952 2.40381L253.77 0.805119L250.874 1.88473L251.036 3.86866C250.116 4.33746 249.217 4.88779 248.373 5.52034L246.66 4.49508L244.408 6.59791L245.313 8.37733C244.618 9.18177 244.013 10.0351 243.483 10.9197L241.514 10.6222L240.238 13.437L241.752 14.7252C241.425 15.7206 241.188 16.7417 241.038 17.7718L239.1 18.2575L239 21.3428L240.895 21.9536C240.974 22.9918 241.14 24.0272 241.392 25.0477L239.793 26.2293L240.879 29.1189L242.864 28.968C243.332 29.8873 243.883 30.7739 244.516 31.63L243.491 33.332L245.6 35.5897L247.368 34.684C248.178 35.373 249.026 35.9831 249.911 36.5137L249.62 38.4766L252.429 39.7573L253.723 38.249C254.725 38.571 255.741 38.8014 256.776 38.957L257.257 40.8886L260.342 41L260.959 39.1003C261.998 39.0208 263.033 38.855 264.049 38.5962L265.231 40.1956L268.127 39.1159L267.965 37.132C268.884 36.6632 269.777 36.119 270.628 35.481L272.335 36.4988ZM256.286 23.5007C254.629 21.7267 254.724 18.9444 256.499 17.288C258.275 15.6295 261.058 15.7246 262.715 17.4993C264.372 19.2733 264.277 22.0555 262.5 23.714C260.726 25.3705 257.943 25.2747 256.286 23.5007Z" fill="#EBEBEB"/>
<path d="M190 129.094L182.963 124.234C182.961 124.229 182.961 124.223 182.959 124.217C182.263 121.661 181.303 119.2 180.129 116.887L181.932 109.812L171.725 98.8803L164.54 100.196C162.315 98.8681 159.927 97.7426 157.427 96.8736C157.421 96.8723 157.414 96.8709 157.409 96.8682L153.04 89.5124L138.094 89L133.235 96.0367C133.226 96.0387 133.216 96.0414 133.207 96.0435C130.653 96.7396 128.194 97.6977 125.885 98.8701L118.813 97.0676L107.882 107.275L109.195 114.446C109.193 114.449 109.192 114.449 109.191 114.452C107.835 116.702 106.736 119.091 105.867 121.593L98.5124 125.959L98 140.906L105.043 145.77C105.738 148.345 106.668 150.8 107.865 153.132C107.865 153.133 107.865 153.133 107.866 153.134L106.068 160.188L116.275 171.118L123.415 169.812C125.669 171.144 128.06 172.271 130.591 173.141C130.593 173.143 130.594 173.143 130.597 173.143L134.958 180.488L149.904 181L154.761 173.968C157.344 173.273 159.806 172.314 162.144 171.139C162.144 171.139 162.146 171.139 162.146 171.137L169.186 172.931L180.117 162.725L178.804 155.553C180.16 153.302 181.26 150.913 182.129 148.411L182.129 148.409L189.486 144.04L190 129.094ZM143.422 151.815C134.131 151.496 126.873 143.696 127.19 134.432C127.509 125.141 135.282 117.882 144.573 118.2C153.864 118.518 161.122 126.292 160.804 135.583C160.487 144.848 152.713 152.133 143.422 151.815Z" fill="#EBEBEB"/>
<path d="M206.131 86C206.115 86 206.098 86 206.082 85.9993L194.362 85.598C193.876 85.5817 193.431 85.3178 193.183 84.8995L190.027 79.5853C188.349 78.9768 186.696 78.2093 185.098 77.299L180.017 78.2283C179.538 78.319 179.048 78.1545 178.716 77.7978L170.712 69.2275C170.38 68.8715 170.252 68.3707 170.371 67.8989L171.649 62.8838C170.873 61.2954 170.223 59.5986 169.714 57.8281L164.617 54.3081C164.217 54.0319 163.985 53.5697 164.001 53.0837L164.402 41.3635C164.418 40.8769 164.682 40.4323 165.101 40.1839L170.424 37.0225C171.056 35.294 171.821 33.6487 172.705 32.1171L171.772 27.0187C171.684 26.5402 171.846 26.0488 172.202 25.7172L180.774 17.7127C181.13 17.3797 181.63 17.2524 182.102 17.3722L187.134 18.6548C188.762 17.8629 190.453 17.2105 192.176 16.7117L195.693 11.6187C195.969 11.2181 196.423 10.9704 196.918 11.0029L208.638 11.4049C209.124 11.4211 209.569 11.6844 209.817 12.1033L212.979 17.4271C214.659 18.0423 216.3 18.8077 217.871 19.7092L222.983 18.7725C223.463 18.6852 223.953 18.847 224.285 19.203L232.289 27.7754C232.621 28.1314 232.749 28.6322 232.629 29.1039L231.346 34.138C232.139 35.7664 232.79 37.457 233.29 39.1775L238.383 42.6941C238.783 42.9703 239.015 43.4325 238.999 43.9191L238.598 55.64C238.582 56.1266 238.318 56.5713 237.899 56.8197L232.574 59.9824C231.942 61.7102 231.178 63.3549 230.296 64.8844L231.229 69.9848C231.316 70.4633 231.155 70.9547 230.799 71.2863L222.227 79.2888C221.872 79.6218 221.372 79.7504 220.899 79.6293L215.89 78.3528C214.24 79.1501 212.539 79.8018 210.822 80.2952L207.309 85.3841C207.04 85.7699 206.6 86 206.131 86ZM195.241 82.7683L205.399 83.1168L208.763 78.2452C208.955 77.967 209.241 77.7653 209.568 77.6774C211.439 77.1745 213.295 76.4625 215.087 75.5617C215.09 75.5603 215.093 75.559 215.096 75.5569C215.395 75.4101 215.743 75.3647 216.083 75.4534L220.846 76.6669L228.275 69.7303L227.387 64.875C227.324 64.5325 227.389 64.1792 227.568 63.8801C228.548 62.2537 229.379 60.4697 230.038 58.578C230.147 58.2423 230.376 57.9601 230.675 57.7841L235.767 54.7602L236.115 44.6013L231.24 41.2343C230.985 41.0583 230.794 40.8038 230.696 40.5108C230.683 40.4742 230.673 40.4356 230.663 40.3964C230.154 38.5298 229.444 36.6956 228.556 34.9447C228.399 34.6354 228.36 34.2801 228.445 33.9444L229.666 29.154L222.729 21.7234L217.863 22.6141C217.522 22.677 217.171 22.6127 216.874 22.4354C215.182 21.4256 213.395 20.5911 211.564 19.9542C211.46 19.9184 211.355 19.8703 211.265 19.8155C211.067 19.6937 210.903 19.5265 210.785 19.3275L207.759 14.2319L197.601 13.8833L194.234 18.759C194.033 19.0494 193.734 19.2538 193.392 19.3356C191.513 19.8507 189.685 20.5573 187.942 21.4419C187.632 21.5989 187.276 21.6381 186.942 21.5522L182.154 20.3312L174.725 27.2691L175.613 32.1238C175.669 32.4284 175.624 32.7431 175.486 33.0199C175.466 33.0592 175.445 33.0971 175.422 33.135C174.44 34.7674 173.607 36.5569 172.949 38.454C172.838 38.7721 172.618 39.0414 172.329 39.2133L167.234 42.2393L166.886 52.3974L171.766 55.7679C172.044 55.9595 172.245 56.2444 172.333 56.5706C172.859 58.5171 173.567 60.3654 174.438 62.0642C174.488 62.1617 174.528 62.2645 174.554 62.3715C174.611 62.6009 174.611 62.8412 174.553 63.0706L173.336 67.8448L180.273 75.2734L185.104 74.3895C185.443 74.3279 185.792 74.3908 186.088 74.5654C187.81 75.584 189.606 76.4178 191.426 77.0459C191.755 77.1501 192.04 77.3728 192.221 77.678L195.241 82.7683ZM201.515 69.9327C201.265 69.9327 201.015 69.928 200.763 69.9192C188.956 69.5145 179.679 59.5797 180.084 47.7722C180.489 35.9653 190.44 26.6911 202.231 27.0918C214.038 27.4965 223.315 37.4313 222.91 49.2395C222.714 54.9517 220.304 60.2504 216.124 64.1576C212.124 67.8976 206.961 69.9327 201.515 69.9327ZM201.49 29.9377C191.542 29.9377 183.284 37.853 182.941 47.8703C182.59 58.1022 190.629 66.7118 200.861 67.0624C205.82 67.2282 210.547 65.4597 214.173 62.0696C217.796 58.6829 219.885 54.0915 220.054 49.1413C220.404 38.9094 212.365 30.2992 202.133 29.9486C201.918 29.9418 201.703 29.9377 201.49 29.9377Z" fill="#EBEBEB"/>
<path d="M88.5261 80.7516L97.799 78.2669L102.039 94.0927L92.7666 96.5773L96.7089 111.29L79.5232 115.895L75.5809 101.182L34.6565 112.148L30.416 96.3222L44.2164 32.5949L62.5149 27.6918L48.8382 91.386L71.3404 85.3565L65.841 64.8325L83.0267 60.2276L88.5261 80.7516Z" fill="#FF5900"/>
<path d="M144.986 110.835C133.808 110.835 125.018 106.611 118.618 98.1635C112.304 89.5448 109.146 78.2381 109.146 64.2435C109.146 50.2488 112.304 38.9848 118.618 30.4515C125.018 21.9181 133.808 17.6515 144.986 17.6515C156.336 17.6515 165.125 21.9181 171.354 30.4515C177.669 38.9848 180.826 50.2488 180.826 64.2435C180.826 78.2381 177.669 89.5448 171.354 98.1635C165.125 106.611 156.336 110.835 144.986 110.835ZM163.29 64.2435C163.29 54.6861 161.712 47.3901 158.554 42.3555C155.482 37.3208 150.96 34.8035 144.986 34.8035C139.013 34.8035 134.49 37.3208 131.418 42.3555C128.346 47.3901 126.81 54.6861 126.81 64.2435C126.81 73.8008 128.346 81.0968 131.418 86.1315C134.49 91.0808 139.013 93.5555 144.986 93.5555C150.96 93.5555 155.482 91.0381 158.554 86.0035C161.712 80.9688 163.29 73.7155 163.29 64.2435Z" fill="#FF5900"/>
<path d="M250.774 93.8727L260.047 96.3574L255.807 112.183L246.534 109.698L242.592 124.411L225.406 119.807L229.348 105.094L188.424 94.1279L192.664 78.3022L236.479 30.0129L254.778 34.916L211.086 83.2384L233.589 89.2678L239.088 68.7438L256.274 73.3487L250.774 93.8727Z" fill="#FF5900"/>
</g>
<defs>
<clipPath id="clip0_195_9831">
<rect width="280" height="181" fill="white"/>
</clipPath>
</defs>
</svg>
