<svg width="64" height="64" viewBox="0 0 64 64" fill="none" xmlns="http://www.w3.org/2000/svg">
<rect width="64" height="64" rx="32" fill="#FF5900"/>
<g clip-path="url(#clip0_432_16495)">
<path d="M48 37.3333V48H37.3333C33.3933 48 29.9533 45.8467 28.1067 42.6613C29.132 42.6533 30.1307 42.54 31.096 42.3307C32.564 44.1587 34.812 45.3333 37.3333 45.3333H45.3333V37.3333C45.3333 34.812 44.1587 32.564 42.3307 31.096C42.5387 30.1307 42.6533 29.132 42.6613 28.1067C45.8467 29.9533 48 33.3933 48 37.3333ZM32.0827 39.2693C30.8067 39.7333 29.436 40 28 40H16V28C16 21.3827 21.3827 16 28 16C34.6173 16 40 21.3827 40 28C40 32.176 37.8533 35.856 34.6093 38.0053L36.652 39.9853L41.7347 35.0467L43.5987 36.9533L38.5413 41.896C38.028 42.4093 37.3493 42.6667 36.6707 42.6667C35.9867 42.6667 35.3027 42.4067 34.7813 41.8853L32.0827 39.2693ZM28 37.3333C33.1453 37.3333 37.3333 33.1453 37.3333 28C37.3333 22.8547 33.1453 18.6667 28 18.6667C22.8547 18.6667 18.6667 22.8547 18.6667 28V37.3333H28ZM28.7147 21.3973C27.5333 21.1827 26.3373 21.5053 25.4293 22.268C24.52 23.0307 24 24.148 24 25.3333H26.6667C26.6667 24.9373 26.8413 24.5653 27.144 24.3107C27.4493 24.052 27.84 23.9467 28.2533 24.0227C28.7747 24.1133 29.2187 24.5573 29.3107 25.0813C29.4347 25.788 29.0267 26.288 28.6413 26.5013C27.5147 27.1213 26.6667 28.628 26.6667 30.0053V30.6653H29.3333V30.0053C29.3333 29.5893 29.68 28.9747 29.9293 28.8373C31.4293 28.0093 32.2347 26.3133 31.9373 24.62C31.6547 23.004 30.328 21.6787 28.7147 21.3973ZM26.6667 34.6667H29.3333V32H26.6667V34.6667Z" fill="white"/>
</g>
<defs>
<clipPath id="clip0_432_16495">
<rect width="32" height="32" fill="white" transform="translate(16 16)"/>
</clipPath>
</defs>
</svg>
