<svg width="294" height="265" viewBox="0 0 294 265" fill="none" xmlns="http://www.w3.org/2000/svg">
<path d="M141.667 45.3332L131 34.6665L134.76 30.9065L141.667 37.7865L159.24 20.2132L163 23.9998M147 2.6665L123 13.3332V29.3332C123 44.1332 133.24 57.9732 147 61.3332C160.76 57.9732 171 44.1332 171 29.3332V13.3332L147 2.6665Z" fill="#FF5900"/>
<path d="M46.9004 82.6H63.3804V86.824H57.3324V105H52.9164V86.824H46.9004V82.6ZM74.5496 88.552C76.3203 88.552 77.7603 89.1387 78.8696 90.312C80.0216 91.5067 80.5976 93.128 80.5976 95.176V105H76.4696V95.688C76.4696 94.6427 76.1816 93.832 75.6056 93.256C75.051 92.68 74.283 92.392 73.3016 92.392C72.2136 92.392 71.3496 92.7333 70.7096 93.416C70.091 94.0773 69.7816 95.0587 69.7816 96.36V105H65.6536V82.6H69.7816V90.792C70.763 89.2987 72.3523 88.552 74.5496 88.552ZM96.2824 90.888V89H100.41V105H96.2824V103.112C95.045 104.669 93.3064 105.448 91.0664 105.448C88.933 105.448 87.0984 104.637 85.5624 103.016C84.0477 101.373 83.2904 99.368 83.2904 97C83.2904 94.6533 84.0477 92.6587 85.5624 91.016C87.0984 89.3733 88.933 88.552 91.0664 88.552C93.3064 88.552 95.045 89.3307 96.2824 90.888ZM88.6664 100.264C89.4984 101.096 90.5544 101.512 91.8344 101.512C93.1144 101.512 94.1704 101.096 95.0024 100.264C95.8557 99.4107 96.2824 98.3227 96.2824 97C96.2824 95.6773 95.8557 94.6 95.0024 93.768C94.1704 92.9147 93.1144 92.488 91.8344 92.488C90.5544 92.488 89.4984 92.9147 88.6664 93.768C87.8344 94.6 87.4184 95.6773 87.4184 97C87.4184 98.3227 87.8344 99.4107 88.6664 100.264ZM113.05 88.552C114.82 88.552 116.26 89.1387 117.37 90.312C118.522 91.5067 119.098 93.128 119.098 95.176V105H114.97V95.688C114.97 94.6427 114.682 93.832 114.106 93.256C113.551 92.68 112.783 92.392 111.802 92.392C110.714 92.392 109.85 92.7333 109.21 93.416C108.591 94.0773 108.282 95.0587 108.282 96.36V105H104.154V89H108.282V90.792C109.263 89.2987 110.852 88.552 113.05 88.552ZM130.75 96.904L137.374 105H132.574L126.75 97.736V105H122.622V82.6H126.75V96.04L132.254 89H137.182L130.75 96.904ZM154.315 99.752L157.867 89H162.283L156.459 105C155.627 107.304 154.518 108.968 153.131 109.992C151.766 111.037 150.059 111.507 148.011 111.4V107.56C149.099 107.581 149.974 107.347 150.635 106.856C151.296 106.365 151.819 105.576 152.203 104.488L145.643 89H150.155L154.315 99.752ZM177.254 103.016C175.633 104.637 173.628 105.448 171.238 105.448C168.849 105.448 166.844 104.637 165.222 103.016C163.601 101.395 162.79 99.3893 162.79 97C162.79 94.632 163.601 92.6373 165.222 91.016C166.865 89.3733 168.87 88.552 171.238 88.552C173.606 88.552 175.612 89.3733 177.254 91.016C178.897 92.6587 179.718 94.6533 179.718 97C179.718 99.368 178.897 101.373 177.254 103.016ZM168.134 100.168C168.966 101 170.001 101.416 171.238 101.416C172.476 101.416 173.51 101 174.342 100.168C175.174 99.336 175.59 98.28 175.59 97C175.59 95.72 175.174 94.664 174.342 93.832C173.51 93 172.476 92.584 171.238 92.584C170.001 92.584 168.966 93 168.134 93.832C167.324 94.6853 166.918 95.7413 166.918 97C166.918 98.2587 167.324 99.3147 168.134 100.168ZM193.182 97.64V89H197.31V105H193.182V103.208C192.201 104.701 190.612 105.448 188.414 105.448C186.665 105.448 185.214 104.861 184.062 103.688C182.932 102.493 182.366 100.872 182.366 98.824V89H186.494V98.312C186.494 99.3573 186.772 100.168 187.326 100.744C187.902 101.32 188.681 101.608 189.662 101.608C190.75 101.608 191.604 101.277 192.222 100.616C192.862 99.9333 193.182 98.9413 193.182 97.64ZM217.699 82.152V86.12C215.438 85.9707 214.307 86.8773 214.307 88.84V89H217.699V92.968H214.307V105H210.179V92.968H207.875V89H210.179V88.84C210.179 86.5573 210.808 84.84 212.067 83.688C213.347 82.5147 215.224 82.0027 217.699 82.152ZM232.629 103.016C231.008 104.637 229.003 105.448 226.613 105.448C224.224 105.448 222.219 104.637 220.597 103.016C218.976 101.395 218.165 99.3893 218.165 97C218.165 94.632 218.976 92.6373 220.597 91.016C222.24 89.3733 224.245 88.552 226.613 88.552C228.981 88.552 230.987 89.3733 232.629 91.016C234.272 92.6587 235.093 94.6533 235.093 97C235.093 99.368 234.272 101.373 232.629 103.016ZM223.509 100.168C224.341 101 225.376 101.416 226.613 101.416C227.851 101.416 228.885 101 229.717 100.168C230.549 99.336 230.965 98.28 230.965 97C230.965 95.72 230.549 94.664 229.717 93.832C228.885 93 227.851 92.584 226.613 92.584C225.376 92.584 224.341 93 223.509 93.832C222.699 94.6853 222.293 95.7413 222.293 97C222.293 98.2587 222.699 99.3147 223.509 100.168ZM242.125 89V91.752C242.488 90.7493 243.107 89.992 243.981 89.48C244.856 88.9467 245.859 88.68 246.989 88.68V93.288C245.731 93.1173 244.6 93.3733 243.597 94.056C242.616 94.7173 242.125 95.816 242.125 97.352V105H237.997V89H242.125ZM35.2348 129V131.752C35.5974 130.749 36.2161 129.992 37.0908 129.48C37.9654 128.947 38.9681 128.68 40.0988 128.68V133.288C38.8401 133.117 37.7094 133.373 36.7068 134.056C35.7254 134.717 35.2348 135.816 35.2348 137.352V145H31.1068V129H35.2348ZM57.4713 138.696H45.4073C45.9406 140.701 47.4446 141.704 49.9193 141.704C51.4979 141.704 52.6926 141.171 53.5033 140.104L56.8313 142.024C55.2526 144.307 52.9273 145.448 49.8553 145.448C47.2099 145.448 45.0873 144.648 43.4873 143.048C41.8873 141.448 41.0872 139.432 41.0872 137C41.0872 134.611 41.8766 132.605 43.4553 130.984C45.0126 129.363 47.0393 128.552 49.5353 128.552C51.9033 128.552 53.8339 129.363 55.3273 130.984C56.8633 132.605 57.6313 134.611 57.6313 137C57.6313 137.448 57.5779 138.013 57.4713 138.696ZM45.3433 135.496H53.5033C53.2686 134.451 52.7886 133.651 52.0633 133.096C51.3593 132.541 50.5166 132.264 49.5353 132.264C48.4259 132.264 47.5086 132.552 46.7833 133.128C46.0579 133.683 45.5779 134.472 45.3433 135.496ZM72.548 130.888V129H76.676V145H72.548V143.112C71.3107 144.669 69.572 145.448 67.332 145.448C65.1987 145.448 63.364 144.637 61.828 143.016C60.3133 141.373 59.556 139.368 59.556 137C59.556 134.653 60.3133 132.659 61.828 131.016C63.364 129.373 65.1987 128.552 67.332 128.552C69.572 128.552 71.3107 129.331 72.548 130.888ZM64.932 140.264C65.764 141.096 66.82 141.512 68.1 141.512C69.38 141.512 70.436 141.096 71.268 140.264C72.1213 139.411 72.548 138.323 72.548 137C72.548 135.677 72.1213 134.6 71.268 133.768C70.436 132.915 69.38 132.488 68.1 132.488C66.82 132.488 65.764 132.915 64.932 133.768C64.1 134.6 63.684 135.677 63.684 137C63.684 138.323 64.1 139.411 64.932 140.264ZM88.0353 145.448C85.6246 145.448 83.6086 144.637 81.9873 143.016C80.3873 141.395 79.5872 139.389 79.5872 137C79.5872 134.611 80.3873 132.605 81.9873 130.984C83.6086 129.363 85.6246 128.552 88.0353 128.552C89.5926 128.552 91.0113 128.925 92.2913 129.672C93.5713 130.419 94.5419 131.421 95.2033 132.68L91.6513 134.76C91.3313 134.099 90.8406 133.576 90.1793 133.192C89.5393 132.808 88.8139 132.616 88.0033 132.616C86.7659 132.616 85.7419 133.032 84.9313 133.864C84.1206 134.675 83.7153 135.72 83.7153 137C83.7153 138.237 84.1206 139.283 84.9313 140.136C85.7419 140.947 86.7659 141.352 88.0033 141.352C88.8353 141.352 89.5713 141.171 90.2113 140.808C90.8726 140.424 91.3633 139.901 91.6833 139.24L95.2673 141.288C94.5633 142.568 93.5606 143.581 92.2593 144.328C90.9793 145.075 89.5713 145.448 88.0353 145.448ZM106.347 128.552C108.117 128.552 109.557 129.139 110.667 130.312C111.819 131.507 112.395 133.128 112.395 135.176V145H108.267V135.688C108.267 134.643 107.979 133.832 107.403 133.256C106.848 132.68 106.08 132.392 105.099 132.392C104.011 132.392 103.147 132.733 102.507 133.416C101.888 134.077 101.579 135.059 101.579 136.36V145H97.4505V122.6H101.579V130.792C102.56 129.299 104.149 128.552 106.347 128.552ZM117.967 127.08C117.285 127.08 116.687 126.835 116.175 126.344C115.685 125.832 115.439 125.235 115.439 124.552C115.439 123.869 115.685 123.272 116.175 122.76C116.687 122.248 117.285 121.992 117.967 121.992C118.671 121.992 119.269 122.248 119.759 122.76C120.271 123.272 120.527 123.869 120.527 124.552C120.527 125.235 120.271 125.832 119.759 126.344C119.269 126.835 118.671 127.08 117.967 127.08ZM120.047 145H115.919V129H120.047V145ZM132.722 128.552C134.492 128.552 135.932 129.139 137.042 130.312C138.194 131.507 138.77 133.128 138.77 135.176V145H134.642V135.688C134.642 134.643 134.354 133.832 133.778 133.256C133.223 132.68 132.455 132.392 131.474 132.392C130.386 132.392 129.522 132.733 128.882 133.416C128.263 134.077 127.954 135.059 127.954 136.36V145H123.826V129H127.954V130.792C128.935 129.299 130.524 128.552 132.722 128.552ZM154.55 130.984V129H158.582V144.232C158.582 146.685 157.761 148.573 156.118 149.896C154.497 151.197 152.534 151.848 150.23 151.848C146.604 151.848 144.076 150.547 142.646 147.944L146.166 145.928C146.956 147.421 148.353 148.168 150.358 148.168C151.66 148.168 152.684 147.827 153.43 147.144C154.177 146.461 154.55 145.491 154.55 144.232V142.504C153.334 144.125 151.628 144.936 149.43 144.936C147.169 144.936 145.27 144.147 143.734 142.568C142.22 140.947 141.462 139.005 141.462 136.744C141.462 134.483 142.23 132.552 143.766 130.952C145.302 129.352 147.19 128.552 149.43 128.552C151.628 128.552 153.334 129.363 154.55 130.984ZM153.27 139.912C154.124 139.08 154.55 138.024 154.55 136.744C154.55 135.464 154.124 134.429 153.27 133.64C152.438 132.808 151.372 132.392 150.07 132.392C148.79 132.392 147.713 132.808 146.838 133.64C146.006 134.429 145.59 135.464 145.59 136.744C145.59 138.024 146.006 139.08 146.838 139.912C147.692 140.723 148.769 141.128 150.07 141.128C151.372 141.128 152.438 140.723 153.27 139.912ZM183.958 143.016C182.336 144.637 180.331 145.448 177.942 145.448C175.552 145.448 173.547 144.637 171.926 143.016C170.304 141.395 169.493 139.389 169.493 137C169.493 134.632 170.304 132.637 171.926 131.016C173.568 129.373 175.574 128.552 177.942 128.552C180.31 128.552 182.315 129.373 183.958 131.016C185.6 132.659 186.422 134.653 186.422 137C186.422 139.368 185.6 141.373 183.958 143.016ZM174.838 140.168C175.67 141 176.704 141.416 177.942 141.416C179.179 141.416 180.214 141 181.046 140.168C181.878 139.336 182.294 138.28 182.294 137C182.294 135.72 181.878 134.664 181.046 133.832C180.214 133 179.179 132.584 177.942 132.584C176.704 132.584 175.67 133 174.838 133.832C174.027 134.685 173.622 135.741 173.622 137C173.622 138.259 174.027 139.315 174.838 140.168ZM199.886 137.64V129H204.014V145H199.886V143.208C198.904 144.701 197.315 145.448 195.118 145.448C193.368 145.448 191.918 144.861 190.766 143.688C189.635 142.493 189.07 140.872 189.07 138.824V129H193.198V138.312C193.198 139.357 193.475 140.168 194.03 140.744C194.606 141.32 195.384 141.608 196.366 141.608C197.454 141.608 198.307 141.277 198.926 140.616C199.566 139.933 199.886 138.941 199.886 137.64ZM216.946 129V132.968H213.33V139.624C213.33 140.179 213.469 140.584 213.746 140.84C214.024 141.096 214.429 141.245 214.962 141.288C215.496 141.309 216.157 141.299 216.946 141.256V145C214.152 145.32 212.157 145.064 210.962 144.232C209.789 143.379 209.202 141.843 209.202 139.624V132.968H206.418V129H209.202V125.768L213.33 124.52V129H216.946ZM237.259 129V132.968H233.643V139.624C233.643 140.179 233.781 140.584 234.059 140.84C234.336 141.096 234.741 141.245 235.275 141.288C235.808 141.309 236.469 141.299 237.259 141.256V145C234.464 145.32 232.469 145.064 231.275 144.232C230.101 143.379 229.515 141.843 229.515 139.624V132.968H226.731V129H229.515V125.768L233.643 124.52V129H237.259ZM253.301 143.016C251.68 144.637 249.675 145.448 247.285 145.448C244.896 145.448 242.891 144.637 241.269 143.016C239.648 141.395 238.837 139.389 238.837 137C238.837 134.632 239.648 132.637 241.269 131.016C242.912 129.373 244.917 128.552 247.285 128.552C249.653 128.552 251.659 129.373 253.301 131.016C254.944 132.659 255.765 134.653 255.765 137C255.765 139.368 254.944 141.373 253.301 143.016ZM244.181 140.168C245.013 141 246.048 141.416 247.285 141.416C248.523 141.416 249.557 141 250.389 140.168C251.221 139.336 251.637 138.28 251.637 137C251.637 135.72 251.221 134.664 250.389 133.832C249.557 133 248.523 132.584 247.285 132.584C246.048 132.584 245.013 133 244.181 133.832C243.371 134.685 242.965 135.741 242.965 137C242.965 138.259 243.371 139.315 244.181 140.168ZM43.8369 176.264V162.6H48.2529V185H44.8929L35.2929 171.304V185H30.8769V162.6H34.2369L43.8369 176.264ZM67.7681 178.696H55.7041C56.2375 180.701 57.7415 181.704 60.2161 181.704C61.7948 181.704 62.9895 181.171 63.8001 180.104L67.1281 182.024C65.5495 184.307 63.2241 185.448 60.1521 185.448C57.5068 185.448 55.3841 184.648 53.7841 183.048C52.1841 181.448 51.3841 179.432 51.3841 177C51.3841 174.611 52.1735 172.605 53.7521 170.984C55.3095 169.363 57.3361 168.552 59.8321 168.552C62.2001 168.552 64.1308 169.363 65.6241 170.984C67.1601 172.605 67.9281 174.611 67.9281 177C67.9281 177.448 67.8748 178.013 67.7681 178.696ZM55.6401 175.496H63.8001C63.5655 174.451 63.0855 173.651 62.3601 173.096C61.6561 172.541 60.8135 172.264 59.8321 172.264C58.7228 172.264 57.8055 172.552 57.0801 173.128C56.3548 173.683 55.8748 174.472 55.6401 175.496ZM84.3169 183.016C82.6955 184.637 80.6902 185.448 78.3009 185.448C75.9115 185.448 73.9062 184.637 72.2849 183.016C70.6635 181.395 69.8529 179.389 69.8529 177C69.8529 174.632 70.6635 172.637 72.2849 171.016C73.9275 169.373 75.9329 168.552 78.3009 168.552C80.6689 168.552 82.6742 169.373 84.3169 171.016C85.9595 172.659 86.7809 174.653 86.7809 177C86.7809 179.368 85.9595 181.373 84.3169 183.016ZM75.1969 180.168C76.0289 181 77.0635 181.416 78.3009 181.416C79.5382 181.416 80.5729 181 81.4049 180.168C82.2369 179.336 82.6529 178.28 82.6529 177C82.6529 175.72 82.2369 174.664 81.4049 173.832C80.5729 173 79.5382 172.584 78.3009 172.584C77.0635 172.584 76.0289 173 75.1969 173.832C74.3862 174.685 73.9809 175.741 73.9809 177C73.9809 178.259 74.3862 179.315 75.1969 180.168ZM98.5809 168.552C100.352 168.552 101.792 169.139 102.901 170.312C104.053 171.507 104.629 173.128 104.629 175.176V185H100.501V175.688C100.501 174.643 100.213 173.832 99.6369 173.256C99.0822 172.68 98.3142 172.392 97.3329 172.392C96.2449 172.392 95.3809 172.733 94.7409 173.416C94.1222 174.077 93.8129 175.059 93.8129 176.36V185H89.6849V169H93.8129V170.792C94.7942 169.299 96.3835 168.552 98.5809 168.552ZM129.082 171.496V162.6H133.466V185H129.082V175.72H120.762V185H116.346V162.6H120.762V171.496H129.082ZM154.683 185H149.915L145.403 177.224H142.043V185H137.627V162.6H146.587C148.656 162.6 150.416 163.325 151.867 164.776C153.318 166.227 154.043 167.976 154.043 170.024C154.043 171.411 153.648 172.701 152.859 173.896C152.07 175.069 151.024 175.955 149.723 176.552L154.683 185ZM146.587 166.728H142.043V173.352H146.587C147.419 173.352 148.134 173.032 148.731 172.392C149.328 171.731 149.627 170.941 149.627 170.024C149.627 169.107 149.328 168.328 148.731 167.688C148.134 167.048 147.419 166.728 146.587 166.728ZM176.035 172.968H187.267V174.696C187.267 177.896 186.243 180.488 184.195 182.472C182.147 184.456 179.502 185.448 176.259 185.448C172.803 185.448 169.934 184.328 167.651 182.088C165.39 179.827 164.259 177.075 164.259 173.832C164.259 170.568 165.379 167.805 167.619 165.544C169.88 163.283 172.675 162.152 176.003 162.152C178.072 162.152 179.971 162.621 181.699 163.56C183.427 164.499 184.782 165.768 185.763 167.368L181.987 169.544C181.454 168.627 180.643 167.88 179.555 167.304C178.467 166.728 177.272 166.44 175.971 166.44C173.816 166.44 172.056 167.144 170.691 168.552C169.326 169.917 168.643 171.677 168.643 173.832C168.643 175.944 169.336 177.693 170.723 179.08C172.11 180.445 173.966 181.128 176.291 181.128C177.976 181.128 179.384 180.755 180.515 180.008C181.646 179.261 182.414 178.216 182.819 176.872H176.035V172.968ZM194.344 169V171.752C194.707 170.749 195.325 169.992 196.2 169.48C197.075 168.947 198.077 168.68 199.208 168.68V173.288C197.949 173.117 196.819 173.373 195.816 174.056C194.835 174.717 194.344 175.816 194.344 177.352V185H190.216V169H194.344ZM214.661 183.016C213.039 184.637 211.034 185.448 208.645 185.448C206.255 185.448 204.25 184.637 202.629 183.016C201.007 181.395 200.197 179.389 200.197 177C200.197 174.632 201.007 172.637 202.629 171.016C204.271 169.373 206.277 168.552 208.645 168.552C211.013 168.552 213.018 169.373 214.661 171.016C216.303 172.659 217.125 174.653 217.125 177C217.125 179.368 216.303 181.373 214.661 183.016ZM205.541 180.168C206.373 181 207.407 181.416 208.645 181.416C209.882 181.416 210.917 181 211.749 180.168C212.581 179.336 212.997 178.28 212.997 177C212.997 175.72 212.581 174.664 211.749 173.832C210.917 173 209.882 172.584 208.645 172.584C207.407 172.584 206.373 173 205.541 173.832C204.73 174.685 204.325 175.741 204.325 177C204.325 178.259 204.73 179.315 205.541 180.168ZM230.589 177.64V169H234.717V185H230.589V183.208C229.607 184.701 228.018 185.448 225.821 185.448C224.071 185.448 222.621 184.861 221.469 183.688C220.338 182.493 219.773 180.872 219.773 178.824V169H223.901V178.312C223.901 179.357 224.178 180.168 224.733 180.744C225.309 181.32 226.087 181.608 227.069 181.608C228.157 181.608 229.01 181.277 229.629 180.616C230.269 179.933 230.589 178.941 230.589 177.64ZM247.809 168.552C249.964 168.552 251.799 169.373 253.313 171.016C254.849 172.659 255.617 174.653 255.617 177C255.617 179.389 254.849 181.395 253.313 183.016C251.82 184.637 249.985 185.448 247.809 185.448C245.569 185.448 243.841 184.669 242.625 183.112V191.4H238.497V169H242.625V170.888C243.841 169.331 245.569 168.552 247.809 168.552ZM243.873 180.264C244.705 181.096 245.761 181.512 247.041 181.512C248.321 181.512 249.377 181.096 250.209 180.264C251.063 179.411 251.489 178.323 251.489 177C251.489 175.677 251.063 174.6 250.209 173.768C249.377 172.915 248.321 172.488 247.041 172.488C245.761 172.488 244.705 172.915 243.873 173.768C243.041 174.6 242.625 175.677 242.625 177C242.625 178.323 243.041 179.411 243.873 180.264ZM262.561 177.48H259.297L258.433 169V162.6H263.393V169L262.561 177.48ZM263.649 182.696C263.649 183.443 263.382 184.083 262.849 184.616C262.315 185.149 261.675 185.416 260.929 185.416C260.182 185.416 259.542 185.149 259.009 184.616C258.475 184.083 258.209 183.443 258.209 182.696C258.209 181.949 258.475 181.309 259.009 180.776C259.542 180.243 260.182 179.976 260.929 179.976C261.675 179.976 262.315 180.243 262.849 180.776C263.382 181.309 263.649 181.949 263.649 182.696Z" fill="#020513"/>
<path d="M29.0882 210.8H30.3522L26.3042 217.408V222H25.1842V217.376L21.1522 210.8H22.4162L25.7602 216.288L29.0882 210.8ZM36.7381 220.992C35.9167 221.792 34.9247 222.192 33.7621 222.192C32.5781 222.192 31.5807 221.792 30.7701 220.992C29.9594 220.181 29.5541 219.184 29.5541 218C29.5541 216.816 29.9594 215.824 30.7701 215.024C31.5807 214.213 32.5781 213.808 33.7621 213.808C34.9354 213.808 35.9274 214.213 36.7381 215.024C37.5594 215.824 37.9701 216.816 37.9701 218C37.9701 219.173 37.5594 220.171 36.7381 220.992ZM31.5221 220.256C32.1301 220.864 32.8767 221.168 33.7621 221.168C34.6474 221.168 35.3941 220.864 36.0021 220.256C36.6101 219.627 36.9141 218.875 36.9141 218C36.9141 217.115 36.6101 216.368 36.0021 215.76C35.3941 215.141 34.6474 214.832 33.7621 214.832C32.8767 214.832 32.1301 215.141 31.5221 215.76C30.9141 216.368 30.6101 217.115 30.6101 218C30.6101 218.875 30.9141 219.627 31.5221 220.256ZM45.3692 218.192V214H46.4252V222H45.3692V220.752C44.7719 221.712 43.8759 222.192 42.6812 222.192C41.7212 222.192 40.9585 221.899 40.3932 221.312C39.8279 220.715 39.5452 219.915 39.5452 218.912V214H40.6012V218.912C40.6012 219.627 40.7879 220.181 41.1612 220.576C41.5452 220.971 42.0839 221.168 42.7772 221.168C43.5772 221.168 44.2065 220.917 44.6652 220.416C45.1345 219.915 45.3692 219.173 45.3692 218.192ZM49.7151 214V215.328C50.2057 214.357 51.0484 213.872 52.2431 213.872V214.896C51.4751 214.896 50.8617 215.12 50.4031 215.568C49.9444 216.005 49.7151 216.667 49.7151 217.552V222H48.6591V214H49.7151ZM58.7463 214V215.328C59.237 214.357 60.0796 213.872 61.2743 213.872V214.896C60.5063 214.896 59.893 215.12 59.4343 215.568C58.9756 216.005 58.7463 216.667 58.7463 217.552V222H57.6903V214H58.7463ZM65.9332 213.808C67.1279 213.808 68.0825 214.229 68.7972 215.072C69.5332 215.904 69.9012 216.891 69.9012 218.032C69.9012 218.085 69.8905 218.251 69.8692 218.528H62.8452C62.9519 219.328 63.2932 219.968 63.8692 220.448C64.4452 220.928 65.1652 221.168 66.0292 221.168C67.2452 221.168 68.1039 220.715 68.6052 219.808L69.5332 220.352C69.1812 220.928 68.6959 221.381 68.0772 221.712C67.4692 222.032 66.7812 222.192 66.0132 222.192C64.7545 222.192 63.7305 221.797 62.9412 221.008C62.1519 220.219 61.7572 219.216 61.7572 218C61.7572 216.795 62.1465 215.797 62.9252 215.008C63.7039 214.208 64.7065 213.808 65.9332 213.808ZM65.9332 214.832C65.1012 214.832 64.4025 215.077 63.8372 215.568C63.2825 216.059 62.9519 216.704 62.8452 217.504H68.8132C68.6959 216.651 68.3705 215.995 67.8372 215.536C67.2825 215.067 66.6479 214.832 65.9332 214.832ZM78.4609 215.568V214H79.5169V225.2H78.4609V220.432C77.7249 221.605 76.6476 222.192 75.2289 222.192C74.0876 222.192 73.1116 221.787 72.3009 220.976C71.5009 220.165 71.1009 219.173 71.1009 218C71.1009 216.827 71.5009 215.835 72.3009 215.024C73.1116 214.213 74.0876 213.808 75.2289 213.808C76.6476 213.808 77.7249 214.395 78.4609 215.568ZM73.0689 220.256C73.6769 220.864 74.4236 221.168 75.3089 221.168C76.1943 221.168 76.9409 220.864 77.5489 220.256C78.1569 219.627 78.4609 218.875 78.4609 218C78.4609 217.115 78.1569 216.368 77.5489 215.76C76.9409 215.141 76.1943 214.832 75.3089 214.832C74.4236 214.832 73.6769 215.141 73.0689 215.76C72.4609 216.368 72.1569 217.115 72.1569 218C72.1569 218.875 72.4609 219.627 73.0689 220.256ZM87.3848 218.192V214H88.4408V222H87.3848V220.752C86.7875 221.712 85.8915 222.192 84.6968 222.192C83.7368 222.192 82.9741 221.899 82.4088 221.312C81.8435 220.715 81.5608 219.915 81.5608 218.912V214H82.6168V218.912C82.6168 219.627 82.8035 220.181 83.1768 220.576C83.5608 220.971 84.0995 221.168 84.7928 221.168C85.5928 221.168 86.2221 220.917 86.6808 220.416C87.1501 219.915 87.3848 219.173 87.3848 218.192ZM94.3707 213.808C95.5654 213.808 96.52 214.229 97.2347 215.072C97.9707 215.904 98.3387 216.891 98.3387 218.032C98.3387 218.085 98.328 218.251 98.3067 218.528H91.2827C91.3894 219.328 91.7307 219.968 92.3067 220.448C92.8827 220.928 93.6027 221.168 94.4667 221.168C95.6827 221.168 96.5414 220.715 97.0427 219.808L97.9707 220.352C97.6187 220.928 97.1334 221.381 96.5147 221.712C95.9067 222.032 95.2187 222.192 94.4507 222.192C93.192 222.192 92.168 221.797 91.3787 221.008C90.5894 220.219 90.1947 219.216 90.1947 218C90.1947 216.795 90.584 215.797 91.3627 215.008C92.1414 214.208 93.144 213.808 94.3707 213.808ZM94.3707 214.832C93.5387 214.832 92.84 215.077 92.2747 215.568C91.72 216.059 91.3894 216.704 91.2827 217.504H97.2507C97.1334 216.651 96.808 215.995 96.2747 215.536C95.72 215.067 95.0854 214.832 94.3707 214.832ZM100.538 216.096C100.538 216.715 101.087 217.168 102.186 217.456C102.495 217.531 102.698 217.584 102.794 217.616C102.89 217.637 103.077 217.696 103.354 217.792C103.642 217.877 103.839 217.952 103.946 218.016C104.063 218.08 104.223 218.181 104.426 218.32C104.629 218.448 104.773 218.581 104.858 218.72C104.943 218.848 105.023 219.019 105.098 219.232C105.173 219.435 105.21 219.653 105.21 219.888C105.21 220.571 104.938 221.125 104.394 221.552C103.871 221.979 103.178 222.192 102.314 222.192C101.567 222.192 100.922 222.027 100.378 221.696C99.8339 221.355 99.4499 220.907 99.2259 220.352L100.122 219.824C100.271 220.24 100.538 220.571 100.922 220.816C101.317 221.051 101.781 221.168 102.314 221.168C102.858 221.168 103.301 221.061 103.642 220.848C103.983 220.635 104.154 220.315 104.154 219.888C104.154 219.269 103.605 218.816 102.506 218.528C102.197 218.453 101.994 218.405 101.898 218.384C101.802 218.352 101.61 218.293 101.322 218.208C101.045 218.112 100.847 218.032 100.73 217.968C100.623 217.904 100.469 217.808 100.266 217.68C100.063 217.541 99.9193 217.408 99.8339 217.28C99.7486 217.141 99.6686 216.971 99.5939 216.768C99.5193 216.555 99.4819 216.331 99.4819 216.096C99.4819 215.445 99.7379 214.901 100.25 214.464C100.783 214.027 101.439 213.808 102.218 213.808C102.858 213.808 103.423 213.952 103.914 214.24C104.415 214.528 104.783 214.928 105.018 215.44L104.138 215.952C103.839 215.205 103.199 214.832 102.218 214.832C101.738 214.832 101.338 214.944 101.018 215.168C100.698 215.392 100.538 215.701 100.538 216.096ZM110.899 214V215.024H108.595V219.872C108.595 220.309 108.68 220.624 108.851 220.816C109.022 220.997 109.278 221.093 109.619 221.104C109.96 221.104 110.387 221.093 110.899 221.072V222C109.758 222.171 108.91 222.091 108.355 221.76C107.811 221.419 107.539 220.789 107.539 219.872V215.024H105.859V214H107.539V212.08L108.595 211.76V214H110.899ZM120.403 213.808C121.363 213.808 122.126 214.107 122.691 214.704C123.256 215.291 123.539 216.085 123.539 217.088V222H122.483V217.088C122.483 216.373 122.291 215.819 121.907 215.424C121.534 215.029 121 214.832 120.307 214.832C119.507 214.832 118.872 215.083 118.403 215.584C117.944 216.085 117.715 216.827 117.715 217.808V222H116.659V210.8H117.715V215.248C118.312 214.288 119.208 213.808 120.403 213.808ZM132.461 215.568V214H133.517V222H132.461V220.432C131.725 221.605 130.648 222.192 129.229 222.192C128.088 222.192 127.112 221.787 126.301 220.976C125.501 220.165 125.101 219.173 125.101 218C125.101 216.827 125.501 215.835 126.301 215.024C127.112 214.213 128.088 213.808 129.229 213.808C130.648 213.808 131.725 214.395 132.461 215.568ZM127.069 220.256C127.677 220.864 128.424 221.168 129.309 221.168C130.194 221.168 130.941 220.864 131.549 220.256C132.157 219.627 132.461 218.875 132.461 218C132.461 217.115 132.157 216.368 131.549 215.76C130.941 215.141 130.194 214.832 129.309 214.832C128.424 214.832 127.677 215.141 127.069 215.76C126.461 216.368 126.157 217.115 126.157 218C126.157 218.875 126.461 219.627 127.069 220.256ZM136.585 216.096C136.585 216.715 137.134 217.168 138.233 217.456C138.542 217.531 138.745 217.584 138.841 217.616C138.937 217.637 139.123 217.696 139.401 217.792C139.689 217.877 139.886 217.952 139.993 218.016C140.11 218.08 140.27 218.181 140.473 218.32C140.675 218.448 140.819 218.581 140.905 218.72C140.99 218.848 141.07 219.019 141.145 219.232C141.219 219.435 141.257 219.653 141.257 219.888C141.257 220.571 140.985 221.125 140.441 221.552C139.918 221.979 139.225 222.192 138.361 222.192C137.614 222.192 136.969 222.027 136.425 221.696C135.881 221.355 135.497 220.907 135.273 220.352L136.169 219.824C136.318 220.24 136.585 220.571 136.969 220.816C137.363 221.051 137.827 221.168 138.361 221.168C138.905 221.168 139.347 221.061 139.689 220.848C140.03 220.635 140.201 220.315 140.201 219.888C140.201 219.269 139.651 218.816 138.553 218.528C138.243 218.453 138.041 218.405 137.945 218.384C137.849 218.352 137.657 218.293 137.369 218.208C137.091 218.112 136.894 218.032 136.777 217.968C136.67 217.904 136.515 217.808 136.313 217.68C136.11 217.541 135.966 217.408 135.881 217.28C135.795 217.141 135.715 216.971 135.641 216.768C135.566 216.555 135.529 216.331 135.529 216.096C135.529 215.445 135.785 214.901 136.297 214.464C136.83 214.027 137.486 213.808 138.265 213.808C138.905 213.808 139.47 213.952 139.961 214.24C140.462 214.528 140.83 214.928 141.065 215.44L140.185 215.952C139.886 215.205 139.246 214.832 138.265 214.832C137.785 214.832 137.385 214.944 137.065 215.168C136.745 215.392 136.585 215.701 136.585 216.096ZM151.306 213.808C152.448 213.808 153.418 214.213 154.218 215.024C155.029 215.835 155.434 216.827 155.434 218C155.434 219.173 155.029 220.165 154.218 220.976C153.418 221.787 152.448 222.192 151.306 222.192C149.888 222.192 148.81 221.605 148.074 220.432V222H147.018V210.8H148.074V215.568C148.81 214.395 149.888 213.808 151.306 213.808ZM148.986 220.256C149.594 220.864 150.341 221.168 151.226 221.168C152.112 221.168 152.858 220.864 153.466 220.256C154.074 219.627 154.378 218.875 154.378 218C154.378 217.115 154.074 216.368 153.466 215.76C152.858 215.141 152.112 214.832 151.226 214.832C150.341 214.832 149.594 215.141 148.986 215.76C148.378 216.368 148.074 217.115 148.074 218C148.074 218.875 148.378 219.627 148.986 220.256ZM160.886 213.808C162.081 213.808 163.036 214.229 163.75 215.072C164.486 215.904 164.854 216.891 164.854 218.032C164.854 218.085 164.844 218.251 164.822 218.528H157.798C157.905 219.328 158.246 219.968 158.822 220.448C159.398 220.928 160.118 221.168 160.982 221.168C162.198 221.168 163.057 220.715 163.558 219.808L164.486 220.352C164.134 220.928 163.649 221.381 163.03 221.712C162.422 222.032 161.734 222.192 160.966 222.192C159.708 222.192 158.684 221.797 157.894 221.008C157.105 220.219 156.71 219.216 156.71 218C156.71 216.795 157.1 215.797 157.878 215.008C158.657 214.208 159.66 213.808 160.886 213.808ZM160.886 214.832C160.054 214.832 159.356 215.077 158.79 215.568C158.236 216.059 157.905 216.704 157.798 217.504H163.766C163.649 216.651 163.324 215.995 162.79 215.536C162.236 215.067 161.601 214.832 160.886 214.832ZM170.23 213.808C171.425 213.808 172.379 214.229 173.094 215.072C173.83 215.904 174.198 216.891 174.198 218.032C174.198 218.085 174.187 218.251 174.166 218.528H167.142C167.249 219.328 167.59 219.968 168.166 220.448C168.742 220.928 169.462 221.168 170.326 221.168C171.542 221.168 172.401 220.715 172.902 219.808L173.83 220.352C173.478 220.928 172.993 221.381 172.374 221.712C171.766 222.032 171.078 222.192 170.31 222.192C169.051 222.192 168.027 221.797 167.238 221.008C166.449 220.219 166.054 219.216 166.054 218C166.054 216.795 166.443 215.797 167.222 215.008C168.001 214.208 169.003 213.808 170.23 213.808ZM170.23 214.832C169.398 214.832 168.699 215.077 168.134 215.568C167.579 216.059 167.249 216.704 167.142 217.504H173.11C172.993 216.651 172.667 215.995 172.134 215.536C171.579 215.067 170.945 214.832 170.23 214.832ZM179.622 213.808C180.582 213.808 181.344 214.107 181.91 214.704C182.475 215.291 182.758 216.085 182.758 217.088V222H181.702V217.088C181.702 216.373 181.51 215.819 181.126 215.424C180.752 215.029 180.219 214.832 179.526 214.832C178.726 214.832 178.091 215.083 177.622 215.584C177.163 216.085 176.934 216.827 176.934 217.808V222H175.878V214H176.934V215.248C177.531 214.288 178.427 213.808 179.622 213.808ZM189.632 216.096C189.632 216.715 190.181 217.168 191.28 217.456C191.589 217.531 191.792 217.584 191.888 217.616C191.984 217.637 192.17 217.696 192.448 217.792C192.736 217.877 192.933 217.952 193.04 218.016C193.157 218.08 193.317 218.181 193.52 218.32C193.722 218.448 193.866 218.581 193.952 218.72C194.037 218.848 194.117 219.019 194.192 219.232C194.266 219.435 194.304 219.653 194.304 219.888C194.304 220.571 194.032 221.125 193.488 221.552C192.965 221.979 192.272 222.192 191.408 222.192C190.661 222.192 190.016 222.027 189.472 221.696C188.928 221.355 188.544 220.907 188.32 220.352L189.216 219.824C189.365 220.24 189.632 220.571 190.016 220.816C190.41 221.051 190.874 221.168 191.408 221.168C191.952 221.168 192.394 221.061 192.736 220.848C193.077 220.635 193.248 220.315 193.248 219.888C193.248 219.269 192.698 218.816 191.6 218.528C191.29 218.453 191.088 218.405 190.992 218.384C190.896 218.352 190.704 218.293 190.416 218.208C190.138 218.112 189.941 218.032 189.824 217.968C189.717 217.904 189.562 217.808 189.36 217.68C189.157 217.541 189.013 217.408 188.928 217.28C188.842 217.141 188.762 216.971 188.688 216.768C188.613 216.555 188.576 216.331 188.576 216.096C188.576 215.445 188.832 214.901 189.344 214.464C189.877 214.027 190.533 213.808 191.312 213.808C191.952 213.808 192.517 213.952 193.008 214.24C193.509 214.528 193.877 214.928 194.112 215.44L193.232 215.952C192.933 215.205 192.293 214.832 191.312 214.832C190.832 214.832 190.432 214.944 190.112 215.168C189.792 215.392 189.632 215.701 189.632 216.096ZM201.619 218.192V214H202.675V222H201.619V220.752C201.022 221.712 200.126 222.192 198.931 222.192C197.971 222.192 197.209 221.899 196.643 221.312C196.078 220.715 195.795 219.915 195.795 218.912V214H196.851V218.912C196.851 219.627 197.038 220.181 197.411 220.576C197.795 220.971 198.334 221.168 199.027 221.168C199.827 221.168 200.457 220.917 200.915 220.416C201.385 219.915 201.619 219.173 201.619 218.192ZM208.637 222.192C207.432 222.192 206.429 221.792 205.629 220.992C204.829 220.171 204.429 219.173 204.429 218C204.429 216.816 204.829 215.824 205.629 215.024C206.429 214.213 207.432 213.808 208.637 213.808C209.426 213.808 210.136 214 210.765 214.384C211.394 214.757 211.853 215.264 212.141 215.904L211.277 216.4C211.064 215.92 210.717 215.541 210.237 215.264C209.768 214.976 209.234 214.832 208.637 214.832C207.752 214.832 207.005 215.141 206.397 215.76C205.789 216.368 205.485 217.115 205.485 218C205.485 218.875 205.789 219.627 206.397 220.256C207.005 220.864 207.752 221.168 208.637 221.168C209.224 221.168 209.752 221.029 210.221 220.752C210.701 220.475 211.074 220.091 211.341 219.6L212.221 220.112C211.89 220.752 211.405 221.259 210.765 221.632C210.125 222.005 209.416 222.192 208.637 222.192ZM217.387 222.192C216.182 222.192 215.179 221.792 214.379 220.992C213.579 220.171 213.179 219.173 213.179 218C213.179 216.816 213.579 215.824 214.379 215.024C215.179 214.213 216.182 213.808 217.387 213.808C218.176 213.808 218.886 214 219.515 214.384C220.144 214.757 220.603 215.264 220.891 215.904L220.027 216.4C219.814 215.92 219.467 215.541 218.987 215.264C218.518 214.976 217.984 214.832 217.387 214.832C216.502 214.832 215.755 215.141 215.147 215.76C214.539 216.368 214.235 217.115 214.235 218C214.235 218.875 214.539 219.627 215.147 220.256C215.755 220.864 216.502 221.168 217.387 221.168C217.974 221.168 218.502 221.029 218.971 220.752C219.451 220.475 219.824 220.091 220.091 219.6L220.971 220.112C220.64 220.752 220.155 221.259 219.515 221.632C218.875 222.005 218.166 222.192 217.387 222.192ZM226.105 213.808C227.3 213.808 228.254 214.229 228.969 215.072C229.705 215.904 230.073 216.891 230.073 218.032C230.073 218.085 230.062 218.251 230.041 218.528H223.017C223.124 219.328 223.465 219.968 224.041 220.448C224.617 220.928 225.337 221.168 226.201 221.168C227.417 221.168 228.276 220.715 228.777 219.808L229.705 220.352C229.353 220.928 228.868 221.381 228.249 221.712C227.641 222.032 226.953 222.192 226.185 222.192C224.926 222.192 223.902 221.797 223.113 221.008C222.324 220.219 221.929 219.216 221.929 218C221.929 216.795 222.318 215.797 223.097 215.008C223.876 214.208 224.878 213.808 226.105 213.808ZM226.105 214.832C225.273 214.832 224.574 215.077 224.009 215.568C223.454 216.059 223.124 216.704 223.017 217.504H228.985C228.868 216.651 228.542 215.995 228.009 215.536C227.454 215.067 226.82 214.832 226.105 214.832ZM232.272 216.096C232.272 216.715 232.822 217.168 233.92 217.456C234.23 217.531 234.432 217.584 234.528 217.616C234.624 217.637 234.811 217.696 235.088 217.792C235.376 217.877 235.574 217.952 235.68 218.016C235.798 218.08 235.958 218.181 236.16 218.32C236.363 218.448 236.507 218.581 236.592 218.72C236.678 218.848 236.758 219.019 236.832 219.232C236.907 219.435 236.944 219.653 236.944 219.888C236.944 220.571 236.672 221.125 236.128 221.552C235.606 221.979 234.912 222.192 234.048 222.192C233.302 222.192 232.656 222.027 232.112 221.696C231.568 221.355 231.184 220.907 230.96 220.352L231.856 219.824C232.006 220.24 232.272 220.571 232.656 220.816C233.051 221.051 233.515 221.168 234.048 221.168C234.592 221.168 235.035 221.061 235.376 220.848C235.718 220.635 235.888 220.315 235.888 219.888C235.888 219.269 235.339 218.816 234.24 218.528C233.931 218.453 233.728 218.405 233.632 218.384C233.536 218.352 233.344 218.293 233.056 218.208C232.779 218.112 232.582 218.032 232.464 217.968C232.358 217.904 232.203 217.808 232 217.68C231.798 217.541 231.654 217.408 231.568 217.28C231.483 217.141 231.403 216.971 231.328 216.768C231.254 216.555 231.216 216.331 231.216 216.096C231.216 215.445 231.472 214.901 231.984 214.464C232.518 214.027 233.174 213.808 233.952 213.808C234.592 213.808 235.158 213.952 235.648 214.24C236.15 214.528 236.518 214.928 236.752 215.44L235.872 215.952C235.574 215.205 234.934 214.832 233.952 214.832C233.472 214.832 233.072 214.944 232.752 215.168C232.432 215.392 232.272 215.701 232.272 216.096ZM239.054 216.096C239.054 216.715 239.603 217.168 240.702 217.456C241.011 217.531 241.214 217.584 241.31 217.616C241.406 217.637 241.592 217.696 241.87 217.792C242.158 217.877 242.355 217.952 242.462 218.016C242.579 218.08 242.739 218.181 242.942 218.32C243.144 218.448 243.288 218.581 243.374 218.72C243.459 218.848 243.539 219.019 243.614 219.232C243.688 219.435 243.726 219.653 243.726 219.888C243.726 220.571 243.454 221.125 242.91 221.552C242.387 221.979 241.694 222.192 240.83 222.192C240.083 222.192 239.438 222.027 238.894 221.696C238.35 221.355 237.966 220.907 237.742 220.352L238.638 219.824C238.787 220.24 239.054 220.571 239.438 220.816C239.832 221.051 240.296 221.168 240.83 221.168C241.374 221.168 241.816 221.061 242.158 220.848C242.499 220.635 242.67 220.315 242.67 219.888C242.67 219.269 242.12 218.816 241.022 218.528C240.712 218.453 240.51 218.405 240.414 218.384C240.318 218.352 240.126 218.293 239.838 218.208C239.56 218.112 239.363 218.032 239.246 217.968C239.139 217.904 238.984 217.808 238.782 217.68C238.579 217.541 238.435 217.408 238.35 217.28C238.264 217.141 238.184 216.971 238.11 216.768C238.035 216.555 237.998 216.331 237.998 216.096C237.998 215.445 238.254 214.901 238.766 214.464C239.299 214.027 239.955 213.808 240.734 213.808C241.374 213.808 241.939 213.952 242.43 214.24C242.931 214.528 243.299 214.928 243.534 215.44L242.654 215.952C242.355 215.205 241.715 214.832 240.734 214.832C240.254 214.832 239.854 214.944 239.534 215.168C239.214 215.392 239.054 215.701 239.054 216.096ZM249.331 210.608V211.632C248.552 211.568 247.971 211.701 247.587 212.032C247.214 212.363 247.027 212.912 247.027 213.68V214H249.331V215.024H247.027V222H245.971V215.024H244.611V214H245.971V213.68C245.971 212.624 246.259 211.829 246.835 211.296C247.422 210.763 248.254 210.533 249.331 210.608ZM256.088 218.192V214H257.144V222H256.088V220.752C255.491 221.712 254.595 222.192 253.4 222.192C252.44 222.192 251.677 221.899 251.112 221.312C250.547 220.715 250.264 219.915 250.264 218.912V214H251.32V218.912C251.32 219.627 251.507 220.181 251.88 220.576C252.264 220.971 252.803 221.168 253.496 221.168C254.296 221.168 254.925 220.917 255.384 220.416C255.853 219.915 256.088 219.173 256.088 218.192ZM260.434 222H259.378V210.32H260.434V222ZM263.731 222H262.675V210.32H263.731V222ZM269.14 220.704L271.732 214H272.852L269.428 222.736C269.108 223.547 268.66 224.171 268.084 224.608C267.518 225.056 266.889 225.253 266.196 225.2V224.208C267.156 224.325 267.886 223.771 268.388 222.544L268.596 222.048L265.012 214H266.132L269.14 220.704ZM17.4833 235.096C17.4833 235.715 18.0326 236.168 19.1313 236.456C19.4406 236.531 19.6433 236.584 19.7393 236.616C19.8353 236.637 20.0219 236.696 20.2993 236.792C20.5873 236.877 20.7846 236.952 20.8913 237.016C21.0086 237.08 21.1686 237.181 21.3713 237.32C21.5739 237.448 21.7179 237.581 21.8033 237.72C21.8886 237.848 21.9686 238.019 22.0433 238.232C22.1179 238.435 22.1553 238.653 22.1553 238.888C22.1553 239.571 21.8833 240.125 21.3393 240.552C20.8166 240.979 20.1233 241.192 19.2593 241.192C18.5126 241.192 17.8673 241.027 17.3233 240.696C16.7793 240.355 16.3953 239.907 16.1713 239.352L17.0673 238.824C17.2166 239.24 17.4833 239.571 17.8673 239.816C18.2619 240.051 18.7259 240.168 19.2593 240.168C19.8033 240.168 20.2459 240.061 20.5873 239.848C20.9286 239.635 21.0993 239.315 21.0993 238.888C21.0993 238.269 20.5499 237.816 19.4513 237.528C19.1419 237.453 18.9393 237.405 18.8433 237.384C18.7473 237.352 18.5553 237.293 18.2673 237.208C17.9899 237.112 17.7926 237.032 17.6753 236.968C17.5686 236.904 17.4139 236.808 17.2113 236.68C17.0086 236.541 16.8646 236.408 16.7793 236.28C16.6939 236.141 16.6139 235.971 16.5393 235.768C16.4646 235.555 16.4273 235.331 16.4273 235.096C16.4273 234.445 16.6833 233.901 17.1953 233.464C17.7286 233.027 18.3846 232.808 19.1633 232.808C19.8033 232.808 20.3686 232.952 20.8593 233.24C21.3606 233.528 21.7286 233.928 21.9633 234.44L21.0833 234.952C20.7846 234.205 20.1446 233.832 19.1633 233.832C18.6833 233.832 18.2833 233.944 17.9633 234.168C17.6433 234.392 17.4833 234.701 17.4833 235.096ZM29.4708 237.192V233H30.5268V241H29.4708V239.752C28.8734 240.712 27.9774 241.192 26.7828 241.192C25.8228 241.192 25.0601 240.899 24.4948 240.312C23.9294 239.715 23.6468 238.915 23.6468 237.912V233H24.7028V237.912C24.7028 238.627 24.8894 239.181 25.2628 239.576C25.6468 239.971 26.1854 240.168 26.8788 240.168C27.6788 240.168 28.3081 239.917 28.7668 239.416C29.2361 238.915 29.4708 238.173 29.4708 237.192ZM37.0486 232.808C38.19 232.808 39.1606 233.213 39.9606 234.024C40.7713 234.835 41.1766 235.827 41.1766 237C41.1766 238.173 40.7713 239.165 39.9606 239.976C39.1606 240.787 38.19 241.192 37.0486 241.192C35.63 241.192 34.5526 240.605 33.8166 239.432V241H32.7606V229.8H33.8166V234.568C34.5526 233.395 35.63 232.808 37.0486 232.808ZM34.7286 239.256C35.3366 239.864 36.0833 240.168 36.9686 240.168C37.854 240.168 38.6006 239.864 39.2086 239.256C39.8166 238.627 40.1206 237.875 40.1206 237C40.1206 236.115 39.8166 235.368 39.2086 234.76C38.6006 234.141 37.854 233.832 36.9686 233.832C36.0833 233.832 35.3366 234.141 34.7286 234.76C34.1206 235.368 33.8166 236.115 33.8166 237C33.8166 237.875 34.1206 238.627 34.7286 239.256ZM51.4605 232.808C52.3672 232.808 53.0925 233.096 53.6365 233.672C54.1805 234.248 54.4525 235.027 54.4525 236.008V241H53.3965V236.008C53.3965 235.325 53.2205 234.792 52.8685 234.408C52.5165 234.024 52.0418 233.832 51.4445 233.832C50.7512 233.832 50.2072 234.061 49.8125 234.52C49.4178 234.979 49.2205 235.661 49.2205 236.568V241H48.1645V236.008C48.1645 235.315 47.9992 234.781 47.6685 234.408C47.3378 234.024 46.8792 233.832 46.2925 233.832C45.6205 233.832 45.0658 234.067 44.6285 234.536C44.2018 235.005 43.9885 235.683 43.9885 236.568V241H42.9325V233H43.9885V234.168C44.5645 233.261 45.3805 232.808 46.4365 232.808C47.5992 232.808 48.4098 233.293 48.8685 234.264C49.4445 233.293 50.3085 232.808 51.4605 232.808ZM57.791 230.536C57.791 230.749 57.7163 230.931 57.567 231.08C57.4177 231.229 57.2363 231.304 57.023 231.304C56.8097 231.304 56.6283 231.229 56.479 231.08C56.3297 230.931 56.255 230.749 56.255 230.536C56.255 230.323 56.3297 230.141 56.479 229.992C56.6283 229.843 56.8097 229.768 57.023 229.768C57.2363 229.768 57.4177 229.843 57.567 229.992C57.7163 230.141 57.791 230.323 57.791 230.536ZM57.551 241H56.495V233H57.551V241ZM64.0319 233V234.024H61.7279V238.872C61.7279 239.309 61.8132 239.624 61.9839 239.816C62.1545 239.997 62.4105 240.093 62.7519 240.104C63.0932 240.104 63.5199 240.093 64.0319 240.072V241C62.8905 241.171 62.0425 241.091 61.4879 240.76C60.9439 240.419 60.6719 239.789 60.6719 238.872V234.024H58.9919V233H60.6719V231.08L61.7279 230.76V233H64.0319ZM69.5475 233V234.024H67.2435V238.872C67.2435 239.309 67.3288 239.624 67.4995 239.816C67.6702 239.997 67.9262 240.093 68.2675 240.104C68.6088 240.104 69.0355 240.093 69.5475 240.072V241C68.4062 241.171 67.5582 241.091 67.0035 240.76C66.4595 240.419 66.1875 239.789 66.1875 238.872V234.024H64.5075V233H66.1875V231.08L67.2435 230.76V233H69.5475ZM74.5191 232.808C75.7138 232.808 76.6685 233.229 77.3831 234.072C78.1191 234.904 78.4871 235.891 78.4871 237.032C78.4871 237.085 78.4765 237.251 78.4551 237.528H71.4311C71.5378 238.328 71.8791 238.968 72.4551 239.448C73.0311 239.928 73.7511 240.168 74.6151 240.168C75.8311 240.168 76.6898 239.715 77.1911 238.808L78.1191 239.352C77.7671 239.928 77.2818 240.381 76.6631 240.712C76.0551 241.032 75.3671 241.192 74.5991 241.192C73.3405 241.192 72.3165 240.797 71.5271 240.008C70.7378 239.219 70.3431 238.216 70.3431 237C70.3431 235.795 70.7325 234.797 71.5111 234.008C72.2898 233.208 73.2925 232.808 74.5191 232.808ZM74.5191 233.832C73.6871 233.832 72.9885 234.077 72.4231 234.568C71.8685 235.059 71.5378 235.704 71.4311 236.504H77.3991C77.2818 235.651 76.9565 234.995 76.4231 234.536C75.8685 234.067 75.2338 233.832 74.5191 233.832ZM87.0469 234.568V229.8H88.1029V241H87.0469V239.432C86.3109 240.605 85.2335 241.192 83.8149 241.192C82.6735 241.192 81.6975 240.787 80.8869 239.976C80.0869 239.165 79.6869 238.173 79.6869 237C79.6869 235.827 80.0869 234.835 80.8869 234.024C81.6975 233.213 82.6735 232.808 83.8149 232.808C85.2335 232.808 86.3109 233.395 87.0469 234.568ZM81.6549 239.256C82.2629 239.864 83.0095 240.168 83.8949 240.168C84.7802 240.168 85.5269 239.864 86.1349 239.256C86.7429 238.627 87.0469 237.875 87.0469 237C87.0469 236.115 86.7429 235.368 86.1349 234.76C85.5269 234.141 84.7802 233.832 83.8949 233.832C83.0095 233.832 82.2629 234.141 81.6549 234.76C81.0469 235.368 80.7429 236.115 80.7429 237C80.7429 237.875 81.0469 238.627 81.6549 239.256ZM91.9388 240.28C91.9388 240.525 91.8534 240.733 91.6828 240.904C91.5121 241.075 91.3041 241.16 91.0588 241.16C90.8134 241.16 90.6054 241.075 90.4348 240.904C90.2641 240.733 90.1788 240.525 90.1788 240.28C90.1788 240.035 90.2641 239.827 90.4348 239.656C90.6054 239.485 90.8134 239.4 91.0588 239.4C91.3041 239.4 91.5121 239.485 91.6828 239.656C91.8534 239.827 91.9388 240.035 91.9388 240.28ZM107.45 239.512C106.33 240.632 104.96 241.192 103.338 241.192C101.717 241.192 100.346 240.632 99.2263 239.512C98.1063 238.371 97.5463 237 97.5463 235.4C97.5463 233.789 98.1063 232.424 99.2263 231.304C100.346 230.173 101.717 229.608 103.338 229.608C104.96 229.608 106.33 230.173 107.45 231.304C108.57 232.424 109.13 233.789 109.13 235.4C109.13 237 108.57 238.371 107.45 239.512ZM98.6663 235.4C98.6663 236.723 99.1143 237.837 100.01 238.744C100.906 239.651 102.016 240.104 103.338 240.104C104.661 240.104 105.77 239.651 106.666 238.744C107.562 237.837 108.01 236.723 108.01 235.4C108.01 234.088 107.562 232.979 106.666 232.072C105.77 231.155 104.661 230.696 103.338 230.696C102.016 230.696 100.906 231.155 100.01 232.072C99.1143 232.979 98.6663 234.088 98.6663 235.4ZM116.596 237.192V233H117.652V241H116.596V239.752C115.998 240.712 115.102 241.192 113.908 241.192C112.948 241.192 112.185 240.899 111.62 240.312C111.054 239.715 110.772 238.915 110.772 237.912V233H111.828V237.912C111.828 238.627 112.014 239.181 112.388 239.576C112.772 239.971 113.31 240.168 114.004 240.168C114.804 240.168 115.433 239.917 115.892 239.416C116.361 238.915 116.596 238.173 116.596 237.192ZM120.942 233V234.328C121.432 233.357 122.275 232.872 123.47 232.872V233.896C122.702 233.896 122.088 234.12 121.63 234.568C121.171 235.005 120.942 235.667 120.942 236.552V241H119.886V233H120.942ZM133.157 233V234.024H130.853V238.872C130.853 239.309 130.938 239.624 131.109 239.816C131.28 239.997 131.536 240.093 131.877 240.104C132.218 240.104 132.645 240.093 133.157 240.072V241C132.016 241.171 131.168 241.091 130.613 240.76C130.069 240.419 129.797 239.789 129.797 238.872V234.024H128.117V233H129.797V231.08L130.853 230.76V233H133.157ZM138.129 232.808C139.323 232.808 140.278 233.229 140.993 234.072C141.729 234.904 142.097 235.891 142.097 237.032C142.097 237.085 142.086 237.251 142.065 237.528H135.041C135.147 238.328 135.489 238.968 136.065 239.448C136.641 239.928 137.361 240.168 138.225 240.168C139.441 240.168 140.299 239.715 140.801 238.808L141.729 239.352C141.377 239.928 140.891 240.381 140.273 240.712C139.665 241.032 138.977 241.192 138.209 241.192C136.95 241.192 135.926 240.797 135.137 240.008C134.347 239.219 133.953 238.216 133.953 237C133.953 235.795 134.342 234.797 135.121 234.008C135.899 233.208 136.902 232.808 138.129 232.808ZM138.129 233.832C137.297 233.832 136.598 234.077 136.033 234.568C135.478 235.059 135.147 235.704 135.041 236.504H141.009C140.891 235.651 140.566 234.995 140.033 234.536C139.478 234.067 138.843 233.832 138.129 233.832ZM150.656 234.568V233H151.712V241H150.656V239.432C149.92 240.605 148.843 241.192 147.424 241.192C146.283 241.192 145.307 240.787 144.496 239.976C143.696 239.165 143.296 238.173 143.296 237C143.296 235.827 143.696 234.835 144.496 234.024C145.307 233.213 146.283 232.808 147.424 232.808C148.843 232.808 149.92 233.395 150.656 234.568ZM145.264 239.256C145.872 239.864 146.619 240.168 147.504 240.168C148.39 240.168 149.136 239.864 149.744 239.256C150.352 238.627 150.656 237.875 150.656 237C150.656 236.115 150.352 235.368 149.744 234.76C149.136 234.141 148.39 233.832 147.504 233.832C146.619 233.832 145.872 234.141 145.264 234.76C144.656 235.368 144.352 236.115 144.352 237C144.352 237.875 144.656 238.627 145.264 239.256ZM162.476 232.808C163.383 232.808 164.108 233.096 164.652 233.672C165.196 234.248 165.468 235.027 165.468 236.008V241H164.412V236.008C164.412 235.325 164.236 234.792 163.884 234.408C163.532 234.024 163.057 233.832 162.46 233.832C161.767 233.832 161.223 234.061 160.828 234.52C160.433 234.979 160.236 235.661 160.236 236.568V241H159.18V236.008C159.18 235.315 159.015 234.781 158.684 234.408C158.353 234.024 157.895 233.832 157.308 233.832C156.636 233.832 156.081 234.067 155.644 234.536C155.217 235.005 155.004 235.683 155.004 236.568V241H153.948V233H155.004V234.168C155.58 233.261 156.396 232.808 157.452 232.808C158.615 232.808 159.425 233.293 159.884 234.264C160.46 233.293 161.324 232.808 162.476 232.808ZM179.175 239.64L181.143 233H182.231L179.767 241H178.615L176.551 234.552L174.487 241H173.335L170.871 233H171.959L173.927 239.64L176.023 233H177.079L179.175 239.64ZM185.119 230.536C185.119 230.749 185.044 230.931 184.895 231.08C184.746 231.229 184.564 231.304 184.351 231.304C184.138 231.304 183.956 231.229 183.807 231.08C183.658 230.931 183.583 230.749 183.583 230.536C183.583 230.323 183.658 230.141 183.807 229.992C183.956 229.843 184.138 229.768 184.351 229.768C184.564 229.768 184.746 229.843 184.895 229.992C185.044 230.141 185.119 230.323 185.119 230.536ZM184.879 241H183.823V233H184.879V241ZM188.176 241H187.12V229.32H188.176V241ZM191.473 241H190.417V229.32H191.473V241ZM198.77 233V234.328C199.26 233.357 200.103 232.872 201.298 232.872V233.896C200.53 233.896 199.916 234.12 199.458 234.568C198.999 235.005 198.77 235.667 198.77 236.552V241H197.714V233H198.77ZM205.957 232.808C207.151 232.808 208.106 233.229 208.821 234.072C209.557 234.904 209.925 235.891 209.925 237.032C209.925 237.085 209.914 237.251 209.893 237.528H202.869C202.975 238.328 203.317 238.968 203.893 239.448C204.469 239.928 205.189 240.168 206.053 240.168C207.269 240.168 208.127 239.715 208.629 238.808L209.557 239.352C209.205 239.928 208.719 240.381 208.101 240.712C207.493 241.032 206.805 241.192 206.037 241.192C204.778 241.192 203.754 240.797 202.965 240.008C202.175 239.219 201.781 238.216 201.781 237C201.781 235.795 202.17 234.797 202.949 234.008C203.727 233.208 204.73 232.808 205.957 232.808ZM205.957 233.832C205.125 233.832 204.426 234.077 203.861 234.568C203.306 235.059 202.975 235.704 202.869 236.504H208.837C208.719 235.651 208.394 234.995 207.861 234.536C207.306 234.067 206.671 233.832 205.957 233.832ZM214.252 239.896L217.052 233H218.172L214.892 241H213.612L210.332 233H211.452L214.252 239.896ZM220.744 230.536C220.744 230.749 220.669 230.931 220.52 231.08C220.371 231.229 220.189 231.304 219.976 231.304C219.763 231.304 219.581 231.229 219.432 231.08C219.283 230.931 219.208 230.749 219.208 230.536C219.208 230.323 219.283 230.141 219.432 229.992C219.581 229.843 219.763 229.768 219.976 229.768C220.189 229.768 220.371 229.843 220.52 229.992C220.669 230.141 220.744 230.323 220.744 230.536ZM220.504 241H219.448V233H220.504V241ZM226.441 232.808C227.636 232.808 228.59 233.229 229.305 234.072C230.041 234.904 230.409 235.891 230.409 237.032C230.409 237.085 230.398 237.251 230.377 237.528H223.353C223.46 238.328 223.801 238.968 224.377 239.448C224.953 239.928 225.673 240.168 226.537 240.168C227.753 240.168 228.612 239.715 229.113 238.808L230.041 239.352C229.689 239.928 229.204 240.381 228.585 240.712C227.977 241.032 227.289 241.192 226.521 241.192C225.262 241.192 224.238 240.797 223.449 240.008C222.66 239.219 222.265 238.216 222.265 237C222.265 235.795 222.654 234.797 223.433 234.008C224.212 233.208 225.214 232.808 226.441 232.808ZM226.441 233.832C225.609 233.832 224.91 234.077 224.345 234.568C223.79 235.059 223.46 235.704 223.353 236.504H229.321C229.204 235.651 228.878 234.995 228.345 234.536C227.79 234.067 227.156 233.832 226.441 233.832ZM239.44 239.64L241.408 233H242.496L240.032 241H238.88L236.816 234.552L234.752 241H233.6L231.136 233H232.224L234.192 239.64L236.288 233H237.344L239.44 239.64ZM251.257 239.704L253.849 233H254.969L251.545 241.736C251.225 242.547 250.777 243.171 250.201 243.608C249.635 244.056 249.006 244.253 248.313 244.2V243.208C249.273 243.325 250.003 242.771 250.505 241.544L250.713 241.048L247.129 233H248.249L251.257 239.704ZM262.637 239.992C261.815 240.792 260.823 241.192 259.661 241.192C258.477 241.192 257.479 240.792 256.669 239.992C255.858 239.181 255.453 238.184 255.453 237C255.453 235.816 255.858 234.824 256.669 234.024C257.479 233.213 258.477 232.808 259.661 232.808C260.834 232.808 261.826 233.213 262.637 234.024C263.458 234.824 263.869 235.816 263.869 237C263.869 238.173 263.458 239.171 262.637 239.992ZM257.421 239.256C258.029 239.864 258.775 240.168 259.661 240.168C260.546 240.168 261.293 239.864 261.901 239.256C262.509 238.627 262.812 237.875 262.812 237C262.812 236.115 262.509 235.368 261.901 234.76C261.293 234.141 260.546 233.832 259.661 233.832C258.775 233.832 258.029 234.141 257.421 234.76C256.813 235.368 256.509 236.115 256.509 237C256.509 237.875 256.813 238.627 257.421 239.256ZM271.268 237.192V233H272.324V241H271.268V239.752C270.67 240.712 269.774 241.192 268.58 241.192C267.62 241.192 266.857 240.899 266.292 240.312C265.726 239.715 265.444 238.915 265.444 237.912V233H266.5V237.912C266.5 238.627 266.686 239.181 267.06 239.576C267.444 239.971 267.982 240.168 268.676 240.168C269.476 240.168 270.105 239.917 270.564 239.416C271.033 238.915 271.268 238.173 271.268 237.192ZM275.614 233V234.328C276.104 233.357 276.947 232.872 278.141 232.872V233.896C277.374 233.896 276.76 234.12 276.302 234.568C275.843 235.005 275.614 235.667 275.614 236.552V241H274.558V233H275.614ZM21.4316 249.536C21.4316 249.749 21.357 249.931 21.2076 250.08C21.0583 250.229 20.877 250.304 20.6636 250.304C20.4503 250.304 20.269 250.229 20.1196 250.08C19.9703 249.931 19.8956 249.749 19.8956 249.536C19.8956 249.323 19.9703 249.141 20.1196 248.992C20.269 248.843 20.4503 248.768 20.6636 248.768C20.877 248.768 21.0583 248.843 21.2076 248.992C21.357 249.141 21.4316 249.323 21.4316 249.536ZM21.1916 260H20.1356V252H21.1916V260ZM27.1765 251.808C28.1365 251.808 28.8992 252.107 29.4645 252.704C30.0298 253.291 30.3125 254.085 30.3125 255.088V260H29.2565V255.088C29.2565 254.373 29.0645 253.819 28.6805 253.424C28.3072 253.029 27.7738 252.832 27.0805 252.832C26.2805 252.832 25.6458 253.083 25.1765 253.584C24.7178 254.085 24.4885 254.827 24.4885 255.808V260H23.4325V252H24.4885V253.248C25.0858 252.288 25.9818 251.808 27.1765 251.808ZM39.2344 253.568V252H40.2904V263.2H39.2344V258.432C38.4984 259.605 37.421 260.192 36.0024 260.192C34.861 260.192 33.885 259.787 33.0744 258.976C32.2744 258.165 31.8744 257.173 31.8744 256C31.8744 254.827 32.2744 253.835 33.0744 253.024C33.885 252.213 34.861 251.808 36.0024 251.808C37.421 251.808 38.4984 252.395 39.2344 253.568ZM33.8424 258.256C34.4504 258.864 35.197 259.168 36.0824 259.168C36.9677 259.168 37.7144 258.864 38.3224 258.256C38.9304 257.627 39.2344 256.875 39.2344 256C39.2344 255.115 38.9304 254.368 38.3224 253.76C37.7144 253.141 36.9677 252.832 36.0824 252.832C35.197 252.832 34.4504 253.141 33.8424 253.76C33.2344 254.368 32.9304 255.115 32.9304 256C32.9304 256.875 33.2344 257.627 33.8424 258.256ZM48.1583 256.192V252H49.2143V260H48.1583V258.752C47.5609 259.712 46.6649 260.192 45.4703 260.192C44.5103 260.192 43.7476 259.899 43.1823 259.312C42.6169 258.715 42.3343 257.915 42.3343 256.912V252H43.3903V256.912C43.3903 257.627 43.5769 258.181 43.9503 258.576C44.3343 258.971 44.8729 259.168 45.5663 259.168C46.3663 259.168 46.9956 258.917 47.4543 258.416C47.9236 257.915 48.1583 257.173 48.1583 256.192ZM52.7441 249.536C52.7441 249.749 52.6695 249.931 52.5201 250.08C52.3708 250.229 52.1895 250.304 51.9761 250.304C51.7628 250.304 51.5815 250.229 51.4321 250.08C51.2828 249.931 51.2081 249.749 51.2081 249.536C51.2081 249.323 51.2828 249.141 51.4321 248.992C51.5815 248.843 51.7628 248.768 51.9761 248.768C52.1895 248.768 52.3708 248.843 52.5201 248.992C52.6695 249.141 52.7441 249.323 52.7441 249.536ZM52.5041 260H51.4481V252H52.5041V260ZM55.801 252V253.328C56.2917 252.357 57.1343 251.872 58.329 251.872V252.896C57.561 252.896 56.9477 253.12 56.489 253.568C56.0303 254.005 55.801 254.667 55.801 255.552V260H54.745V252H55.801ZM63.1005 258.704L65.6925 252H66.8125L63.3885 260.736C63.0685 261.547 62.6205 262.171 62.0445 262.608C61.4792 263.056 60.8498 263.253 60.1565 263.2V262.208C61.1165 262.325 61.8472 261.771 62.3485 260.544L62.5565 260.048L58.9725 252H60.0925L63.1005 258.704ZM78.9688 253.568V252H80.0248V260H78.9688V258.432C78.2328 259.605 77.1554 260.192 75.7368 260.192C74.5954 260.192 73.6194 259.787 72.8088 258.976C72.0088 258.165 71.6088 257.173 71.6088 256C71.6088 254.827 72.0088 253.835 72.8088 253.024C73.6194 252.213 74.5954 251.808 75.7368 251.808C77.1554 251.808 78.2328 252.395 78.9688 253.568ZM73.5768 258.256C74.1848 258.864 74.9314 259.168 75.8168 259.168C76.7021 259.168 77.4488 258.864 78.0568 258.256C78.6648 257.627 78.9688 256.875 78.9688 256C78.9688 255.115 78.6648 254.368 78.0568 253.76C77.4488 253.141 76.7021 252.832 75.8168 252.832C74.9314 252.832 74.1848 253.141 73.5768 253.76C72.9688 254.368 72.6648 255.115 72.6648 256C72.6648 256.875 72.9688 257.627 73.5768 258.256ZM86.0046 251.808C86.9646 251.808 87.7273 252.107 88.2926 252.704C88.858 253.291 89.1406 254.085 89.1406 255.088V260H88.0846V255.088C88.0846 254.373 87.8926 253.819 87.5086 253.424C87.1353 253.029 86.602 252.832 85.9086 252.832C85.1086 252.832 84.474 253.083 84.0046 253.584C83.546 254.085 83.3166 254.827 83.3166 255.808V260H82.2606V252H83.3166V253.248C83.914 252.288 84.81 251.808 86.0046 251.808ZM98.0625 253.568V248.8H99.1185V260H98.0625V258.432C97.3265 259.605 96.2492 260.192 94.8305 260.192C93.6892 260.192 92.7132 259.787 91.9025 258.976C91.1025 258.165 90.7025 257.173 90.7025 256C90.7025 254.827 91.1025 253.835 91.9025 253.024C92.7132 252.213 93.6892 251.808 94.8305 251.808C96.2492 251.808 97.3265 252.395 98.0625 253.568ZM92.6705 258.256C93.2785 258.864 94.0252 259.168 94.9105 259.168C95.7958 259.168 96.5425 258.864 97.1505 258.256C97.7585 257.627 98.0625 256.875 98.0625 256C98.0625 255.115 97.7585 254.368 97.1505 253.76C96.5425 253.141 95.7958 252.832 94.9105 252.832C94.0252 252.832 93.2785 253.141 92.6705 253.76C92.0625 254.368 91.7585 255.115 91.7585 256C91.7585 256.875 92.0625 257.627 92.6705 258.256ZM112.234 253.568V252H113.29V259.68C113.29 260.832 112.896 261.739 112.106 262.4C111.317 263.061 110.373 263.392 109.274 263.392C107.408 263.392 106.144 262.741 105.482 261.44L106.41 260.912C106.89 261.883 107.845 262.368 109.274 262.368C110.192 262.368 110.912 262.128 111.434 261.648C111.968 261.168 112.234 260.512 112.234 259.68V258.432C111.498 259.605 110.421 260.192 109.002 260.192C107.861 260.192 106.885 259.787 106.074 258.976C105.274 258.165 104.874 257.173 104.874 256C104.874 254.827 105.274 253.835 106.074 253.024C106.885 252.213 107.861 251.808 109.002 251.808C110.421 251.808 111.498 252.395 112.234 253.568ZM106.842 258.256C107.45 258.864 108.197 259.168 109.082 259.168C109.968 259.168 110.714 258.864 111.322 258.256C111.93 257.627 112.234 256.875 112.234 256C112.234 255.115 111.93 254.368 111.322 253.76C110.714 253.141 109.968 252.832 109.082 252.832C108.197 252.832 107.45 253.141 106.842 253.76C106.234 254.368 105.93 255.115 105.93 256C105.93 256.875 106.234 257.627 106.842 258.256ZM119.222 251.808C120.417 251.808 121.372 252.229 122.086 253.072C122.822 253.904 123.19 254.891 123.19 256.032C123.19 256.085 123.18 256.251 123.158 256.528H116.134C116.241 257.328 116.582 257.968 117.158 258.448C117.734 258.928 118.454 259.168 119.318 259.168C120.534 259.168 121.393 258.715 121.894 257.808L122.822 258.352C122.47 258.928 121.985 259.381 121.366 259.712C120.758 260.032 120.07 260.192 119.302 260.192C118.044 260.192 117.02 259.797 116.23 259.008C115.441 258.219 115.046 257.216 115.046 256C115.046 254.795 115.436 253.797 116.214 253.008C116.993 252.208 117.996 251.808 119.222 251.808ZM119.222 252.832C118.39 252.832 117.692 253.077 117.126 253.568C116.572 254.059 116.241 254.704 116.134 255.504H122.102C121.985 254.651 121.66 253.995 121.126 253.536C120.572 253.067 119.937 252.832 119.222 252.832ZM128.876 252V253.024H126.572V257.872C126.572 258.309 126.657 258.624 126.828 258.816C126.998 258.997 127.254 259.093 127.596 259.104C127.937 259.104 128.364 259.093 128.876 259.072V260C127.734 260.171 126.886 260.091 126.332 259.76C125.788 259.419 125.516 258.789 125.516 257.872V253.024H123.836V252H125.516V250.08L126.572 249.76V252H128.876ZM138.924 251.808C140.065 251.808 141.036 252.213 141.836 253.024C142.646 253.835 143.052 254.827 143.052 256C143.052 257.173 142.646 258.165 141.836 258.976C141.036 259.787 140.065 260.192 138.924 260.192C137.505 260.192 136.428 259.605 135.692 258.432V260H134.636V248.8H135.692V253.568C136.428 252.395 137.505 251.808 138.924 251.808ZM136.604 258.256C137.212 258.864 137.958 259.168 138.844 259.168C139.729 259.168 140.476 258.864 141.084 258.256C141.692 257.627 141.996 256.875 141.996 256C141.996 255.115 141.692 254.368 141.084 253.76C140.476 253.141 139.729 252.832 138.844 252.832C137.958 252.832 137.212 253.141 136.604 253.76C135.996 254.368 135.692 255.115 135.692 256C135.692 256.875 135.996 257.627 136.604 258.256ZM151.688 253.568V252H152.744V260H151.688V258.432C150.952 259.605 149.874 260.192 148.456 260.192C147.314 260.192 146.338 259.787 145.528 258.976C144.728 258.165 144.328 257.173 144.328 256C144.328 254.827 144.728 253.835 145.528 253.024C146.338 252.213 147.314 251.808 148.456 251.808C149.874 251.808 150.952 252.395 151.688 253.568ZM146.296 258.256C146.904 258.864 147.65 259.168 148.536 259.168C149.421 259.168 150.168 258.864 150.776 258.256C151.384 257.627 151.688 256.875 151.688 256C151.688 255.115 151.384 254.368 150.776 253.76C150.168 253.141 149.421 252.832 148.536 252.832C147.65 252.832 146.904 253.141 146.296 253.76C145.688 254.368 145.384 255.115 145.384 256C145.384 256.875 145.688 257.627 146.296 258.256ZM158.707 260.192C157.502 260.192 156.499 259.792 155.699 258.992C154.899 258.171 154.499 257.173 154.499 256C154.499 254.816 154.899 253.824 155.699 253.024C156.499 252.213 157.502 251.808 158.707 251.808C159.497 251.808 160.206 252 160.835 252.384C161.465 252.757 161.923 253.264 162.211 253.904L161.347 254.4C161.134 253.92 160.787 253.541 160.307 253.264C159.838 252.976 159.305 252.832 158.707 252.832C157.822 252.832 157.075 253.141 156.467 253.76C155.859 254.368 155.555 255.115 155.555 256C155.555 256.875 155.859 257.627 156.467 258.256C157.075 258.864 157.822 259.168 158.707 259.168C159.294 259.168 159.822 259.029 160.291 258.752C160.771 258.475 161.145 258.091 161.411 257.6L162.291 258.112C161.961 258.752 161.475 259.259 160.835 259.632C160.195 260.005 159.486 260.192 158.707 260.192ZM165.984 255.84L170.272 260H168.864L164.864 256.144V260H163.808V248.8H164.864V255.536L168.672 252H170.112L165.984 255.84ZM179.954 252V253.024H177.65V257.872C177.65 258.309 177.735 258.624 177.906 258.816C178.076 258.997 178.332 259.093 178.674 259.104C179.015 259.104 179.442 259.093 179.954 259.072V260C178.812 260.171 177.964 260.091 177.41 259.76C176.866 259.419 176.594 258.789 176.594 257.872V253.024H174.914V252H176.594V250.08L177.65 249.76V252H179.954ZM187.933 258.992C187.112 259.792 186.12 260.192 184.957 260.192C183.773 260.192 182.776 259.792 181.965 258.992C181.155 258.181 180.749 257.184 180.749 256C180.749 254.816 181.155 253.824 181.965 253.024C182.776 252.213 183.773 251.808 184.957 251.808C186.131 251.808 187.123 252.213 187.933 253.024C188.755 253.824 189.165 254.816 189.165 256C189.165 257.173 188.755 258.171 187.933 258.992ZM182.717 258.256C183.325 258.864 184.072 259.168 184.957 259.168C185.843 259.168 186.589 258.864 187.197 258.256C187.805 257.627 188.109 256.875 188.109 256C188.109 255.115 187.805 254.368 187.197 253.76C186.589 253.141 185.843 252.832 184.957 252.832C184.072 252.832 183.325 253.141 182.717 253.76C182.109 254.368 181.805 255.115 181.805 256C181.805 256.875 182.109 257.627 182.717 258.256ZM198.101 258.704L200.693 252H201.812L198.389 260.736C198.069 261.547 197.621 262.171 197.045 262.608C196.479 263.056 195.85 263.253 195.157 263.2V262.208C196.117 262.325 196.847 261.771 197.349 260.544L197.557 260.048L193.973 252H195.093L198.101 258.704ZM209.48 258.992C208.659 259.792 207.667 260.192 206.504 260.192C205.32 260.192 204.323 259.792 203.512 258.992C202.702 258.181 202.296 257.184 202.296 256C202.296 254.816 202.702 253.824 203.512 253.024C204.323 252.213 205.32 251.808 206.504 251.808C207.678 251.808 208.67 252.213 209.48 253.024C210.302 253.824 210.712 254.816 210.712 256C210.712 257.173 210.302 258.171 209.48 258.992ZM204.264 258.256C204.872 258.864 205.619 259.168 206.504 259.168C207.39 259.168 208.136 258.864 208.744 258.256C209.352 257.627 209.656 256.875 209.656 256C209.656 255.115 209.352 254.368 208.744 253.76C208.136 253.141 207.39 252.832 206.504 252.832C205.619 252.832 204.872 253.141 204.264 253.76C203.656 254.368 203.352 255.115 203.352 256C203.352 256.875 203.656 257.627 204.264 258.256ZM218.111 256.192V252H219.167V260H218.111V258.752C217.514 259.712 216.618 260.192 215.423 260.192C214.463 260.192 213.701 259.899 213.135 259.312C212.57 258.715 212.287 257.915 212.287 256.912V252H213.343V256.912C213.343 257.627 213.53 258.181 213.903 258.576C214.287 258.971 214.826 259.168 215.519 259.168C216.319 259.168 216.949 258.917 217.407 258.416C217.877 257.915 218.111 257.173 218.111 256.192ZM226.233 254.096C226.233 254.715 226.783 255.168 227.881 255.456C228.191 255.531 228.393 255.584 228.489 255.616C228.585 255.637 228.772 255.696 229.049 255.792C229.337 255.877 229.535 255.952 229.641 256.016C229.759 256.08 229.919 256.181 230.121 256.32C230.324 256.448 230.468 256.581 230.553 256.72C230.639 256.848 230.719 257.019 230.793 257.232C230.868 257.435 230.905 257.653 230.905 257.888C230.905 258.571 230.633 259.125 230.089 259.552C229.567 259.979 228.873 260.192 228.009 260.192C227.263 260.192 226.617 260.027 226.073 259.696C225.529 259.355 225.145 258.907 224.921 258.352L225.817 257.824C225.967 258.24 226.233 258.571 226.617 258.816C227.012 259.051 227.476 259.168 228.009 259.168C228.553 259.168 228.996 259.061 229.337 258.848C229.679 258.635 229.849 258.315 229.849 257.888C229.849 257.269 229.3 256.816 228.201 256.528C227.892 256.453 227.689 256.405 227.593 256.384C227.497 256.352 227.305 256.293 227.017 256.208C226.74 256.112 226.543 256.032 226.425 255.968C226.319 255.904 226.164 255.808 225.961 255.68C225.759 255.541 225.615 255.408 225.529 255.28C225.444 255.141 225.364 254.971 225.289 254.768C225.215 254.555 225.177 254.331 225.177 254.096C225.177 253.445 225.433 252.901 225.945 252.464C226.479 252.027 227.135 251.808 227.913 251.808C228.553 251.808 229.119 251.952 229.609 252.24C230.111 252.528 230.479 252.928 230.713 253.44L229.833 253.952C229.535 253.205 228.895 252.832 227.913 252.832C227.433 252.832 227.033 252.944 226.713 253.168C226.393 253.392 226.233 253.701 226.233 254.096ZM236.333 251.808C237.293 251.808 238.055 252.107 238.621 252.704C239.186 253.291 239.469 254.085 239.469 255.088V260H238.413V255.088C238.413 254.373 238.221 253.819 237.837 253.424C237.463 253.029 236.93 252.832 236.237 252.832C235.437 252.832 234.802 253.083 234.333 253.584C233.874 254.085 233.645 254.827 233.645 255.808V260H232.589V248.8H233.645V253.248C234.242 252.288 235.138 251.808 236.333 251.808ZM248.215 258.992C247.393 259.792 246.401 260.192 245.239 260.192C244.055 260.192 243.057 259.792 242.247 258.992C241.436 258.181 241.031 257.184 241.031 256C241.031 254.816 241.436 253.824 242.247 253.024C243.057 252.213 244.055 251.808 245.239 251.808C246.412 251.808 247.404 252.213 248.215 253.024C249.036 253.824 249.447 254.816 249.447 256C249.447 257.173 249.036 258.171 248.215 258.992ZM242.999 258.256C243.607 258.864 244.353 259.168 245.239 259.168C246.124 259.168 246.871 258.864 247.479 258.256C248.087 257.627 248.391 256.875 248.391 256C248.391 255.115 248.087 254.368 247.479 253.76C246.871 253.141 246.124 252.832 245.239 252.832C244.353 252.832 243.607 253.141 242.999 253.76C242.391 254.368 242.087 255.115 242.087 256C242.087 256.875 242.391 257.627 242.999 258.256ZM252.27 252V253.328C252.76 252.357 253.603 251.872 254.798 251.872V252.896C254.03 252.896 253.416 253.12 252.958 253.568C252.499 254.005 252.27 254.667 252.27 255.552V260H251.214V252H252.27ZM260.641 252V253.024H258.337V257.872C258.337 258.309 258.423 258.624 258.593 258.816C258.764 258.997 259.02 259.093 259.361 259.104C259.703 259.104 260.129 259.093 260.641 259.072V260C259.5 260.171 258.652 260.091 258.097 259.76C257.553 259.419 257.281 258.789 257.281 257.872V253.024H255.601V252H257.281V250.08L258.337 249.76V252H260.641ZM263.457 260H262.401V248.32H263.457V260ZM268.866 258.704L271.458 252H272.578L269.154 260.736C268.834 261.547 268.386 262.171 267.81 262.608C267.245 263.056 266.615 263.253 265.922 263.2V262.208C266.882 262.325 267.613 261.771 268.114 260.544L268.322 260.048L264.738 252H265.858L268.866 258.704ZM274.017 259.28C274.017 259.525 273.932 259.733 273.761 259.904C273.59 260.075 273.382 260.16 273.137 260.16C272.892 260.16 272.684 260.075 272.513 259.904C272.342 259.733 272.257 259.525 272.257 259.28C272.257 259.035 272.342 258.827 272.513 258.656C272.684 258.485 272.892 258.4 273.137 258.4C273.382 258.4 273.59 258.485 273.761 258.656C273.932 258.827 274.017 259.035 274.017 259.28Z" fill="#020513"/>
</svg>
