<svg width="19" height="19" viewBox="0 0 19 19" fill="none" xmlns="http://www.w3.org/2000/svg">
<path d="M16.625 17.8125V4.75H13.0625V1.1875H2.375V17.8125H0V19H8.3125V15.4375H10.6875V19H19V17.8125H16.625ZM7.125 13.0625H4.75V10.6875H7.125V13.0625ZM7.125 9.5H4.75V7.125H7.125V9.5ZM7.125 5.9375H4.75V3.5625H7.125V5.9375ZM10.6875 13.0625H8.3125V10.6875H10.6875V13.0625ZM10.6875 9.5H8.3125V7.125H10.6875V9.5ZM10.6875 5.9375H8.3125V3.5625H10.6875V5.9375ZM15.4375 13.0625H13.0625V10.6875H15.4375V13.0625ZM15.4375 9.5H13.0625V7.125H15.4375V9.5Z" fill="#FF5900"/>
</svg>
