<svg width="20" height="20" viewBox="0 0 20 20" fill="none" xmlns="http://www.w3.org/2000/svg">
<path d="M5.11846 9.55634C5.11026 9.7331 4.96033 9.8697 4.78362 9.8615C4.6069 9.85329 4.47026 9.70341 4.47846 9.52665C4.48662 9.34993 4.63658 9.21329 4.8133 9.22146C4.99002 9.22966 5.12666 9.37958 5.11846 9.55634ZM18.3519 14.5115C18.2673 14.7033 18.1135 14.8505 17.9189 14.9259L16.9576 15.2986C16.8649 15.3345 16.7694 15.3516 16.6753 15.3516C16.3613 15.3516 16.0642 15.1613 15.944 14.8514L15.8758 14.6755L15.164 14.9725C15.1943 15.1931 15.1548 15.4202 15.0456 15.6188C14.9112 15.8633 14.6894 16.0413 14.4206 16.1208C14.4944 16.3786 14.4711 16.6634 14.3331 16.9142C14.1268 17.2894 13.7235 17.489 13.3219 17.4552C13.3251 17.6316 13.2839 17.8105 13.1935 17.9749C13.0579 18.2214 12.8335 18.4003 12.5617 18.4786C12.4091 18.5225 12.2523 18.5314 12.101 18.5066C12.0977 18.6708 12.056 18.8363 11.9719 18.9893C11.8362 19.2359 11.6022 19.4211 11.33 19.4974C11.2359 19.5238 11.1405 19.5368 11.046 19.5368C10.8689 19.5368 10.6949 19.491 10.5384 19.4011L10.3061 19.2677C10.1707 19.4445 9.98373 19.5747 9.76549 19.6408C9.66197 19.6722 9.55631 19.6877 9.45127 19.6877C9.27729 19.6877 9.10518 19.6451 8.94787 19.561C8.72779 19.4432 8.56209 19.2574 8.46826 19.0395C8.18596 19.1465 7.86178 19.1345 7.57994 18.9838C7.38432 18.8792 7.231 18.7189 7.13338 18.5297C6.8333 18.6767 6.46998 18.6827 6.1544 18.5139C5.90225 18.379 5.71744 18.1533 5.63408 17.8783C5.59155 17.7379 5.57811 17.5936 5.59303 17.4524C5.4285 17.4487 5.26389 17.4073 5.11287 17.3265C4.86072 17.1917 4.67592 16.9659 4.5926 16.6908C4.5092 16.4158 4.5376 16.1254 4.67244 15.8733L4.9219 15.4068C4.86768 15.2709 4.83983 15.1252 4.8133 14.9826C4.76776 14.7379 4.73069 14.5747 4.63358 14.537C4.58854 14.5195 4.48369 14.4759 4.11084 14.3099L4.02404 14.5063C3.89475 14.7987 3.60725 14.9729 3.30643 14.9729C3.20076 14.9729 3.09354 14.9515 2.99088 14.9061L2.04783 14.4893C1.85694 14.4049 1.7101 14.2508 1.63447 14.0553C1.55885 13.8598 1.56365 13.647 1.64803 13.4561L3.81319 8.55747C3.89756 8.36658 4.05166 8.21978 4.24717 8.14411C4.4426 8.06845 4.65537 8.07325 4.84635 8.15767L5.7894 8.57447C6.18444 8.74904 6.36381 9.21251 6.1892 9.60759L6.04361 9.93697L6.61967 10.2027C6.62725 10.2062 6.63471 10.2101 6.64201 10.2141C6.96498 10.3959 7.31014 10.3149 7.74709 10.2125C8.33182 10.0754 9.05022 9.90724 9.89065 10.3916C11.0523 9.68431 11.9442 10.0479 12.6035 10.3174C13.08 10.5122 13.3631 10.6153 13.64 10.4713L14.1418 10.2027L14.008 9.85755C13.8519 9.45478 14.0526 9.00013 14.4552 8.844L15.4165 8.47134C15.6112 8.39587 15.824 8.40099 16.0157 8.48556C16.2074 8.57021 16.3546 8.72396 16.4301 8.91853L18.366 13.9122C18.4416 14.107 18.4365 14.3197 18.3519 14.5115ZM3.45252 14.2536L5.61764 9.35497C5.64041 9.30341 5.62885 9.25708 5.61998 9.234C5.61104 9.21095 5.58838 9.16888 5.53686 9.14611L4.59377 8.72931C4.57151 8.71947 4.55018 8.71603 4.53127 8.71603C4.50647 8.71603 4.48588 8.72193 4.47283 8.727C4.44979 8.73595 4.40772 8.75857 4.38494 8.81013L2.21983 13.7088C2.19701 13.7604 2.20858 13.8067 2.21748 13.8298C2.22639 13.8528 2.24905 13.8949 2.30061 13.9177L3.24369 14.3345C3.32213 14.3692 3.41779 14.3321 3.45252 14.2536ZM5.88901 16.7377L6.50072 15.6792C6.59236 15.4659 6.50604 15.216 6.30069 15.1064C6.08225 14.9898 5.80963 15.0723 5.69303 15.2904L5.22361 16.168C5.16744 16.273 5.1558 16.3943 5.19072 16.5096C5.22569 16.6249 5.30272 16.7193 5.40768 16.7754C5.56194 16.8579 5.75014 16.8417 5.88901 16.7377ZM7.05834 17.7756L7.7376 16.4601C7.77205 16.2705 7.67932 16.0732 7.50889 15.9822C7.3533 15.8992 7.16369 15.9161 7.02455 16.0219L6.26526 17.3554C6.20908 17.4604 6.19744 17.5817 6.23237 17.697C6.26733 17.8123 6.34436 17.9067 6.44932 17.9628C6.66737 18.0795 6.94049 17.9954 7.05834 17.7756ZM8.44068 18.3115L9.04143 17.157C9.07565 16.9675 8.98291 16.7704 8.8126 16.6795C8.64295 16.589 8.42912 16.62 8.29076 16.7511L7.63889 18.0135C7.63041 18.186 7.72127 18.3506 7.87475 18.4327C8.06756 18.5358 8.30752 18.4832 8.44068 18.3115ZM9.85014 18.8257L10.3002 17.9841C10.3812 17.8327 10.3671 17.6445 10.2642 17.5047C10.225 17.4513 10.1752 17.4083 10.1162 17.3768C9.94654 17.2861 9.73256 17.3173 9.59416 17.4488L9.00783 18.5756C8.99373 18.7518 9.08619 18.9261 9.24272 19.0098C9.46096 19.1265 9.73342 19.0439 9.85014 18.8257ZM11.2549 18.1057C11.2394 18.097 10.9643 17.9362 10.9643 17.9362C10.9465 18.0545 10.9092 18.1706 10.8513 18.2788L10.6135 18.7234L10.8497 18.8591C10.9431 18.9127 11.0538 18.9257 11.1613 18.8956C11.2731 18.8643 11.3689 18.7886 11.4242 18.6881C11.5372 18.4826 11.4613 18.2214 11.2549 18.1057ZM10.5862 16.0243C10.4358 15.9396 10.3824 15.7491 10.4671 15.5987C10.5517 15.4483 10.7422 15.395 10.8927 15.4796L13.2061 16.7813C13.4122 16.8946 13.6722 16.8191 13.7855 16.613C13.8978 16.4088 13.8212 16.1482 13.6146 16.0319C13.0722 15.7281 12.4576 15.3839 11.8529 15.0377C11.7031 14.952 11.6512 14.761 11.737 14.6113C11.8227 14.4615 12.0135 14.4096 12.1634 14.4953C12.7658 14.8402 13.3793 15.1838 13.9206 15.487C13.9206 15.487 13.9206 15.487 13.9207 15.487C14.0174 15.5411 14.1306 15.5537 14.2395 15.5226C14.351 15.4907 14.4428 15.4179 14.498 15.3176C14.5645 15.1967 14.5673 15.0546 14.5058 14.9277C14.4665 14.8469 14.4042 14.7805 14.3256 14.7356L11.7689 13.2784C11.3524 13.0411 10.819 13.2571 10.2012 13.5072C9.25959 13.8883 8.08799 14.3626 7.07967 13.0651C7.00787 12.9727 6.98049 12.8586 7.00248 12.7436C7.02451 12.6284 7.09252 12.5323 7.19389 12.473C7.9119 12.054 8.51791 11.5969 8.99529 11.1145C9.10361 11.005 9.21279 10.9033 9.32217 10.8091C8.80709 10.6065 8.35877 10.7112 7.88979 10.8211C7.39236 10.9377 6.87819 11.0583 6.34713 10.7653L5.791 10.5087L4.36358 13.7383C4.69557 13.8861 4.81842 13.9383 4.85983 13.9543C5.21041 14.0904 5.32807 14.4038 5.39139 14.686C5.71776 14.408 6.1944 14.3413 6.59494 14.555C6.89541 14.7154 7.08994 15.0011 7.14576 15.3156C7.36662 15.284 7.59733 15.321 7.80311 15.4308C8.05318 15.5643 8.23209 15.7849 8.31635 16.0395C8.57447 15.9685 8.85697 15.9947 9.10686 16.1281C9.35694 16.2616 9.5358 16.4822 9.6201 16.7367C9.87822 16.6658 10.1609 16.692 10.4108 16.8255C10.534 16.8913 10.6407 16.9784 10.7288 17.0847L12.0676 17.8425C12.1653 17.8968 12.2794 17.9094 12.3888 17.8779C12.4997 17.846 12.591 17.7734 12.6459 17.6736C12.7582 17.4694 12.6815 17.2087 12.475 17.0925M15.6499 14.0926L14.3695 10.7898L13.9318 11.0241C13.3812 11.3104 12.8657 11.0998 12.3671 10.896C11.7149 10.6293 11.0403 10.3536 10.0713 11.0183C9.86311 11.1606 9.65072 11.3407 9.43963 11.554C8.97658 12.0219 8.40588 12.4652 7.74065 12.874C8.41217 13.557 9.13717 13.2636 9.96666 12.9277C10.6708 12.6427 11.3988 12.3479 12.0784 12.7353L14.6352 14.1926C14.7353 14.2496 14.8244 14.3214 14.9002 14.4053L15.6499 14.0926ZM17.7834 14.1383L15.8475 9.14454C15.8271 9.09197 15.7862 9.0674 15.7635 9.05743C15.7495 9.05122 15.7265 9.04361 15.6985 9.04361C15.6814 9.04361 15.6625 9.04646 15.6426 9.05415L14.6813 9.42681C14.6012 9.45782 14.5599 9.55169 14.5909 9.63177L16.5269 14.6254C16.5578 14.7054 16.6516 14.7468 16.7317 14.7158L17.693 14.3431C17.7456 14.3227 17.7702 14.2818 17.7801 14.2592C17.7901 14.2366 17.8038 14.1908 17.7834 14.1383ZM15.4005 9.53564C15.2236 9.53564 15.0802 9.67908 15.0802 9.85599C15.0802 10.0329 15.2236 10.1763 15.4005 10.1763C15.5774 10.1763 15.7209 10.0329 15.7209 9.85599C15.7209 9.67908 15.5774 9.53564 15.4005 9.53564ZM15.7978 7.50782C15.8073 7.59599 15.7788 7.68404 15.7196 7.74997C15.6603 7.81591 15.5758 7.85361 15.4871 7.85361H12.4964C12.502 7.89052 12.507 7.92763 12.511 7.96509C12.5204 8.05325 12.492 8.1413 12.4327 8.20724C12.3734 8.27318 12.2889 8.31087 12.2003 8.31087H7.80018C7.71151 8.31087 7.62701 8.27322 7.56776 8.20728C7.50846 8.14134 7.48002 8.05329 7.48947 7.96513C7.4935 7.92767 7.49846 7.89052 7.50404 7.85361H4.51334C4.42467 7.85361 4.34018 7.81595 4.28092 7.74997C4.22162 7.68404 4.19319 7.59603 4.20264 7.50782C4.28584 6.73036 4.76908 6.08747 5.43529 5.77267C5.23471 5.55005 5.1124 5.2556 5.1124 4.93306C5.1124 4.24064 5.67572 3.67736 6.36811 3.67736C7.06049 3.67736 7.62381 4.24068 7.62381 4.93306C7.62381 5.25677 7.50065 5.55224 7.29877 5.77513C7.64213 5.93845 7.94068 6.18966 8.15963 6.5047C8.39311 6.25665 8.67604 6.05685 8.99209 5.91974C8.73096 5.66033 8.56897 5.30118 8.56897 4.90489C8.56897 4.11568 9.21104 3.47357 10.0003 3.47357C10.7895 3.47357 11.4316 4.11568 11.4316 4.90489C11.4316 5.30122 11.2696 5.66033 11.0084 5.91978C11.3245 6.05689 11.6074 6.25669 11.8409 6.50474C12.0598 6.1897 12.3583 5.93849 12.7017 5.77517C12.4999 5.55228 12.3767 5.25681 12.3767 4.9331C12.3767 4.24068 12.94 3.67739 13.6324 3.67739C14.3248 3.67739 14.8881 4.24072 14.8881 4.9331C14.8881 5.25564 14.7658 5.55005 14.5652 5.77271C15.2313 6.08743 15.7147 6.73032 15.7978 7.50782ZM13.6324 5.5638C13.9801 5.5638 14.2631 5.28087 14.2631 4.9331C14.2631 4.58532 13.9801 4.30239 13.6324 4.30239C13.2846 4.30239 13.0017 4.58532 13.0017 4.9331C13.0017 5.28087 13.2846 5.5638 13.6324 5.5638ZM10.0002 5.71115C10.4448 5.71115 10.8065 5.34947 10.8065 4.90486C10.8065 4.46025 10.4448 4.09853 10.0002 4.09853C9.55565 4.09853 9.19393 4.46025 9.19393 4.90486C9.19397 5.34947 9.55568 5.71115 10.0002 5.71115ZM6.36811 5.5638C6.71588 5.5638 6.99881 5.28087 6.99881 4.9331C6.99881 4.58532 6.71588 4.30239 6.36811 4.30239C6.02033 4.30239 5.7374 4.58532 5.7374 4.9331C5.7374 5.28087 6.02033 5.5638 6.36811 5.5638ZM7.68365 7.22857C7.70842 7.17134 7.73486 7.11509 7.76361 7.06025C7.50549 6.53376 6.96162 6.18876 6.36811 6.18876C5.6935 6.18876 5.11373 6.61693 4.90131 7.22857H7.68365ZM11.82 7.68583C11.5833 6.89638 10.8538 6.33615 10.0002 6.33615C9.14658 6.33615 8.41705 6.89638 8.18045 7.68583H11.82ZM15.0992 7.22857C14.8867 6.61693 14.307 6.18876 13.6324 6.18876C13.0388 6.18876 12.495 6.53376 12.2369 7.06029C12.2656 7.11513 12.2921 7.17138 12.3168 7.22857H15.0992ZM17.6116 8.54868C17.6116 8.72126 17.7515 8.86118 17.9241 8.86118C18.0967 8.86118 18.2366 8.72126 18.2366 8.54868C18.2366 7.0922 17.851 5.66064 17.1215 4.40872C17.0347 4.25962 16.8434 4.20915 16.6942 4.29607C16.5451 4.38298 16.4947 4.57427 16.5815 4.72337C17.2554 5.87986 17.6116 7.20263 17.6116 8.54868ZM2.07639 8.86118C2.24897 8.86118 2.38889 8.72126 2.38889 8.54868C2.38889 6.87845 2.9301 5.33247 3.84576 4.07595L3.86819 4.70052C3.87424 4.86919 4.01287 5.00181 4.18029 5.00181C4.18408 5.00181 4.18787 5.00177 4.1917 5.00161C4.3642 4.9954 4.49897 4.85056 4.49279 4.6781L4.44514 3.35134C5.83498 1.86677 7.81096 0.937317 10.0002 0.937317C11.6114 0.937317 13.1825 1.4515 14.4779 2.39404L13.8483 2.41665C13.6759 2.42282 13.5411 2.56767 13.5472 2.74017C13.5533 2.90884 13.6919 3.04146 13.8594 3.04146C13.8631 3.04146 13.8669 3.04142 13.8708 3.04126L15.3316 2.9888C15.4276 2.98536 15.5167 2.93794 15.5732 2.86021C15.6297 2.78251 15.6473 2.68314 15.621 2.59075L15.2199 1.18501C15.1725 1.019 14.9994 0.922825 14.8336 0.970247C14.6676 1.01759 14.5715 1.19052 14.6188 1.3565L14.7515 1.82169C13.3681 0.844504 11.7049 0.312317 10.0002 0.312317C7.61881 0.312317 5.47061 1.32861 3.96549 2.94982L2.63651 3.329C2.47057 3.37634 2.3744 3.54927 2.42174 3.71525C2.46912 3.88122 2.64194 3.97736 2.80803 3.93001L3.27697 3.79622C2.3244 5.13982 1.76389 6.77997 1.76389 8.54868C1.76389 8.72126 1.90381 8.86118 2.07639 8.86118Z" fill="#FF5900"/>
</svg>
