<svg width="20" height="20" viewBox="0 0 20 20" fill="none" xmlns="http://www.w3.org/2000/svg">
<g clip-path="url(#clip0_123_42811)">
<path d="M14.5154 13.0945L14.2009 12.3862C14.399 12.0382 14.5523 11.6683 14.6583 11.2829L15.381 11.0047C15.5017 10.9583 15.5813 10.8423 15.5813 10.713V9.28695C15.5813 9.15766 15.5017 9.04176 15.3811 8.99531L14.6585 8.71719C14.5525 8.33156 14.3991 7.96152 14.2009 7.61344L14.5154 6.90539C14.5679 6.78726 14.5422 6.64902 14.4508 6.55758L13.4424 5.54922C13.351 5.45781 13.2128 5.43223 13.0946 5.48461L12.3863 5.79922C12.0382 5.60105 11.6683 5.44766 11.2829 5.34172L11.0047 4.61898C10.9583 4.49836 10.8424 4.41875 10.7131 4.41875H9.28703C9.15773 4.41875 9.04184 4.49836 8.99539 4.61898L8.71715 5.34172C8.3318 5.44766 7.96184 5.60105 7.61375 5.79922L6.90547 5.48461C6.78742 5.43211 6.6491 5.45781 6.55766 5.54922L5.54926 6.55762C5.45785 6.64906 5.43219 6.7873 5.48465 6.90543L5.79922 7.61363C5.60106 7.96168 5.4477 8.3316 5.34172 8.71715L4.61902 8.99531C4.4984 9.04172 4.41879 9.15766 4.41879 9.28695V10.713C4.41879 10.8423 4.4984 10.9582 4.61902 11.0047L5.34156 11.2828C5.44758 11.6685 5.60098 12.0386 5.79914 12.3866L5.48465 13.0946C5.43219 13.2127 5.45785 13.3509 5.5493 13.4424L6.5577 14.4507C6.64906 14.5421 6.7873 14.5679 6.90547 14.5153L7.61379 14.2008C7.96195 14.3989 8.33184 14.5523 8.71719 14.6582L8.99539 15.381C9.0418 15.5016 9.15773 15.5812 9.28703 15.5812H10.7131C10.8424 15.5812 10.9583 15.5016 11.0048 15.381L11.2829 14.6585C11.6685 14.5525 12.0385 14.3991 12.3866 14.2009L13.0946 14.5153C13.2129 14.5679 13.3511 14.5421 13.4425 14.4507L14.4508 13.4423C14.5422 13.3509 14.5679 13.2127 14.5154 13.0945ZM14.0917 10.9767C13.9886 11.4097 13.8177 11.822 13.5837 12.202C13.5297 12.2897 13.5224 12.3984 13.5642 12.4926L13.8571 13.1521L13.1521 13.8571L12.4929 13.5643C12.3988 13.5225 12.29 13.5298 12.2022 13.5838C11.8222 13.8179 11.4099 13.9888 10.9767 14.0918C10.8765 14.1157 10.7944 14.1874 10.7574 14.2836L10.4985 14.9562H9.50156L9.24254 14.2834C9.20555 14.1872 9.12348 14.1155 9.02324 14.0916C8.59043 13.9886 8.1782 13.8177 7.79809 13.5837C7.71027 13.5296 7.60152 13.5224 7.50742 13.5642L6.84785 13.8571L6.14289 13.1521L6.4357 12.4929C6.4775 12.3987 6.47023 12.29 6.41617 12.2022C6.18223 11.8223 6.01129 11.41 5.90812 10.9767C5.8843 10.8765 5.81254 10.7944 5.71641 10.7574L5.04371 10.4985V9.50156L5.71656 9.24258C5.81273 9.20558 5.88445 9.12351 5.90828 9.02328C6.01137 8.59023 6.18227 8.17797 6.41625 7.79805C6.47031 7.71027 6.47758 7.60152 6.43578 7.50734L6.14289 6.84789L6.84785 6.14293L7.50738 6.43586C7.60148 6.47766 7.71031 6.47043 7.79805 6.41633C8.17813 6.1823 8.59035 6.01141 9.0232 5.90836C9.12344 5.88453 9.20551 5.81281 9.2425 5.71664L9.50152 5.04375H10.4984L10.7575 5.71664C10.7945 5.81281 10.8765 5.88453 10.9767 5.90836C11.4096 6.01141 11.8219 6.1823 12.2019 6.41633C12.2897 6.47043 12.3985 6.47766 12.4926 6.43586L13.1521 6.14293L13.8571 6.84785L13.5643 7.50715C13.5225 7.60133 13.5297 7.71012 13.5838 7.79785C13.8178 8.17785 13.9888 8.59015 14.0918 9.02332C14.1157 9.12355 14.1874 9.20562 14.2836 9.24262L14.9563 9.50156V10.4985L14.2834 10.7575C14.1873 10.7945 14.1155 10.8765 14.0917 10.9767ZM10 6.82789C8.2509 6.82789 6.82789 8.2509 6.82789 10C6.82789 11.7491 8.2509 13.1721 10 13.1721C11.7491 13.1721 13.1721 11.7491 13.1721 10C13.1721 8.2509 11.7491 6.82789 10 6.82789ZM8.34895 11.9372C8.50516 11.1582 9.18945 10.5883 10 10.5883C10.8105 10.5883 11.4948 11.1582 11.651 11.9373C11.206 12.3171 10.6295 12.5471 10 12.5471C9.37047 12.5471 8.79395 12.3171 8.34895 11.9372ZM9.99996 9.96328C9.61555 9.96328 9.30281 9.65051 9.30281 9.26609C9.30281 8.88168 9.61555 8.56894 9.99996 8.56894C10.3844 8.56894 10.6971 8.88168 10.6971 9.26609C10.6971 9.65051 10.3844 9.96328 9.99996 9.96328ZM12.1344 11.3875C11.9107 10.8455 11.4888 10.4125 10.9618 10.172C11.1849 9.93516 11.3221 9.61644 11.3221 9.26613C11.3221 8.53711 10.729 7.94398 9.99996 7.94398C9.27094 7.94398 8.67781 8.53711 8.67781 9.26613C8.67781 9.61644 8.815 9.93512 9.03816 10.172C8.51121 10.4125 8.08926 10.8455 7.86559 11.3875C7.605 10.988 7.45289 10.5116 7.45289 10C7.45289 8.59555 8.59551 7.45293 10 7.45293C11.4045 7.45293 12.5471 8.59555 12.5471 10C12.5471 10.5116 12.395 10.988 12.1344 11.3875ZM3.23949 6.23391C4.8534 6.23391 6.16648 4.92086 6.16648 3.30691C6.16648 1.69297 4.85344 0.379883 3.23949 0.379883C1.62555 0.379883 0.3125 1.69297 0.3125 3.30695C0.3125 4.92086 1.62555 6.23391 3.23949 6.23391ZM1.75949 5.06824C1.90562 4.37617 2.51656 3.87156 3.23949 3.87156C3.96242 3.87156 4.57336 4.37621 4.71949 5.06824C4.31902 5.40531 3.8027 5.60891 3.23949 5.60891C2.67629 5.60891 2.15996 5.40531 1.75949 5.06824ZM2.62887 2.63594C2.62887 2.29926 2.90281 2.02535 3.23949 2.02535C3.57617 2.02535 3.85008 2.29926 3.85008 2.63594C3.85008 2.97262 3.57617 3.24656 3.23949 3.24656C2.90281 3.24656 2.62887 2.97262 2.62887 2.63594ZM3.23949 1.00492C4.50879 1.00492 5.54148 2.03762 5.54148 3.30695C5.54148 3.75137 5.41453 4.16652 5.19555 4.51875C4.98891 4.05 4.62055 3.67375 4.16324 3.45535C4.35703 3.23711 4.47508 2.95012 4.47508 2.63598C4.47508 1.95469 3.92082 1.40039 3.23949 1.40039C2.55816 1.40039 2.00387 1.95465 2.00387 2.63594C2.00387 2.95008 2.12191 3.23707 2.31574 3.45535C1.85844 3.67375 1.49008 4.05 1.28348 4.51875C1.06445 4.16648 0.9375 3.75133 0.9375 3.30695C0.9375 2.03762 1.9702 1.00492 3.23949 1.00492ZM16.7605 6.23391C18.3744 6.23391 19.6875 4.92086 19.6875 3.30691C19.6875 1.69297 18.3745 0.379883 16.7605 0.379883C15.1466 0.379883 13.8335 1.69293 13.8335 3.30691C13.8336 4.92086 15.1466 6.23391 16.7605 6.23391ZM15.2805 5.06824C15.4267 4.37617 16.0376 3.87156 16.7605 3.87156C17.4834 3.87156 18.0944 4.37621 18.2405 5.06824C17.84 5.40531 17.3237 5.60891 16.7605 5.60891C16.1974 5.60891 15.681 5.40531 15.2805 5.06824ZM16.1499 2.63594C16.1499 2.29926 16.4239 2.02535 16.7605 2.02535C17.0972 2.02535 17.3712 2.29926 17.3712 2.63594C17.3712 2.97262 17.0972 3.24656 16.7605 3.24656C16.4239 3.24656 16.1499 2.97262 16.1499 2.63594ZM16.7605 1.00492C18.0298 1.00492 19.0625 2.03762 19.0625 3.30695C19.0625 3.75137 18.9355 4.16652 18.7165 4.51875C18.5099 4.05 18.1416 3.67375 17.6843 3.45535C17.8781 3.23707 17.9961 2.95012 17.9961 2.63594C17.9961 1.95465 17.4418 1.40035 16.7605 1.40035C16.0792 1.40035 15.5249 1.95461 15.5249 2.63594C15.5249 2.95008 15.6429 3.23707 15.8368 3.45535C15.3795 3.67375 15.0111 4.05 14.8045 4.51875C14.5855 4.16652 14.4586 3.75137 14.4586 3.30695C14.4586 2.03762 15.4912 1.00492 16.7605 1.00492ZM16.7605 13.7661C15.1466 13.7661 13.8335 15.0792 13.8335 16.6931C13.8335 18.3071 15.1466 19.6201 16.7605 19.6201C18.3745 19.6201 19.6875 18.307 19.6875 16.6931C19.6875 15.0791 18.3745 13.7661 16.7605 13.7661ZM15.2805 18.4544C15.4267 17.7623 16.0376 17.2577 16.7605 17.2577C17.4834 17.2577 18.0943 17.7623 18.2405 18.4544C17.84 18.7914 17.3237 18.995 16.7605 18.995C16.1973 18.995 15.6811 18.7915 15.2805 18.4544ZM16.1499 16.0221C16.1499 15.6855 16.4239 15.4115 16.7605 15.4115C17.0972 15.4115 17.3712 15.6855 17.3712 16.0221C17.3712 16.3588 17.0972 16.6327 16.7605 16.6327C16.4239 16.6327 16.1499 16.3588 16.1499 16.0221ZM18.7165 17.9049C18.5099 17.4362 18.1416 17.0599 17.6843 16.8415C17.8781 16.6233 17.9961 16.3363 17.9961 16.0221C17.9961 15.3409 17.4418 14.7865 16.7605 14.7865C16.0792 14.7865 15.5249 15.3408 15.5249 16.0221C15.5249 16.3363 15.6429 16.6233 15.8368 16.8415C15.3795 17.0599 15.0111 17.4362 14.8045 17.9049C14.5855 17.5527 14.4586 17.1375 14.4586 16.6931C14.4586 15.4238 15.4913 14.3911 16.7605 14.3911C18.0298 14.3911 19.0625 15.4238 19.0625 16.6931C19.0625 17.1375 18.9355 17.5527 18.7165 17.9049ZM3.23949 13.7638C1.62555 13.7638 0.3125 15.0768 0.3125 16.6908C0.3125 18.3047 1.62555 19.6178 3.23949 19.6178C4.85344 19.6178 6.16648 18.3047 6.16648 16.6908C6.16648 15.0768 4.8534 13.7638 3.23949 13.7638ZM1.75949 18.4521C1.90562 17.76 2.51656 17.2554 3.23949 17.2554C3.96242 17.2554 4.57332 17.76 4.71949 18.4521C4.31902 18.7891 3.8027 18.9927 3.23949 18.9927C2.67629 18.9927 2.15996 18.7891 1.75949 18.4521ZM2.62887 16.0198C2.62887 15.6831 2.90281 15.4092 3.23949 15.4092C3.57617 15.4092 3.85008 15.6831 3.85008 16.0198C3.85008 16.3565 3.57617 16.6304 3.23949 16.6304C2.90281 16.6304 2.62887 16.3565 2.62887 16.0198ZM5.19551 17.9025C4.98887 17.4338 4.62055 17.0575 4.16324 16.8391C4.35703 16.6209 4.47508 16.3339 4.47508 16.0198C4.47508 15.3385 3.92082 14.7841 3.23949 14.7841C2.55816 14.7841 2.00387 15.3384 2.00387 16.0198C2.00387 16.3339 2.12191 16.6209 2.31574 16.8391C1.85844 17.0575 1.49008 17.4338 1.28348 17.9025C1.06445 17.5503 0.9375 17.1352 0.9375 16.6908C0.9375 15.4215 1.9702 14.3888 3.23949 14.3888C4.50879 14.3888 5.54148 15.4215 5.54148 16.6908C5.54145 17.1352 5.41449 17.5503 5.19551 17.9025ZM13.1328 17.9552C13.1902 18.118 13.1046 18.2964 12.9418 18.3538C11.9915 18.6884 10.9956 18.8556 10 18.8556C9.32121 18.8556 8.64266 18.7774 7.97871 18.6221L8.03379 18.6854C8.14703 18.8156 8.13324 19.013 8.00301 19.1262C7.94383 19.1777 7.87078 19.2029 7.79809 19.2029C7.71078 19.2029 7.62395 19.1665 7.56215 19.0955L6.79957 18.2184C6.73023 18.1386 6.7059 18.0291 6.73492 17.9275C6.76395 17.8259 6.84242 17.7458 6.94344 17.7147L8.0543 17.3726C8.2191 17.322 8.39414 17.4143 8.44492 17.5793C8.49574 17.7443 8.4032 17.9191 8.23824 17.9699L8.10711 18.0103C9.63352 18.3702 11.2441 18.2891 12.7343 17.7643C12.897 17.7068 13.0755 17.7924 13.1328 17.9552ZM6.86715 2.0448C6.8098 1.88203 6.89531 1.70359 7.05813 1.64625C8.66633 1.07992 10.4049 0.993828 12.0516 1.38508L11.988 1.31023C11.8763 1.17875 11.8923 0.981523 12.0238 0.869766C12.1553 0.757969 12.3525 0.773984 12.4643 0.905508L13.217 1.79113C13.2854 1.87168 13.3085 1.98137 13.2783 2.0827C13.2481 2.18402 13.1688 2.2632 13.0675 2.2932L11.9529 2.62281C11.9233 2.63156 11.8935 2.6357 11.8642 2.6357C11.7293 2.6357 11.6048 2.54766 11.5646 2.41176C11.5157 2.24625 11.6102 2.07238 11.7757 2.02348L11.8911 1.98934C10.3652 1.62992 8.75531 1.71125 7.26574 2.23582C7.10289 2.29309 6.92449 2.20762 6.86715 2.0448ZM18.0115 11.8879C18.37 10.3629 18.2884 8.75422 17.7642 7.2657C17.7069 7.10293 17.7924 6.92449 17.9552 6.86715C18.1179 6.80976 18.2964 6.89531 18.3538 7.05812C18.9171 8.65781 19.0053 10.3866 18.6211 12.0257L18.6879 11.9679C18.8186 11.855 19.0159 11.8693 19.1287 11.9998C19.2416 12.1303 19.2273 12.3277 19.0968 12.4405L18.2178 13.2009C18.1603 13.2506 18.0875 13.277 18.0133 13.277C17.9844 13.277 17.9553 13.273 17.9268 13.2648C17.8252 13.2355 17.7453 13.1569 17.7145 13.0557L17.3752 11.9441C17.3248 11.779 17.4178 11.6043 17.5829 11.554C17.748 11.5037 17.9226 11.5966 17.9729 11.7616L18.0115 11.8879ZM1.98969 8.10711C1.6298 9.63355 1.71098 11.2441 2.23574 12.7343C2.29309 12.897 2.20758 13.0755 2.04477 13.1328C2.01043 13.1449 1.97543 13.1506 1.94098 13.1506C1.81211 13.1506 1.69145 13.0703 1.64621 12.9418C1.0834 11.3436 0.994766 9.61656 1.37777 7.97879L1.31453 8.03375C1.1843 8.14699 0.986914 8.1332 0.873672 8.00297C0.76043 7.87269 0.774219 7.67531 0.904453 7.56211L1.78156 6.79957C1.86133 6.73019 1.97063 6.70578 2.07242 6.73492C2.17406 6.76394 2.25414 6.84242 2.28523 6.94344L2.6273 8.0543C2.67813 8.21926 2.58559 8.39414 2.42062 8.44492C2.39 8.45434 2.35902 8.45883 2.32855 8.45883C2.195 8.45883 2.07137 8.37254 2.03 8.23824L1.98969 8.10711Z" fill="#FF5900"/>
</g>
<defs>
<clipPath id="clip0_123_42811">
<rect width="20" height="20" fill="white"/>
</clipPath>
</defs>
</svg>
