<svg width="20" height="20" viewBox="0 0 20 20" fill="none" xmlns="http://www.w3.org/2000/svg">
<g clip-path="url(#clip0_123_42788)">
<path d="M10.8171 11.25C11.0472 11.25 11.2337 11.0635 11.2337 10.8333C11.2337 10.6032 11.0472 10.4167 10.8171 10.4167C10.5869 10.4167 10.4004 10.6032 10.4004 10.8333C10.4004 11.0635 10.5869 11.25 10.8171 11.25Z" fill="#FF5900"/>
<path fill-rule="evenodd" clip-rule="evenodd" d="M6.35576 6.12792L7.1891 6.96125C7.3516 7.12417 7.61576 7.12417 7.77826 6.96125L9.44493 5.29458C9.60743 5.13208 9.60743 4.86792 9.44493 4.70542C9.28243 4.54292 9.01826 4.54292 8.85576 4.70542L7.48368 6.0775L6.94493 5.53875C6.78243 5.37625 6.51826 5.37625 6.35576 5.53875C6.19326 5.70125 6.19326 5.96542 6.35576 6.12792Z" fill="#FF5900"/>
<path fill-rule="evenodd" clip-rule="evenodd" d="M6.35576 10.2946L7.1891 11.1279C7.3516 11.2908 7.61576 11.2908 7.77826 11.1279L9.44493 9.46126C9.60743 9.29876 9.60743 9.03459 9.44493 8.87209C9.28243 8.70959 9.01826 8.70959 8.85576 8.87209L7.48368 10.2442L6.94493 9.70542C6.78243 9.54292 6.51826 9.54292 6.35576 9.70542C6.19326 9.86792 6.19326 10.1321 6.35576 10.2946Z" fill="#FF5900"/>
<path fill-rule="evenodd" clip-rule="evenodd" d="M10.8171 5.41668H14.9837C15.2137 5.41668 15.4004 5.23001 15.4004 5.00001C15.4004 4.77001 15.2137 4.58334 14.9837 4.58334H10.8171C10.5871 4.58334 10.4004 4.77001 10.4004 5.00001C10.4004 5.23001 10.5871 5.41668 10.8171 5.41668Z" fill="#FF5900"/>
<path fill-rule="evenodd" clip-rule="evenodd" d="M10.8171 9.58333H12.5C12.73 9.58333 12.9166 9.39667 12.9166 9.16667C12.9166 8.93667 12.73 8.75 12.5 8.75H10.8171C10.5871 8.75 10.4004 8.93667 10.4004 9.16667C10.4004 9.39667 10.5871 9.58333 10.8171 9.58333Z" fill="#FF5900"/>
<path fill-rule="evenodd" clip-rule="evenodd" d="M10.8171 7.08333H13.3171C13.5471 7.08333 13.7337 6.89667 13.7337 6.66667C13.7337 6.43667 13.5471 6.25 13.3171 6.25H10.8171C10.5871 6.25 10.4004 6.43667 10.4004 6.66667C10.4004 6.89667 10.5871 7.08333 10.8171 7.08333Z" fill="#FF5900"/>
<path fill-rule="evenodd" clip-rule="evenodd" d="M4.56722 9.16668V3.12501C4.56722 3.06959 4.5893 3.01668 4.62805 2.97751C4.66722 2.93876 4.72014 2.91668 4.77555 2.91668H5.83347C6.06347 2.91668 6.25014 2.73001 6.25014 2.50001C6.25014 2.27001 6.06347 2.08334 5.83347 2.08334H4.77555C4.4993 2.08334 4.2343 2.19293 4.03889 2.38834C3.84347 2.58376 3.73389 2.84876 3.73389 3.12501V9.16668C3.73389 9.39668 3.92055 9.58334 4.15055 9.58334C4.38055 9.58334 4.56722 9.39668 4.56722 9.16668Z" fill="#FF5900"/>
<path fill-rule="evenodd" clip-rule="evenodd" d="M12.0672 2.08334V1.66667C12.0672 1.33501 11.9356 1.01709 11.701 0.782922C11.4664 0.548339 11.1485 0.416672 10.8172 0.416672C10.1268 0.416672 9.56725 0.976255 9.56725 1.66667V2.08334H7.50016C7.27016 2.08334 7.0835 2.27001 7.0835 2.50001C7.0835 2.73001 7.27016 2.91667 7.50016 2.91667H16.8589C16.9139 2.91667 16.9668 2.93876 17.006 2.97751C17.0452 3.01667 17.0672 3.06959 17.0672 3.12501L17.0835 5.00376C17.0856 5.23376 17.2739 5.41876 17.5039 5.41667C17.7339 5.41459 17.9189 5.22626 17.9168 4.99626L17.9006 3.12126C17.9006 2.84876 17.7906 2.58375 17.5952 2.38834C17.4002 2.19292 17.1352 2.08334 16.8589 2.08334H12.0672ZM11.2339 1.66667C11.2339 1.55626 11.1897 1.45 11.1118 1.37209C11.0335 1.29375 10.9277 1.25001 10.8172 1.25001C10.5868 1.25001 10.4006 1.43667 10.4006 1.66667V2.08334H10.8172H11.2339V1.66667Z" fill="#FF5900"/>
<path fill-rule="evenodd" clip-rule="evenodd" d="M17.0833 15.8308L17.0671 18.5417C17.0671 18.5971 17.045 18.65 17.0062 18.6892C16.9671 18.7279 16.9142 18.75 16.8587 18.75H9.16667C8.93667 18.75 8.75 18.9367 8.75 19.1667C8.75 19.3967 8.93667 19.5833 9.16667 19.5833H16.8587C17.135 19.5833 17.4 19.4737 17.5954 19.2783C17.7908 19.0829 17.9004 18.8179 17.9004 18.5417C17.9004 18.5442 17.9167 15.8358 17.9167 15.8358C17.9183 15.6058 17.7325 15.4179 17.5025 15.4167C17.2725 15.4154 17.085 15.6008 17.0833 15.8308Z" fill="#FF5900"/>
<path fill-rule="evenodd" clip-rule="evenodd" d="M2.13914 15.445C1.15248 15.6092 0.400391 16.4667 0.400391 17.5V18.5417C0.400391 19.1171 0.866641 19.5833 1.44206 19.5833H6.85872C7.43372 19.5833 7.90039 19.1171 7.90039 18.5417V17.5C7.90039 16.4667 7.14789 15.6092 6.16123 15.445C6.71914 14.9138 7.06706 14.1638 7.06706 13.3333C7.06706 11.7238 5.75997 10.4167 4.15039 10.4167C2.54039 10.4167 1.23372 11.7238 1.23372 13.3333C1.23372 14.1638 1.58123 14.9138 2.13914 15.445ZM6.23372 18.75H6.85872C6.97372 18.75 7.06706 18.6567 7.06706 18.5417V17.5C7.06706 16.8096 6.50747 16.25 5.81706 16.25H2.48372C1.79331 16.25 1.23372 16.8096 1.23372 17.5V18.5417C1.23372 18.6567 1.32706 18.75 1.44206 18.75H2.06706V17.5C2.06706 17.27 2.25372 17.0833 2.48372 17.0833C2.71372 17.0833 2.90039 17.27 2.90039 17.5V18.75H5.40039V17.5C5.40039 17.27 5.58706 17.0833 5.81706 17.0833C6.04706 17.0833 6.23372 17.27 6.23372 17.5V18.75ZM4.15039 11.25C5.29997 11.25 6.23372 12.1833 6.23372 13.3333C6.23372 14.4833 5.29997 15.4167 4.15039 15.4167C3.00039 15.4167 2.06706 14.4833 2.06706 13.3333C2.06706 12.1833 3.00039 11.25 4.15039 11.25Z" fill="#FF5900"/>
<path fill-rule="evenodd" clip-rule="evenodd" d="M17.0225 6.555C16.5421 7.03542 8.89622 14.7229 8.89622 14.7229C8.81872 14.8008 8.77539 14.9063 8.77539 15.0163V16.6829C8.77539 16.9133 8.96164 17.0996 9.19206 17.0996H10.8587C10.9696 17.0996 11.0758 17.0554 11.1541 16.9767C11.1541 16.9767 14.9754 13.1304 17.5071 10.5875L17.6221 10.7025C17.6612 10.7417 17.6829 10.7946 17.6829 10.8496C17.6829 10.905 17.6612 10.9579 17.6221 10.9971L16.0058 12.6133C15.8104 12.8083 15.7008 13.0733 15.7008 13.3496C15.7008 13.6258 15.8104 13.8908 16.0058 14.0863C16.2054 14.2858 16.3975 14.4775 16.3975 14.4775C16.56 14.6404 16.8241 14.6404 16.9866 14.4775C17.1491 14.315 17.1491 14.0508 16.9866 13.8883L16.595 13.4971C16.5562 13.4579 16.5341 13.405 16.5341 13.3496C16.5341 13.2946 16.5562 13.2417 16.595 13.2025L18.2112 11.5863C18.4066 11.3908 18.5162 11.1258 18.5162 10.8496C18.5162 10.5733 18.4066 10.3083 18.2112 10.1133L18.0954 9.99708C18.5833 9.50708 18.9946 9.095 19.2783 8.81084C19.685 8.40417 19.685 7.74458 19.2783 7.33792C19.0362 7.09583 18.7375 6.79708 18.4954 6.555C18.0887 6.14833 17.4291 6.14833 17.0225 6.555ZM15.0258 9.73917L16.1033 10.8167C13.9316 12.9992 11.28 15.6679 10.6854 16.2663H9.60872V15.1883C10.2008 14.5921 12.8529 11.9229 15.0258 9.73917ZM16.6912 10.2258L15.6137 9.14875C16.4571 8.30167 17.1808 7.575 17.6116 7.14417C17.6929 7.06292 17.825 7.06292 17.9062 7.14417C18.1483 7.38625 18.4471 7.685 18.6891 7.92708C18.7704 8.00833 18.7704 8.14042 18.6891 8.22167C18.2579 8.6525 17.5341 9.37917 16.6912 10.2258Z" fill="#FF5900"/>
</g>
<defs>
<clipPath id="clip0_123_42788">
<rect width="20" height="20" fill="white"/>
</clipPath>
</defs>
</svg>
