<svg width="20" height="20" viewBox="0 0 20 20" fill="none" xmlns="http://www.w3.org/2000/svg">
<g clip-path="url(#clip0_123_42784)">
<path d="M5.38797 17.2459C5.38797 17.4185 5.24805 17.5584 5.07547 17.5584H4.34824C3.18805 17.5584 2.09645 17.1058 1.27453 16.2839C0.452617 15.462 0 14.3704 0 13.2102C0 13.0376 0.139922 12.8977 0.3125 12.8977C0.485078 12.8977 0.625 13.0376 0.625 13.2102C0.625 14.2035 1.01262 15.1381 1.71645 15.842C2.42031 16.5458 3.35492 16.9334 4.3482 16.9334H5.07543C5.24805 16.9334 5.38797 17.0733 5.38797 17.2459ZM19.6875 12.8977C19.5149 12.8977 19.375 13.0376 19.375 13.2102C19.375 14.2035 18.9874 15.1381 18.2835 15.842C17.5797 16.5458 16.6451 16.9334 15.6518 16.9334H14.9246C14.752 16.9334 14.6121 17.0733 14.6121 17.2459C14.6121 17.4185 14.752 17.5584 14.9246 17.5584H15.6518C16.812 17.5584 17.9036 17.1058 18.7255 16.2839C19.5473 15.462 20 14.3704 20 13.2102C20 13.0376 19.8601 12.8977 19.6875 12.8977ZM7.97441 14.347C8.52344 14.896 8.82578 15.6248 8.82578 16.399V19.6876C8.82578 19.8602 8.68586 20.0001 8.51328 20.0001H6.52027C6.3477 20.0001 6.20777 19.8602 6.20777 19.6876V16.399C6.20777 16.3239 6.17777 16.2525 6.12332 16.1981C6.06887 16.1436 5.9975 16.1136 5.92234 16.1136H4.34824C3.57398 16.1136 2.84516 15.8113 2.29617 15.2623C1.74711 14.7132 1.44473 13.9845 1.44473 13.2102V8.85595C1.44473 8.45962 1.62242 8.10427 1.90203 7.86454C1.46609 7.5836 1.17656 7.09423 1.17656 6.53813C1.17656 5.66845 1.8841 4.96095 2.75379 4.96095C3.62348 4.96095 4.33098 5.66845 4.33098 6.53813C4.33098 7.0947 4.04094 7.5845 3.60434 7.86532C3.88469 8.10505 4.06281 8.46009 4.06281 8.85595V8.9986L4.85832 9.51192H7.77219C8.29699 9.51192 8.72394 9.93891 8.72394 10.4637C8.72394 10.9885 8.29695 11.4155 7.77219 11.4155L4.57898 11.4149C4.39695 11.4141 4.21988 11.3618 4.06687 11.2636L4.06281 11.2609V13.2102C4.06281 13.2854 4.09281 13.3567 4.14727 13.4112C4.20168 13.4656 4.27305 13.4956 4.34824 13.4956H5.92234C6.6966 13.4956 7.42535 13.798 7.97441 14.347ZM4.67414 10.1369L3.46957 9.35966C3.39707 9.31309 3.31 9.29747 3.22504 9.31598C3.14008 9.33454 3.06746 9.38505 3.02051 9.45821C2.97355 9.53137 2.95785 9.61848 2.97641 9.70337C2.99492 9.78833 3.04543 9.86094 3.11859 9.9079L4.40512 10.7381C4.45719 10.7715 4.51824 10.7895 4.58109 10.7899L7.77227 10.7905C7.95234 10.7905 8.09894 10.6439 8.09894 10.4638C8.09894 10.2836 7.95234 10.137 7.77219 10.137H4.67414V10.1369ZM1.80156 6.53813C1.80156 7.06317 2.22875 7.49036 2.75379 7.49036C3.27883 7.49036 3.70598 7.06317 3.70598 6.53813C3.70598 6.01309 3.27883 5.58595 2.75379 5.58595C2.22875 5.58595 1.80156 6.01309 1.80156 6.53813ZM8.20074 16.399C8.20074 15.7917 7.9634 15.2199 7.53242 14.7889C7.10148 14.3579 6.52965 14.1206 5.9223 14.1206H4.3482C4.10613 14.1206 3.87781 14.0256 3.70527 13.8532C3.53277 13.6806 3.43777 13.4522 3.43777 13.2102V10.8577L2.78031 10.4334C2.5673 10.2967 2.4198 10.0845 2.36574 9.83653C2.31164 9.58845 2.35738 9.33419 2.49453 9.12052C2.63168 8.90688 2.84379 8.75946 3.09184 8.70532C3.20016 8.68165 3.30969 8.67708 3.41652 8.69083C3.3418 8.39497 3.07207 8.17489 2.75078 8.17489C2.37527 8.17489 2.06973 8.4804 2.06973 8.85595V13.2102C2.06973 13.8175 2.30707 14.3894 2.73805 14.8204C3.16898 15.2513 3.74086 15.4886 4.3482 15.4886H5.9223C6.16437 15.4886 6.39273 15.5836 6.56523 15.7561C6.73773 15.9286 6.83273 16.157 6.83273 16.3991V19.3751H8.20074V16.399ZM15.6518 16.1136H14.0777C14.0025 16.1136 13.9311 16.1436 13.8767 16.1981C13.8222 16.2525 13.7923 16.3239 13.7923 16.3991V19.6876C13.7923 19.8602 13.6523 20.0001 13.4798 20.0001H11.4868C11.3142 20.0001 11.1743 19.8602 11.1743 19.6876V16.399C11.1743 15.6248 11.4766 14.896 12.0256 14.347C12.5747 13.7979 13.3034 13.4956 14.0777 13.4956H15.6518C15.727 13.4956 15.7984 13.4656 15.8528 13.4111C15.9072 13.3567 15.9372 13.2853 15.9372 13.2102V11.2609L15.9338 11.2632C15.7802 11.3618 15.6031 11.4141 15.421 11.4149L12.2279 11.4155C11.703 11.4155 11.2761 10.9885 11.2761 10.4638C11.2761 9.93891 11.703 9.51196 12.2278 9.51196H15.1417L15.9372 8.99864V8.85598C15.9372 8.46009 16.1153 8.10505 16.3957 7.86536C15.9591 7.58458 15.669 7.09477 15.669 6.53817C15.669 5.66848 16.3765 4.96098 17.2462 4.96098C18.1159 4.96098 18.8234 5.66848 18.8234 6.53817C18.8234 7.09423 18.5339 7.58364 18.098 7.86458C18.3775 8.1043 18.5552 8.45969 18.5552 8.85598V13.2102C18.5552 13.9845 18.2529 14.7133 17.7039 15.2624C17.1548 15.8113 16.4261 16.1136 15.6518 16.1136ZM16.294 6.53813C16.294 7.06317 16.7212 7.49036 17.2462 7.49036C17.7712 7.49036 18.1984 7.06317 18.1984 6.53813C18.1984 6.01309 17.7712 5.58595 17.2462 5.58595C16.7212 5.58595 16.294 6.01309 16.294 6.53813ZM16.8807 9.90829C16.9546 9.86091 17.0051 9.78829 17.0236 9.70333C17.0421 9.61841 17.0264 9.53134 16.9795 9.45821C16.9325 9.38501 16.8598 9.3345 16.7749 9.31594C16.69 9.29747 16.603 9.31309 16.5298 9.36005L15.3259 10.1369H12.2278C12.0477 10.1369 11.9011 10.2835 11.9011 10.4637C11.9011 10.6439 12.0477 10.7905 12.2278 10.7905L15.4189 10.7899C15.4817 10.7895 15.5428 10.7714 15.5955 10.7376L16.8807 9.90829ZM14.0777 15.4886H15.6518C16.2591 15.4886 16.831 15.2513 17.2619 14.8204C17.6929 14.3894 17.9302 13.8175 17.9302 13.2102V8.85595C17.9302 8.48044 17.6248 8.17489 17.2492 8.17489C16.9279 8.17489 16.6582 8.39501 16.5834 8.69087C16.6903 8.67708 16.7998 8.68169 16.9081 8.70532C17.1562 8.75946 17.3683 8.90688 17.5054 9.12055C17.6426 9.33419 17.6883 9.58848 17.6342 9.83653C17.5801 10.0846 17.4327 10.2967 17.219 10.4338L16.5622 10.8577V13.2102C16.5622 13.4522 16.4672 13.6805 16.2948 13.8531C16.1221 14.0256 15.8938 14.1206 15.6518 14.1206H14.0777C13.4703 14.1206 12.8985 14.358 12.4675 14.789C12.0366 15.2199 11.7992 15.7917 11.7992 16.3991V19.3751H13.1672V16.399C13.1672 16.157 13.2622 15.9287 13.4346 15.7561C13.6072 15.5836 13.8355 15.4886 14.0777 15.4886ZM14.3438 12.766C14.5164 12.766 14.6563 12.6261 14.6563 12.4535C14.6563 12.2809 14.5164 12.141 14.3438 12.141H5.65617C5.48359 12.141 5.34367 12.2809 5.34367 12.4535C5.34367 12.6261 5.48359 12.766 5.65617 12.766H9.6875V19.6876C9.6875 19.8602 9.82742 20.0001 10 20.0001C10.1726 20.0001 10.3125 19.8602 10.3125 19.6876V12.766H14.3438ZM5.81019 5.90454C5.32285 5.15223 5.11543 4.25598 5.225 3.36141C5.48137 1.26739 7.39359 -0.227883 9.48769 0.028836C9.95652 0.0862579 10.402 0.226609 10.8078 0.44032C12.6111 0.450477 14.1698 1.72798 14.5298 3.50704C14.7086 4.39032 14.5714 5.30001 14.1441 6.08794L14.771 7.34805C14.8277 7.46188 14.8097 7.59872 14.7255 7.69403C14.6414 7.78934 14.5079 7.82427 14.3878 7.78212L13.0804 7.32364C12.6271 7.66462 12.0977 7.9027 11.5386 8.01587C11.2875 8.06669 11.0336 8.09173 10.7805 8.09173C10.1635 8.09173 9.5518 7.94216 9.00059 7.65235C8.85414 7.65145 8.70641 7.64235 8.55758 7.62411C7.99141 7.55481 7.44508 7.35848 6.96664 7.0538L5.69883 7.61255C5.58234 7.66384 5.4466 7.6395 5.35531 7.55098C5.26398 7.46247 5.23543 7.32747 5.28301 7.20958L5.81019 5.90454ZM11.8496 1.24809C11.9144 1.31934 11.9769 1.39333 12.0368 1.46997C12.6663 2.27505 12.9445 3.27712 12.8203 4.29149C12.6385 5.7763 11.6236 6.95907 10.3022 7.43067C10.6691 7.48602 11.0456 7.4779 11.4146 7.40329C11.9319 7.2986 12.4186 7.0663 12.822 6.73141C12.9065 6.66138 13.0215 6.64075 13.125 6.677L13.8688 6.93782L13.5102 6.21696C13.4625 6.12134 13.4671 6.00802 13.5223 5.91653C13.9362 5.22942 14.0764 4.41774 13.9172 3.63102C13.6888 2.50184 12.8837 1.61505 11.8496 1.24809ZM6.4168 5.68532C6.47887 5.77227 6.49223 5.88489 6.45223 5.98395L6.15066 6.73048L6.87187 6.41262C6.91223 6.39485 6.95516 6.38606 6.99789 6.38606C7.06148 6.38606 7.12461 6.40544 7.1782 6.44333C7.60652 6.74583 8.10981 6.93962 8.63359 7.0038C8.765 7.01989 8.89574 7.0277 9.02496 7.0277C10.618 7.02782 12.0015 5.83606 12.2 4.21552C12.3039 3.3668 12.0711 2.52848 11.5445 1.85489C11.0179 1.1813 10.2604 0.753094 9.41172 0.649188C8.56316 0.545477 7.72469 0.778055 7.05109 1.30466C6.3775 1.8313 5.9493 2.58872 5.84535 3.43743C5.74777 4.23415 5.9507 5.03247 6.4168 5.68532ZM10.5086 4.21708C10.7243 4.21708 10.8993 4.04216 10.8993 3.82645C10.8993 3.61075 10.7244 3.43583 10.5086 3.43583C10.2929 3.43583 10.118 3.61071 10.118 3.82645C10.118 4.0422 10.2929 4.21708 10.5086 4.21708ZM9.02996 4.21708C9.2457 4.21708 9.42059 4.04216 9.42059 3.82645C9.42059 3.61075 9.24566 3.43583 9.02996 3.43583C8.81422 3.43583 8.63934 3.61071 8.63934 3.82645C8.63934 4.0422 8.81422 4.21708 9.02996 4.21708ZM7.55859 4.21708C7.77434 4.21708 7.94922 4.04216 7.94922 3.82645C7.94922 3.61075 7.77434 3.43583 7.55859 3.43583C7.34289 3.43583 7.16797 3.61075 7.16797 3.82645C7.16797 4.04216 7.34285 4.21708 7.55859 4.21708Z" fill="#FF5900"/>
</g>
<defs>
<clipPath id="clip0_123_42784">
<rect width="20" height="20" fill="white"/>
</clipPath>
</defs>
</svg>
