<svg width="20" height="20" viewBox="0 0 20 20" fill="none" xmlns="http://www.w3.org/2000/svg">
<g clip-path="url(#clip0_123_42780)">
<path d="M19.7247 17.5074L18.4204 15.2487C18.2415 14.9387 17.9077 14.7729 17.5726 14.7921L17.1251 14.0173C17.7485 13.4516 18.1903 12.7271 18.4095 11.9068C19.0365 9.56648 17.643 7.15222 15.3031 6.525C15.0322 6.45242 14.7585 6.4064 14.4848 6.3859V4.08718C14.4848 4.00437 14.4519 3.92496 14.3934 3.8664L11.2111 0.68402C11.1525 0.625466 11.0731 0.592575 10.9903 0.592575H1.36244C0.871543 0.592575 0.472168 0.99195 0.472168 1.48285V17.7311C0.472168 18.2196 0.869551 18.6169 1.35799 18.6169H13.6001C14.088 18.6169 14.4849 18.2196 14.4849 17.7311V15.1529C14.8274 15.1279 15.1673 15.0627 15.4991 14.9564L15.9462 15.7313C15.8928 15.8127 15.8514 15.9026 15.8254 15.9996C15.7621 16.2365 15.7944 16.483 15.9165 16.6938L17.2207 18.9524C17.3428 19.1641 17.5408 19.3156 17.7781 19.3791C17.8574 19.4003 17.9378 19.4108 18.0176 19.4108C18.1761 19.4108 18.3321 19.3693 18.4722 19.2882L19.3889 18.759C19.8266 18.5065 19.9772 17.9452 19.7247 17.5075V17.5074ZM11.3026 1.65867L13.4188 3.77492H11.5639C11.4198 3.77492 11.3026 3.65769 11.3026 3.51359V1.65867ZM13.6002 17.9925H1.35803C1.21393 17.9925 1.0967 17.8752 1.0967 17.7311V1.48281C1.0967 1.33629 1.21592 1.21707 1.36244 1.21707H10.678V3.51359C10.678 4.00203 11.0754 4.39941 11.5638 4.39941H13.8604V6.3839C13.2017 6.42918 12.557 6.62418 11.9685 6.96394C11.0556 7.49113 10.3762 8.30957 10.0272 9.29254H7.47908C7.30662 9.29254 7.16682 9.43234 7.16682 9.6048C7.16682 9.77726 7.30662 9.91707 7.47908 9.91707H9.85518C9.80303 10.1787 9.77467 10.442 9.77029 10.7043H7.47908C7.30662 10.7043 7.16682 10.8441 7.16682 11.0166C7.16682 11.1891 7.30662 11.3289 7.47908 11.3289H9.80506C9.87814 11.8986 10.0643 12.4537 10.3603 12.9662C10.9472 13.9825 11.8949 14.7094 13.0285 15.0132C13.3036 15.0871 13.5818 15.1333 13.8603 15.1533V17.7312C13.8603 17.8753 13.7436 17.9925 13.6001 17.9925L13.6002 17.9925ZM15.5267 14.2843C14.7768 14.5758 13.969 14.6193 13.1904 14.41C12.2176 14.1493 11.4046 13.5256 10.9011 12.6538C10.6054 12.1418 10.4375 11.5803 10.4019 11.007C10.4016 10.9984 10.4012 10.9899 10.4002 10.9815C10.3784 10.5869 10.4192 10.187 10.5245 9.7941C10.7852 8.82125 11.4089 8.00824 12.2808 7.50476C12.8596 7.17054 13.5019 6.99949 14.1529 6.99836C14.1595 6.99875 14.166 6.99933 14.1726 6.99933C14.1782 6.99933 14.1836 6.99879 14.1891 6.99851C14.5069 7.00101 14.8264 7.04383 15.1415 7.12824C17.1488 7.66629 18.3442 9.73746 17.8063 11.7454C17.5983 12.5237 17.1568 13.2014 16.5294 13.7052C16.4092 13.8017 16.3774 13.9714 16.4545 14.1048L16.9831 15.0202L16.4384 15.3346L15.9103 14.4193C15.8333 14.2859 15.6704 14.2286 15.5267 14.2843ZM19.0768 18.2181L18.1596 18.7476C18.0933 18.786 18.0152 18.7961 17.9395 18.7758C17.8635 18.7555 17.8003 18.7074 17.7616 18.6402L16.4572 16.3813C16.4572 16.3813 16.4571 16.3811 16.457 16.381C16.4186 16.3147 16.4086 16.2365 16.4288 16.1609C16.4436 16.1057 16.4731 16.0575 16.5138 16.0203C16.5227 16.0137 16.5312 16.0067 16.5392 15.9994C16.5472 15.9936 16.5556 15.988 16.5644 15.983L17.4812 15.4538C17.5269 15.4274 17.5769 15.4148 17.6263 15.4148C17.7272 15.4148 17.8256 15.4673 17.8796 15.5609L19.184 17.8196C19.2643 17.9589 19.2163 18.1377 19.0768 18.2181ZM16.7781 10.7696C16.7781 9.32875 15.6063 8.15648 14.166 8.15648C12.7257 8.15648 11.5528 9.32875 11.5528 10.7696C11.5528 11.3694 11.7565 11.9221 12.0978 12.3635C12.1046 12.3747 12.112 12.3856 12.1202 12.396C12.4775 12.8442 12.9612 13.1546 13.5005 13.2956C13.5092 13.2978 13.5178 13.3001 13.5265 13.3023C13.5583 13.3102 13.5901 13.3177 13.6222 13.3244C13.6376 13.3277 13.6531 13.3306 13.6685 13.3336C13.6961 13.3389 13.7236 13.3441 13.7513 13.3485C13.7726 13.3519 13.7939 13.3546 13.8153 13.3575C13.8388 13.3606 13.8622 13.364 13.8858 13.3665C13.9138 13.3695 13.9421 13.3715 13.9704 13.3736C13.9883 13.375 14.0062 13.3768 14.0242 13.3777C14.0712 13.3803 14.1184 13.3817 14.166 13.3817C14.2135 13.3817 14.2607 13.3803 14.3076 13.3777C14.3254 13.3768 14.3429 13.375 14.3606 13.3737C14.3892 13.3716 14.4179 13.3695 14.4462 13.3665C14.4693 13.364 14.4921 13.3608 14.515 13.3577C14.5371 13.3548 14.5591 13.3519 14.581 13.3484C14.6079 13.3441 14.6346 13.3391 14.6613 13.334C14.6778 13.3308 14.6943 13.3277 14.7108 13.3242C14.7417 13.3177 14.7723 13.3105 14.8029 13.3028C14.8131 13.3003 14.8233 13.2977 14.8335 13.295C14.8693 13.2855 14.9049 13.2755 14.9403 13.2646C14.9417 13.2641 14.9432 13.2636 14.9446 13.2632C15.4378 13.1099 15.8787 12.8124 16.2106 12.396C16.2182 12.3864 16.2249 12.3762 16.2313 12.366C16.5736 11.9242 16.778 11.3705 16.778 10.7696H16.7781ZM14.166 8.78097C15.2619 8.78097 16.1536 9.67308 16.1536 10.7696C16.1536 11.0752 16.0841 11.3647 15.9604 11.6236C15.7334 11.3761 15.4357 11.2122 15.1129 11.1637C15.2193 10.9929 15.281 10.7915 15.281 10.5759C15.281 9.96101 14.7808 9.46082 14.166 9.46082C13.5512 9.46082 13.051 9.96101 13.051 10.5759C13.051 10.7914 13.1127 10.9928 13.2191 11.1636C12.8959 11.2119 12.5978 11.3758 12.3705 11.6234C12.2468 11.3646 12.1773 11.0751 12.1773 10.7696C12.1773 9.67304 13.0694 8.78094 14.166 8.78094L14.166 8.78097ZM14.2752 12.7541C14.2728 12.7542 14.2704 12.7545 14.2679 12.7546C14.2341 12.7564 14.2001 12.7572 14.166 12.7572C14.1318 12.7572 14.0977 12.7564 14.0638 12.7546C14.0627 12.7546 14.0616 12.7544 14.0605 12.7544C13.5452 12.7274 13.0815 12.5031 12.743 12.1562C12.9034 11.9187 13.1537 11.7728 13.4185 11.7728H14.9123C15.1772 11.7728 15.4275 11.9188 15.588 12.1563C15.2506 12.5023 14.7886 12.7261 14.2752 12.7541ZM14.166 11.0664C13.8955 11.0664 13.6754 10.8464 13.6754 10.5759C13.6754 10.3053 13.8955 10.0853 14.166 10.0853C14.4365 10.0853 14.6565 10.3053 14.6565 10.5759C14.6565 10.8464 14.4365 11.0664 14.166 11.0664ZM7.16685 6.20097C7.16685 6.02851 7.30666 5.88871 7.47912 5.88871H10.8807C11.0532 5.88871 11.193 6.02851 11.193 6.20097C11.193 6.37343 11.0532 6.51324 10.8807 6.51324H7.47912C7.30666 6.51324 7.16685 6.37343 7.16685 6.20097ZM7.16685 4.78808C7.16685 4.61562 7.30666 4.47582 7.47912 4.47582H9.60732C9.77978 4.47582 9.91959 4.61562 9.91959 4.78808C9.91959 4.96054 9.77978 5.10035 9.60732 5.10035H7.47912C7.30666 5.10035 7.16685 4.96054 7.16685 4.78808ZM11.1929 15.8332C11.1929 16.0057 11.0531 16.1455 10.8807 16.1455H7.47908C7.30662 16.1455 7.16682 16.0057 7.16682 15.8332C7.16682 15.6608 7.30662 15.521 7.47908 15.521H10.8807C11.0531 15.521 11.1929 15.6608 11.1929 15.8332ZM7.16685 14.4214C7.16685 14.249 7.30666 14.1092 7.47912 14.1092H9.60732C9.77978 14.1092 9.91959 14.249 9.91959 14.4214C9.91959 14.5939 9.77978 14.7337 9.60732 14.7337H7.47912C7.30666 14.7337 7.16685 14.5939 7.16685 14.4214ZM5.47767 4.29117C5.59357 4.10707 5.66092 3.88949 5.66092 3.6564C5.66092 2.9964 5.12396 2.45945 4.46393 2.45945C3.80389 2.45945 3.26807 2.9964 3.26807 3.6564C3.26807 3.88953 3.33537 4.10711 3.45119 4.29121C2.9267 4.46886 2.54502 4.99968 2.54502 5.62515V6.20093C2.54502 6.3734 2.68482 6.5132 2.85728 6.5132H6.07174C6.2442 6.5132 6.384 6.3734 6.384 6.20093V5.62515C6.384 4.99961 6.00225 4.46879 5.47771 4.29117H5.47767ZM4.46396 3.08394C4.77963 3.08394 5.03643 3.34074 5.03643 3.6564C5.03643 3.97207 4.77963 4.22777 4.46396 4.22777C4.1483 4.22777 3.89264 3.97144 3.89264 3.6564C3.89264 3.34136 4.14896 3.08394 4.46396 3.08394ZM5.75951 5.88867H3.16955V5.62515C3.16955 5.19898 3.46857 4.85226 3.83611 4.85226H5.09287C5.46041 4.85226 5.75943 5.19898 5.75943 5.62515V5.88867H5.75951ZM5.47748 9.10769C5.59353 8.92336 5.661 8.70543 5.661 8.47195C5.661 7.81258 5.12404 7.27609 4.464 7.27609C3.80396 7.27609 3.26814 7.81254 3.26814 8.47195C3.26814 8.70543 3.33553 8.92336 3.4515 9.10773C2.92689 9.28519 2.5451 9.81562 2.5451 10.4407V11.0165C2.5451 11.1889 2.6849 11.3287 2.85736 11.3287H6.07182C6.24428 11.3287 6.38408 11.1889 6.38408 11.0165V10.4407C6.38408 9.81558 6.00217 9.28508 5.47748 9.10769ZM4.464 7.90062C4.77967 7.90062 5.03646 8.15695 5.03646 8.47195C5.03646 8.78695 4.77967 9.04441 4.464 9.04441C4.14834 9.04441 3.89268 8.78761 3.89268 8.47195C3.89268 8.15629 4.149 7.90062 4.464 7.90062ZM5.75955 10.7043H3.16955V10.4407C3.16955 10.0152 3.46857 9.66894 3.83611 9.66894H5.09287C5.46041 9.66894 5.75943 10.0152 5.75943 10.4407V10.7043H5.75955ZM5.47775 13.9234C5.59365 13.7393 5.661 13.5218 5.661 13.2887C5.661 12.6287 5.12404 12.0917 4.464 12.0917C3.80396 12.0917 3.26814 12.6286 3.26814 13.2887C3.26814 13.5218 3.33545 13.7394 3.45127 13.9235C2.92678 14.1011 2.5451 14.6319 2.5451 15.2574V15.8332C2.5451 16.0057 2.6849 16.1455 2.85736 16.1455H6.07182C6.24428 16.1455 6.38408 16.0057 6.38408 15.8332V15.2574C6.38408 14.6319 6.00232 14.1011 5.47779 13.9234H5.47775ZM4.46404 12.7162C4.77971 12.7162 5.0365 12.973 5.0365 13.2887C5.0365 13.6043 4.77971 13.86 4.46404 13.86C4.14838 13.86 3.89271 13.6037 3.89271 13.2887C3.89271 12.9736 4.14904 12.7162 4.46404 12.7162ZM5.75959 15.521H3.16955V15.2574C3.16955 14.8312 3.46857 14.4845 3.83611 14.4845H5.09287C5.46041 14.4845 5.75943 14.8312 5.75943 15.2574V15.521H5.75959Z" fill="#FF5900"/>
</g>
<defs>
<clipPath id="clip0_123_42780">
<rect width="20" height="20" fill="white"/>
</clipPath>
</defs>
</svg>
