<svg width="20" height="20" viewBox="0 0 20 20" fill="none" xmlns="http://www.w3.org/2000/svg">
<path d="M3.47819 9.22813L1.91569 12.1375C1.89458 12.1764 1.882 12.2194 1.87876 12.2636C1.87553 12.3078 1.88173 12.3521 1.89694 12.3938C1.91191 12.4353 1.93552 12.4733 1.96623 12.505C1.99693 12.5368 2.03403 12.5617 2.07507 12.5781L3.43757 13.125V16.5625C3.43782 16.6271 3.4581 16.69 3.49559 16.7426C3.53308 16.7952 3.58596 16.8349 3.64694 16.8562L9.89694 19.0437C9.96343 19.0687 10.0367 19.0687 10.1032 19.0437L16.3532 16.8562C16.4142 16.8349 16.467 16.7952 16.5045 16.7426C16.542 16.69 16.5623 16.6271 16.5626 16.5625V13.125L17.9282 12.5875C17.9692 12.5711 18.0063 12.5462 18.037 12.5144C18.0677 12.4826 18.0914 12.4447 18.1063 12.4031C18.1215 12.3615 18.1277 12.3172 18.1245 12.273C18.1213 12.2288 18.1087 12.1858 18.0876 12.1469L16.5251 9.2375C16.4871 9.16461 16.422 9.1096 16.3438 9.08438L14.5813 8.55625C14.6886 8.31608 14.7753 8.06728 14.8407 7.8125H15.3126C15.3954 7.8125 15.4749 7.77958 15.5335 7.72097C15.5921 7.66237 15.6251 7.58288 15.6251 7.5V5.625C15.6251 5.54212 15.5921 5.46263 15.5335 5.40403C15.4749 5.34542 15.3954 5.3125 15.3126 5.3125H14.8438C14.7252 4.86049 14.5443 4.42718 14.3063 4.025L14.6407 3.69063C14.67 3.66157 14.6932 3.62701 14.7091 3.58893C14.725 3.55085 14.7331 3.51 14.7331 3.46875C14.7331 3.4275 14.725 3.38665 14.7091 3.34857C14.6932 3.31049 14.67 3.27593 14.6407 3.24688L13.3157 1.92188C13.2866 1.89258 13.2521 1.86934 13.214 1.85347C13.1759 1.83761 13.1351 1.82944 13.0938 1.82944C13.0526 1.82944 13.0117 1.83761 12.9736 1.85347C12.9356 1.86934 12.901 1.89258 12.8719 1.92188L12.5376 2.25625C12.1354 2.01827 11.7021 1.83737 11.2501 1.71875V1.25C11.2501 1.16712 11.2171 1.08763 11.1585 1.02903C11.0999 0.970424 11.0204 0.9375 10.9376 0.9375H9.06257C8.97969 0.9375 8.9002 0.970424 8.8416 1.02903C8.78299 1.08763 8.75007 1.16712 8.75007 1.25V1.71875C8.29806 1.83737 7.86474 2.01827 7.46257 2.25625L7.12819 1.92188C7.09914 1.89258 7.06458 1.86934 7.0265 1.85347C6.98842 1.83761 6.94757 1.82944 6.90632 1.82944C6.86506 1.82944 6.82422 1.83761 6.78614 1.85347C6.74806 1.86934 6.71349 1.89258 6.68444 1.92188L5.35944 3.24688C5.33015 3.27593 5.3069 3.31049 5.29104 3.34857C5.27517 3.38665 5.26701 3.4275 5.26701 3.46875C5.26701 3.51 5.27517 3.55085 5.29104 3.58893C5.3069 3.62701 5.33015 3.66157 5.35944 3.69063L5.69382 4.025C5.45583 4.42718 5.27494 4.86049 5.15632 5.3125H4.68757C4.60469 5.3125 4.5252 5.34542 4.4666 5.40403C4.40799 5.46263 4.37507 5.54212 4.37507 5.625V7.5C4.37507 7.58288 4.40799 7.66237 4.4666 7.72097C4.5252 7.77958 4.60469 7.8125 4.68757 7.8125H5.15944C5.22524 8.06411 5.312 8.30976 5.41882 8.54688L3.65944 9.0625C3.61961 9.07644 3.58302 9.0983 3.55187 9.12677C3.52072 9.15523 3.49566 9.18971 3.47819 9.22813ZM3.90319 9.74687L9.55632 11.4437L8.12507 14.2906L2.62819 12.125L3.90319 9.74687ZM7.50007 6.5625C7.50007 5.89946 7.76346 5.26357 8.2323 4.79473C8.70114 4.32589 9.33703 4.0625 10.0001 4.0625C10.6631 4.0625 11.299 4.32589 11.7678 4.79473C12.2367 5.26357 12.5001 5.89946 12.5001 6.5625C12.4999 6.86832 12.4427 7.17144 12.3313 7.45625L11.5001 7.28437C11.54 7.15153 11.5611 7.01372 11.5626 6.875C11.5626 6.4606 11.3979 6.06317 11.1049 5.77015C10.8119 5.47712 10.4145 5.3125 10.0001 5.3125C9.58567 5.3125 9.18824 5.47712 8.89521 5.77015C8.60219 6.06317 8.43757 6.4606 8.43757 6.875C8.43905 7.01372 8.46009 7.15153 8.50007 7.28437L7.66882 7.45938C7.55802 7.1733 7.50081 6.86928 7.50007 6.5625ZM10.9376 6.875C10.9376 7.06042 10.8826 7.24168 10.7796 7.39585C10.6766 7.55002 10.5301 7.67018 10.3588 7.74114C10.1875 7.81209 9.99903 7.83066 9.81717 7.79449C9.63531 7.75831 9.46827 7.66902 9.33715 7.53791C9.20604 7.4068 9.11676 7.23975 9.08058 7.0579C9.04441 6.87604 9.06297 6.68754 9.13393 6.51623C9.20489 6.34493 9.32505 6.19851 9.47922 6.0955C9.63339 5.99248 9.81465 5.9375 10.0001 5.9375C10.2487 5.9375 10.4872 6.03627 10.663 6.21209C10.8388 6.3879 10.9376 6.62636 10.9376 6.875ZM8.79694 7.85938C8.94128 8.03983 9.12435 8.1855 9.33261 8.28561C9.54088 8.38572 9.76899 8.4377 10.0001 8.4377C10.2311 8.4377 10.4593 8.38572 10.6675 8.28561C10.8758 8.1855 11.0589 8.03983 11.2032 7.85938L13.1251 8.2625V10L11.8751 10.375V9.375H11.2501V10.55L10.0001 10.9375L8.75007 10.5625V9.375H8.12507V10.3625L6.87507 10V8.2625L8.79694 7.85938ZM4.06257 13.3594L8.17507 14.9781C8.21188 14.9927 8.25111 15.0001 8.29069 15C8.3484 14.9998 8.40493 14.9837 8.45403 14.9533C8.50312 14.923 8.54285 14.8797 8.56882 14.8281L9.68757 12.5812V18.3094L4.06257 16.3406V13.3594ZM15.9376 16.3406L10.3126 18.3094V12.5812L11.4313 14.8281C11.4573 14.8797 11.497 14.923 11.5461 14.9533C11.5952 14.9837 11.6517 14.9998 11.7094 15C11.749 15.0001 11.7883 14.9927 11.8251 14.9781L15.9376 13.3594V16.3406ZM11.8751 14.2906L10.4563 11.4437L16.1094 9.74687L17.3844 12.125L11.8751 14.2906ZM13.7501 9.8V8.95312L15.1626 9.375L13.7501 9.8ZM5.71257 7.4375C5.69796 7.36585 5.65868 7.30159 5.60159 7.25591C5.54449 7.21024 5.47318 7.18603 5.40007 7.1875H5.00007V5.9375H5.40632C5.47942 5.93897 5.55074 5.91476 5.60784 5.86909C5.66493 5.82341 5.70421 5.75915 5.71882 5.6875C5.82714 5.13982 6.03929 4.61793 6.34382 4.15C6.38638 4.09026 6.40658 4.01745 6.40086 3.94432C6.39515 3.87119 6.36389 3.8024 6.31257 3.75L6.02194 3.4625L6.90632 2.58438L7.18757 2.875C7.23842 2.92619 7.30542 2.9582 7.37719 2.96561C7.44896 2.97301 7.52109 2.95535 7.58132 2.91562C8.04924 2.6111 8.57113 2.39895 9.11882 2.29062C9.19047 2.27602 9.25472 2.23674 9.3004 2.17964C9.34608 2.12254 9.37029 2.05123 9.36882 1.97812V1.5625H10.6188V1.96875C10.6173 2.04186 10.6416 2.11317 10.6872 2.17027C10.7329 2.22737 10.7972 2.26664 10.8688 2.28125C11.4176 2.39436 11.9396 2.61185 12.4063 2.92188C12.4684 2.96418 12.5436 2.98272 12.6182 2.97412C12.6928 2.96551 12.7618 2.93032 12.8126 2.875L13.1001 2.58438L13.9844 3.46875L13.6876 3.75C13.6364 3.80085 13.6044 3.86785 13.597 3.93962C13.5896 4.01139 13.6072 4.08352 13.6469 4.14375C13.9515 4.61168 14.1636 5.13357 14.2719 5.68125C14.2866 5.7529 14.3258 5.81716 14.3829 5.86283C14.44 5.90851 14.5113 5.93272 14.5844 5.93125H15.0001V7.18125H14.5938C14.5207 7.17978 14.4494 7.20399 14.3923 7.24967C14.3352 7.29534 14.2959 7.3596 14.2813 7.43125C14.2142 7.7549 14.1093 8.06955 13.9688 8.36875L13.7501 8.3V8.00937C13.7517 7.9367 13.7279 7.86574 13.6829 7.8087C13.6378 7.75167 13.5743 7.71212 13.5032 7.69687L12.9501 7.58125C13.0658 7.25405 13.1249 6.90955 13.1251 6.5625C13.1251 5.7337 12.7958 4.93884 12.2098 4.35279C11.6237 3.76674 10.8289 3.4375 10.0001 3.4375C9.17127 3.4375 8.37641 3.76674 7.79036 4.35279C7.20431 4.93884 6.87507 5.7337 6.87507 6.5625C6.87448 6.91165 6.93367 7.25832 7.05007 7.5875L6.49694 7.70312C6.42587 7.71837 6.36234 7.75792 6.31728 7.81496C6.27222 7.87199 6.24845 7.94295 6.25007 8.01562V8.30312L6.01569 8.375C5.88021 8.0747 5.77854 7.76027 5.71257 7.4375ZM6.25007 8.95V9.8L4.83757 9.375L6.25007 8.95Z" fill="#FF5900"/>
</svg>
