<svg width="19" height="19" viewBox="0 0 19 19" fill="none" xmlns="http://www.w3.org/2000/svg">
<path d="M15.7938 16.625C14.1444 16.625 12.5118 16.2688 10.8957 15.5562C9.27965 14.8438 7.81164 13.8278 6.49167 12.5083C5.17169 11.1889 4.15572 9.72431 3.44375 8.11458C2.73178 6.50486 2.37553 4.86875 2.375 3.20625V2.375H7.04583L7.77812 6.35312L5.52187 8.62917C5.81215 9.14375 6.13542 9.63194 6.49167 10.0938C6.84792 10.5556 7.23056 10.9844 7.63958 11.3802C8.02222 11.7628 8.44128 12.1291 8.89675 12.479C9.35222 12.829 9.84358 13.1554 10.3708 13.4583L12.6667 11.1625L16.625 11.974V16.625H15.7938Z" fill="#FF5900"/>
</svg>
