<svg width="20" height="19" viewBox="0 0 20 19" fill="none" xmlns="http://www.w3.org/2000/svg">
<g clip-path="url(#clip0_500_3834)">
<path fill-rule="evenodd" clip-rule="evenodd" d="M7.35328 0.374485C5.51708 0.909368 3.88472 1.98526 2.66916 3.46179C1.4536 4.93833 0.711289 6.74695 0.539062 8.6517H4.88192C5.13507 5.75318 5.97546 2.9365 7.35192 0.373128L7.35328 0.374485ZM4.88192 10.3481H0.539062C0.71093 12.2529 1.45293 14.0617 2.66824 15.5385C3.88356 17.0153 5.51577 18.0915 7.35192 18.6267C5.97546 16.0633 5.13507 13.2466 4.88192 10.3481ZM9.52878 18.9891C7.88335 16.3794 6.87454 13.4195 6.58378 10.3481H13.417C13.1262 13.4195 12.1174 16.3794 10.472 18.9891C10.1578 19.0047 9.84299 19.0047 9.52878 18.9891ZM12.6502 18.6253C14.4862 18.0902 16.1182 17.0142 17.3335 15.5377C18.5488 14.0612 19.2909 12.2527 19.4631 10.3481H15.1202C14.8671 13.2466 14.0267 16.0633 12.6502 18.6267V18.6253ZM15.1202 8.6517H19.4631C19.2912 6.74688 18.5492 4.93808 17.3339 3.4613C16.1186 1.98452 14.4864 0.908327 12.6502 0.373128C14.0267 2.9365 14.8671 5.75318 15.1202 8.6517ZM9.52878 0.0107704C9.84344 -0.00489221 10.1587 -0.00489221 10.4733 0.0107704C12.1183 2.62053 13.1266 5.58047 13.417 8.6517H6.58513C6.87963 5.56148 7.89071 2.59884 9.52878 0.0107704Z" fill="#FF5900"/>
</g>
<defs>
<clipPath id="clip0_500_3834">
<rect width="19" height="19" fill="white" transform="translate(0.5)"/>
</clipPath>
</defs>
</svg>
