<svg width="48" height="48" viewBox="0 0 48 48" fill="none" xmlns="http://www.w3.org/2000/svg">
<path d="M12.2837 22.9352C12.264 23.3594 11.9042 23.6872 11.4801 23.6675C11.056 23.6479 10.728 23.2881 10.7477 22.8639C10.7673 22.4398 11.1272 22.1119 11.5513 22.1315C11.9755 22.1511 12.3034 22.511 12.2837 22.9352ZM44.044 34.8276C43.8409 35.2879 43.4718 35.6411 43.0047 35.8221L40.6977 36.7166C40.4751 36.8029 40.2459 36.8437 40.0202 36.8437C39.2665 36.8437 38.5536 36.3872 38.2651 35.6433L38.1014 35.2211L36.3929 35.934C36.4657 36.4635 36.371 37.0085 36.109 37.485C35.7862 38.0719 35.2541 38.4991 34.6088 38.6899C34.7859 39.3085 34.73 39.9921 34.3988 40.5941C33.9037 41.4945 32.9359 41.9734 31.9721 41.8924C31.9796 42.3157 31.8807 42.7452 31.6637 43.1396C31.3383 43.7314 30.7998 44.1607 30.1474 44.3485C29.7813 44.4539 29.405 44.4754 29.0417 44.4157C29.0339 44.8099 28.9339 45.207 28.7319 45.5742C28.4063 46.166 27.8448 46.6106 27.1914 46.7938C26.9656 46.8571 26.7366 46.8884 26.5098 46.8884C26.0848 46.8884 25.6673 46.7784 25.2915 46.5626L24.7341 46.2424C24.4092 46.6669 23.9604 46.9792 23.4366 47.1379C23.1882 47.2132 22.9346 47.2505 22.6825 47.2505C22.2649 47.2505 21.8518 47.1481 21.4743 46.9462C20.9461 46.6637 20.5484 46.2177 20.3232 45.6947C19.6457 45.9515 18.8677 45.9228 18.1913 45.561C17.7218 45.3099 17.3538 44.9253 17.1195 44.4713C16.3993 44.8241 15.5274 44.8384 14.77 44.4334C14.1648 44.1096 13.7213 43.5679 13.5212 42.9078C13.4191 42.571 13.3869 42.2246 13.4227 41.8858C13.0278 41.8769 12.6327 41.7775 12.2703 41.5836C11.6652 41.2599 11.2216 40.7181 11.0217 40.0579C10.8215 39.3978 10.8897 38.7009 11.2133 38.0958L11.812 36.9763C11.6818 36.6501 11.615 36.3004 11.5513 35.9581C11.442 35.3708 11.3531 34.9791 11.12 34.8887C11.0119 34.8467 10.7603 34.7421 9.86543 34.3438L9.65712 34.8151C9.34681 35.5168 8.65681 35.935 7.93484 35.935C7.68125 35.935 7.4239 35.8834 7.17753 35.7746L4.91422 34.7743C4.45606 34.5718 4.10365 34.202 3.92215 33.7327C3.74065 33.2635 3.75218 32.7529 3.95468 32.2947L9.15106 20.5379C9.35356 20.0797 9.7234 19.7274 10.1926 19.5458C10.6617 19.3642 11.1723 19.3758 11.6307 19.5784L13.894 20.5787C14.8421 20.9976 15.2726 22.11 14.8535 23.0582L14.5041 23.8487L15.8866 24.4865C15.9048 24.4949 15.9227 24.5041 15.9402 24.5138C16.7154 24.95 17.5437 24.7558 18.5924 24.51C19.9958 24.181 21.7199 23.7773 23.737 24.9397C26.5249 23.2423 28.6655 24.1149 30.2478 24.7617C31.3915 25.2291 32.0709 25.4766 32.7355 25.131L33.9397 24.4864L33.6186 23.6581C33.244 22.6914 33.7256 21.6003 34.6918 21.2255L36.9991 20.3312C37.4662 20.15 37.9769 20.1623 38.4371 20.3653C38.8973 20.5684 39.2505 20.9374 39.4316 21.4044L44.0778 33.3893C44.2592 33.8567 44.2471 34.3673 44.044 34.8276ZM8.28547 34.2087L13.4817 22.4519C13.5364 22.3281 13.5087 22.2169 13.4874 22.1615C13.4659 22.1062 13.4115 22.0053 13.2879 21.9506L11.0245 20.9503C10.971 20.9267 10.9198 20.9184 10.8745 20.9184C10.8149 20.9184 10.7655 20.9326 10.7342 20.9448C10.6789 20.9662 10.5779 21.0205 10.5233 21.1443L5.327 32.9011C5.27225 33.0248 5.3 33.1361 5.32137 33.1914C5.34275 33.2467 5.39712 33.3477 5.52087 33.4024L7.78428 34.4027C7.97253 34.486 8.20212 34.397 8.28547 34.2087ZM14.133 40.1705L15.6012 37.6299C15.8211 37.1182 15.6139 36.5184 15.1211 36.2554C14.5968 35.9755 13.9425 36.1734 13.6627 36.6968L12.5361 38.8032C12.4013 39.0551 12.3733 39.3462 12.4572 39.6229C12.5411 39.8997 12.7259 40.1263 12.9778 40.261C13.3481 40.4589 13.7997 40.4199 14.133 40.1705ZM16.9394 42.6614L18.5697 39.5043C18.6523 39.0492 18.4298 38.5757 18.0207 38.3573C17.6473 38.1579 17.1923 38.1986 16.8583 38.4525L15.036 41.6529C14.9012 41.9049 14.8733 42.1959 14.9571 42.4727C15.041 42.7494 15.2259 42.976 15.4778 43.1107C16.0011 43.3907 16.6566 43.189 16.9394 42.6614ZM20.2571 43.9476L21.6988 41.1768C21.781 40.722 21.5584 40.249 21.1497 40.0309C20.7425 39.8135 20.2293 39.8879 19.8972 40.2025L18.3327 43.2323C18.3124 43.6464 18.5305 44.0413 18.8988 44.2384C19.3616 44.4858 19.9375 44.3596 20.2571 43.9476ZM23.6397 45.1817L24.7198 43.1617C24.9142 42.7984 24.8803 42.3468 24.6336 42.0111C24.5395 41.8831 24.4199 41.7799 24.2784 41.7042C23.8711 41.4866 23.3576 41.5614 23.0254 41.877L21.6182 44.5815C21.5844 45.0043 21.8063 45.4225 22.1819 45.6235C22.7057 45.9036 23.3596 45.7053 23.6397 45.1817ZM27.0111 43.4537C26.974 43.4329 26.3138 43.0468 26.3138 43.0468C26.2709 43.3308 26.1816 43.6093 26.0426 43.8692L25.4719 44.9362L26.0387 45.2618C26.263 45.3905 26.5286 45.4217 26.7867 45.3494C27.0549 45.2742 27.2848 45.0926 27.4176 44.8513C27.6888 44.3583 27.5065 43.7314 27.0111 43.4537ZM25.4063 38.4582C25.0452 38.255 24.9173 37.7977 25.1204 37.4368C25.3236 37.0758 25.7807 36.9479 26.1418 37.151L31.694 40.2751C32.1887 40.547 32.8126 40.3658 33.0846 39.8711C33.3541 39.3812 33.1702 38.7556 32.6744 38.4765C31.3728 37.7475 29.8976 36.9213 28.4464 36.0905C28.087 35.8847 27.9624 35.4264 28.1681 35.067C28.3738 34.7075 28.8318 34.5829 29.1916 34.7887C30.6373 35.6164 32.1098 36.4411 33.4088 37.1687C33.4089 37.1688 33.409 37.1689 33.4091 37.1689C33.6411 37.2986 33.9128 37.3289 34.1742 37.2542C34.4419 37.1776 34.6622 37.0028 34.7946 36.7622C34.9542 36.4719 34.961 36.1309 34.8132 35.8264C34.7191 35.6326 34.5696 35.4731 34.381 35.3655L28.2448 31.868C27.2453 31.2985 25.965 31.8169 24.4822 32.4171C22.2224 33.3319 19.4106 34.4702 16.9906 31.3562C16.8183 31.1345 16.7526 30.8605 16.8054 30.5846C16.8582 30.3081 17.0215 30.0774 17.2647 29.9352C18.988 28.9294 20.4424 27.8326 21.5881 26.6747C21.8481 26.412 22.1101 26.1679 22.3726 25.9417C21.1364 25.4555 20.0605 25.7068 18.9349 25.9706C17.7411 26.2504 16.5071 26.5399 15.2325 25.8366L13.8978 25.2209L10.472 32.9719C11.2688 33.3265 11.5636 33.4519 11.663 33.4904C12.5044 33.817 12.7868 34.5692 12.9387 35.2463C13.722 34.5791 14.866 34.419 15.8273 34.932C16.5484 35.3168 17.0153 36.0027 17.1492 36.7574C17.6793 36.6815 18.233 36.7703 18.7269 37.034C19.3271 37.3543 19.7564 37.8838 19.9587 38.4948C20.5782 38.3243 21.2562 38.3873 21.8559 38.7075C22.4561 39.0278 22.8853 39.5571 23.0877 40.1681C23.7072 39.9978 24.3856 40.0607 24.9852 40.3811C25.281 40.5392 25.5372 40.7481 25.7487 41.0032L28.9616 42.822C29.1961 42.9524 29.47 42.9826 29.7326 42.9069C29.9986 42.8303 30.2177 42.6561 30.3495 42.4165C30.6192 41.9265 30.4351 41.3009 29.9395 41.022M37.5592 33.8221L34.4862 25.8955L33.4358 26.4577C32.1142 27.145 30.8771 26.6394 29.6805 26.1503C28.1152 25.5104 26.4962 24.8485 24.1705 26.444C23.6709 26.7853 23.1612 27.2176 22.6545 27.7295C21.5432 28.8526 20.1735 29.9165 18.577 30.8975C20.1886 32.5368 21.9286 31.8325 23.9194 31.0265C25.6092 30.3424 27.3567 29.635 28.9876 30.5646L35.1239 34.0621C35.3641 34.199 35.5781 34.3713 35.7598 34.5726L37.5592 33.8221ZM42.6796 33.9319L38.0334 21.9469C37.9845 21.8207 37.8862 21.7617 37.8319 21.7378C37.7982 21.7229 37.743 21.7046 37.6758 21.7046C37.6348 21.7046 37.5895 21.7114 37.5417 21.7299L35.2345 22.6243C35.0424 22.6987 34.9431 22.924 35.0175 23.1162L39.6639 35.101C39.7382 35.293 39.9632 35.3923 40.1556 35.318L42.4627 34.4235C42.5889 34.3745 42.6478 34.2763 42.6717 34.222C42.6956 34.1678 42.7285 34.0579 42.6796 33.9319ZM36.9607 22.8855C36.536 22.8855 36.1918 23.2297 36.1918 23.6543C36.1918 24.0789 36.536 24.4232 36.9607 24.4232C37.3853 24.4232 37.7295 24.0789 37.7295 23.6543C37.7295 23.2297 37.3853 22.8855 36.9607 22.8855ZM37.9142 18.0187C37.9369 18.2303 37.8687 18.4416 37.7263 18.5999C37.584 18.7581 37.3812 18.8486 37.1685 18.8486H29.9907C30.0042 18.9372 30.0162 19.0263 30.0258 19.1162C30.0485 19.3278 29.9802 19.5391 29.8379 19.6973C29.6956 19.8556 29.4928 19.946 29.2801 19.946H18.7198C18.507 19.946 18.3042 19.8557 18.162 19.6974C18.0197 19.5392 17.9515 19.3279 17.9742 19.1163C17.9838 19.0264 17.9957 18.9372 18.0091 18.8486H10.8314C10.6186 18.8486 10.4158 18.7582 10.2736 18.5999C10.1313 18.4416 10.0631 18.2304 10.0857 18.0187C10.2854 16.1528 11.4452 14.6099 13.0441 13.8544C12.5627 13.3201 12.2692 12.6134 12.2692 11.8393C12.2692 10.1775 13.6212 8.82561 15.2829 8.82561C16.9446 8.82561 18.2966 10.1776 18.2966 11.8393C18.2966 12.6162 18.001 13.3253 17.5165 13.8603C18.3405 14.2522 19.0571 14.8551 19.5825 15.6112C20.1429 15.0159 20.8219 14.5364 21.5804 14.2073C20.9537 13.5847 20.5649 12.7228 20.5649 11.7717C20.5649 9.87757 22.1059 8.33651 24 8.33651C25.8942 8.33651 27.4352 9.87757 27.4352 11.7717C27.4352 12.7229 27.0464 13.5847 26.4196 14.2074C27.1782 14.5365 27.8571 15.016 28.4175 15.6113C28.9429 14.8552 29.6594 14.2523 30.4836 13.8604C29.9991 13.3254 29.7035 12.6163 29.7035 11.8394C29.7035 10.1776 31.0555 8.8257 32.7172 8.8257C34.3789 8.8257 35.7309 10.1777 35.7309 11.8394C35.7309 12.6135 35.4373 13.3201 34.9559 13.8545C36.5547 14.6098 37.7146 16.1527 37.9142 18.0187ZM32.7171 13.3531C33.5517 13.3531 34.2308 12.674 34.2308 11.8394C34.2308 11.0047 33.5517 10.3257 32.7171 10.3257C31.8824 10.3257 31.2034 11.0047 31.2034 11.8394C31.2034 12.674 31.8824 13.3531 32.7171 13.3531ZM23.9999 13.7067C25.067 13.7067 25.9351 12.8387 25.9351 11.7716C25.9351 10.7045 25.067 9.83642 23.9999 9.83642C22.933 9.83642 22.0648 10.7045 22.0648 11.7716C22.0649 12.8387 22.9331 13.7067 23.9999 13.7067ZM15.2829 13.3531C16.1175 13.3531 16.7966 12.674 16.7966 11.8394C16.7966 11.0047 16.1175 10.3257 15.2829 10.3257C14.4482 10.3257 13.7692 11.0047 13.7692 11.8394C13.7692 12.674 14.4482 13.3531 15.2829 13.3531ZM18.4402 17.3485C18.4996 17.2112 18.5631 17.0762 18.6321 16.9445C18.0126 15.681 16.7073 14.853 15.2829 14.853C13.6638 14.853 12.2724 15.8806 11.7626 17.3485H18.4402ZM28.3674 18.4459C27.7994 16.5513 26.0486 15.2067 23.9999 15.2067C21.9512 15.2067 20.2003 16.5513 19.6325 18.4459H28.3674ZM36.2374 17.3485C35.7276 15.8806 34.3362 14.853 32.7171 14.853C31.2927 14.853 29.9875 15.681 29.3679 16.9446C29.4369 17.0763 29.5003 17.2113 29.5598 17.3485H36.2374ZM42.2672 20.5168C42.2672 20.931 42.603 21.2668 43.0172 21.2668C43.4314 21.2668 43.7672 20.931 43.7672 20.5168C43.7672 17.0212 42.8418 13.5855 41.0911 10.5809C40.8826 10.223 40.4235 10.1019 40.0656 10.3105C39.7077 10.5191 39.5866 10.9782 39.7951 11.336C41.4124 14.1116 42.2672 17.2863 42.2672 20.5168ZM4.98275 21.2668C5.39693 21.2668 5.73275 20.931 5.73275 20.5168C5.73275 16.5082 7.03165 12.7979 9.22925 9.78223L9.28306 11.2812C9.29759 11.686 9.63031 12.0043 10.0321 12.0043C10.0412 12.0043 10.0503 12.0042 10.0595 12.0038C10.4735 11.9889 10.7969 11.6413 10.7821 11.2274L10.6677 8.04317C14.0034 4.4802 18.7457 2.24951 23.9999 2.24951C27.8667 2.24951 31.6374 3.48354 34.7463 5.74564L33.2354 5.79992C32.8215 5.81473 32.498 6.16236 32.5128 6.57636C32.5273 6.98117 32.8601 7.29945 33.2619 7.29945C33.271 7.29945 33.2801 7.29936 33.2892 7.29898L36.7953 7.17307C37.0257 7.16482 37.2395 7.05101 37.3752 6.86445C37.5106 6.67798 37.5529 6.43948 37.4897 6.21776L36.5271 2.84398C36.4134 2.44554 35.9979 2.21473 35.6 2.32854C35.2017 2.44217 34.9709 2.8572 35.0846 3.25554L35.4031 4.37201C32.0828 2.02676 28.0912 0.749512 23.9999 0.749512C18.2846 0.749512 13.1289 3.18861 9.51659 7.07951L6.32703 7.98954C5.92878 8.10317 5.69797 8.5182 5.81159 8.91654C5.92531 9.31489 6.34006 9.54561 6.73868 9.43198L7.86415 9.11089C5.57797 12.3355 4.23275 16.2719 4.23275 20.5168C4.23275 20.931 4.56856 21.2668 4.98275 21.2668Z" fill="black"/>
</svg>
