<svg width="48" height="48" viewBox="0 0 48 48" fill="none" xmlns="http://www.w3.org/2000/svg">
<path d="M25.9609 27C26.5132 27 26.9609 26.5523 26.9609 26C26.9609 25.4477 26.5132 25 25.9609 25C25.4087 25 24.9609 25.4477 24.9609 26C24.9609 26.5523 25.4087 27 25.9609 27Z" fill="black"/>
<path fill-rule="evenodd" clip-rule="evenodd" d="M15.2544 14.707L17.2544 16.707C17.6444 17.098 18.2784 17.098 18.6684 16.707L22.6684 12.707C23.0584 12.317 23.0584 11.683 22.6684 11.293C22.2784 10.903 21.6444 10.903 21.2544 11.293L17.9614 14.586L16.6684 13.293C16.2784 12.903 15.6444 12.903 15.2544 13.293C14.8644 13.683 14.8644 14.317 15.2544 14.707Z" fill="black"/>
<path fill-rule="evenodd" clip-rule="evenodd" d="M15.2544 24.707L17.2544 26.707C17.6444 27.098 18.2784 27.098 18.6684 26.707L22.6684 22.707C23.0584 22.317 23.0584 21.683 22.6684 21.293C22.2784 20.903 21.6444 20.903 21.2544 21.293L17.9614 24.586L16.6684 23.293C16.2784 22.903 15.6444 22.903 15.2544 23.293C14.8644 23.683 14.8644 24.317 15.2544 24.707Z" fill="black"/>
<path fill-rule="evenodd" clip-rule="evenodd" d="M25.9609 13H35.9609C36.5129 13 36.9609 12.552 36.9609 12C36.9609 11.448 36.5129 11 35.9609 11H25.9609C25.4089 11 24.9609 11.448 24.9609 12C24.9609 12.552 25.4089 13 25.9609 13Z" fill="black"/>
<path fill-rule="evenodd" clip-rule="evenodd" d="M25.9609 23H29.9999C30.5519 23 30.9999 22.552 30.9999 22C30.9999 21.448 30.5519 21 29.9999 21H25.9609C25.4089 21 24.9609 21.448 24.9609 22C24.9609 22.552 25.4089 23 25.9609 23Z" fill="black"/>
<path fill-rule="evenodd" clip-rule="evenodd" d="M25.9609 17H31.9609C32.5129 17 32.9609 16.552 32.9609 16C32.9609 15.448 32.5129 15 31.9609 15H25.9609C25.4089 15 24.9609 15.448 24.9609 16C24.9609 16.552 25.4089 17 25.9609 17Z" fill="black"/>
<path fill-rule="evenodd" clip-rule="evenodd" d="M10.9609 22V7.5C10.9609 7.367 11.0139 7.24 11.1069 7.146C11.2009 7.053 11.3279 7 11.4609 7H13.9999C14.5519 7 14.9999 6.552 14.9999 6C14.9999 5.448 14.5519 5 13.9999 5H11.4609C10.7979 5 10.1619 5.263 9.69294 5.732C9.22394 6.201 8.96094 6.837 8.96094 7.5V22C8.96094 22.552 9.40894 23 9.96094 23C10.5129 23 10.9609 22.552 10.9609 22Z" fill="black"/>
<path fill-rule="evenodd" clip-rule="evenodd" d="M28.961 5V4C28.961 3.204 28.645 2.441 28.082 1.879C27.519 1.316 26.756 1 25.961 1C24.304 1 22.961 2.343 22.961 4V5H18C17.448 5 17 5.448 17 6C17 6.552 17.448 7 18 7H40.461C40.593 7 40.72 7.053 40.814 7.146C40.908 7.24 40.961 7.367 40.961 7.5L41 12.009C41.005 12.561 41.457 13.005 42.009 13C42.561 12.995 43.005 12.543 43 11.991L42.961 7.491C42.961 6.837 42.697 6.201 42.228 5.732C41.76 5.263 41.124 5 40.461 5H28.961ZM26.961 4C26.961 3.735 26.855 3.48 26.668 3.293C26.48 3.105 26.226 3 25.961 3C25.408 3 24.961 3.448 24.961 4V5H25.961H26.961V4Z" fill="black"/>
<path fill-rule="evenodd" clip-rule="evenodd" d="M41 37.994L40.961 44.5C40.961 44.633 40.908 44.76 40.815 44.854C40.721 44.947 40.594 45 40.461 45H22C21.448 45 21 45.448 21 46C21 46.552 21.448 47 22 47H40.461C41.124 47 41.76 46.737 42.229 46.268C42.698 45.799 42.961 45.163 42.961 44.5C42.961 44.506 43 38.006 43 38.006C43.004 37.454 42.558 37.003 42.006 37C41.454 36.997 41.004 37.442 41 37.994Z" fill="black"/>
<path fill-rule="evenodd" clip-rule="evenodd" d="M5.13394 37.068C2.76594 37.462 0.960938 39.52 0.960938 42V44.5C0.960938 45.881 2.07994 47 3.46094 47H16.4609C17.8409 47 18.9609 45.881 18.9609 44.5V42C18.9609 39.52 17.1549 37.462 14.7869 37.068C16.1259 35.793 16.9609 33.993 16.9609 32C16.9609 28.137 13.8239 25 9.96094 25C6.09694 25 2.96094 28.137 2.96094 32C2.96094 33.993 3.79494 35.793 5.13394 37.068ZM14.9609 45H16.4609C16.7369 45 16.9609 44.776 16.9609 44.5V42C16.9609 40.343 15.6179 39 13.9609 39H5.96094C4.30394 39 2.96094 40.343 2.96094 42V44.5C2.96094 44.776 3.18494 45 3.46094 45H4.96094V42C4.96094 41.448 5.40894 41 5.96094 41C6.51294 41 6.96094 41.448 6.96094 42V45H12.9609V42C12.9609 41.448 13.4089 41 13.9609 41C14.5129 41 14.9609 41.448 14.9609 42V45ZM9.96094 27C12.7199 27 14.9609 29.24 14.9609 32C14.9609 34.76 12.7199 37 9.96094 37C7.20094 37 4.96094 34.76 4.96094 32C4.96094 29.24 7.20094 27 9.96094 27Z" fill="black"/>
<path fill-rule="evenodd" clip-rule="evenodd" d="M40.8535 15.732C39.7005 16.885 21.3505 35.335 21.3505 35.335C21.1645 35.522 21.0605 35.775 21.0605 36.039V40.039C21.0605 40.592 21.5075 41.039 22.0605 41.039H26.0605C26.3265 41.039 26.5815 40.933 26.7695 40.744C26.7695 40.744 35.9405 31.513 42.0165 25.41L42.2925 25.686C42.3865 25.78 42.4385 25.907 42.4385 26.039C42.4385 26.172 42.3865 26.299 42.2925 26.393L38.4135 30.272C37.9445 30.74 37.6815 31.376 37.6815 32.039C37.6815 32.702 37.9445 33.338 38.4135 33.807C38.8925 34.286 39.3535 34.746 39.3535 34.746C39.7435 35.137 40.3775 35.137 40.7675 34.746C41.1575 34.356 41.1575 33.722 40.7675 33.332L39.8275 32.393C39.7345 32.299 39.6815 32.172 39.6815 32.039C39.6815 31.907 39.7345 31.78 39.8275 31.686L43.7065 27.807C44.1755 27.338 44.4385 26.702 44.4385 26.039C44.4385 25.376 44.1755 24.74 43.7065 24.272L43.4285 23.993C44.5995 22.817 45.5865 21.828 46.2675 21.146C47.2435 20.17 47.2435 18.587 46.2675 17.611C45.6865 17.03 44.9695 16.313 44.3885 15.732C43.4125 14.756 41.8295 14.756 40.8535 15.732ZM36.0615 23.374L38.6475 25.96C33.4355 31.198 27.0715 37.603 25.6445 39.039H23.0605V36.452C24.4815 35.021 30.8465 28.615 36.0615 23.374ZM40.0585 24.542L37.4725 21.957C39.4965 19.924 41.2335 18.18 42.2675 17.146C42.4625 16.951 42.7795 16.951 42.9745 17.146C43.5555 17.727 44.2725 18.444 44.8535 19.025C45.0485 19.22 45.0485 19.537 44.8535 19.732C43.8185 20.766 42.0815 22.51 40.0585 24.542Z" fill="black"/>
</svg>
