<svg width="48" height="48" viewBox="0 0 48 48" fill="none" xmlns="http://www.w3.org/2000/svg">
<path d="M47.34 42.0179L44.2096 36.5969C43.7803 35.8529 42.9791 35.455 42.1749 35.5012L41.1009 33.6416C42.597 32.284 43.6574 30.545 44.1833 28.5764C45.6882 22.9596 42.3438 17.1654 36.728 15.6601C36.0779 15.4859 35.421 15.3754 34.7642 15.3262V9.8093C34.7642 9.61055 34.6852 9.41996 34.5447 9.27943L26.9072 1.64171C26.7666 1.50118 26.576 1.42224 26.3773 1.42224H3.27045C2.09229 1.42224 1.13379 2.38074 1.13379 3.5589V42.5548C1.13379 43.727 2.08751 44.6807 3.25976 44.6807H32.6409C33.8118 44.6807 34.7643 43.727 34.7643 42.5548V36.367C35.5864 36.3071 36.4022 36.1506 37.1984 35.8953L38.2714 37.7551C38.1432 37.9504 38.0439 38.1662 37.9817 38.399C37.8296 38.9676 37.9072 39.5593 38.2001 40.0652L41.3302 45.4858C41.6233 45.9938 42.0985 46.3576 42.6681 46.5099C42.8584 46.5608 43.0513 46.586 43.2427 46.586C43.6233 46.586 43.9977 46.4865 44.3338 46.2918L46.534 45.0217C47.5844 44.4157 47.946 43.0684 47.34 42.018V42.0179ZM27.1267 3.98087L32.2057 9.05987H27.7539C27.4081 9.05987 27.1267 8.77852 27.1267 8.43268V3.98087ZM32.641 43.182H3.25985C2.91401 43.182 2.63266 42.9006 2.63266 42.5548V3.5588C2.63266 3.20715 2.91879 2.92102 3.27045 2.92102H25.6279V8.43268C25.6279 9.60493 26.5816 10.5586 27.7538 10.5586H33.2655V15.3214C31.6848 15.4301 30.1374 15.8981 28.7251 16.7135C26.5339 17.9788 24.9035 19.943 24.066 22.3021H17.9504C17.5365 22.3021 17.2009 22.6377 17.2009 23.0516C17.2009 23.4655 17.5365 23.801 17.9504 23.801H23.653C23.5278 24.4289 23.4598 25.0608 23.4493 25.6905H17.9504C17.5365 25.6905 17.2009 26.026 17.2009 26.4399C17.2009 26.8538 17.5365 27.1893 17.9504 27.1893H23.5327C23.7081 28.5568 24.1549 29.889 24.8652 31.1189C26.2738 33.558 28.5483 35.3027 31.2691 36.0316C31.9292 36.2091 32.5968 36.32 33.2654 36.3679V42.5549C33.2654 42.9007 32.9853 43.1821 32.6408 43.1821L32.641 43.182ZM37.2646 34.2825C35.4649 34.9819 33.5262 35.0863 31.6577 34.584C29.3229 33.9585 27.3716 32.4616 26.1633 30.3691C25.4537 29.1405 25.0505 27.7927 24.965 26.4169C24.9644 26.3963 24.9634 26.3758 24.9611 26.3556C24.9087 25.4086 25.0068 24.4487 25.2595 23.5059C25.8851 21.1711 27.382 19.2198 29.4746 18.0115C30.8637 17.2094 32.4052 16.7988 33.9676 16.7961C33.9833 16.7971 33.9989 16.7985 34.0149 16.7985C34.0282 16.7985 34.0413 16.7971 34.0544 16.7965C34.817 16.8025 35.584 16.9052 36.3402 17.1078C41.1577 18.3991 44.0268 23.37 42.7356 28.189C42.2366 30.057 41.1769 31.6833 39.6711 32.8925C39.3828 33.1241 39.3064 33.5313 39.4914 33.8517L40.7601 36.0484L39.4527 36.8032L38.1852 34.6065C38.0004 34.2861 37.6096 34.1486 37.2646 34.2825ZM45.7849 43.7236L43.5836 44.9943C43.4245 45.0865 43.237 45.1106 43.0554 45.062C42.873 45.0132 42.7214 44.8978 42.6284 44.7365L39.4979 39.3152C39.4979 39.3152 39.4976 39.3147 39.4974 39.3144C39.4053 39.1553 39.3812 38.9677 39.4297 38.7862C39.4652 38.6537 39.536 38.538 39.6337 38.4487C39.6551 38.433 39.6754 38.4162 39.6946 38.3986C39.714 38.3846 39.7341 38.3714 39.7551 38.3593L41.9553 37.0891C42.0651 37.0258 42.1852 36.9957 42.3037 36.9957C42.546 36.9957 42.782 37.1215 42.9117 37.3462L46.0421 42.7672C46.2349 43.1014 46.1196 43.5304 45.7849 43.7236ZM40.2679 25.8472C40.2679 22.3891 37.4556 19.5756 33.999 19.5756C30.5423 19.5756 27.7273 22.3891 27.7273 25.8472C27.7273 27.2866 28.2163 28.6132 29.0353 29.6725C29.0516 29.6993 29.0693 29.7255 29.0891 29.7504C29.9465 30.8261 31.1073 31.5712 32.4018 31.9095C32.4227 31.9149 32.4434 31.9203 32.4643 31.9256C32.5404 31.9446 32.6169 31.9624 32.6939 31.9786C32.7308 31.9865 32.7679 31.9936 32.8051 32.0008C32.8712 32.0134 32.9373 32.0258 33.0038 32.0364C33.0547 32.0446 33.106 32.0512 33.1573 32.0581C33.2136 32.0656 33.2698 32.0736 33.3264 32.0796C33.3936 32.0868 33.4616 32.0917 33.5295 32.0968C33.5726 32.1 33.6154 32.1044 33.6588 32.1066C33.7714 32.1127 33.8847 32.1162 33.9989 32.1162C34.1131 32.1162 34.2263 32.1127 34.3389 32.1066C34.3815 32.1044 34.4237 32.1001 34.466 32.097C34.5348 32.0919 34.6035 32.0869 34.6715 32.0796C34.7269 32.0737 34.7817 32.0659 34.8366 32.0586C34.8895 32.0515 34.9425 32.0446 34.995 32.0362C35.0596 32.0259 35.1236 32.014 35.1876 32.0017C35.2273 31.994 35.2669 31.9864 35.3064 31.9781C35.3806 31.9624 35.4542 31.9453 35.5276 31.9269C35.552 31.9207 35.5765 31.9144 35.6009 31.908C35.6869 31.8854 35.7724 31.8612 35.8572 31.835C35.8608 31.8339 35.8642 31.8328 35.8677 31.8316C37.0512 31.4639 38.1093 30.7499 38.9059 29.7505C38.9243 29.7274 38.9404 29.7031 38.9557 29.6784C39.7772 28.6181 40.2678 27.2893 40.2678 25.8472H40.2679ZM33.999 21.0744C36.6292 21.0744 38.7692 23.2155 38.7692 25.8472C38.7692 26.5804 38.6025 27.2753 38.3057 27.8966C37.7608 27.3027 37.0463 26.9094 36.2715 26.7931C36.5269 26.3831 36.6751 25.8997 36.6751 25.3821C36.6751 23.9065 35.4746 22.706 33.9991 22.706C32.5235 22.706 31.323 23.9065 31.323 25.3821C31.323 25.8995 31.471 26.3828 31.7264 26.7927C30.9507 26.9086 30.2353 27.3019 29.6899 27.8963C29.3929 27.2751 29.2262 26.5802 29.2262 25.8471C29.2262 23.2154 31.3672 21.0743 33.9991 21.0743L33.999 21.0744ZM34.261 30.6099C34.2552 30.6102 34.2495 30.6109 34.2436 30.6112C34.1625 30.6153 34.0809 30.6174 33.9989 30.6174C33.9169 30.6174 33.835 30.6153 33.7538 30.6112C33.7511 30.6111 33.7485 30.6107 33.7458 30.6106C32.509 30.5458 31.3961 30.0075 30.5838 29.1749C30.9688 28.605 31.5694 28.2549 32.2051 28.2549H35.7901C36.4259 28.2549 37.0266 28.6051 37.4118 29.1752C36.6019 30.0056 35.4933 30.5428 34.261 30.6099ZM33.999 26.5594C33.3498 26.5594 32.8217 26.0313 32.8217 25.3821C32.8217 24.7329 33.3498 24.2048 33.999 24.2048C34.6482 24.2048 35.1762 24.7329 35.1762 25.3821C35.1762 26.0313 34.6481 26.5594 33.999 26.5594ZM17.201 14.8824C17.201 14.4685 17.5366 14.133 17.9505 14.133H26.1143C26.5282 14.133 26.8638 14.4685 26.8638 14.8824C26.8638 15.2963 26.5282 15.6318 26.1143 15.6318H17.9505C17.5366 15.6318 17.201 15.2963 17.201 14.8824ZM17.201 11.4915C17.201 11.0776 17.5366 10.742 17.9505 10.742H23.0582C23.4721 10.742 23.8076 11.0776 23.8076 11.4915C23.8076 11.9054 23.4721 12.2409 23.0582 12.2409H17.9505C17.5366 12.2409 17.201 11.9054 17.201 11.4915ZM26.8637 37.9998C26.8637 38.4137 26.5281 38.7493 26.1142 38.7493H17.9504C17.5365 38.7493 17.2009 38.4137 17.2009 37.9998C17.2009 37.5859 17.5365 37.2504 17.9504 37.2504H26.1142C26.5281 37.2504 26.8637 37.5859 26.8637 37.9998ZM17.201 34.6115C17.201 34.1976 17.5366 33.8621 17.9505 33.8621H23.0582C23.4721 33.8621 23.8076 34.1976 23.8076 34.6115C23.8076 35.0254 23.4721 35.361 23.0582 35.361H17.9505C17.5366 35.361 17.201 35.0254 17.201 34.6115ZM13.147 10.2989C13.4252 9.85702 13.5868 9.33483 13.5868 8.77543C13.5868 7.19143 12.2981 5.90274 10.714 5.90274C9.12991 5.90274 7.84394 7.19143 7.84394 8.77543C7.84394 9.33493 8.00548 9.85712 8.28344 10.299C7.02466 10.7253 6.10863 11.9993 6.10863 13.5004V14.8823C6.10863 15.2962 6.44416 15.6317 6.85807 15.6317H14.5728C14.9867 15.6317 15.3222 15.2962 15.3222 14.8823V13.5004C15.3222 11.9991 14.406 10.7251 13.1471 10.2989H13.147ZM10.7141 7.40152C11.4717 7.40152 12.088 8.01783 12.088 8.77543C12.088 9.53302 11.4717 10.1467 10.7141 10.1467C9.95651 10.1467 9.34291 9.53152 9.34291 8.77543C9.34291 8.01933 9.9581 7.40152 10.7141 7.40152ZM13.8234 14.1329H7.60751V13.5004C7.60751 12.4776 8.32516 11.6455 9.20726 11.6455H12.2235C13.1056 11.6455 13.8232 12.4776 13.8232 13.5004V14.1329H13.8234ZM13.1465 21.8585C13.4251 21.4161 13.587 20.8931 13.587 20.3327C13.587 18.7502 12.2983 17.4627 10.7142 17.4627C9.1301 17.4627 7.84413 18.7501 7.84413 20.3327C7.84413 20.8931 8.00585 21.4161 8.28419 21.8586C7.02513 22.2845 6.10882 23.5576 6.10882 25.0577V26.4396C6.10882 26.8535 6.44435 27.1891 6.85826 27.1891H14.5729C14.9869 27.1891 15.3224 26.8535 15.3224 26.4396V25.0577C15.3224 23.5575 14.4058 22.2842 13.1465 21.8585ZM10.7142 18.9616C11.4718 18.9616 12.0881 19.5767 12.0881 20.3327C12.0881 21.0887 11.4718 21.7066 10.7142 21.7066C9.9566 21.7066 9.34301 21.0903 9.34301 20.3327C9.34301 19.5751 9.95819 18.9616 10.7142 18.9616ZM13.8235 25.6903H7.60751V25.0577C7.60751 24.0364 8.32516 23.2055 9.20726 23.2055H12.2235C13.1056 23.2055 13.8232 24.0364 13.8232 25.0577V25.6903H13.8235ZM13.1472 33.4163C13.4253 32.9745 13.587 32.4523 13.587 31.8929C13.587 30.3089 12.2983 29.0201 10.7142 29.0201C9.1301 29.0201 7.84413 30.3088 7.84413 31.8929C7.84413 32.4524 8.00566 32.9746 8.28363 33.4164C7.02485 33.8428 6.10882 35.1167 6.10882 36.6179V37.9997C6.10882 38.4136 6.44435 38.7492 6.85826 38.7492H14.5729C14.9869 38.7492 15.3224 38.4136 15.3224 37.9997V36.6179C15.3224 35.1166 14.4062 33.8426 13.1473 33.4163H13.1472ZM10.7143 30.519C11.4719 30.519 12.0882 31.1353 12.0882 31.8929C12.0882 32.6505 11.4719 33.2641 10.7143 33.2641C9.95669 33.2641 9.3431 32.649 9.3431 31.8929C9.3431 31.1368 9.95829 30.519 10.7143 30.519ZM13.8236 37.2504H7.60751V36.6179C7.60751 35.5951 8.32516 34.7629 9.20726 34.7629H12.2235C13.1056 34.7629 13.8232 35.5951 13.8232 36.6179V37.2504H13.8236Z" fill="black"/>
</svg>
