<svg width="48" height="48" viewBox="0 0 48 48" fill="none" xmlns="http://www.w3.org/2000/svg">
<path d="M8.34747 22.1475L4.59746 29.13C4.5468 29.2235 4.51659 29.3266 4.50884 29.4327C4.50108 29.5387 4.51595 29.6452 4.55246 29.745C4.58838 29.8448 4.64506 29.9358 4.71875 30.0121C4.79244 30.0884 4.88147 30.1482 4.97996 30.1875L8.24997 31.5V39.75C8.25058 39.905 8.29923 40.0561 8.38922 40.1823C8.47921 40.3086 8.60611 40.4038 8.75247 40.455L23.7525 45.705C23.912 45.7648 24.0879 45.7648 24.2475 45.705L39.2475 40.455C39.3938 40.4038 39.5207 40.3086 39.6107 40.1823C39.7007 40.0561 39.7493 39.905 39.75 39.75V31.5L43.0275 30.21C43.126 30.1707 43.215 30.1109 43.2887 30.0346C43.3624 29.9583 43.419 29.8673 43.455 29.7675C43.4915 29.6677 43.5064 29.5612 43.4986 29.4552C43.4908 29.3491 43.4606 29.246 43.41 29.1525L39.66 22.17C39.5689 21.9951 39.4126 21.863 39.225 21.8025L34.995 20.535C35.2524 19.9586 35.4606 19.3615 35.6175 18.75H36.75C36.9489 18.75 37.1396 18.671 37.2803 18.5303C37.4209 18.3897 37.5 18.1989 37.5 18V13.5C37.5 13.3011 37.4209 13.1103 37.2803 12.9697C37.1396 12.829 36.9489 12.75 36.75 12.75H35.625C35.3403 11.6652 34.9061 10.6252 34.335 9.66L35.1375 8.8575C35.2078 8.78778 35.2636 8.70483 35.3016 8.61343C35.3397 8.52204 35.3593 8.42401 35.3593 8.325C35.3593 8.22599 35.3397 8.12796 35.3016 8.03657C35.2636 7.94517 35.2078 7.86222 35.1375 7.7925L31.9575 4.6125C31.8877 4.5422 31.8048 4.48641 31.7134 4.44833C31.622 4.41025 31.524 4.39065 31.425 4.39065C31.326 4.39065 31.2279 4.41025 31.1365 4.44833C31.0451 4.48641 30.9622 4.5422 30.8925 4.6125L30.09 5.415C29.1247 4.84384 28.0848 4.40969 27 4.125V3C27 2.80109 26.9209 2.61032 26.7803 2.46967C26.6396 2.32902 26.4489 2.25 26.25 2.25H21.75C21.5511 2.25 21.3603 2.32902 21.2196 2.46967C21.079 2.61032 21 2.80109 21 3V4.125C19.9151 4.40969 18.8752 4.84384 17.91 5.415L17.1075 4.6125C17.0377 4.5422 16.9548 4.48641 16.8634 4.44833C16.772 4.41025 16.674 4.39065 16.575 4.39065C16.476 4.39065 16.3779 4.41025 16.2865 4.44833C16.1951 4.48641 16.1122 4.5422 16.0425 4.6125L12.8625 7.7925C12.7922 7.86222 12.7364 7.94517 12.6983 8.03657C12.6602 8.12796 12.6406 8.22599 12.6406 8.325C12.6406 8.42401 12.6602 8.52204 12.6983 8.61343C12.7364 8.70483 12.7922 8.78778 12.8625 8.8575L13.665 9.66C13.0938 10.6252 12.6597 11.6652 12.375 12.75H11.25C11.0511 12.75 10.8603 12.829 10.7196 12.9697C10.579 13.1103 10.5 13.3011 10.5 13.5V18C10.5 18.1989 10.579 18.3897 10.7196 18.5303C10.8603 18.671 11.0511 18.75 11.25 18.75H12.3825C12.5404 19.3539 12.7486 19.9434 13.005 20.5125L8.78246 21.75C8.68688 21.7835 8.59905 21.8359 8.52429 21.9042C8.44953 21.9726 8.38938 22.0553 8.34747 22.1475ZM9.36747 23.3925L22.935 27.465L19.5 34.2975L6.30746 29.1L9.36747 23.3925ZM18 15.75C18 14.1587 18.6321 12.6326 19.7573 11.5074C20.8825 10.3821 22.4087 9.75 24 9.75C25.5913 9.75 27.1174 10.3821 28.2426 11.5074C29.3678 12.6326 30 14.1587 30 15.75C29.9997 16.484 29.8623 17.2114 29.595 17.895L27.6 17.4825C27.6959 17.1637 27.7464 16.8329 27.75 16.5C27.75 15.5054 27.3549 14.5516 26.6516 13.8483C25.9484 13.1451 24.9945 12.75 24 12.75C23.0054 12.75 22.0516 13.1451 21.3483 13.8483C20.6451 14.5516 20.25 15.5054 20.25 16.5C20.2535 16.8329 20.304 17.1637 20.4 17.4825L18.405 17.9025C18.139 17.2159 18.0018 16.4863 18 15.75ZM26.25 16.5C26.25 16.945 26.118 17.38 25.8708 17.75C25.6235 18.12 25.2721 18.4084 24.861 18.5787C24.4499 18.749 23.9975 18.7936 23.561 18.7068C23.1246 18.62 22.7236 18.4057 22.409 18.091C22.0943 17.7763 21.88 17.3754 21.7932 16.939C21.7064 16.5025 21.7509 16.0501 21.9212 15.639C22.0915 15.2278 22.3799 14.8764 22.7499 14.6292C23.1199 14.382 23.555 14.25 24 14.25C24.5967 14.25 25.169 14.4871 25.591 14.909C26.0129 15.331 26.25 15.9033 26.25 16.5ZM21.1125 18.8625C21.4589 19.2956 21.8982 19.6452 22.3981 19.8855C22.8979 20.1257 23.4454 20.2505 24 20.2505C24.5545 20.2505 25.102 20.1257 25.6019 19.8855C26.1017 19.6452 26.5411 19.2956 26.8875 18.8625L31.5 19.83V24L28.5 24.9V22.5H27V25.32L24 26.25L21 25.35V22.5H19.5V24.87L16.5 24V19.83L21.1125 18.8625ZM9.74997 32.0625L19.62 35.9475C19.7083 35.9824 19.8025 36.0002 19.8975 36C20.036 35.9996 20.1716 35.9608 20.2895 35.888C20.4073 35.8152 20.5026 35.7112 20.565 35.5875L23.25 30.195V43.9425L9.74997 39.2175V32.0625ZM38.25 39.2175L24.75 43.9425V30.195L27.435 35.5875C27.4973 35.7112 27.5926 35.8152 27.7105 35.888C27.8283 35.9608 27.964 35.9996 28.1025 36C28.1975 36.0002 28.2916 35.9824 28.38 35.9475L38.25 32.0625V39.2175ZM28.5 34.2975L25.095 27.465L38.6625 23.3925L41.7225 29.1L28.5 34.2975ZM33 23.52V21.4875L36.39 22.5L33 23.52ZM13.71 17.85C13.6749 17.678 13.5806 17.5238 13.4436 17.4142C13.3066 17.3046 13.1354 17.2465 12.96 17.25H12V14.25H12.975C13.1504 14.2535 13.3216 14.1954 13.4586 14.0858C13.5956 13.9762 13.6899 13.822 13.725 13.65C13.9849 12.3356 14.4941 11.083 15.225 9.96C15.3271 9.81663 15.3756 9.64189 15.3619 9.46637C15.3482 9.29086 15.2731 9.12577 15.15 9L14.4525 8.31L16.575 6.2025L17.25 6.9C17.372 7.02285 17.5328 7.09968 17.7051 7.11745C17.8773 7.13522 18.0504 7.09284 18.195 6.9975C19.318 6.26664 20.5705 5.75748 21.885 5.4975C22.0569 5.46244 22.2111 5.36818 22.3208 5.23114C22.4304 5.0941 22.4885 4.92296 22.485 4.7475V3.75H25.485V4.725C25.4814 4.90046 25.5395 5.0716 25.6492 5.20864C25.7588 5.34568 25.913 5.43994 26.085 5.475C27.4021 5.74647 28.6548 6.26843 29.775 7.0125C29.9239 7.11403 30.1044 7.15854 30.2834 7.13788C30.4625 7.11722 30.6281 7.03277 30.75 6.9L31.44 6.2025L33.5625 8.325L32.85 9C32.7271 9.12205 32.6503 9.28284 32.6325 9.45509C32.6147 9.62735 32.6571 9.80044 32.7525 9.945C33.4833 11.068 33.9925 12.3206 34.2525 13.635C34.2875 13.807 34.3818 13.9612 34.5188 14.0708C34.6559 14.1804 34.827 14.2385 35.0025 14.235H36V17.235H35.025C34.8495 17.2315 34.6784 17.2896 34.5413 17.3992C34.4043 17.5088 34.31 17.663 34.275 17.835C34.1138 18.6118 33.8621 19.3669 33.525 20.085L33 19.92V19.2225C33.0038 19.0481 32.9468 18.8778 32.8387 18.7409C32.7305 18.604 32.578 18.5091 32.4075 18.4725L31.08 18.195C31.3576 17.4097 31.4997 16.5829 31.5 15.75C31.5 13.7609 30.7098 11.8532 29.3033 10.4467C27.8967 9.04018 25.9891 8.25 24 8.25C22.0108 8.25 20.1032 9.04018 18.6967 10.4467C17.2901 11.8532 16.5 13.7609 16.5 15.75C16.4986 16.588 16.6406 17.42 16.92 18.21L15.5925 18.4875C15.4219 18.5241 15.2694 18.619 15.1613 18.7559C15.0531 18.8928 14.9961 19.0631 15 19.2375V19.9275L14.4375 20.1C14.1123 19.3793 13.8683 18.6246 13.71 17.85ZM15 21.48V23.52L11.61 22.5L15 21.48Z" fill="black"/>
</svg>
