<svg width="48" height="48" viewBox="0 0 48 48" fill="none" xmlns="http://www.w3.org/2000/svg">
<g clip-path="url(#clip0_38_40830)">
<path d="M34.837 31.4269L34.0821 29.727C34.5576 28.8918 34.9256 28.0039 35.18 27.0789L36.9144 26.4113C37.204 26.2999 37.3951 26.0216 37.3951 25.7113V22.2887C37.3951 21.9784 37.204 21.7002 36.9145 21.5888L35.1804 20.9213C34.9261 19.9958 34.5579 19.1077 34.0823 18.2723L34.837 16.573C34.9629 16.2895 34.9013 15.9577 34.6819 15.7382L32.2617 13.3181C32.0423 13.0988 31.7107 13.0374 31.4271 13.1631L29.7272 13.9181C28.8918 13.4426 28.004 13.0744 27.079 12.8201L26.4113 11.0856C26.3 10.7961 26.0217 10.605 25.7114 10.605H22.2889C21.9786 10.605 21.7004 10.7961 21.5889 11.0856L20.9212 12.8201C19.9963 13.0744 19.1084 13.4426 18.273 13.9181L16.5731 13.1631C16.2898 13.0371 15.9578 13.0988 15.7384 13.3181L13.3182 15.7383C13.0988 15.9578 13.0372 16.2896 13.1632 16.5731L13.9181 18.2727C13.4425 19.1081 13.0745 19.9959 12.8201 20.9212L11.0857 21.5888C10.7962 21.7001 10.6051 21.9784 10.6051 22.2887V25.7113C10.6051 26.0216 10.7962 26.2998 11.0857 26.4113L12.8197 27.0788C13.0742 28.0045 13.4423 28.8926 13.9179 29.7278L13.1632 31.427C13.0372 31.7105 13.0988 32.0423 13.3183 32.2617L15.7385 34.6818C15.9578 34.9011 16.2895 34.963 16.5731 34.8369L18.2731 34.0819C19.1087 34.5575 19.9964 34.9256 20.9212 35.1798L21.5889 36.9144C21.7003 37.2039 21.9786 37.3949 22.2889 37.3949H25.7115C26.0218 37.3949 26.3 37.2039 26.4114 36.9144L27.0788 35.1804C28.0043 34.926 28.8924 34.5579 29.7279 34.0822L31.4272 34.8369C31.7108 34.963 32.0426 34.9012 32.2619 34.6817L34.682 32.2616C34.9013 32.0423 34.9629 31.7105 34.837 31.4269ZM33.82 26.3441C33.5726 27.3833 33.1625 28.3727 32.6009 29.2847C32.4713 29.4953 32.4538 29.7563 32.5541 29.9823L33.2571 31.5651L31.5652 33.257L29.983 32.5543C29.7572 32.4539 29.4961 32.4715 29.2853 32.6012C28.3733 33.1629 27.3837 33.5731 26.3441 33.8204C26.1036 33.8777 25.9066 34.0498 25.8178 34.2806L25.1964 35.895H22.8038L22.1821 34.2801C22.0933 34.0493 21.8963 33.8771 21.6558 33.82C20.617 33.5727 19.6277 33.1626 18.7154 32.6008C18.5047 32.4711 18.2437 32.4537 18.0178 32.5541L16.4348 33.257L14.7429 31.5652L15.4457 29.983C15.546 29.7569 15.5286 29.4959 15.3988 29.2853C14.8373 28.3736 14.4271 27.384 14.1795 26.3441C14.1223 26.1036 13.9501 25.9066 13.7194 25.8178L12.1049 25.1964V22.8038L13.7197 22.1822C13.9506 22.0934 14.1227 21.8965 14.1799 21.6559C14.4273 20.6166 14.8374 19.6271 15.399 18.7153C15.5287 18.5047 15.5462 18.2437 15.4459 18.0176L14.7429 16.435L16.4348 14.7431L18.0177 15.4461C18.2436 15.5464 18.5048 15.5291 18.7153 15.3992C19.6275 14.8376 20.6168 14.4274 21.6557 14.1801C21.8962 14.1229 22.0932 13.9508 22.182 13.72L22.8037 12.105H25.1963L25.8179 13.72C25.9067 13.9508 26.1037 14.1229 26.3441 14.1801C27.3832 14.4274 28.3725 14.8376 29.2846 15.3992C29.4952 15.5291 29.7563 15.5464 29.9822 15.4461L31.5651 14.7431L33.257 16.4349L32.5542 18.0172C32.4539 18.2432 32.4713 18.5043 32.6011 18.7149C33.1628 19.6269 33.573 20.6164 33.8203 21.656C33.8776 21.8966 34.0497 22.0935 34.2805 22.1823L35.895 22.8038V25.1964L34.2802 25.8179C34.0494 25.9067 33.8772 26.1036 33.82 26.3441ZM24 16.387C19.8022 16.387 16.3869 19.8022 16.3869 24C16.3869 28.1979 19.8022 31.6131 24 31.6131C28.1978 31.6131 31.6131 28.1979 31.6131 24C31.6131 19.8022 28.1978 16.387 24 16.387ZM20.0375 28.6494C20.4124 26.7796 22.0547 25.4119 24 25.4119C25.9453 25.4119 27.5875 26.7797 27.9624 28.6495C26.8944 29.561 25.5109 30.1132 24 30.1132C22.4891 30.1132 21.1055 29.561 20.0375 28.6494ZM23.9999 23.9119C23.0773 23.9119 22.3267 23.1612 22.3267 22.2386C22.3267 21.3161 23.0773 20.5655 23.9999 20.5655C24.9225 20.5655 25.6732 21.3161 25.6732 22.2386C25.6732 23.1612 24.9225 23.9119 23.9999 23.9119ZM29.1225 27.3301C28.5858 26.0291 27.573 24.9901 26.3083 24.4127C26.8438 23.8444 27.1732 23.0795 27.1732 22.2387C27.1732 20.4891 25.7497 19.0656 23.9999 19.0656C22.2502 19.0656 20.8267 20.4891 20.8267 22.2387C20.8267 23.0795 21.156 23.8443 21.6916 24.4127C20.4269 24.9901 19.4142 26.0291 18.8774 27.3301C18.252 26.3712 17.8869 25.2279 17.8869 24.0001C17.8869 20.6293 20.6292 17.8871 24 17.8871C27.3708 17.8871 30.1131 20.6293 30.1131 24.0001C30.1131 25.2278 29.748 26.3712 29.1225 27.3301ZM7.77478 14.9614C11.6482 14.9614 14.7996 11.8101 14.7996 7.93662C14.7996 4.06315 11.6483 0.911743 7.77478 0.911743C3.90131 0.911743 0.75 4.06315 0.75 7.93671C0.75 11.8101 3.90131 14.9614 7.77478 14.9614ZM4.22278 12.1638C4.5735 10.5028 6.03975 9.29177 7.77478 9.29177C9.50981 9.29177 10.9761 10.5029 11.3268 12.1638C10.3657 12.9728 9.12647 13.4614 7.77478 13.4614C6.42309 13.4614 5.18391 12.9728 4.22278 12.1638ZM6.30928 6.32627C6.30928 5.51824 6.96675 4.86087 7.77478 4.86087C8.58281 4.86087 9.24019 5.51824 9.24019 6.32627C9.24019 7.13431 8.58281 7.79177 7.77478 7.79177C6.96675 7.79177 6.30928 7.13431 6.30928 6.32627ZM7.77478 2.41184C10.8211 2.41184 13.2996 4.89031 13.2996 7.93671C13.2996 9.0033 12.9949 9.99968 12.4693 10.845C11.9734 9.72002 11.0893 8.81702 9.99178 8.29287C10.4569 7.76909 10.7402 7.08031 10.7402 6.32637C10.7402 4.69127 9.40997 3.36096 7.77478 3.36096C6.13959 3.36096 4.80928 4.69118 4.80928 6.32627C4.80928 7.08021 5.09259 7.76899 5.55778 8.29287C4.46025 8.81702 3.57619 9.72002 3.08034 10.845C2.55469 9.99959 2.25 9.00321 2.25 7.93671C2.25 4.89031 4.72847 2.41184 7.77478 2.41184ZM40.2252 14.9614C44.0986 14.9614 47.25 11.8101 47.25 7.93662C47.25 4.06315 44.0987 0.911743 40.2252 0.911743C36.3517 0.911743 33.2004 4.06306 33.2004 7.93662C33.2005 11.8101 36.3518 14.9614 40.2252 14.9614ZM36.6733 12.1638C37.024 10.5028 38.4903 9.29177 40.2253 9.29177C41.9603 9.29177 43.4265 10.5029 43.7772 12.1638C42.8161 12.9728 41.5769 13.4614 40.2253 13.4614C38.8737 13.4614 37.6344 12.9728 36.6733 12.1638ZM38.7598 6.32627C38.7598 5.51824 39.4173 4.86087 40.2253 4.86087C41.0333 4.86087 41.6908 5.51824 41.6908 6.32627C41.6908 7.13431 41.0333 7.79177 40.2253 7.79177C39.4173 7.79177 38.7598 7.13431 38.7598 6.32627ZM40.2252 2.41184C43.2715 2.41184 45.75 4.89031 45.75 7.93671C45.75 9.0033 45.4453 9.99968 44.9197 10.845C44.4237 9.72002 43.5397 8.81702 42.4422 8.29287C42.9074 7.76899 43.1907 7.08031 43.1907 6.32627C43.1907 4.69118 41.8604 3.36087 40.2252 3.36087C38.59 3.36087 37.2597 4.69109 37.2597 6.32627C37.2597 7.08021 37.543 7.76899 38.0082 8.29287C36.9107 8.81702 36.0266 9.72002 35.5308 10.845C35.0052 9.99968 34.7005 9.0033 34.7005 7.93671C34.7005 4.89031 37.1789 2.41184 40.2252 2.41184ZM40.2252 33.0387C36.3518 33.0387 33.2004 36.1901 33.2004 40.0635C33.2004 43.937 36.3517 47.0883 40.2252 47.0883C44.0987 47.0883 47.25 43.9369 47.25 40.0634C47.25 36.19 44.0987 33.0387 40.2252 33.0387ZM36.6733 44.2906C37.024 42.6296 38.4903 41.4185 40.2252 41.4185C41.9602 41.4185 43.4264 42.6296 43.7771 44.2905C42.816 45.0995 41.5768 45.5881 40.2252 45.5881C38.8736 45.5881 37.6345 45.0996 36.6733 44.2906ZM38.7598 38.4532C38.7598 37.6451 39.4173 36.9877 40.2253 36.9877C41.0333 36.9877 41.6908 37.6451 41.6908 38.4532C41.6908 39.2612 41.0333 39.9186 40.2253 39.9186C39.4173 39.9186 38.7598 39.2612 38.7598 38.4532ZM44.9197 42.9718C44.4237 41.8468 43.5397 40.9438 42.4422 40.4197C42.9074 39.8959 43.1907 39.2071 43.1907 38.4532C43.1907 36.8181 41.8604 35.4877 40.2252 35.4877C38.59 35.4877 37.2597 36.818 37.2597 38.4532C37.2597 39.2071 37.543 39.8959 38.0082 40.4197C36.9107 40.9438 36.0267 41.8468 35.5308 42.9718C35.0052 42.1265 34.7005 41.1301 34.7005 40.0635C34.7005 37.0172 37.179 34.5387 40.2253 34.5387C43.2716 34.5387 45.75 37.0171 45.75 40.0634C45.75 41.13 45.4453 42.1265 44.9197 42.9718ZM7.77478 33.0331C3.90131 33.0331 0.75 36.1844 0.75 40.0579C0.75 43.9314 3.90131 47.0827 7.77478 47.0827C11.6483 47.0827 14.7996 43.9314 14.7996 40.0579C14.7996 36.1844 11.6482 33.0331 7.77478 33.0331ZM4.22278 44.285C4.5735 42.624 6.03975 41.413 7.77478 41.413C9.50981 41.413 10.976 42.6241 11.3268 44.285C10.3657 45.094 9.12647 45.5826 7.77478 45.5826C6.42309 45.5826 5.18391 45.094 4.22278 44.285ZM6.30928 38.4476C6.30928 37.6395 6.96675 36.9821 7.77478 36.9821C8.58281 36.9821 9.24019 37.6395 9.24019 38.4476C9.24019 39.2556 8.58281 39.913 7.77478 39.913C6.96675 39.913 6.30928 39.2556 6.30928 38.4476ZM12.4692 42.9661C11.9733 41.8411 11.0893 40.9381 9.99178 40.414C10.4569 39.8902 10.7402 39.2014 10.7402 38.4475C10.7402 36.8124 9.40997 35.482 7.77478 35.482C6.13959 35.482 4.80928 36.8123 4.80928 38.4475C4.80928 39.2014 5.09259 39.8902 5.55778 40.414C4.46025 40.9381 3.57619 41.8411 3.08034 42.9661C2.55469 42.1208 2.25 41.1244 2.25 40.0579C2.25 37.0116 4.72847 34.5331 7.77478 34.5331C10.8211 34.5331 13.2996 37.0116 13.2996 40.0579C13.2995 41.1244 12.9948 42.1208 12.4692 42.9661ZM31.5188 43.0926C31.6564 43.4832 31.4511 43.9115 31.0604 44.0491C28.7797 44.8522 26.3894 45.2534 24.0001 45.2534C22.3709 45.2534 20.7424 45.0657 19.1489 44.693L19.2811 44.845C19.5529 45.1575 19.5198 45.6313 19.2072 45.903C19.0652 46.0265 18.8899 46.0871 18.7154 46.0871C18.5059 46.0871 18.2975 45.9997 18.1492 45.8291L16.319 43.7241C16.1526 43.5326 16.0942 43.27 16.1638 43.026C16.2335 42.7821 16.4218 42.5899 16.6642 42.5153L19.3303 41.6943C19.7258 41.5727 20.1459 41.7944 20.2678 42.1903C20.3898 42.5862 20.1677 43.006 19.7718 43.1278L19.4571 43.2248C23.1204 44.0886 26.9858 43.8938 30.5623 42.6342C30.9527 42.4964 31.3811 42.7018 31.5188 43.0926ZM16.4812 4.90756C16.3435 4.5169 16.5487 4.08865 16.9395 3.95102C20.7992 2.59184 24.9717 2.38521 28.9239 3.32421L28.7713 3.14459C28.5031 2.82902 28.5414 2.35568 28.8571 2.08746C29.1727 1.81915 29.6461 1.85759 29.9142 2.17324L31.7207 4.29874C31.885 4.49206 31.9404 4.75531 31.868 4.99849C31.7955 5.24168 31.6051 5.43171 31.3619 5.50371L28.6869 6.29477C28.616 6.31577 28.5443 6.32571 28.474 6.32571C28.1502 6.32571 27.8515 6.1144 27.7551 5.78824C27.6376 5.39102 27.8644 4.97374 28.2616 4.85637L28.5387 4.77443C24.8765 3.91184 21.0128 4.10702 17.4378 5.36599C17.0469 5.50343 16.6188 5.29831 16.4812 4.90756ZM43.2276 28.531C44.0881 24.8711 43.8922 21.0101 42.6341 17.4377C42.4965 17.0471 42.7018 16.6188 43.0925 16.4812C43.4829 16.3435 43.9114 16.5488 44.049 16.9395C45.401 20.7788 45.6128 24.9278 44.6906 28.8616L44.851 28.7229C45.1646 28.452 45.6382 28.4863 45.9089 28.7995C46.1799 29.1128 46.1455 29.5864 45.8323 29.8573L43.7227 31.6822C43.5847 31.8015 43.4099 31.8649 43.232 31.8649C43.1626 31.8649 43.0928 31.8552 43.0242 31.8356C42.7805 31.7652 42.5887 31.5765 42.5147 31.3338L41.7005 28.6658C41.5795 28.2696 41.8027 27.8504 42.1988 27.7296C42.5952 27.6088 43.0142 27.8318 43.135 28.228L43.2276 28.531ZM4.77525 19.4571C3.91153 23.1206 4.10634 26.986 5.36578 30.5622C5.50341 30.9529 5.29819 31.3811 4.90744 31.5188C4.82503 31.5478 4.74103 31.5615 4.65834 31.5615C4.34906 31.5615 4.05947 31.3688 3.95091 31.0604C2.60016 27.2246 2.38744 23.0798 3.30666 19.1491L3.15488 19.281C2.84231 19.5528 2.36859 19.5197 2.09681 19.2071C1.82503 18.8945 1.85812 18.4208 2.17069 18.1491L4.27575 16.319C4.46719 16.1525 4.7295 16.0939 4.97381 16.1638C5.21775 16.2335 5.40994 16.4218 5.48456 16.6643L6.30553 19.3303C6.4275 19.7262 6.20541 20.146 5.8095 20.2678C5.736 20.2904 5.66166 20.3012 5.58853 20.3012C5.268 20.3012 4.97128 20.0941 4.872 19.7718L4.77525 19.4571Z" fill="black"/>
</g>
<defs>
<clipPath id="clip0_38_40830">
<rect width="48" height="48" fill="white"/>
</clipPath>
</defs>
</svg>
