<svg width="48" height="48" viewBox="0 0 48 48" fill="none" xmlns="http://www.w3.org/2000/svg">
<path d="M9.75 33.75H8.25V32.25C8.25 32.0511 8.17098 31.8603 8.03033 31.7197C7.88968 31.579 7.69891 31.5 7.5 31.5C7.30109 31.5 7.11032 31.579 6.96967 31.7197C6.82902 31.8603 6.75 32.0511 6.75 32.25V33.75H5.25C5.05109 33.75 4.86032 33.829 4.71967 33.9697C4.57902 34.1103 4.5 34.3011 4.5 34.5C4.5 34.6989 4.57902 34.8897 4.71967 35.0303C4.86032 35.171 5.05109 35.25 5.25 35.25H6.75V36.75C6.75 36.9489 6.82902 37.1397 6.96967 37.2803C7.11032 37.421 7.30109 37.5 7.5 37.5C7.69891 37.5 7.88968 37.421 8.03033 37.2803C8.17098 37.1397 8.25 36.9489 8.25 36.75V35.25H9.75C9.94891 35.25 10.1397 35.171 10.2803 35.0303C10.421 34.8897 10.5 34.6989 10.5 34.5C10.5 34.3011 10.421 34.1103 10.2803 33.9697C10.1397 33.829 9.94891 33.75 9.75 33.75Z" fill="black"/>
<path d="M8.70438 17.1108L4.73721 15.7885C4.66072 15.763 4.58062 15.75 4.5 15.75H2.25C2.05109 15.75 1.86032 15.829 1.71967 15.9697C1.57902 16.1103 1.5 16.3011 1.5 16.5C1.5 16.6989 1.57902 16.8897 1.71967 17.0303C1.86032 17.171 2.05109 17.25 2.25 17.25H4.37833L8.22995 18.5339C8.74534 18.7057 9.30546 18.6852 9.80695 18.4764L18.2885 14.9423C18.4252 14.8854 18.5419 14.7892 18.6241 14.666C18.7062 14.5428 18.75 14.3981 18.75 14.25V13.8297C18.75 13.4968 18.6761 13.1681 18.5337 12.8672C18.3913 12.5663 18.1839 12.3007 17.9264 12.0897C17.669 11.8786 17.3679 11.7273 17.045 11.6467C16.722 11.5661 16.3851 11.5581 16.0587 11.6234L11.9781 12.4395C11.9025 11.9021 11.6356 11.41 11.2262 11.0537C10.8169 10.6974 10.2927 10.5008 9.75 10.5H6.62128C6.32568 10.4992 6.03286 10.557 5.75977 10.6701C5.48667 10.7833 5.23872 10.9494 5.03027 11.159L4.18936 12H2.25C2.05109 12 1.86032 12.079 1.71967 12.2197C1.57902 12.3603 1.5 12.5511 1.5 12.75C1.5 12.9489 1.57902 13.1397 1.71967 13.2803C1.86032 13.421 2.05109 13.5 2.25 13.5H4.5C4.69891 13.5 4.88968 13.421 5.03037 13.2804L6.091 12.2197C6.16046 12.1499 6.2431 12.0944 6.33412 12.0567C6.42514 12.019 6.52275 11.9997 6.62128 12H9.75C9.94622 12.0003 10.1345 12.0774 10.2746 12.2148C10.4146 12.3523 10.4953 12.5391 10.4993 12.7353L6.60287 13.5146C6.40782 13.5536 6.23626 13.6685 6.12593 13.834C6.0156 13.9995 5.97554 14.2021 6.01456 14.3971C6.05358 14.5922 6.16848 14.7637 6.334 14.8741C6.49951 14.9844 6.70207 15.0245 6.89713 14.9855L16.3529 13.0942C16.4552 13.0738 16.5607 13.0749 16.6626 13.0975C16.7645 13.1202 16.8606 13.1638 16.9446 13.2257C17.0287 13.2876 17.0989 13.3663 17.1508 13.4569C17.2027 13.5475 17.2351 13.6479 17.246 13.7517L9.23007 17.0917C9.06289 17.1613 8.87618 17.1681 8.70438 17.1108Z" fill="black"/>
<path d="M2.32352 8.16028C2.72455 8.49026 3.22774 8.67071 3.74707 8.67078C3.89624 8.67073 4.04503 8.65595 4.19129 8.62665L8.27193 7.8105C8.34747 8.34792 8.61444 8.84001 9.02378 9.19633C9.43311 9.55265 9.95731 9.74925 10.5 9.75H14.25C14.4489 9.75 14.6397 9.67099 14.7804 9.53037L16.0606 8.25H18C18.1989 8.25 18.3897 8.17098 18.5303 8.03033C18.671 7.88968 18.75 7.69891 18.75 7.5C18.75 7.30109 18.671 7.11032 18.5303 6.96967C18.3897 6.82902 18.1989 6.75 18 6.75H15.75C15.5511 6.75001 15.3603 6.82901 15.2196 6.96964L13.9394 8.25H10.5C10.3038 8.24972 10.1155 8.1726 9.97543 8.03517C9.83538 7.89774 9.75472 7.71092 9.75074 7.51474L13.6471 6.73544C13.7437 6.71612 13.8355 6.67797 13.9174 6.62316C13.9992 6.56835 14.0694 6.49796 14.1241 6.416C14.1787 6.33405 14.2167 6.24214 14.2358 6.14552C14.2549 6.04889 14.2548 5.94945 14.2354 5.85287C14.2161 5.75629 14.178 5.66447 14.1232 5.58263C14.0684 5.5008 13.998 5.43056 13.916 5.37593C13.8341 5.3213 13.7421 5.28335 13.6455 5.26424C13.5489 5.24513 13.4495 5.24524 13.3529 5.26456L3.89713 7.15576C3.79477 7.17623 3.68927 7.17511 3.58738 7.15248C3.48548 7.12984 3.38943 7.08619 3.30537 7.02431C3.22131 6.96243 3.15109 6.88368 3.0992 6.79311C3.04731 6.70254 3.0149 6.60214 3.00403 6.49832L11.0199 3.15829C11.1871 3.08868 11.3738 3.08188 11.5456 3.13916L15.5128 4.46154C15.5893 4.487 15.6694 4.49999 15.75 4.5H18C18.1989 4.5 18.3897 4.42098 18.5303 4.28033C18.671 4.13968 18.75 3.94891 18.75 3.75C18.75 3.55109 18.671 3.36032 18.5303 3.21967C18.3897 3.07902 18.1989 3 18 3H15.8717L12.0201 1.71607C11.5046 1.54443 10.9446 1.56488 10.4431 1.77365L1.96152 5.30768C1.82484 5.36463 1.70808 5.46076 1.62595 5.58397C1.54382 5.70717 1.5 5.85193 1.5 6V6.42032C1.49942 6.7533 1.57303 7.08223 1.71548 7.3832C1.85793 7.68417 2.06564 7.94963 2.32352 8.16028Z" fill="black"/>
<path d="M44.25 1.5H30.75C30.1535 1.50068 29.5816 1.73795 29.1598 2.15976C28.738 2.58157 28.5007 3.15347 28.5 3.75V12.75C28.5 12.9489 28.579 13.1397 28.7197 13.2803C28.8603 13.421 29.0511 13.5 29.25 13.5C29.4489 13.5 29.6397 13.421 29.7803 13.2803C29.921 13.1397 30 12.9489 30 12.75V3.75C30.0002 3.55116 30.0793 3.36052 30.2199 3.21992C30.3605 3.07932 30.5512 3.00023 30.75 3H44.25C44.4488 3.00023 44.6395 3.07932 44.7801 3.21992C44.9207 3.36052 44.9998 3.55116 45 3.75V17.25C44.9998 17.4488 44.9207 17.6395 44.7801 17.7801C44.6395 17.9207 44.4488 17.9998 44.25 18H33C32.8011 18 32.6103 18.079 32.4697 18.2197C32.329 18.3603 32.25 18.5511 32.25 18.75C32.25 18.9489 32.329 19.1397 32.4697 19.2803C32.6103 19.421 32.8011 19.5 33 19.5H44.25C44.8465 19.4993 45.4184 19.262 45.8402 18.8402C46.262 18.4184 46.4993 17.8465 46.5 17.25V3.75C46.4993 3.15347 46.262 2.58157 45.8402 2.15976C45.4184 1.73795 44.8465 1.50068 44.25 1.5Z" fill="black"/>
<path d="M33 4.5C32.8011 4.50001 32.6103 4.57903 32.4697 4.71968C32.329 4.86033 32.25 5.05109 32.25 5.25V6.75C32.0511 6.75 31.8603 6.82902 31.7197 6.96967C31.579 7.11032 31.5 7.30109 31.5 7.5C31.5 7.69891 31.579 7.88968 31.7197 8.03033C31.8603 8.17098 32.0511 8.25 32.25 8.25V15.75C32.25 15.9489 32.329 16.1397 32.4697 16.2803C32.6103 16.421 32.8011 16.5 33 16.5C33.1989 16.5 33.3897 16.421 33.5303 16.2803C33.671 16.1397 33.75 15.9489 33.75 15.75V8.25C33.9489 8.25 34.1397 8.17098 34.2803 8.03033C34.421 7.88968 34.5 7.69891 34.5 7.5C34.5 7.30109 34.421 7.11032 34.2803 6.96967C34.1397 6.82902 33.9489 6.75 33.75 6.75V5.25C33.75 5.05109 33.671 4.86033 33.5303 4.71968C33.3897 4.57903 33.1989 4.50001 33 4.5Z" fill="black"/>
<path d="M37.5 4.5C37.3011 4.50001 37.1103 4.57903 36.9697 4.71968C36.829 4.86033 36.75 5.05109 36.75 5.25V12C36.5511 12 36.3603 12.079 36.2197 12.2197C36.079 12.3603 36 12.5511 36 12.75C36 12.9489 36.079 13.1397 36.2197 13.2803C36.3603 13.421 36.5511 13.5 36.75 13.5V15.75C36.75 15.9489 36.829 16.1397 36.9697 16.2803C37.1103 16.421 37.3011 16.5 37.5 16.5C37.6989 16.5 37.8897 16.421 38.0303 16.2803C38.171 16.1397 38.25 15.9489 38.25 15.75V13.5C38.4489 13.5 38.6397 13.421 38.7803 13.2803C38.921 13.1397 39 12.9489 39 12.75C39 12.5511 38.921 12.3603 38.7803 12.2197C38.6397 12.079 38.4489 12 38.25 12V5.25C38.25 5.05109 38.171 4.86033 38.0303 4.71968C37.8897 4.57903 37.6989 4.50001 37.5 4.5Z" fill="black"/>
<path d="M42 4.5C41.8011 4.50001 41.6103 4.57903 41.4697 4.71968C41.329 4.86033 41.25 5.05109 41.25 5.25V9C41.0511 9 40.8603 9.07902 40.7197 9.21967C40.579 9.36032 40.5 9.55109 40.5 9.75C40.5 9.94891 40.579 10.1397 40.7197 10.2803C40.8603 10.421 41.0511 10.5 41.25 10.5V15.75C41.25 15.9489 41.329 16.1397 41.4697 16.2803C41.6103 16.421 41.8011 16.5 42 16.5C42.1989 16.5 42.3897 16.421 42.5303 16.2803C42.671 16.1397 42.75 15.9489 42.75 15.75V10.5C42.9489 10.5 43.1397 10.421 43.2803 10.2803C43.421 10.1397 43.5 9.94891 43.5 9.75C43.5 9.55109 43.421 9.36032 43.2803 9.21967C43.1397 9.07902 42.9489 9 42.75 9V5.25C42.75 5.05109 42.671 4.86033 42.5303 4.71968C42.3897 4.57903 42.1989 4.50001 42 4.5Z" fill="black"/>
<path d="M37.5 41.25C38.2417 41.25 38.9667 41.0301 39.5834 40.618C40.2001 40.206 40.6807 39.6203 40.9645 38.9351C41.2484 38.2498 41.3226 37.4958 41.1779 36.7684C41.0333 36.041 40.6761 35.3728 40.1517 34.8484C39.6272 34.3239 38.959 33.9668 38.2316 33.8221C37.5042 33.6774 36.7502 33.7516 36.0649 34.0355C35.3797 34.3193 34.794 34.7999 34.382 35.4166C33.9699 36.0333 33.75 36.7583 33.75 37.5C33.7511 38.4942 34.1466 39.4474 34.8496 40.1504C35.5526 40.8534 36.5058 41.2489 37.5 41.25ZM37.5 35.25C37.945 35.25 38.38 35.382 38.75 35.6292C39.12 35.8764 39.4084 36.2278 39.5787 36.639C39.749 37.0501 39.7936 37.5025 39.7068 37.939C39.62 38.3754 39.4057 38.7763 39.091 39.091C38.7763 39.4057 38.3754 39.62 37.939 39.7068C37.5025 39.7936 37.0501 39.749 36.639 39.5787C36.2278 39.4084 35.8764 39.12 35.6292 38.75C35.382 38.38 35.25 37.945 35.25 37.5C35.2507 36.9035 35.488 36.3316 35.9098 35.9098C36.3316 35.488 36.9035 35.2507 37.5 35.25Z" fill="black"/>
<path d="M45.9249 35.6864L44.7303 35.4C44.5737 35.3624 44.4282 35.2883 44.3057 35.1838C44.1832 35.0792 44.0872 34.9471 44.0256 34.7983C43.9639 34.6496 43.9384 34.4883 43.951 34.3277C43.9637 34.1672 44.0141 34.0119 44.0983 33.8746L44.7443 32.8204C44.8323 32.6767 44.8694 32.5076 44.8496 32.3403C44.8298 32.1731 44.7543 32.0173 44.6352 31.8982L43.1018 30.3648C42.9827 30.2457 42.8269 30.1702 42.6596 30.1504C42.4923 30.1306 42.3232 30.1677 42.1795 30.2557L41.1255 30.9018C40.9882 30.9859 40.8329 31.0364 40.6723 31.049C40.5118 31.0616 40.3505 31.0361 40.2017 30.9744C40.0529 30.9128 39.9208 30.8168 39.8163 30.6943C39.7117 30.5718 39.6376 30.4263 39.6 30.2697L39.3136 29.0751C39.2743 28.9113 39.181 28.7654 39.0487 28.6611C38.9163 28.5568 38.7528 28.5 38.5843 28.5H36.4157C36.2472 28.5 36.0837 28.5568 35.9513 28.6611C35.819 28.7654 35.7257 28.9113 35.6864 29.0751L35.4 30.2697C35.3486 30.4838 35.2294 30.6756 35.0601 30.8164C34.8908 30.9571 34.6805 31.0393 34.4606 31.0508C34.262 31.0612 34.0756 31.1501 33.9425 31.298C33.8095 31.4458 33.7406 31.6405 33.751 31.8391C33.7614 32.0378 33.8504 32.2241 33.9982 32.3572C34.1461 32.4903 34.3407 32.5592 34.5394 32.5487C35.0823 32.5203 35.6015 32.3171 36.0195 31.9694C36.4375 31.6217 36.7318 31.1482 36.8586 30.6195L37.0072 30H37.9928L38.1414 30.6194C38.2342 31.0063 38.4172 31.3657 38.6755 31.6682C38.9337 31.9708 39.26 32.2079 39.6275 32.3602C39.995 32.5124 40.3933 32.5756 40.7899 32.5444C41.1864 32.5132 41.57 32.3886 41.9092 32.1808L42.4592 31.8436L43.1564 32.5408L42.8193 33.0909C42.6115 33.4301 42.4868 33.8136 42.4556 34.2102C42.4245 34.6068 42.4876 35.0051 42.6399 35.3726C42.7921 35.7401 43.0293 36.0663 43.3318 36.3246C43.6343 36.5829 43.9937 36.7658 44.3806 36.8586L45 37.0072V37.9928L44.3806 38.1414C43.9937 38.2342 43.6343 38.4172 43.3318 38.6755C43.0292 38.9337 42.7921 39.26 42.6398 39.6275C42.4876 39.995 42.4244 40.3933 42.4556 40.7899C42.4868 41.1864 42.6114 41.57 42.8192 41.9092L43.1564 42.4592L42.4592 43.1564L41.9091 42.8193C41.5699 42.6115 41.1864 42.4868 40.7898 42.4556C40.3932 42.4245 39.9949 42.4876 39.6274 42.6399C39.2599 42.7921 38.9337 43.0293 38.6754 43.3318C38.4171 43.6343 38.2342 43.9937 38.1414 44.3806L37.9928 45H37.0072L36.8586 44.3806C36.7658 43.9937 36.5828 43.6343 36.3245 43.3318C36.0663 43.0292 35.74 42.7921 35.3725 42.6398C35.005 42.4876 34.6067 42.4244 34.2101 42.4556C33.8136 42.4868 33.43 42.6114 33.0908 42.8192L32.5408 43.1564L31.8436 42.4592L32.1807 41.9091C32.3885 41.5699 32.5132 41.1864 32.5444 40.7898C32.5755 40.3932 32.5124 39.9949 32.3601 39.6274C32.2079 39.2599 31.9707 38.9337 31.6682 38.6754C31.3657 38.4171 31.0063 38.2342 30.6194 38.1414L30 37.9928V36.8676C30 36.6686 29.921 36.4779 29.7803 36.3372C29.6397 36.1966 29.4489 36.1176 29.25 36.1176C29.0511 36.1176 28.8603 36.1966 28.7197 36.3372C28.579 36.4779 28.5 36.6686 28.5 36.8676V38.5843C28.5 38.7528 28.5568 38.9163 28.6611 39.0487C28.7654 39.181 28.9113 39.2743 29.0751 39.3136L30.2697 39.6C30.4263 39.6376 30.5718 39.7117 30.6943 39.8162C30.8168 39.9208 30.9128 40.0529 30.9744 40.2017C31.0361 40.3504 31.0616 40.5117 31.049 40.6723C31.0363 40.8328 30.9859 40.9881 30.9017 41.1254L30.2557 42.1796C30.1677 42.3233 30.1306 42.4924 30.1504 42.6596C30.1702 42.8269 30.2457 42.9827 30.3648 43.1018L31.8982 44.6352C32.0173 44.7543 32.1731 44.8298 32.3404 44.8496C32.5077 44.8694 32.6768 44.8323 32.8205 44.7443L33.8745 44.0982C34.0118 44.0141 34.1671 43.9636 34.3277 43.951C34.4882 43.9384 34.6495 43.9639 34.7983 44.0256C34.9471 44.0872 35.0792 44.1832 35.1837 44.3057C35.2883 44.4282 35.3624 44.5737 35.4 44.7303L35.6864 45.9249C35.7257 46.0887 35.819 46.2346 35.9513 46.3389C36.0837 46.4432 36.2472 46.5 36.4157 46.5H38.5843C38.7528 46.5 38.9163 46.4432 39.0487 46.3389C39.181 46.2346 39.2743 46.0887 39.3136 45.9249L39.6 44.7303C39.6376 44.5737 39.7117 44.4282 39.8162 44.3057C39.9208 44.1832 40.0529 44.0872 40.2017 44.0256C40.3504 43.9639 40.5117 43.9384 40.6723 43.951C40.8328 43.9637 40.9881 44.0141 41.1254 44.0983L42.1796 44.7443C42.3233 44.8323 42.4924 44.8694 42.6597 44.8496C42.8269 44.8298 42.9827 44.7543 43.1018 44.6352L44.6352 43.1018C44.7543 42.9827 44.8298 42.8269 44.8496 42.6596C44.8694 42.4923 44.8323 42.3232 44.7443 42.1795L44.0982 41.1255C44.0141 40.9882 43.9636 40.8329 43.951 40.6723C43.9384 40.5118 43.9639 40.3505 44.0256 40.2017C44.0872 40.0529 44.1832 39.9208 44.3057 39.8163C44.4282 39.7117 44.5737 39.6376 44.7303 39.6L45.9249 39.3136C46.0887 39.2743 46.2346 39.181 46.3389 39.0487C46.4432 38.9163 46.5 38.7528 46.5 38.5843V36.4157C46.5 36.2472 46.4432 36.0837 46.3389 35.9513C46.2346 35.819 46.0887 35.7257 45.9249 35.6864Z" fill="black"/>
<path d="M30.5303 17.4696L27.5303 14.4696C27.3897 14.329 27.1989 14.25 27 14.25H21C20.8011 14.25 20.6103 14.329 20.4696 14.4696L17.4696 17.4696C17.3344 17.6049 17.2559 17.7867 17.2503 17.9779C17.2447 18.1691 17.3123 18.3553 17.4394 18.4982L22.6837 24.3981L18.8559 25.674C18.17 25.9033 17.5649 26.3258 17.1133 26.8907C16.6618 27.4557 16.3829 28.139 16.3104 28.8585L15.7537 34.4254C15.7339 34.6233 15.7936 34.821 15.9195 34.9749C16.0455 35.1289 16.2274 35.2265 16.4254 35.2463C16.6233 35.266 16.8209 35.2064 16.9749 35.0804C17.1288 34.9545 17.2264 34.7725 17.2462 34.5746L17.8029 29.0078C17.8464 28.576 18.0138 28.1661 18.2847 27.8271C18.5557 27.4882 18.9187 27.2347 19.3302 27.0971L21.751 26.2902C21.7563 26.5947 21.8234 26.8949 21.9484 27.1726C22.0735 27.4503 22.2537 27.6996 22.4781 27.9054L21.7546 34.4171C21.7326 34.6148 21.7901 34.8132 21.9143 34.9685C22.0386 35.1238 22.2194 35.2234 22.4171 35.2454C22.4449 35.2485 22.4729 35.2501 22.5009 35.2501C22.6853 35.2498 22.8632 35.1817 23.0005 35.0586C23.1378 34.9355 23.225 34.7661 23.2454 34.5829L23.9215 28.498C23.9476 28.4989 23.9737 28.5 24 28.5C24.0263 28.5 24.0523 28.4989 24.0784 28.498L24.7546 34.5829C24.7749 34.7661 24.8621 34.9355 24.9995 35.0586C25.1368 35.1817 25.3146 35.2498 25.4991 35.2501C25.5271 35.2501 25.555 35.2485 25.5828 35.2454C25.7805 35.2234 25.9614 35.1238 26.0857 34.9685C26.2099 34.8132 26.2674 34.6148 26.2454 34.4171L25.5219 27.9054C25.7463 27.6996 25.9265 27.4503 26.0515 27.1726C26.1765 26.8949 26.2437 26.5947 26.249 26.2902L28.6696 27.0971C29.0812 27.2347 29.4443 27.4882 29.7152 27.8271C29.9862 28.166 30.1535 28.576 30.1971 29.0078L30.7537 34.5746C30.7735 34.7725 30.8711 34.9545 31.0251 35.0804C31.179 35.2064 31.3767 35.266 31.5746 35.2463C31.7725 35.2265 31.9545 35.1289 32.0804 34.9749C32.2064 34.821 32.266 34.6233 32.2462 34.4254L31.6896 28.8585C31.617 28.1389 31.3382 27.4556 30.8866 26.8907C30.435 26.3258 29.8299 25.9033 29.144 25.674L25.3162 24.3981L30.5606 18.4982C30.6876 18.3553 30.7553 18.1691 30.7497 17.9779C30.744 17.7867 30.6656 17.6049 30.5303 17.4696ZM21.2094 18.75L22.1329 21.5206L19.6701 18.75H21.2094ZM25.2094 18.75L24 22.3782L22.7906 18.75H25.2094ZM22.9636 17.25L23.7135 15.75H24.2864L25.0364 17.25H22.9636ZM26.7906 18.75H28.3298L25.8671 21.5206L26.7906 18.75ZM28.1893 17.25H26.7135L25.9635 15.75H26.6893L28.1893 17.25ZM21.3106 15.75H22.0364L21.2864 17.25H19.8107L21.3106 15.75ZM24.75 26.25C24.7501 26.3737 24.7197 26.4954 24.6614 26.6045C24.6031 26.7136 24.5187 26.8065 24.4158 26.8751C24.3128 26.9436 24.1946 26.9857 24.0715 26.9975C23.9484 27.0092 23.8243 26.9904 23.7102 26.9426C23.5961 26.8948 23.4956 26.8196 23.4177 26.7236C23.3398 26.6276 23.2868 26.5138 23.2634 26.3923C23.2401 26.2709 23.2472 26.1456 23.284 26.0275C23.3208 25.9095 23.3863 25.8023 23.4745 25.7157L24 25.5406L24.5254 25.7157C24.5965 25.7853 24.653 25.8684 24.6916 25.9602C24.7301 26.0519 24.75 26.1505 24.75 26.25Z" fill="black"/>
<path d="M20.9991 3.20526C21.0336 3.20527 21.0682 3.20289 21.1024 3.19812C22.7833 2.9682 24.4855 2.93897 26.1733 3.11105C26.3708 3.1308 26.5681 3.0714 26.722 2.94589C26.8758 2.82038 26.9736 2.63899 26.9939 2.44149C27.0142 2.24399 26.9554 2.0465 26.8303 1.8923C26.7052 1.73811 26.5241 1.6398 26.3267 1.61893C24.5197 1.43364 22.6971 1.46496 20.8975 1.71222C20.7094 1.73818 20.5381 1.83456 20.4182 1.98191C20.2983 2.12926 20.2388 2.3166 20.2517 2.50611C20.2646 2.69562 20.3489 2.87318 20.4876 3.00294C20.6263 3.13271 20.8091 3.20501 20.9991 3.20526Z" fill="black"/>
<path d="M2.57117 28.5001C2.61453 28.5001 2.65781 28.4964 2.70053 28.489C2.8965 28.4549 3.07091 28.3444 3.18539 28.1817C3.29987 28.019 3.34506 27.8176 3.311 27.6216C2.85387 24.9809 2.90106 22.2775 3.45007 19.6544C3.49101 19.4597 3.45294 19.2568 3.34424 19.0902C3.23554 18.9236 3.06512 18.807 2.87045 18.7661C2.67579 18.7251 2.47284 18.7632 2.30624 18.8719C2.13965 18.9806 2.02306 19.151 1.98212 19.3457C1.39401 22.155 1.34346 25.0503 1.83316 27.8785C1.86338 28.0524 1.95395 28.21 2.08894 28.3237C2.22392 28.4374 2.39468 28.4999 2.57117 28.5001Z" fill="black"/>
<path d="M45.5586 21.0039C45.3607 21.0242 45.1791 21.1224 45.0535 21.2767C44.928 21.431 44.8689 21.6288 44.8893 21.8267C44.9632 22.5487 45.0003 23.2741 45.0003 24C45.0011 25.7085 44.7944 27.4108 44.3845 29.0695C44.3607 29.1651 44.356 29.2645 44.3706 29.362C44.3852 29.4595 44.4189 29.5531 44.4697 29.6375C44.5206 29.722 44.5875 29.7956 44.6668 29.8541C44.7461 29.9126 44.8362 29.955 44.9318 29.9787C45.0275 30.0024 45.1269 30.007 45.2243 29.9923C45.3218 29.9776 45.4154 29.9438 45.4998 29.8929C45.5841 29.8419 45.6577 29.7749 45.7161 29.6955C45.7746 29.6162 45.8168 29.5261 45.8404 29.4304C46.2795 27.6537 46.5011 25.8302 46.5003 24C46.5003 23.2229 46.4606 22.4463 46.3814 21.6732C46.3609 21.4754 46.2628 21.2938 46.1085 21.1683C45.9542 21.0428 45.7565 20.9837 45.5586 21.0039Z" fill="black"/>
<path d="M15.9058 39.5947C15.5592 39.2492 15.1133 39.0207 14.6305 38.9413C14.1476 38.862 13.652 38.9356 13.2131 39.152L12.2373 38.1762C13.175 36.9686 13.6172 35.4491 13.474 33.9269C13.3307 32.4047 12.6127 30.9944 11.4661 29.983C10.3195 28.9716 8.83061 28.4352 7.30247 28.483C5.77432 28.5309 4.32184 29.1593 3.24075 30.2404C2.15966 31.3215 1.53123 32.774 1.48341 34.3021C1.43559 35.8302 1.97198 37.3192 2.98336 38.4657C3.99475 39.6123 5.40509 40.3303 6.92726 40.4736C8.44943 40.6169 9.96898 40.1746 11.1765 39.2369L12.1524 40.2127C11.9359 40.6516 11.8623 41.1472 11.9416 41.6301C12.021 42.113 12.2495 42.5589 12.595 42.9054L15.504 45.8144C15.9431 46.2531 16.5385 46.4994 17.1592 46.4993C17.7798 46.4991 18.3751 46.2525 18.814 45.8136C19.2528 45.3747 19.4995 44.7795 19.4996 44.1588C19.4998 43.5381 19.2534 42.9428 18.8148 42.5037L15.9058 39.5947ZM3.0004 34.5C3.0004 33.61 3.26432 32.74 3.75878 32C4.25325 31.2599 4.95605 30.6832 5.77832 30.3426C6.60059 30.002 7.50539 29.9129 8.3783 30.0865C9.25122 30.2601 10.053 30.6887 10.6824 31.3181C11.3117 31.9474 11.7403 32.7492 11.9139 33.6221C12.0876 34.495 11.9984 35.3998 11.6579 36.2221C11.3173 37.0444 10.7405 37.7472 10.0005 38.2416C9.26044 38.7361 8.39041 39 7.5004 39C6.30733 38.9987 5.16351 38.5242 4.31989 37.6805C3.47626 36.8369 3.00173 35.6931 3.0004 34.5ZM17.1594 45C17.0489 45.0003 16.9395 44.9787 16.8374 44.9364C16.7353 44.8941 16.6427 44.832 16.5648 44.7537L13.6558 41.8447C13.5777 41.7666 13.5157 41.6739 13.4735 41.5718C13.4312 41.4698 13.4095 41.3605 13.4095 41.25C13.4095 41.1396 13.4312 41.0302 13.4735 40.9282C13.5157 40.8262 13.5777 40.7335 13.6558 40.6554C13.7339 40.5773 13.8266 40.5154 13.9286 40.4731C14.0306 40.4308 14.14 40.4091 14.2504 40.4091C14.3608 40.4091 14.4702 40.4308 14.5722 40.4731C14.6742 40.5154 14.7669 40.5773 14.845 40.6554L17.754 43.5644C17.8717 43.682 17.9518 43.8318 17.9842 43.995C18.0167 44.1581 18 44.3272 17.9364 44.4809C17.8727 44.6346 17.7649 44.7659 17.6266 44.8583C17.4883 44.9507 17.3257 45 17.1594 45Z" fill="black"/>
<path d="M29.0703 44.3842C27.4117 44.794 25.7094 45.0008 24.0008 45C23.275 44.9999 22.5496 44.9629 21.8275 44.8889C21.63 44.8692 21.4326 44.9285 21.2788 45.0541C21.125 45.1796 21.0272 45.361 21.0069 45.5585C20.9866 45.756 21.0454 45.9535 21.1705 46.1076C21.2955 46.2618 21.4766 46.3601 21.6741 46.381C22.4471 46.4602 23.2237 46.4999 24.0008 46.5C25.831 46.5008 27.6545 46.2792 29.4312 45.84C29.5269 45.8164 29.617 45.7742 29.6964 45.7157C29.7757 45.6573 29.8428 45.5838 29.8937 45.4994C29.9446 45.415 29.9784 45.3214 29.9931 45.224C30.0079 45.1265 30.0032 45.0271 29.9795 44.9315C29.9558 44.8358 29.9135 44.7457 29.8549 44.6665C29.7964 44.5872 29.7228 44.5202 29.6384 44.4694C29.5539 44.4185 29.4603 44.3849 29.3628 44.3702C29.2654 44.3556 29.166 44.3603 29.0703 44.3842Z" fill="black"/>
<path d="M9.54578 41.7178C8.37811 42.0471 7.14807 42.0889 5.96073 41.8396C4.7734 41.5903 3.66406 41.0573 2.72748 40.2861C2.57412 40.1594 2.37673 40.0989 2.17873 40.1178C1.98073 40.1367 1.79835 40.2334 1.6717 40.3868C1.54505 40.5401 1.4845 40.7375 1.50339 40.9355C1.52228 41.1335 1.61904 41.3159 1.77241 41.4426C2.89608 42.3683 4.22722 43.0082 5.65203 43.3075C7.07683 43.6068 8.55292 43.5566 9.95411 43.1612C10.0489 43.1344 10.1376 43.0893 10.215 43.0282C10.2923 42.9672 10.3569 42.8915 10.405 42.8055C10.4531 42.7195 10.4838 42.6249 10.4953 42.527C10.5069 42.4292 10.499 42.33 10.4722 42.2352C10.4453 42.1404 10.4001 42.0518 10.339 41.9744C10.2779 41.8971 10.2022 41.8326 10.1162 41.7845C10.0302 41.7365 9.9355 41.7058 9.83763 41.6944C9.73975 41.6829 9.64058 41.6909 9.54578 41.7178Z" fill="black"/>
<path d="M7.50049 25.5C6.67074 25.4995 5.84489 25.6135 5.04633 25.8388C4.85505 25.8931 4.69314 26.0211 4.59619 26.1947C4.49924 26.3683 4.47518 26.5732 4.5293 26.7646C4.58342 26.9559 4.71129 27.1179 4.88481 27.215C5.05833 27.312 5.26329 27.3362 5.45465 27.2823C6.95149 26.86 8.54249 26.9126 10.0081 27.4329C11.4738 27.9533 12.7418 28.9156 13.6373 30.1872C13.752 30.3494 13.9264 30.4594 14.1221 30.4932C14.3179 30.5269 14.519 30.4816 14.6814 30.3673C14.8438 30.2529 14.9542 30.0788 14.9884 29.8831C15.0226 29.6874 14.9777 29.4862 14.8637 29.3235C14.0321 28.1433 12.9293 27.18 11.6479 26.5146C10.3666 25.8493 8.94427 25.5013 7.50049 25.5Z" fill="black"/>
</svg>
