<svg width="48" height="48" viewBox="0 0 48 48" fill="none" xmlns="http://www.w3.org/2000/svg">
<g clip-path="url(#clip0_38_40793)">
<path d="M12.9311 41.3899C12.9311 41.8041 12.5953 42.1399 12.1811 42.1399H10.4358C7.65131 42.1399 5.03147 41.0536 3.05887 39.0812C1.08628 37.1087 0 34.4888 0 31.7042C0 31.2901 0.335812 30.9542 0.75 30.9542C1.16419 30.9542 1.5 31.2901 1.5 31.7042C1.5 34.0882 2.43028 36.3313 4.11947 38.0205C5.80875 39.7097 8.05181 40.6399 10.4357 40.6399H12.181C12.5953 40.6399 12.9311 40.9757 12.9311 41.3899ZM47.25 30.9542C46.8358 30.9542 46.5 31.2901 46.5 31.7042C46.5 34.0882 45.5697 36.3313 43.8804 38.0205C42.1912 39.7097 39.9482 40.6399 37.5643 40.6399H35.819C35.4048 40.6399 35.069 40.9757 35.069 41.3899C35.069 41.8041 35.4048 42.1399 35.819 42.1399H37.5643C40.3488 42.1399 42.9686 41.0536 44.9411 39.0812C46.9136 37.1087 48 34.4888 48 31.7042C48 31.2901 47.6642 30.9542 47.25 30.9542ZM19.1386 34.4325C20.4563 35.7502 21.1819 37.4992 21.1819 39.3574V47.25C21.1819 47.6642 20.8461 48 20.4319 48H15.6487C15.2345 48 14.8987 47.6642 14.8987 47.25V39.3574C14.8987 39.1771 14.8267 39.0058 14.696 38.8751C14.5653 38.7443 14.394 38.6724 14.2136 38.6724H10.4358C8.57756 38.6724 6.82838 37.9468 5.51081 36.6292C4.19306 35.3115 3.46734 33.5625 3.46734 31.7042V21.254C3.46734 20.3028 3.89381 19.45 4.56488 18.8746C3.51863 18.2004 2.82375 17.0259 2.82375 15.6913C2.82375 13.604 4.52184 11.906 6.60909 11.906C8.69634 11.906 10.3943 13.604 10.3943 15.6913C10.3943 17.027 9.69825 18.2026 8.65041 18.8765C9.32325 19.4519 9.75075 20.304 9.75075 21.254V21.5964L11.66 22.8284H18.6532C19.9128 22.8284 20.9375 23.8531 20.9375 25.1127C20.9375 26.3722 19.9127 27.3969 18.6532 27.3969L10.9896 27.3954C10.5527 27.3935 10.1277 27.268 9.7605 27.0323L9.75075 27.026V31.7042C9.75075 31.8846 9.82275 32.0559 9.95344 32.1866C10.084 32.3172 10.2553 32.3891 10.4358 32.3891H14.2136C16.0718 32.3892 17.8208 33.1149 19.1386 34.4325ZM11.2179 24.3284L8.32697 22.4629C8.15297 22.3512 7.944 22.3137 7.74009 22.3581C7.53619 22.4026 7.36191 22.5239 7.24922 22.6995C7.13653 22.8751 7.09884 23.0841 7.14337 23.2878C7.18781 23.4917 7.30903 23.666 7.48462 23.7787L10.5723 25.7711C10.6973 25.8512 10.8438 25.8946 10.9946 25.8955L18.6534 25.897C19.0856 25.897 19.4375 25.5451 19.4375 25.1128C19.4375 24.6803 19.0856 24.3285 18.6532 24.3285H11.2179V24.3284ZM4.32375 15.6913C4.32375 16.9514 5.349 17.9766 6.60909 17.9766C7.86919 17.9766 8.89434 16.9514 8.89434 15.6913C8.89434 14.4312 7.86919 13.406 6.60909 13.406C5.349 13.406 4.32375 14.4312 4.32375 15.6913ZM19.6818 39.3574C19.6818 37.8998 19.1122 36.5274 18.0778 35.4931C17.0436 34.4588 15.6712 33.8892 14.2135 33.8892H10.4357C9.85472 33.8892 9.30675 33.6612 8.89266 33.2474C8.47866 32.8331 8.25066 32.2851 8.25066 31.7042V26.0582L6.67275 25.0399C6.16153 24.7118 5.80753 24.2027 5.67778 23.6074C5.54794 23.012 5.65772 22.4018 5.98688 21.889C6.31603 21.3763 6.82509 21.0225 7.42041 20.8925C7.68038 20.8357 7.94325 20.8247 8.19966 20.8577C8.02031 20.1477 7.37297 19.6195 6.60187 19.6195C5.70066 19.6195 4.96734 20.3527 4.96734 21.254V31.7042C4.96734 33.1619 5.53697 34.5343 6.57131 35.5687C7.60556 36.6029 8.97806 37.1725 10.4357 37.1725H14.2135C14.7945 37.1725 15.3426 37.4005 15.7566 37.8145C16.1706 38.2285 16.3986 38.7766 16.3986 39.3575V46.5H19.6818V39.3574ZM37.5643 38.6725H33.7865C33.606 38.6725 33.4347 38.7445 33.304 38.8752C33.1733 39.0059 33.1014 39.1772 33.1014 39.3575V47.25C33.1014 47.6642 32.7656 48 32.3514 48H27.5682C27.154 48 26.8182 47.6642 26.8182 47.25V39.3574C26.8182 37.4992 27.5438 35.7501 28.8615 34.4325C30.1792 33.1148 31.9283 32.3892 33.7865 32.3892H37.5643C37.7448 32.3892 37.9161 32.3172 38.0467 32.1865C38.1773 32.0559 38.2493 31.8845 38.2493 31.7042V27.026L38.241 27.0314C37.8724 27.268 37.4474 27.3936 37.0103 27.3955L29.3469 27.397C28.0872 27.397 27.0625 26.3722 27.0625 25.1128C27.0625 23.8531 28.0873 22.8285 29.3468 22.8285H36.34L38.2493 21.5965V21.2541C38.2493 20.304 38.6768 19.4519 39.3496 18.8766C38.3018 18.2027 37.6056 17.0272 37.6056 15.6914C37.6056 13.6041 39.3037 11.9061 41.3909 11.9061C43.4782 11.9061 45.1762 13.6041 45.1762 15.6914C45.1762 17.0259 44.4814 18.2005 43.4351 18.8747C44.1061 19.4501 44.5326 20.303 44.5326 21.2541V31.7043C44.5326 33.5626 43.8069 35.3117 42.4893 36.6294C41.1716 37.9469 39.4226 38.6725 37.5643 38.6725ZM39.1056 15.6913C39.1056 16.9514 40.1308 17.9766 41.3909 17.9766C42.651 17.9766 43.6762 16.9514 43.6762 15.6913C43.6762 14.4312 42.651 13.406 41.3909 13.406C40.1308 13.406 39.1056 14.4312 39.1056 15.6913ZM40.5138 23.7796C40.691 23.6659 40.8122 23.4916 40.8565 23.2877C40.9011 23.0839 40.8634 22.875 40.7507 22.6995C40.638 22.5238 40.4636 22.4026 40.2598 22.358C40.0559 22.3137 39.8471 22.3512 39.6714 22.4639L36.7821 24.3284H29.3468C28.9144 24.3284 28.5625 24.6802 28.5625 25.1127C28.5625 25.5451 28.9144 25.8969 29.3468 25.8969L37.0053 25.8954C37.1561 25.8946 37.3027 25.8512 37.4291 25.7701L40.5138 23.7796ZM33.7865 37.1725H37.5643C39.0219 37.1725 40.3943 36.603 41.4286 35.5686C42.4629 34.5344 43.0326 33.1619 43.0326 31.7042V21.254C43.0326 20.3528 42.2994 19.6195 41.3981 19.6195C40.6269 19.6195 39.9796 20.1478 39.8003 20.8578C40.0567 20.8247 40.3194 20.8358 40.5795 20.8925C41.1748 21.0225 41.6839 21.3763 42.013 21.8891C42.3422 22.4018 42.452 23.0121 42.3221 23.6074C42.1923 24.2027 41.8384 24.7118 41.3256 25.041L39.7493 26.0582V31.7042C39.7493 32.285 39.5213 32.833 39.1075 33.2472C38.6932 33.6613 38.1452 33.8893 37.5642 33.8893H33.7864C32.3288 33.8893 30.9563 34.4589 29.9221 35.4932C28.8878 36.5275 28.3181 37.8999 28.3181 39.3575V46.5H31.6013V39.3574C31.6013 38.7766 31.8293 38.2286 32.2432 37.8145C32.6573 37.4004 33.2053 37.1725 33.7865 37.1725ZM34.4251 30.6382C34.8393 30.6382 35.1751 30.3024 35.1751 29.8882C35.1751 29.474 34.8393 29.1382 34.4251 29.1382H13.5748C13.1606 29.1382 12.8248 29.474 12.8248 29.8882C12.8248 30.3024 13.1606 30.6382 13.5748 30.6382H23.25V47.25C23.25 47.6642 23.5858 48 24 48C24.4142 48 24.75 47.6642 24.75 47.25V30.6382H34.4251ZM13.9445 14.1707C12.7748 12.3651 12.277 10.2141 12.54 8.06715C13.1553 3.04149 17.7446 -0.547163 22.7705 0.0689623C23.8957 0.206775 24.9648 0.543619 25.9387 1.05652C30.2667 1.0809 34.0076 4.1469 34.8715 8.41665C35.3005 10.5365 34.9714 12.7198 33.9458 14.6108L35.4504 17.6351C35.5864 17.9083 35.5433 18.2367 35.3412 18.4654C35.1394 18.6942 34.8189 18.778 34.5308 18.6768L31.3928 17.5765C30.3051 18.3948 29.0345 18.9662 27.6925 19.2378C27.0901 19.3598 26.4805 19.4199 25.8732 19.4199C24.3923 19.4199 22.9243 19.0609 21.6014 18.3654C21.2499 18.3632 20.8954 18.3414 20.5382 18.2976C19.1794 18.1313 17.8682 17.6601 16.7199 16.9289L13.6772 18.2699C13.3976 18.393 13.0718 18.3346 12.8527 18.1221C12.6336 17.9097 12.565 17.5857 12.6792 17.3027L13.9445 14.1707ZM28.4391 2.99518C28.5946 3.16618 28.7445 3.34374 28.8883 3.52768C30.399 5.45987 31.0668 7.86484 30.7687 10.2993C30.3323 13.8629 27.8967 16.7015 24.7253 17.8334C25.6057 17.9662 26.5095 17.9467 27.3951 17.7677C28.6365 17.5164 29.8045 16.9589 30.7729 16.1551C30.9756 15.9871 31.2516 15.9376 31.5001 16.0246L33.2852 16.6505L32.4244 14.9205C32.3101 14.691 32.3211 14.419 32.4534 14.1994C33.4468 12.5504 33.7835 10.6023 33.4013 8.71421C32.853 6.00418 30.9209 3.87587 28.4391 2.99518ZM15.4003 13.6445C15.5493 13.8532 15.5813 14.1235 15.4853 14.3612L14.7616 16.1529L16.4925 15.3901C16.5893 15.3474 16.6924 15.3263 16.7949 15.3263C16.9476 15.3263 17.0991 15.3728 17.2277 15.4637C18.2557 16.1897 19.4635 16.6548 20.7206 16.8089C21.036 16.8475 21.3498 16.8662 21.6599 16.8662C25.4831 16.8665 28.8037 14.0063 29.2799 10.117C29.5293 8.08009 28.9706 6.06812 27.7068 4.45149C26.4428 2.83487 24.625 1.80718 22.5881 1.55781C20.5516 1.3089 18.5392 1.86709 16.9226 3.13093C15.306 4.39487 14.2783 6.21268 14.0288 8.24959C13.7947 10.1617 14.2817 12.0777 15.4003 13.6445ZM25.2207 10.1207C25.7384 10.1207 26.1582 9.70093 26.1582 9.18324C26.1582 8.66556 25.7385 8.24574 25.2207 8.24574C24.7029 8.24574 24.2832 8.66546 24.2832 9.18324C24.2832 9.70103 24.7028 10.1207 25.2207 10.1207ZM21.6719 10.1207C22.1897 10.1207 22.6094 9.70093 22.6094 9.18324C22.6094 8.66556 22.1896 8.24574 21.6719 8.24574C21.1541 8.24574 20.7344 8.66546 20.7344 9.18324C20.7344 9.70103 21.1541 10.1207 21.6719 10.1207ZM18.1406 10.1207C18.6584 10.1207 19.0781 9.70093 19.0781 9.18324C19.0781 8.66556 18.6584 8.24574 18.1406 8.24574C17.6229 8.24574 17.2031 8.66556 17.2031 9.18324C17.2031 9.70093 17.6228 10.1207 18.1406 10.1207Z" fill="black"/>
</g>
<defs>
<clipPath id="clip0_38_40793">
<rect width="48" height="48" fill="white"/>
</clipPath>
</defs>
</svg>
