<svg width="1440" height="410" viewBox="0 0 1440 410" fill="none" xmlns="http://www.w3.org/2000/svg">
<g opacity="0.04" clip-path="url(#clip0_123_43578)">
<g clip-path="url(#clip1_123_43578)">
<rect x="-51.4287" y="-52.4286" width="102.857" height="102.857" stroke="#020513" stroke-width="1.02857"/>
<rect x="51.4287" y="-52.4286" width="102.857" height="102.857" stroke="#020513" stroke-width="1.02857"/>
<rect x="154.286" y="-52.4286" width="102.857" height="102.857" stroke="#020513" stroke-width="1.02857"/>
<rect x="257.144" y="-52.4286" width="102.857" height="102.857" stroke="#020513" stroke-width="1.02857"/>
<rect x="360" y="-52.4286" width="102.857" height="102.857" stroke="#020513" stroke-width="1.02857"/>
<rect x="462.857" y="-52.4286" width="102.857" height="102.857" stroke="#020513" stroke-width="1.02857"/>
<rect x="565.715" y="-52.4286" width="102.857" height="102.857" stroke="#020513" stroke-width="1.02857"/>
<rect x="668.571" y="-52.4286" width="102.857" height="102.857" stroke="#020513" stroke-width="1.02857"/>
<rect x="771.429" y="-52.4286" width="102.857" height="102.857" stroke="#020513" stroke-width="1.02857"/>
<rect x="874.286" y="-52.4286" width="102.857" height="102.857" stroke="#020513" stroke-width="1.02857"/>
<rect x="977.144" y="-52.4286" width="102.857" height="102.857" stroke="#020513" stroke-width="1.02857"/>
<rect x="1080" y="-52.4286" width="102.857" height="102.857" stroke="#020513" stroke-width="1.02857"/>
<rect x="1182.86" y="-52.4286" width="102.857" height="102.857" stroke="#020513" stroke-width="1.02857"/>
<rect x="1285.71" y="-52.4286" width="102.857" height="102.857" stroke="#020513" stroke-width="1.02857"/>
<rect x="1388.57" y="-52.4286" width="102.857" height="102.857" stroke="#020513" stroke-width="1.02857"/>
</g>
<g clip-path="url(#clip2_123_43578)">
<rect x="-51.4287" y="50.4286" width="102.857" height="102.857" stroke="#020513" stroke-width="1.02857"/>
<rect x="51.4287" y="50.4286" width="102.857" height="102.857" stroke="#020513" stroke-width="1.02857"/>
<rect x="154.286" y="50.4286" width="102.857" height="102.857" stroke="#020513" stroke-width="1.02857"/>
<rect x="257.144" y="50.4286" width="102.857" height="102.857" stroke="#020513" stroke-width="1.02857"/>
<rect x="360" y="50.4286" width="102.857" height="102.857" fill="#020513" stroke="#020513" stroke-width="1.02857"/>
<rect x="462.857" y="50.4286" width="102.857" height="102.857" stroke="#020513" stroke-width="1.02857"/>
<rect x="565.715" y="50.4286" width="102.857" height="102.857" stroke="#020513" stroke-width="1.02857"/>
<rect x="668.571" y="50.4286" width="102.857" height="102.857" stroke="#020513" stroke-width="1.02857"/>
<rect x="771.429" y="50.4286" width="102.857" height="102.857" stroke="#020513" stroke-width="1.02857"/>
<rect x="874.286" y="50.4286" width="102.857" height="102.857" stroke="#020513" stroke-width="1.02857"/>
<rect x="977.144" y="50.4286" width="102.857" height="102.857" stroke="#020513" stroke-width="1.02857"/>
<rect x="1080" y="50.4286" width="102.857" height="102.857" stroke="#020513" stroke-width="1.02857"/>
<rect x="1182.86" y="50.4286" width="102.857" height="102.857" stroke="#020513" stroke-width="1.02857"/>
<rect x="1285.71" y="50.4286" width="102.857" height="102.857" stroke="#020513" stroke-width="1.02857"/>
<rect x="1388.57" y="50.4286" width="102.857" height="102.857" stroke="#020513" stroke-width="1.02857"/>
</g>
<g clip-path="url(#clip3_123_43578)">
<rect x="-51.4287" y="153.286" width="102.857" height="102.857" stroke="#020513" stroke-width="1.02857"/>
<rect x="51.4287" y="153.286" width="102.857" height="102.857" stroke="#020513" stroke-width="1.02857"/>
<rect x="154.286" y="153.286" width="102.857" height="102.857" stroke="#020513" stroke-width="1.02857"/>
<rect x="257.144" y="153.286" width="102.857" height="102.857" stroke="#020513" stroke-width="1.02857"/>
<rect x="360" y="153.286" width="102.857" height="102.857" stroke="#020513" stroke-width="1.02857"/>
<rect x="462.857" y="153.286" width="102.857" height="102.857" stroke="#020513" stroke-width="1.02857"/>
<rect x="565.715" y="153.286" width="102.857" height="102.857" stroke="#020513" stroke-width="1.02857"/>
<rect x="668.571" y="153.286" width="102.857" height="102.857" stroke="#020513" stroke-width="1.02857"/>
<rect x="771.429" y="153.286" width="102.857" height="102.857" stroke="#020513" stroke-width="1.02857"/>
<rect x="874.286" y="153.286" width="102.857" height="102.857" stroke="#020513" stroke-width="1.02857"/>
<rect x="977.144" y="153.286" width="102.857" height="102.857" stroke="#020513" stroke-width="1.02857"/>
<rect x="1080" y="153.286" width="102.857" height="102.857" stroke="#020513" stroke-width="1.02857"/>
<rect x="1182.86" y="153.286" width="102.857" height="102.857" stroke="#020513" stroke-width="1.02857"/>
<rect x="1285.71" y="153.286" width="102.857" height="102.857" stroke="#020513" stroke-width="1.02857"/>
<rect x="1388.57" y="153.286" width="102.857" height="102.857" stroke="#020513" stroke-width="1.02857"/>
</g>
<g clip-path="url(#clip4_123_43578)">
<rect x="-51.4287" y="256.143" width="102.857" height="102.857" stroke="#020513" stroke-width="1.02857"/>
<rect x="51.4287" y="256.143" width="102.857" height="102.857" stroke="#020513" stroke-width="1.02857"/>
<rect x="154.286" y="256.143" width="102.857" height="102.857" stroke="#020513" stroke-width="1.02857"/>
<rect x="257.144" y="256.143" width="102.857" height="102.857" stroke="#020513" stroke-width="1.02857"/>
<rect x="360" y="256.143" width="102.857" height="102.857" stroke="#020513" stroke-width="1.02857"/>
<rect x="462.857" y="256.143" width="102.857" height="102.857" stroke="#020513" stroke-width="1.02857"/>
<rect x="565.715" y="256.143" width="102.857" height="102.857" stroke="#020513" stroke-width="1.02857"/>
<rect x="668.571" y="256.143" width="102.857" height="102.857" stroke="#020513" stroke-width="1.02857"/>
<rect x="771.429" y="256.143" width="102.857" height="102.857" stroke="#020513" stroke-width="1.02857"/>
<rect x="874.286" y="256.143" width="102.857" height="102.857" stroke="#020513" stroke-width="1.02857"/>
<rect x="977.144" y="256.143" width="102.857" height="102.857" stroke="#020513" stroke-width="1.02857"/>
<rect x="1080" y="256.143" width="102.857" height="102.857" stroke="#020513" stroke-width="1.02857"/>
<rect x="1182.86" y="256.143" width="102.857" height="102.857" stroke="#020513" stroke-width="1.02857"/>
<rect x="1285.71" y="256.143" width="102.857" height="102.857" stroke="#020513" stroke-width="1.02857"/>
<rect x="1388.57" y="256.143" width="102.857" height="102.857" stroke="#020513" stroke-width="1.02857"/>
</g>
<g clip-path="url(#clip5_123_43578)">
<rect x="-51.4287" y="359" width="102.857" height="102.857" stroke="#020513" stroke-width="1.02857"/>
<rect x="51.4287" y="359" width="102.857" height="102.857" stroke="#020513" stroke-width="1.02857"/>
<rect x="154.286" y="359" width="102.857" height="102.857" stroke="#020513" stroke-width="1.02857"/>
<rect x="257.144" y="359" width="102.857" height="102.857" stroke="#020513" stroke-width="1.02857"/>
<rect x="360" y="359" width="102.857" height="102.857" stroke="#020513" stroke-width="1.02857"/>
<rect x="462.857" y="359" width="102.857" height="102.857" stroke="#020513" stroke-width="1.02857"/>
<rect x="565.715" y="359" width="102.857" height="102.857" stroke="#020513" stroke-width="1.02857"/>
<rect x="668.571" y="359" width="102.857" height="102.857" stroke="#020513" stroke-width="1.02857"/>
<rect x="771.429" y="359" width="102.857" height="102.857" stroke="#020513" stroke-width="1.02857"/>
<rect x="874.286" y="359" width="102.857" height="102.857" stroke="#020513" stroke-width="1.02857"/>
<rect x="977.144" y="359" width="102.857" height="102.857" fill="#020513" stroke="#020513" stroke-width="1.02857"/>
<rect x="1080" y="359" width="102.857" height="102.857" stroke="#020513" stroke-width="1.02857"/>
<rect x="1182.86" y="359" width="102.857" height="102.857" stroke="#020513" stroke-width="1.02857"/>
<rect x="1285.71" y="359" width="102.857" height="102.857" stroke="#020513" stroke-width="1.02857"/>
<rect x="1388.57" y="359" width="102.857" height="102.857" stroke="#020513" stroke-width="1.02857"/>
</g>
</g>
<defs>
<clipPath id="clip0_123_43578">
<rect width="1920" height="1131.43" fill="white" transform="translate(-240 -361)"/>
</clipPath>
<clipPath id="clip1_123_43578">
<rect width="1954.29" height="102.857" fill="white" transform="translate(-257.143 -52.4286)"/>
</clipPath>
<clipPath id="clip2_123_43578">
<rect width="1954.29" height="102.857" fill="white" transform="translate(-257.143 50.4286)"/>
</clipPath>
<clipPath id="clip3_123_43578">
<rect width="1954.29" height="102.857" fill="white" transform="translate(-257.143 153.286)"/>
</clipPath>
<clipPath id="clip4_123_43578">
<rect width="1954.29" height="102.857" fill="white" transform="translate(-257.143 256.143)"/>
</clipPath>
<clipPath id="clip5_123_43578">
<rect width="1954.29" height="102.857" fill="white" transform="translate(-257.143 359)"/>
</clipPath>
</defs>
</svg>
