<svg width="1440" height="849" viewBox="0 0 1440 849" fill="none" xmlns="http://www.w3.org/2000/svg">
<g opacity="0.1" clip-path="url(#clip0_135_405)">
<g clip-path="url(#clip1_135_405)">
<rect x="-12.8574" y="0.428467" width="77.1429" height="77.1429" stroke="#FF5900" stroke-width="0.771429"/>
<rect x="64.2852" y="0.428345" width="77.1429" height="77.1429" stroke="#FF5900" stroke-width="0.771429"/>
<rect x="141.429" y="0.428345" width="77.1429" height="77.1429" stroke="#FF5900" stroke-width="0.771429"/>
<rect x="218.571" y="0.428345" width="77.1429" height="77.1429" stroke="#FF5900" stroke-width="0.771429"/>
<rect x="295.714" y="0.428345" width="77.1429" height="77.1429" stroke="#FF5900" stroke-width="0.771429"/>
<rect x="372.856" y="0.428345" width="77.1429" height="77.1429" fill="#FF5900" stroke="#FF5900" stroke-width="0.771429"/>
<rect x="450" y="0.428345" width="77.1429" height="77.1429" stroke="#FF5900" stroke-width="0.771429"/>
<rect x="527.143" y="0.428345" width="77.1429" height="77.1429" stroke="#FF5900" stroke-width="0.771429"/>
<rect x="604.285" y="0.428345" width="77.1429" height="77.1429" stroke="#FF5900" stroke-width="0.771429"/>
<rect x="681.429" y="0.428345" width="77.1429" height="77.1429" stroke="#FF5900" stroke-width="0.771429"/>
<rect x="758.571" y="0.428345" width="77.1429" height="77.1429" stroke="#FF5900" stroke-width="0.771429"/>
<rect x="835.714" y="0.428345" width="77.1429" height="77.1429" stroke="#FF5900" stroke-width="0.771429"/>
<rect x="912.856" y="0.428345" width="77.1429" height="77.1429" stroke="#FF5900" stroke-width="0.771429"/>
<rect x="990" y="0.428345" width="77.1429" height="77.1429" stroke="#FF5900" stroke-width="0.771429"/>
<rect x="1067.14" y="0.428345" width="77.1429" height="77.1429" stroke="#FF5900" stroke-width="0.771429"/>
<rect x="1144.29" y="0.428345" width="77.1429" height="77.1429" stroke="#FF5900" stroke-width="0.771429"/>
<rect x="1221.43" y="0.428345" width="77.1429" height="77.1429" stroke="#FF5900" stroke-width="0.771429"/>
<rect x="1298.57" y="0.428345" width="77.1429" height="77.1429" stroke="#FF5900" stroke-width="0.771429"/>
<rect x="1375.71" y="0.428345" width="77.1429" height="77.1429" stroke="#FF5900" stroke-width="0.771429"/>
</g>
<g clip-path="url(#clip2_135_405)">
<rect x="-12.8574" y="77.5714" width="77.1429" height="77.1429" stroke="#FF5900" stroke-width="0.771429"/>
<rect x="64.2852" y="77.5714" width="77.1429" height="77.1429" stroke="#FF5900" stroke-width="0.771429"/>
<rect x="141.429" y="77.5714" width="77.1429" height="77.1429" stroke="#FF5900" stroke-width="0.771429"/>
<rect x="218.571" y="77.5714" width="77.1429" height="77.1429" stroke="#FF5900" stroke-width="0.771429"/>
<rect x="295.714" y="77.5714" width="77.1429" height="77.1429" stroke="#FF5900" stroke-width="0.771429"/>
<rect x="372.856" y="77.5714" width="77.1429" height="77.1429" stroke="#FF5900" stroke-width="0.771429"/>
<rect x="450" y="77.5714" width="77.1429" height="77.1429" stroke="#FF5900" stroke-width="0.771429"/>
<rect x="527.143" y="77.5714" width="77.1429" height="77.1429" stroke="#FF5900" stroke-width="0.771429"/>
<rect x="604.285" y="77.5714" width="77.1429" height="77.1429" stroke="#FF5900" stroke-width="0.771429"/>
<rect x="681.429" y="77.5714" width="77.1429" height="77.1429" fill="#FF5900" stroke="#FF5900" stroke-width="0.771429"/>
<rect x="758.571" y="77.5714" width="77.1429" height="77.1429" stroke="#FF5900" stroke-width="0.771429"/>
<rect x="835.714" y="77.5714" width="77.1429" height="77.1429" stroke="#FF5900" stroke-width="0.771429"/>
<rect x="912.856" y="77.5714" width="77.1429" height="77.1429" stroke="#FF5900" stroke-width="0.771429"/>
<rect x="990" y="77.5714" width="77.1429" height="77.1429" stroke="#FF5900" stroke-width="0.771429"/>
<rect x="1067.14" y="77.5714" width="77.1429" height="77.1429" stroke="#FF5900" stroke-width="0.771429"/>
<rect x="1144.29" y="77.5714" width="77.1429" height="77.1429" stroke="#FF5900" stroke-width="0.771429"/>
<rect x="1221.43" y="77.5714" width="77.1429" height="77.1429" stroke="#FF5900" stroke-width="0.771429"/>
<rect x="1298.57" y="77.5714" width="77.1429" height="77.1429" stroke="#FF5900" stroke-width="0.771429"/>
<rect x="1375.71" y="77.5714" width="77.1429" height="77.1429" stroke="#FF5900" stroke-width="0.771429"/>
</g>
<g clip-path="url(#clip3_135_405)">
<rect x="-12.8574" y="154.714" width="77.1429" height="77.1429" stroke="#FF5900" stroke-width="0.771429"/>
<rect x="64.2852" y="154.714" width="77.1429" height="77.1429" stroke="#FF5900" stroke-width="0.771429"/>
<rect x="141.429" y="154.714" width="77.1429" height="77.1429" stroke="#FF5900" stroke-width="0.771429"/>
<rect x="218.571" y="154.714" width="77.1429" height="77.1429" stroke="#FF5900" stroke-width="0.771429"/>
<rect x="295.714" y="154.714" width="77.1429" height="77.1429" stroke="#FF5900" stroke-width="0.771429"/>
<rect x="372.856" y="154.714" width="77.1429" height="77.1429" stroke="#FF5900" stroke-width="0.771429"/>
<rect x="450" y="154.714" width="77.1429" height="77.1429" stroke="#FF5900" stroke-width="0.771429"/>
<rect x="527.143" y="154.714" width="77.1429" height="77.1429" stroke="#FF5900" stroke-width="0.771429"/>
<rect x="604.285" y="154.714" width="77.1429" height="77.1429" stroke="#FF5900" stroke-width="0.771429"/>
<rect x="681.429" y="154.714" width="77.1429" height="77.1429" stroke="#FF5900" stroke-width="0.771429"/>
<rect x="758.571" y="154.714" width="77.1429" height="77.1429" stroke="#FF5900" stroke-width="0.771429"/>
<rect x="835.714" y="154.714" width="77.1429" height="77.1429" stroke="#FF5900" stroke-width="0.771429"/>
<rect x="912.857" y="154.714" width="77.1429" height="77.1429" stroke="#FF5900" stroke-width="0.771429"/>
<rect x="990" y="154.714" width="77.1429" height="77.1429" stroke="#FF5900" stroke-width="0.771429"/>
<rect x="1067.14" y="154.714" width="77.1429" height="77.1429" stroke="#FF5900" stroke-width="0.771429"/>
<rect x="1144.29" y="154.714" width="77.1429" height="77.1429" fill="#FF5900" stroke="#FF5900" stroke-width="0.771429"/>
<rect x="1221.43" y="154.714" width="77.1429" height="77.1429" stroke="#FF5900" stroke-width="0.771429"/>
<rect x="1298.57" y="154.714" width="77.1429" height="77.1429" stroke="#FF5900" stroke-width="0.771429"/>
<rect x="1375.71" y="154.714" width="77.1429" height="77.1429" stroke="#FF5900" stroke-width="0.771429"/>
</g>
<g clip-path="url(#clip4_135_405)">
<rect x="-12.8574" y="231.857" width="77.1429" height="77.1429" stroke="#FF5900" stroke-width="0.771429"/>
<rect x="64.2852" y="231.857" width="77.1429" height="77.1429" fill="#FF5900" stroke="#FF5900" stroke-width="0.771429"/>
<rect x="141.429" y="231.857" width="77.1429" height="77.1429" stroke="#FF5900" stroke-width="0.771429"/>
<rect x="218.571" y="231.857" width="77.1429" height="77.1429" stroke="#FF5900" stroke-width="0.771429"/>
<rect x="295.714" y="231.857" width="77.1429" height="77.1429" stroke="#FF5900" stroke-width="0.771429"/>
<rect x="372.856" y="231.857" width="77.1429" height="77.1429" stroke="#FF5900" stroke-width="0.771429"/>
<rect x="450" y="231.857" width="77.1429" height="77.1429" stroke="#FF5900" stroke-width="0.771429"/>
<rect x="527.143" y="231.857" width="77.1429" height="77.1429" stroke="#FF5900" stroke-width="0.771429"/>
<rect x="604.285" y="231.857" width="77.1429" height="77.1429" stroke="#FF5900" stroke-width="0.771429"/>
<rect x="681.429" y="231.857" width="77.1429" height="77.1429" stroke="#FF5900" stroke-width="0.771429"/>
<rect x="758.571" y="231.857" width="77.1429" height="77.1429" stroke="#FF5900" stroke-width="0.771429"/>
<rect x="835.714" y="231.857" width="77.1429" height="77.1429" stroke="#FF5900" stroke-width="0.771429"/>
<rect x="912.856" y="231.857" width="77.1429" height="77.1429" stroke="#FF5900" stroke-width="0.771429"/>
<rect x="990" y="231.857" width="77.1429" height="77.1429" stroke="#FF5900" stroke-width="0.771429"/>
<rect x="1067.14" y="231.857" width="77.1429" height="77.1429" stroke="#FF5900" stroke-width="0.771429"/>
<rect x="1144.29" y="231.857" width="77.1429" height="77.1429" stroke="#FF5900" stroke-width="0.771429"/>
<rect x="1221.43" y="231.857" width="77.1429" height="77.1429" stroke="#FF5900" stroke-width="0.771429"/>
<rect x="1298.57" y="231.857" width="77.1429" height="77.1429" stroke="#FF5900" stroke-width="0.771429"/>
<rect x="1375.71" y="231.857" width="77.1429" height="77.1429" stroke="#FF5900" stroke-width="0.771429"/>
</g>
<g clip-path="url(#clip5_135_405)">
<rect x="-12.8574" y="309" width="77.1429" height="77.1429" stroke="#FF5900" stroke-width="0.771429"/>
<rect x="64.2852" y="309" width="77.1429" height="77.1429" stroke="#FF5900" stroke-width="0.771429"/>
<rect x="141.429" y="309" width="77.1429" height="77.1429" stroke="#FF5900" stroke-width="0.771429"/>
<rect x="218.571" y="309" width="77.1429" height="77.1429" stroke="#FF5900" stroke-width="0.771429"/>
<rect x="295.714" y="309" width="77.1429" height="77.1429" stroke="#FF5900" stroke-width="0.771429"/>
<rect x="372.856" y="309" width="77.1429" height="77.1429" stroke="#FF5900" stroke-width="0.771429"/>
<rect x="450" y="309" width="77.1429" height="77.1429" fill="#FF5900" stroke="#FF5900" stroke-width="0.771429"/>
<rect x="527.143" y="309" width="77.1429" height="77.1429" stroke="#FF5900" stroke-width="0.771429"/>
<rect x="604.285" y="309" width="77.1429" height="77.1429" stroke="#FF5900" stroke-width="0.771429"/>
<rect x="681.429" y="309" width="77.1429" height="77.1429" stroke="#FF5900" stroke-width="0.771429"/>
<rect x="758.571" y="309" width="77.1429" height="77.1429" stroke="#FF5900" stroke-width="0.771429"/>
<rect x="835.714" y="309" width="77.1429" height="77.1429" stroke="#FF5900" stroke-width="0.771429"/>
<rect x="912.856" y="309" width="77.1429" height="77.1429" stroke="#FF5900" stroke-width="0.771429"/>
<rect x="990" y="309" width="77.1429" height="77.1429" stroke="#FF5900" stroke-width="0.771429"/>
<rect x="1067.14" y="309" width="77.1429" height="77.1429" stroke="#FF5900" stroke-width="0.771429"/>
<rect x="1144.29" y="309" width="77.1429" height="77.1429" stroke="#FF5900" stroke-width="0.771429"/>
<rect x="1221.43" y="309" width="77.1429" height="77.1429" stroke="#FF5900" stroke-width="0.771429"/>
<rect x="1298.57" y="309" width="77.1429" height="77.1429" stroke="#FF5900" stroke-width="0.771429"/>
<rect x="1375.71" y="309" width="77.1429" height="77.1429" stroke="#FF5900" stroke-width="0.771429"/>
</g>
<g clip-path="url(#clip6_135_405)">
<rect x="-12.8574" y="386.143" width="77.1429" height="77.1429" stroke="#FF5900" stroke-width="0.771429"/>
<rect x="64.2852" y="386.143" width="77.1429" height="77.1429" stroke="#FF5900" stroke-width="0.771429"/>
<rect x="141.429" y="386.143" width="77.1429" height="77.1429" stroke="#FF5900" stroke-width="0.771429"/>
<rect x="218.571" y="386.143" width="77.1429" height="77.1429" stroke="#FF5900" stroke-width="0.771429"/>
<rect x="295.714" y="386.143" width="77.1429" height="77.1429" stroke="#FF5900" stroke-width="0.771429"/>
<rect x="372.856" y="386.143" width="77.1429" height="77.1429" stroke="#FF5900" stroke-width="0.771429"/>
<rect x="450" y="386.143" width="77.1429" height="77.1429" stroke="#FF5900" stroke-width="0.771429"/>
<rect x="527.143" y="386.143" width="77.1429" height="77.1429" stroke="#FF5900" stroke-width="0.771429"/>
<rect x="604.285" y="386.143" width="77.1429" height="77.1429" stroke="#FF5900" stroke-width="0.771429"/>
<rect x="681.429" y="386.143" width="77.1429" height="77.1429" stroke="#FF5900" stroke-width="0.771429"/>
<rect x="758.571" y="386.143" width="77.1429" height="77.1429" stroke="#FF5900" stroke-width="0.771429"/>
<rect x="835.714" y="386.143" width="77.1429" height="77.1429" stroke="#FF5900" stroke-width="0.771429"/>
<rect x="912.856" y="386.143" width="77.1429" height="77.1429" stroke="#FF5900" stroke-width="0.771429"/>
<rect x="990" y="386.143" width="77.1429" height="77.1429" stroke="#FF5900" stroke-width="0.771429"/>
<rect x="1067.14" y="386.143" width="77.1429" height="77.1429" stroke="#FF5900" stroke-width="0.771429"/>
<rect x="1144.29" y="386.143" width="77.1429" height="77.1429" stroke="#FF5900" stroke-width="0.771429"/>
<rect x="1221.43" y="386.143" width="77.1429" height="77.1429" stroke="#FF5900" stroke-width="0.771429"/>
<rect x="1298.57" y="386.143" width="77.1429" height="77.1429" fill="#FF5900" stroke="#FF5900" stroke-width="0.771429"/>
<rect x="1375.71" y="386.143" width="77.1429" height="77.1429" stroke="#FF5900" stroke-width="0.771429"/>
</g>
<g clip-path="url(#clip7_135_405)">
<rect x="-12.8574" y="463.286" width="77.1429" height="77.1429" stroke="#FF5900" stroke-width="0.771429"/>
<rect x="64.2852" y="463.286" width="77.1429" height="77.1429" stroke="#FF5900" stroke-width="0.771429"/>
<rect x="141.429" y="463.286" width="77.1429" height="77.1429" stroke="#FF5900" stroke-width="0.771429"/>
<rect x="218.571" y="463.286" width="77.1429" height="77.1429" stroke="#FF5900" stroke-width="0.771429"/>
<rect x="295.714" y="463.286" width="77.1429" height="77.1429" stroke="#FF5900" stroke-width="0.771429"/>
<rect x="372.856" y="463.286" width="77.1429" height="77.1429" stroke="#FF5900" stroke-width="0.771429"/>
<rect x="450" y="463.286" width="77.1429" height="77.1429" stroke="#FF5900" stroke-width="0.771429"/>
<rect x="527.143" y="463.286" width="77.1429" height="77.1429" stroke="#FF5900" stroke-width="0.771429"/>
<rect x="604.285" y="463.286" width="77.1429" height="77.1429" stroke="#FF5900" stroke-width="0.771429"/>
<rect x="681.429" y="463.286" width="77.1429" height="77.1429" stroke="#FF5900" stroke-width="0.771429"/>
<rect x="758.571" y="463.286" width="77.1429" height="77.1429" stroke="#FF5900" stroke-width="0.771429"/>
<rect x="835.714" y="463.286" width="77.1429" height="77.1429" stroke="#FF5900" stroke-width="0.771429"/>
<rect x="912.856" y="463.286" width="77.1429" height="77.1429" stroke="#FF5900" stroke-width="0.771429"/>
<rect x="990" y="463.286" width="77.1429" height="77.1429" stroke="#FF5900" stroke-width="0.771429"/>
<rect x="1067.14" y="463.286" width="77.1429" height="77.1429" stroke="#FF5900" stroke-width="0.771429"/>
<rect x="1144.29" y="463.286" width="77.1429" height="77.1429" stroke="#FF5900" stroke-width="0.771429"/>
<rect x="1221.43" y="463.286" width="77.1429" height="77.1429" stroke="#FF5900" stroke-width="0.771429"/>
<rect x="1298.57" y="463.286" width="77.1429" height="77.1429" stroke="#FF5900" stroke-width="0.771429"/>
<rect x="1375.71" y="463.286" width="77.1429" height="77.1429" stroke="#FF5900" stroke-width="0.771429"/>
</g>
<g clip-path="url(#clip8_135_405)">
<rect x="-12.8574" y="540.429" width="77.1429" height="77.1429" stroke="#FF5900" stroke-width="0.771429"/>
<rect x="64.2852" y="540.429" width="77.1429" height="77.1429" stroke="#FF5900" stroke-width="0.771429"/>
<rect x="141.429" y="540.429" width="77.1429" height="77.1429" stroke="#FF5900" stroke-width="0.771429"/>
<rect x="218.571" y="540.429" width="77.1429" height="77.1429" stroke="#FF5900" stroke-width="0.771429"/>
<rect x="295.714" y="540.429" width="77.1429" height="77.1429" stroke="#FF5900" stroke-width="0.771429"/>
<rect x="372.856" y="540.429" width="77.1429" height="77.1429" stroke="#FF5900" stroke-width="0.771429"/>
<rect x="450" y="540.429" width="77.1429" height="77.1429" stroke="#FF5900" stroke-width="0.771429"/>
<rect x="527.143" y="540.429" width="77.1429" height="77.1429" stroke="#FF5900" stroke-width="0.771429"/>
<rect x="604.285" y="540.429" width="77.1429" height="77.1429" stroke="#FF5900" stroke-width="0.771429"/>
<rect x="681.429" y="540.429" width="77.1429" height="77.1429" stroke="#FF5900" stroke-width="0.771429"/>
<rect x="758.571" y="540.429" width="77.1429" height="77.1429" stroke="#FF5900" stroke-width="0.771429"/>
<rect x="835.714" y="540.429" width="77.1429" height="77.1429" stroke="#FF5900" stroke-width="0.771429"/>
<rect x="912.856" y="540.429" width="77.1429" height="77.1429" fill="#FF5900" stroke="#FF5900" stroke-width="0.771429"/>
<rect x="990" y="540.429" width="77.1429" height="77.1429" stroke="#FF5900" stroke-width="0.771429"/>
<rect x="1067.14" y="540.429" width="77.1429" height="77.1429" stroke="#FF5900" stroke-width="0.771429"/>
<rect x="1144.29" y="540.429" width="77.1429" height="77.1429" stroke="#FF5900" stroke-width="0.771429"/>
<rect x="1221.43" y="540.429" width="77.1429" height="77.1429" stroke="#FF5900" stroke-width="0.771429"/>
<rect x="1298.57" y="540.429" width="77.1429" height="77.1429" stroke="#FF5900" stroke-width="0.771429"/>
<rect x="1375.71" y="540.429" width="77.1429" height="77.1429" stroke="#FF5900" stroke-width="0.771429"/>
</g>
<g clip-path="url(#clip9_135_405)">
<rect x="-12.8574" y="617.572" width="77.1429" height="77.1429" stroke="#FF5900" stroke-width="0.771429"/>
<rect x="64.2852" y="617.572" width="77.1429" height="77.1429" stroke="#FF5900" stroke-width="0.771429"/>
<rect x="141.429" y="617.572" width="77.1429" height="77.1429" stroke="#FF5900" stroke-width="0.771429"/>
<rect x="218.571" y="617.572" width="77.1429" height="77.1429" stroke="#FF5900" stroke-width="0.771429"/>
<rect x="295.714" y="617.572" width="77.1429" height="77.1429" fill="#FF5900" stroke="#FF5900" stroke-width="0.771429"/>
<rect x="372.856" y="617.572" width="77.1429" height="77.1429" stroke="#FF5900" stroke-width="0.771429"/>
<rect x="450" y="617.572" width="77.1429" height="77.1429" stroke="#FF5900" stroke-width="0.771429"/>
<rect x="527.143" y="617.572" width="77.1429" height="77.1429" stroke="#FF5900" stroke-width="0.771429"/>
<rect x="604.285" y="617.572" width="77.1429" height="77.1429" stroke="#FF5900" stroke-width="0.771429"/>
<rect x="681.429" y="617.572" width="77.1429" height="77.1429" stroke="#FF5900" stroke-width="0.771429"/>
<rect x="758.571" y="617.572" width="77.1429" height="77.1429" stroke="#FF5900" stroke-width="0.771429"/>
<rect x="835.714" y="617.572" width="77.1429" height="77.1429" stroke="#FF5900" stroke-width="0.771429"/>
<rect x="912.856" y="617.572" width="77.1429" height="77.1429" stroke="#FF5900" stroke-width="0.771429"/>
<rect x="990" y="617.572" width="77.1429" height="77.1429" stroke="#FF5900" stroke-width="0.771429"/>
<rect x="1067.14" y="617.572" width="77.1429" height="77.1429" stroke="#FF5900" stroke-width="0.771429"/>
<rect x="1144.29" y="617.572" width="77.1429" height="77.1429" stroke="#FF5900" stroke-width="0.771429"/>
<rect x="1221.43" y="617.572" width="77.1429" height="77.1429" stroke="#FF5900" stroke-width="0.771429"/>
<rect x="1298.57" y="617.572" width="77.1429" height="77.1429" stroke="#FF5900" stroke-width="0.771429"/>
<rect x="1375.71" y="617.572" width="77.1429" height="77.1429" stroke="#FF5900" stroke-width="0.771429"/>
</g>
<g clip-path="url(#clip10_135_405)">
<rect x="-12.8574" y="694.714" width="77.1429" height="77.1429" stroke="#FF5900" stroke-width="0.771429"/>
<rect x="64.2852" y="694.714" width="77.1429" height="77.1429" stroke="#FF5900" stroke-width="0.771429"/>
<rect x="141.429" y="694.714" width="77.1429" height="77.1429" stroke="#FF5900" stroke-width="0.771429"/>
<rect x="218.571" y="694.714" width="77.1429" height="77.1429" stroke="#FF5900" stroke-width="0.771429"/>
<rect x="295.714" y="694.714" width="77.1429" height="77.1429" stroke="#FF5900" stroke-width="0.771429"/>
<rect x="372.856" y="694.714" width="77.1429" height="77.1429" stroke="#FF5900" stroke-width="0.771429"/>
<rect x="450" y="694.714" width="77.1429" height="77.1429" stroke="#FF5900" stroke-width="0.771429"/>
<rect x="527.143" y="694.714" width="77.1429" height="77.1429" stroke="#FF5900" stroke-width="0.771429"/>
<rect x="604.285" y="694.714" width="77.1429" height="77.1429" stroke="#FF5900" stroke-width="0.771429"/>
<rect x="681.429" y="694.714" width="77.1429" height="77.1429" stroke="#FF5900" stroke-width="0.771429"/>
<rect x="758.571" y="694.714" width="77.1429" height="77.1429" stroke="#FF5900" stroke-width="0.771429"/>
<rect x="835.714" y="694.714" width="77.1429" height="77.1429" stroke="#FF5900" stroke-width="0.771429"/>
<rect x="912.856" y="694.714" width="77.1429" height="77.1429" stroke="#FF5900" stroke-width="0.771429"/>
<rect x="990" y="694.714" width="77.1429" height="77.1429" stroke="#FF5900" stroke-width="0.771429"/>
<rect x="1067.14" y="694.714" width="77.1429" height="77.1429" stroke="#FF5900" stroke-width="0.771429"/>
<rect x="1144.29" y="694.714" width="77.1429" height="77.1429" stroke="#FF5900" stroke-width="0.771429"/>
<rect x="1221.43" y="694.714" width="77.1429" height="77.1429" stroke="#FF5900" stroke-width="0.771429"/>
<rect x="1298.57" y="694.714" width="77.1429" height="77.1429" fill="#FF5900" stroke="#FF5900" stroke-width="0.771429"/>
<rect x="1375.71" y="694.714" width="77.1429" height="77.1429" stroke="#FF5900" stroke-width="0.771429"/>
</g>
<g clip-path="url(#clip11_135_405)">
<rect x="-12.8574" y="771.857" width="77.1429" height="77.1429" stroke="#FF5900" stroke-width="0.771429"/>
<rect x="64.2852" y="771.857" width="77.1429" height="77.1429" fill="#FF5900" stroke="#FF5900" stroke-width="0.771429"/>
<rect x="141.429" y="771.857" width="77.1429" height="77.1429" stroke="#FF5900" stroke-width="0.771429"/>
<rect x="218.571" y="771.857" width="77.1429" height="77.1429" stroke="#FF5900" stroke-width="0.771429"/>
<rect x="295.714" y="771.857" width="77.1429" height="77.1429" stroke="#FF5900" stroke-width="0.771429"/>
<rect x="372.856" y="771.857" width="77.1429" height="77.1429" stroke="#FF5900" stroke-width="0.771429"/>
<rect x="450" y="771.857" width="77.1429" height="77.1429" stroke="#FF5900" stroke-width="0.771429"/>
<rect x="527.143" y="771.857" width="77.1429" height="77.1429" stroke="#FF5900" stroke-width="0.771429"/>
<rect x="604.285" y="771.857" width="77.1429" height="77.1429" stroke="#FF5900" stroke-width="0.771429"/>
<rect x="681.429" y="771.857" width="77.1429" height="77.1429" stroke="#FF5900" stroke-width="0.771429"/>
<rect x="758.571" y="771.857" width="77.1429" height="77.1429" stroke="#FF5900" stroke-width="0.771429"/>
<rect x="835.714" y="771.857" width="77.1429" height="77.1429" stroke="#FF5900" stroke-width="0.771429"/>
<rect x="912.856" y="771.857" width="77.1429" height="77.1429" stroke="#FF5900" stroke-width="0.771429"/>
<rect x="990" y="771.857" width="77.1429" height="77.1429" stroke="#FF5900" stroke-width="0.771429"/>
<rect x="1067.14" y="771.857" width="77.1429" height="77.1429" stroke="#FF5900" stroke-width="0.771429"/>
<rect x="1144.29" y="771.857" width="77.1429" height="77.1429" stroke="#FF5900" stroke-width="0.771429"/>
<rect x="1221.43" y="771.857" width="77.1429" height="77.1429" stroke="#FF5900" stroke-width="0.771429"/>
<rect x="1298.57" y="771.857" width="77.1429" height="77.1429" stroke="#FF5900" stroke-width="0.771429"/>
<rect x="1375.71" y="771.857" width="77.1429" height="77.1429" stroke="#FF5900" stroke-width="0.771429"/>
</g>
</g>
<defs>
<clipPath id="clip0_135_405">
<rect width="1440" height="848.571" fill="white" transform="translate(0 0.428589)"/>
</clipPath>
<clipPath id="clip1_135_405">
<rect width="1465.71" height="77.1429" fill="white" transform="translate(-12.8574 0.428467)"/>
</clipPath>
<clipPath id="clip2_135_405">
<rect width="1465.71" height="77.1429" fill="white" transform="translate(-12.8574 77.5714)"/>
</clipPath>
<clipPath id="clip3_135_405">
<rect width="1465.71" height="77.1429" fill="white" transform="translate(-12.8574 154.714)"/>
</clipPath>
<clipPath id="clip4_135_405">
<rect width="1465.71" height="77.1429" fill="white" transform="translate(-12.8574 231.857)"/>
</clipPath>
<clipPath id="clip5_135_405">
<rect width="1465.71" height="77.1429" fill="white" transform="translate(-12.8574 309)"/>
</clipPath>
<clipPath id="clip6_135_405">
<rect width="1465.71" height="77.1429" fill="white" transform="translate(-12.8574 386.143)"/>
</clipPath>
<clipPath id="clip7_135_405">
<rect width="1465.71" height="77.1429" fill="white" transform="translate(-12.8574 463.286)"/>
</clipPath>
<clipPath id="clip8_135_405">
<rect width="1465.71" height="77.1429" fill="white" transform="translate(-12.8574 540.429)"/>
</clipPath>
<clipPath id="clip9_135_405">
<rect width="1465.71" height="77.1429" fill="white" transform="translate(-12.8574 617.572)"/>
</clipPath>
<clipPath id="clip10_135_405">
<rect width="1465.71" height="77.1429" fill="white" transform="translate(-12.8574 694.714)"/>
</clipPath>
<clipPath id="clip11_135_405">
<rect width="1465.71" height="77.1429" fill="white" transform="translate(-12.8574 771.857)"/>
</clipPath>
</defs>
</svg>
