<svg width="48" height="48" viewBox="0 0 48 48" fill="none" xmlns="http://www.w3.org/2000/svg">
<g clip-path="url(#clip0_319_3546)">
<path d="M43.5 44.6895V40.5C43.5 38.4322 41.8177 36.75 39.75 36.75H37.5C36.2595 36.75 35.25 35.7405 35.25 34.5V32.25H39.75C40.9253 32.25 41.9925 31.794 42.795 31.0537C42.7658 31.1977 42.75 31.347 42.75 31.5C42.75 32.7405 43.7595 33.75 45 33.75C46.2405 33.75 47.25 32.7405 47.25 31.5C47.25 30.2595 46.2405 29.25 45 29.25C44.583 29.25 44.1975 29.3715 43.8623 29.5702C44.1098 29.013 44.25 28.398 44.25 27.75C44.25 25.5097 42.603 23.652 40.4573 23.3115C40.1423 20.574 37.9792 18.3952 35.25 18.0525V13.5C35.25 12.2595 36.2595 11.25 37.5 11.25H39.75C41.8177 11.25 43.5 9.5677 43.5 7.49995V3.31045L45.9697 5.7802L47.0303 4.7197L42.75 0.439453L38.4697 4.7197L39.5303 5.7802L42 3.31045V7.49995C42 8.74045 40.9905 9.74995 39.75 9.74995H37.5C35.4323 9.74995 33.75 11.4322 33.75 13.5V18.0517C33.42 18.093 33.0967 18.1642 32.781 18.2587C31.9792 16.5922 30.747 15.2317 29.25 14.2777V5.99995C29.25 3.10495 26.895 0.749953 24 0.749953C21.105 0.749953 18.75 3.10495 18.75 5.99995V14.2777C17.253 15.2325 16.02 16.593 15.219 18.2587C14.9032 18.1642 14.58 18.093 14.25 18.0517V13.5C14.25 11.4322 12.5677 9.74995 10.5 9.74995H8.25C7.0095 9.74995 6 8.74045 6 7.49995V3.31045L8.46975 5.7802L9.53025 4.7197L5.25 0.439453L0.96975 4.7197L2.03025 5.7802L4.5 3.31045V7.49995C4.5 9.5677 6.18225 11.25 8.25 11.25H10.5C11.7405 11.25 12.75 12.2595 12.75 13.5V18.0517C10.0208 18.3945 7.85775 20.5732 7.54275 23.3107C5.397 23.652 3.75 25.5097 3.75 27.75C3.75 28.398 3.89025 29.013 4.13775 29.5702C3.8025 29.3715 3.417 29.25 3 29.25C1.7595 29.25 0.75 30.2595 0.75 31.5C0.75 32.7405 1.7595 33.75 3 33.75C4.2405 33.75 5.25 32.7405 5.25 31.5C5.25 31.347 5.23425 31.1977 5.205 31.0537C6.0075 31.794 7.07475 32.25 8.25 32.25H12.75V34.5C12.75 35.7405 11.7405 36.75 10.5 36.75H8.25C6.18225 36.75 4.5 38.4322 4.5 40.5V44.6895L2.03025 42.2197L0.96975 43.2802L5.25 47.5605L9.53025 43.2802L8.46975 42.2197L6 44.6895V40.5C6 39.2595 7.0095 38.25 8.25 38.25H10.5C12.5677 38.25 14.25 36.5677 14.25 34.5V32.25H18.75V39.2077L24 47.958L29.25 39.2077V32.25H33.75V34.5C33.75 36.5677 35.4323 38.25 37.5 38.25H39.75C40.9905 38.25 42 39.2595 42 40.5V44.6895L39.5303 42.2197L38.4697 43.2802L42.75 47.5605L47.0303 43.2802L45.9697 42.2197L43.5 44.6895ZM45 30.75C45.4132 30.75 45.75 31.0867 45.75 31.5C45.75 31.9132 45.4132 32.25 45 32.25C44.5868 32.25 44.25 31.9132 44.25 31.5C44.25 31.0867 44.5868 30.75 45 30.75ZM24.75 12.7777V9.74995H27.75V13.4947C26.8095 13.1055 25.8008 12.8572 24.75 12.7777ZM27.75 6.74995V8.24995H20.25V6.74995H27.75ZM24 2.24995C25.8105 2.24995 27.3255 3.5407 27.6742 5.24995H20.3258C20.6745 3.5407 22.1895 2.24995 24 2.24995ZM20.25 9.74995H23.25V12.7777C22.1992 12.8565 21.1905 13.1055 20.25 13.4947V9.74995ZM3 32.25C2.58675 32.25 2.25 31.9132 2.25 31.5C2.25 31.0867 2.58675 30.75 3 30.75C3.41325 30.75 3.75 31.0867 3.75 31.5C3.75 31.9132 3.41325 32.25 3 32.25ZM27.75 37.5H24.75V26.25H27.75V37.5ZM20.3745 39H27.6255L25.8255 42H22.1745L20.3745 39ZM23.25 37.5H20.25V26.25H23.25V37.5ZM23.0745 43.5H24.9255L24 45.042L23.0745 43.5ZM31.5 30.75H29.25V24.75H18.75V30.75H16.5C16.5 28.6822 14.8177 27 12.75 27V28.5C13.9905 28.5 15 29.5095 15 30.75H8.25C6.5955 30.75 5.25 29.4045 5.25 27.75C5.25 26.0955 6.5955 24.75 8.25 24.75C8.9055 24.75 9.528 24.957 10.0492 25.3492L10.95 24.1492C10.3845 23.7247 9.73875 23.4502 9.0555 23.3265C9.3825 21.165 11.2478 19.5 13.5 19.5C14.6812 19.5 15.804 19.9657 16.6417 20.784C16.5585 21.0945 16.5 21.414 16.5 21.75H18C18 20.5095 19.0095 19.5 20.25 19.5C20.8972 19.5 21.5138 19.779 21.9412 20.2657L23.0677 19.2757C22.3552 18.465 21.3285 18 20.25 18C19.0732 18 18.0345 18.5557 17.3468 19.4062C17.1082 19.206 16.8592 19.02 16.5945 18.8602C17.9753 16.0387 20.8132 14.25 24 14.25C27.1868 14.25 30.0247 16.0387 31.4055 18.8602C31.1408 19.02 30.8925 19.206 30.6532 19.4062C29.9655 18.5557 28.9268 18 27.75 18C26.6715 18 25.6448 18.465 24.9323 19.2757L26.0588 20.2657C26.4862 19.779 27.1028 19.5 27.75 19.5C28.9905 19.5 30 20.5095 30 21.75H31.5C31.5 21.414 31.4415 21.0945 31.3582 20.784C32.196 19.9657 33.3187 19.5 34.5 19.5C36.7523 19.5 38.6175 21.165 38.9437 23.3272C38.2598 23.4502 37.6147 23.7247 37.0492 24.15L37.95 25.35C38.472 24.957 39.0945 24.75 39.75 24.75C41.4045 24.75 42.75 26.0955 42.75 27.75C42.75 29.4045 41.4045 30.75 39.75 30.75H33C33 29.5095 34.0095 28.5 35.25 28.5V27C33.1823 27 31.5 28.6822 31.5 30.75Z" fill="black"/>
<path d="M16.5 39.75H15V41.25H13.5V42.75H15V44.25H16.5V42.75H18V41.25H16.5V39.75Z" fill="black"/>
<path d="M2.25 18.75H3.75V17.25H5.25V15.75H3.75V14.25H2.25V15.75H0.75V17.25H2.25V18.75Z" fill="black"/>
<path d="M32.25 5.25H33.75V3.75H35.25V2.25H33.75V0.75H32.25V2.25H30.75V3.75H32.25V5.25Z" fill="black"/>
<path d="M33 39.75H31.5V41.25H30V42.75H31.5V44.25H33V42.75H34.5V41.25H33V39.75Z" fill="black"/>
<path d="M41.25 18.75C41.25 19.9905 42.2595 21 43.5 21C44.7405 21 45.75 19.9905 45.75 18.75C45.75 17.5095 44.7405 16.5 43.5 16.5C42.2595 16.5 41.25 17.5095 41.25 18.75ZM44.25 18.75C44.25 19.1632 43.9132 19.5 43.5 19.5C43.0868 19.5 42.75 19.1632 42.75 18.75C42.75 18.3368 43.0868 18 43.5 18C43.9132 18 44.25 18.3368 44.25 18.75Z" fill="black"/>
<path d="M15 8.25C16.2405 8.25 17.25 7.2405 17.25 6C17.25 4.7595 16.2405 3.75 15 3.75C13.7595 3.75 12.75 4.7595 12.75 6C12.75 7.2405 13.7595 8.25 15 8.25ZM15 5.25C15.4132 5.25 15.75 5.58675 15.75 6C15.75 6.41325 15.4132 6.75 15 6.75C14.5868 6.75 14.25 6.41325 14.25 6C14.25 5.58675 14.5868 5.25 15 5.25Z" fill="black"/>
</g>
<defs>
<clipPath id="clip0_319_3546">
<rect width="48" height="48" fill="white"/>
</clipPath>
</defs>
</svg>
