<svg width="48" height="48" viewBox="0 0 48 48" fill="none" xmlns="http://www.w3.org/2000/svg">
<path d="M18 3.75C17.555 3.75 17.12 3.88196 16.75 4.12919C16.38 4.37643 16.0916 4.72783 15.9213 5.13896C15.751 5.5501 15.7064 6.0025 15.7932 6.43895C15.8801 6.87541 16.0943 7.27632 16.409 7.59099C16.7237 7.90566 17.1246 8.11995 17.561 8.20677C17.9975 8.29358 18.4499 8.24903 18.861 8.07873C19.2722 7.90843 19.6236 7.62004 19.8708 7.25003C20.118 6.88002 20.25 6.44501 20.25 6C20.25 5.40326 20.0129 4.83097 19.591 4.40901C19.169 3.98705 18.5967 3.75 18 3.75ZM18 6.75C17.8517 6.75 17.7067 6.70601 17.5833 6.6236C17.46 6.54119 17.3639 6.42406 17.3071 6.28701C17.2503 6.14997 17.2355 5.99917 17.2644 5.85368C17.2934 5.7082 17.3648 5.57456 17.4697 5.46967C17.5746 5.36478 17.7082 5.29335 17.8537 5.26441C17.9992 5.23547 18.15 5.25032 18.287 5.30709C18.4241 5.36386 18.5412 5.45999 18.6236 5.58332C18.706 5.70666 18.75 5.85166 18.75 6C18.75 6.19891 18.671 6.38968 18.5303 6.53033C18.3897 6.67098 18.1989 6.75 18 6.75Z" fill="black"/>
<path d="M8.25 24.75H11.25V26.25H8.25V24.75Z" fill="black"/>
<path d="M12.75 24.75H24V26.25H12.75V24.75Z" fill="black"/>
<path d="M8.25 29.25H11.25V30.75H8.25V29.25Z" fill="black"/>
<path d="M8.25 33.75H11.25V35.25H8.25V33.75Z" fill="black"/>
<path d="M8.25 38.25H11.25V39.75H8.25V38.25Z" fill="black"/>
<path d="M45.75 26.2501H45C42.5668 26.244 40.2002 25.4552 38.25 24.0001L36.45 22.6501C36.3207 22.5516 36.1626 22.4982 36 22.4982C35.8374 22.4982 35.6793 22.5516 35.55 22.6501L34.5 23.4376V8.2501C34.4982 7.65391 34.2606 7.08265 33.839 6.66107C33.4175 6.2395 32.8462 6.00188 32.25 6.0001H26.115C25.9593 5.56304 25.6728 5.18456 25.2943 4.91616C24.9159 4.64777 24.4639 4.50249 24 4.5001H22.245C21.9358 3.62111 21.3613 2.85979 20.601 2.32122C19.8406 1.78266 18.9318 1.49341 18 1.49341C17.0682 1.49341 16.1594 1.78266 15.399 2.32122C14.6387 2.85979 14.0642 3.62111 13.755 4.5001H12C11.5361 4.50249 11.0841 4.64777 10.7057 4.91616C10.3272 5.18456 10.0407 5.56304 9.885 6.0001H3.75C3.15381 6.00188 2.58255 6.2395 2.16098 6.66107C1.73941 7.08265 1.50178 7.65391 1.5 8.2501V44.2501C1.50178 44.8463 1.73941 45.4176 2.16098 45.8391C2.58255 46.2607 3.15381 46.4983 3.75 46.5001H32.25C32.5897 46.4979 32.9245 46.4192 33.2296 46.2699C33.5348 46.1206 33.8023 45.9045 34.0125 45.6376L35.6775 46.4251C35.7779 46.4744 35.8882 46.5001 36 46.5001C36.1118 46.5001 36.2221 46.4744 36.3225 46.4251L42.9075 43.2976C43.9936 42.7264 44.9026 41.8688 45.5359 40.8177C46.1692 39.7666 46.5026 38.5622 46.5 37.3351V27.0001C46.5 26.8012 46.421 26.6104 46.2803 26.4698C46.1397 26.3291 45.9489 26.2501 45.75 26.2501ZM26.25 7.5001H32.25C32.4489 7.5001 32.6397 7.57912 32.7803 7.71977C32.921 7.86042 33 8.05119 33 8.2501V24.5176C32.5202 24.8169 32.0188 25.0801 31.5 25.3051V9.7501C31.5 9.55119 31.421 9.36042 31.2803 9.21977C31.1397 9.07912 30.9489 9.0001 30.75 9.0001H26.25V7.5001ZM11.25 6.7501C11.25 6.55119 11.329 6.36042 11.4697 6.21977C11.6103 6.07912 11.8011 6.0001 12 6.0001H14.325C14.4983 6.00186 14.6668 5.94279 14.8011 5.83316C14.9354 5.72353 15.027 5.57029 15.06 5.4001C15.1977 4.72193 15.5656 4.11221 16.1014 3.67427C16.6373 3.23633 17.308 2.99709 18 2.99709C18.692 2.99709 19.3627 3.23633 19.8986 3.67427C20.4344 4.11221 20.8023 4.72193 20.94 5.4001C20.973 5.57029 21.0646 5.72353 21.1989 5.83316C21.3332 5.94279 21.5017 6.00186 21.675 6.0001H24C24.1989 6.0001 24.3897 6.07912 24.5303 6.21977C24.671 6.36042 24.75 6.55119 24.75 6.7501V9.7501H11.25V6.7501ZM10.5 11.2501H25.5C25.6989 11.2501 25.8897 11.1711 26.0303 11.0304C26.171 10.8898 26.25 10.699 26.25 10.5001H30V25.8301C29.0235 26.1044 28.0143 26.2457 27 26.2501H26.25C26.0511 26.2501 25.8603 26.3291 25.7197 26.4698C25.579 26.6104 25.5 26.8012 25.5 27.0001V29.2501H12.75V30.7501H25.5V33.7501H12.75V35.2501H25.5V37.3351C25.5011 37.641 25.5211 37.9466 25.56 38.2501H12.75V39.7501H25.9575C26.2811 40.5877 26.768 41.3525 27.39 42.0001H6V10.5001H9.75C9.75 10.699 9.82902 10.8898 9.96967 11.0304C10.1103 11.1711 10.3011 11.2501 10.5 11.2501ZM32.25 45.0001H3.75C3.55109 45.0001 3.36032 44.9211 3.21967 44.7804C3.07902 44.6398 3 44.449 3 44.2501V8.2501C3 8.05119 3.07902 7.86042 3.21967 7.71977C3.36032 7.57912 3.55109 7.5001 3.75 7.5001H9.75V9.0001H5.25C5.05109 9.0001 4.86032 9.07912 4.71967 9.21977C4.57902 9.36042 4.5 9.55119 4.5 9.7501V42.7501C4.5 42.949 4.57902 43.1398 4.71967 43.2804C4.86032 43.4211 5.05109 43.5001 5.25 43.5001H29.52L32.535 44.9326C32.4453 44.9735 32.3485 44.9964 32.25 45.0001ZM45 37.3351C45.0028 38.2841 44.7465 39.2159 44.2588 40.03C43.7711 40.8441 43.0705 41.5097 42.2325 41.9551L36 44.9176L29.7825 41.9626C28.9417 41.5172 28.2383 40.851 27.7481 40.0356C27.2578 39.2202 26.9991 38.2865 27 37.3351V27.7501C29.7578 27.7447 32.4405 26.8505 34.65 25.2001L36 24.1876L37.35 25.2001C39.5595 26.8505 42.2422 27.7447 45 27.7501V37.3351Z" fill="black"/>
<path d="M22.5 15.75H20.25V13.5C20.25 13.3011 20.171 13.1103 20.0303 12.9697C19.8897 12.829 19.6989 12.75 19.5 12.75H16.5C16.3011 12.75 16.1103 12.829 15.9697 12.9697C15.829 13.1103 15.75 13.3011 15.75 13.5V15.75H13.5C13.3011 15.75 13.1103 15.829 12.9697 15.9697C12.829 16.1103 12.75 16.3011 12.75 16.5V19.5C12.75 19.6989 12.829 19.8897 12.9697 20.0303C13.1103 20.171 13.3011 20.25 13.5 20.25H15.75V22.5C15.75 22.6989 15.829 22.8897 15.9697 23.0303C16.1103 23.171 16.3011 23.25 16.5 23.25H19.5C19.6989 23.25 19.8897 23.171 20.0303 23.0303C20.171 22.8897 20.25 22.6989 20.25 22.5V20.25H22.5C22.6989 20.25 22.8897 20.171 23.0303 20.0303C23.171 19.8897 23.25 19.6989 23.25 19.5V16.5C23.25 16.3011 23.171 16.1103 23.0303 15.9697C22.8897 15.829 22.6989 15.75 22.5 15.75ZM21.75 18.75H19.5C19.3011 18.75 19.1103 18.829 18.9697 18.9697C18.829 19.1103 18.75 19.3011 18.75 19.5V21.75H17.25V19.5C17.25 19.3011 17.171 19.1103 17.0303 18.9697C16.8897 18.829 16.6989 18.75 16.5 18.75H14.25V17.25H16.5C16.6989 17.25 16.8897 17.171 17.0303 17.0303C17.171 16.8897 17.25 16.6989 17.25 16.5V14.25H18.75V16.5C18.75 16.6989 18.829 16.8897 18.9697 17.0303C19.1103 17.171 19.3011 17.25 19.5 17.25H21.75V18.75Z" fill="black"/>
<path d="M42.8625 29.0852C40.5365 28.732 38.3337 27.8097 36.45 26.4002C36.3207 26.3017 36.1626 26.2483 36 26.2483C35.8374 26.2483 35.6793 26.3017 35.55 26.4002C33.6663 27.8097 31.4635 28.732 29.1375 29.0852C28.9605 29.1133 28.7992 29.2034 28.6824 29.3394C28.5656 29.4754 28.501 29.6484 28.5 29.8277V37.3352C28.5002 38.0046 28.6799 38.6616 29.0202 39.238C29.3605 39.8145 29.849 40.2891 30.435 40.6127L30.48 40.6352L35.6775 43.1027C35.7779 43.152 35.8882 43.1777 36 43.1777C36.1118 43.1777 36.2221 43.152 36.3225 43.1027L41.565 40.6127C42.1503 40.2884 42.6384 39.8136 42.9786 39.2373C43.3188 38.6611 43.4988 38.0044 43.5 37.3352V29.8277C43.499 29.6484 43.4344 29.4754 43.3176 29.3394C43.2008 29.2034 43.0395 29.1133 42.8625 29.0852ZM42 37.3352C42.0021 37.7298 41.899 38.1177 41.7012 38.4592C41.5035 38.8006 41.2183 39.0831 40.875 39.2777L36 41.5952L31.14 39.2927C30.7938 39.0964 30.506 38.8118 30.3057 38.4679C30.1054 38.124 29.9999 37.7331 30 37.3352V30.4577C32.1541 30.0377 34.1973 29.1744 36 27.9227C37.8027 29.1744 39.8459 30.0377 42 30.4577V37.3352Z" fill="black"/>
<path d="M32.7812 35.4697L31.7207 36.5302L33.9707 38.7802C34.1113 38.9208 34.3021 38.9998 34.501 38.9998C34.6998 38.9998 34.8906 38.9208 35.0312 38.7802L41.0312 32.7802L39.9707 31.7197L34.501 37.1895L32.7812 35.4697Z" fill="black"/>
</svg>
