<svg width="48" height="48" viewBox="0 0 48 48" fill="none" xmlns="http://www.w3.org/2000/svg">
<g clip-path="url(#clip0_319_3556)">
<path d="M2.1607 4.22569C2.1607 2.67028 3.42614 1.40484 4.98155 1.40484H34.1526C33.48 2.15353 33.0699 3.1425 33.0699 4.22569V23.2272L34.4747 21.9153V7.72687H41.5212V7.0245H41.5213V4.22569C41.5214 1.89563 39.6257 0 37.2957 0H4.98155C2.65148 0 0.755859 1.89563 0.755859 4.22569V42.2401H14.8027V40.8353H2.1607V4.22569ZM40.1165 4.22569V6.32203H34.4747V4.22569C34.4747 2.67028 35.7402 1.40484 37.2956 1.40484C38.8511 1.40484 40.1165 2.67028 40.1165 4.22569Z" fill="black"/>
<path d="M16.207 40.8352H17.6119V42.2401H16.207V40.8352Z" fill="black"/>
<path d="M30.2527 4.32349H4.96875V8.54242H30.2527V4.32349ZM28.848 7.13758H6.37359V5.72824H28.8479V7.13758H28.848Z" fill="black"/>
<path d="M4.96875 14.176H11.9929V15.5809H4.96875V14.176Z" fill="black"/>
<path d="M4.96875 25.3667H11.9929V26.7715H4.96875V25.3667Z" fill="black"/>
<path d="M16.1914 29.5999H23.2155V31.0047H16.1914V29.5999Z" fill="black"/>
<path d="M4.96875 16.9736H30.2557V18.3785H4.96875V16.9736Z" fill="black"/>
<path d="M4.96875 19.7712H30.2557V21.1761H4.96875V19.7712Z" fill="black"/>
<path d="M4.96875 22.5691H30.2557V23.9739H4.96875V22.5691Z" fill="black"/>
<path d="M4.96875 9.94287H6.37359V11.3477H4.96875V9.94287Z" fill="black"/>
<path d="M7.7793 9.94287H9.18414V11.3477H7.7793V9.94287Z" fill="black"/>
<path d="M37.3117 35.0673L39.2968 33.0821L40.2902 34.0755L43.2396 31.1261L35.2927 23.1792L32.3433 26.1285L33.3367 27.1219L26.3523 34.1062L25.3589 33.1129L24.6397 33.8321H16.1914V35.2369H23.2349L22.4097 36.0622L27.1827 40.8352H19.0178V42.2401H28.5875L30.3567 44.0092L33.306 41.0599L32.3127 40.0665L34.3128 38.0663L37.5773 41.3308L38.5707 40.3374L35.3062 37.073L36.3185 36.0606L45.2588 45.0009L44.2465 46.0132L39.5875 41.3542L38.5941 42.3476L44.2464 48L47.2454 45.0009L37.3117 35.0673ZM30.3566 42.0225L24.3963 36.0622L25.3589 35.0996L31.3192 41.0599L30.3566 42.0225ZM35.2927 25.166L41.2529 31.1262L40.2903 32.0888L34.3301 26.1286L35.2927 25.166ZM31.3496 39.0427L27.3762 35.0692L34.3301 28.1153L38.3036 32.0888L31.3496 39.0427Z" fill="black"/>
<path d="M9.86906 37.9649C12.5711 37.9649 14.7694 35.7667 14.7694 33.0646C14.7694 30.3626 12.5711 28.1643 9.86906 28.1643C7.167 28.1643 4.96875 30.3626 4.96875 33.0646C4.96875 35.7667 7.167 37.9649 9.86906 37.9649ZM9.86906 29.5692C11.7965 29.5692 13.3645 31.1373 13.3645 33.0647C13.3645 34.9921 11.7965 36.5602 9.86906 36.5602C7.94166 36.5602 6.37359 34.9921 6.37359 33.0647C6.37359 31.1373 7.94166 29.5692 9.86906 29.5692Z" fill="black"/>
</g>
<defs>
<clipPath id="clip0_319_3556">
<rect width="48" height="48" fill="white"/>
</clipPath>
</defs>
</svg>
