<svg width="48" height="48" viewBox="0 0 48 48" fill="none" xmlns="http://www.w3.org/2000/svg">
<g clip-path="url(#clip0_319_3572)">
<path d="M45.0611 28.0481C44.7855 27.6309 44.4283 27.2991 44.0243 27.06V1.59187C44.0243 0.714375 43.3118 0 42.4352 0H26.7396C25.863 0 25.1505 0.714375 25.1505 1.59187V11.4937L24.9461 11.3841C24.3124 11.0409 23.5586 11.0447 22.9286 11.3934L19.6258 13.1653V12.0141C19.6258 11.2959 19.0418 10.7119 18.3236 10.7119H16.5302C15.8121 10.7119 15.228 11.2959 15.228 12.0141V15.525L12.3724 17.0569C11.8764 17.3241 11.5136 17.7675 11.3505 18.3066C11.1874 18.8466 11.2446 19.4175 11.5118 19.9134C11.7789 20.4094 12.2233 20.7722 12.7624 20.9344C12.963 20.9944 13.1674 21.0244 13.3708 21.0244C13.6568 21.0244 13.9408 20.9644 14.2071 20.8481V28.1184C14.0524 28.1887 13.8986 28.2656 13.7477 28.3538L9.723 30.6759L8.90269 29.2566C8.41519 28.4166 7.33613 28.1287 6.498 28.6144L3.28519 30.4688C2.44519 30.9534 2.15457 32.0325 2.63832 32.8744L10.8639 47.1197C11.0993 47.5247 11.4789 47.8153 11.9336 47.9372C12.0864 47.9784 12.2402 47.9981 12.3939 47.9981C12.6986 47.9981 12.9996 47.9184 13.2686 47.7619L16.4824 45.9066C17.3205 45.42 17.6102 44.3419 17.1274 43.5019L16.308 42.0825L17.2305 41.5491C18.1324 41.0288 19.1233 40.9547 20.0955 41.3344L24.7108 43.1466C25.3024 43.3791 25.9043 43.4953 26.4977 43.4953C27.4277 43.4953 28.3389 43.2122 29.1649 42.6525L44.1518 32.505C45.633 31.5272 46.0399 29.5275 45.0611 28.0481ZM26.6496 1.59187C26.6496 1.54125 26.6908 1.49906 26.7396 1.49906H42.4343C42.483 1.49906 42.5243 1.54125 42.5243 1.59187V26.6109C41.8652 26.58 41.1921 26.7487 40.6014 27.1397L38.9693 28.2206V24.8625C38.9693 24.0966 38.3458 23.4722 37.5789 23.4722H33.6836V20.8472C34.1402 21.0459 34.6464 21.0778 35.1283 20.9334C35.2774 20.8884 35.4189 20.8266 35.5521 20.7525C35.7283 21.0891 36.0799 21.3187 36.4849 21.3187H39.3096C39.888 21.3187 40.3596 20.8463 40.3596 20.2659V17.4412C40.3596 16.8628 39.8889 16.3913 39.3096 16.3913H36.4849C36.0443 16.3913 35.6655 16.6631 35.5099 17.0484L30.9068 14.5791H32.6908C33.2711 14.5791 33.7436 14.1066 33.7436 13.5262V10.7044C33.7436 10.1241 33.2711 9.65156 32.6908 9.65156H29.8661C29.2877 9.65156 28.8161 10.1241 28.8161 10.7044V13.4569L26.6505 12.2953V1.59187H26.6496ZM33.6836 31.7222V24.9731H37.4702V29.2153L33.6836 31.7222ZM36.9311 19.8225V17.8931H38.8605V19.8225H36.9311ZM30.3143 13.0828V11.1534H32.2436V13.0828H30.3143ZM16.7261 12.2109H18.1268V13.9697L16.7261 14.7206V12.2109ZM13.1927 19.4991C13.0371 19.4522 12.9086 19.3472 12.8308 19.2038C12.7539 19.0603 12.7371 18.8962 12.7839 18.7406C12.8308 18.5841 12.9368 18.4556 13.0802 18.3778L16.3239 16.6378C16.3296 16.635 16.3343 16.6322 16.3399 16.6294L23.6411 12.7125C23.6449 12.7106 23.6486 12.7087 23.6524 12.7069C23.7433 12.6562 23.8436 12.6309 23.9449 12.6309C24.0443 12.6309 24.1436 12.6553 24.2355 12.705L34.8114 18.3778C35.1077 18.5372 35.2193 18.9084 35.0599 19.2047C34.9821 19.3481 34.8536 19.4531 34.698 19.5C34.5424 19.5469 34.3774 19.53 34.233 19.4522H34.2321L24.3011 14.1244C24.0799 14.0053 23.8136 14.0053 23.5924 14.1244L13.6577 19.4531C13.5143 19.5291 13.3493 19.5469 13.1927 19.4991ZM15.7061 20.0541L23.9468 15.6337L32.1855 20.0541V31.6659C31.7261 31.0753 31.0643 30.6441 30.2908 30.4856L27.4811 29.9147V23.4816C27.4811 23.0681 27.1455 22.7325 26.7321 22.7325H21.1586C20.7443 22.7325 20.4096 23.0681 20.4096 23.4816V28.4775L17.1133 27.8072C16.6352 27.7097 16.1655 27.6825 15.7061 27.7228V20.0541ZM25.9821 29.61L21.9086 28.7822V24.2316H25.9821V29.61ZM15.7324 44.6109L12.5177 46.4663C12.3958 46.5375 12.2318 46.4925 12.1605 46.3706L3.93769 32.1281C3.86644 32.0044 3.91144 31.8403 4.03425 31.7691L7.24894 29.9137C7.28832 29.8903 7.33238 29.88 7.37644 29.88C7.46738 29.88 7.55832 29.9269 7.60613 30.0094L8.79488 32.0681C8.79675 32.0709 8.79769 32.0737 8.79957 32.0766L8.80519 32.085L14.6196 42.1538C14.6252 42.1641 14.6299 42.1753 14.6355 42.1856C14.6411 42.1959 14.6486 42.2053 14.6552 42.2156L15.8308 44.2519C15.9002 44.3747 15.8552 44.5397 15.7324 44.6109ZM43.3193 31.2619L28.3258 41.4131C27.3799 42.0534 26.3196 42.1706 25.2593 41.7534L20.6421 39.9403C19.2302 39.3891 17.7911 39.4969 16.4814 40.2525L15.5589 40.7859L10.4721 31.9762L14.4968 29.6541C15.2289 29.2312 15.9864 29.1075 16.8133 29.2772L21.0021 30.1284C21.0058 30.1294 21.0096 30.1303 21.0133 30.1303L29.9908 31.9547C30.7924 32.1188 31.3727 32.8331 31.3689 33.6534C31.3689 33.66 31.3699 33.6666 31.3699 33.6731C31.3689 33.6853 31.3671 33.6984 31.3661 33.7106C31.3624 33.8006 31.3511 33.8916 31.3324 33.9834C31.2424 34.4297 30.9808 34.8159 30.5974 35.07C30.213 35.325 29.7546 35.415 29.3064 35.3241L20.4011 33.5119C19.9961 33.4294 19.5996 33.6909 19.5171 34.0969C19.4346 34.5028 19.6961 34.8984 20.1021 34.9809L29.0074 36.7931C29.2221 36.8372 29.4377 36.8587 29.6514 36.8587C30.2768 36.8587 30.8899 36.675 31.4252 36.3197C32.1433 35.8434 32.6318 35.1197 32.8014 34.2816C32.8146 34.215 32.8249 34.1475 32.8343 34.0809L38.6186 30.2503C38.6299 30.2438 38.6402 30.2362 38.6514 30.2288L41.4293 28.3894C41.9018 28.0763 42.4736 28.0303 42.9686 28.2122C42.9958 28.2244 43.0249 28.2356 43.0539 28.245C43.353 28.3725 43.6183 28.5844 43.8114 28.875C44.3336 29.6653 44.1161 30.7341 43.3193 31.2619ZM29.8652 7.845H32.6899C33.2702 7.845 33.7427 7.3725 33.7427 6.79219V3.97031C33.7427 3.39 33.2702 2.9175 32.6899 2.9175H29.8652C29.2868 2.9175 28.8152 3.39 28.8152 3.97031V6.79219C28.8152 7.3725 29.2858 7.845 29.8652 7.845ZM30.3143 4.41656H32.2436V6.34594H30.3143V4.41656ZM36.4849 7.845H39.3096C39.888 7.845 40.3596 7.3725 40.3596 6.79219V3.97031C40.3596 3.39 39.8889 2.9175 39.3096 2.9175H36.4849C35.9046 2.9175 35.4321 3.39 35.4321 3.97031V6.79219C35.4321 7.3725 35.9046 7.845 36.4849 7.845ZM36.9311 4.41656H38.8605V6.34594H36.9311V4.41656ZM36.4849 14.5819H39.3096C39.888 14.5819 40.3596 14.1094 40.3596 13.5291V10.7072C40.3596 10.1269 39.8889 9.65438 39.3096 9.65438H36.4849C35.9046 9.65438 35.4321 10.1269 35.4321 10.7072V13.5291C35.4321 14.1094 35.9046 14.5819 36.4849 14.5819ZM36.9311 11.1534H38.8605V13.0828H36.9311V11.1534Z" fill="black"/>
</g>
<defs>
<clipPath id="clip0_319_3572">
<rect width="48" height="48" fill="white"/>
</clipPath>
</defs>
</svg>
