<svg width="48" height="48" viewBox="0 0 48 48" fill="none" xmlns="http://www.w3.org/2000/svg">
<g clip-path="url(#clip0_319_3512)">
<path d="M47.8725 14.805H47.865V14.7975C47.7831 14.5015 47.6647 14.2168 47.5125 13.95L44.58 8.745C44.3943 8.37075 44.1077 8.05585 43.7525 7.83586C43.3974 7.61586 42.9878 7.49953 42.57 7.5H42V6C41.9982 5.40381 41.7606 4.83255 41.339 4.41098C40.9175 3.98941 40.3462 3.75178 39.75 3.75H8.25C7.65381 3.75178 7.08255 3.98941 6.66098 4.41098C6.2394 4.83255 6.00178 5.40381 6 6V7.5H5.43C5.01762 7.49815 4.61281 7.61074 4.2606 7.82525C3.90839 8.03975 3.6226 8.34775 3.435 8.715L0.48 13.9575C0.331995 14.2228 0.216176 14.5048 0.135 14.7975V14.805H0.1275C0.0450629 15.1261 0.00224437 15.456 0 15.7875L0 16.1775C0.00076426 16.7452 0.119877 17.3066 0.349738 17.8257C0.579598 18.3448 0.915157 18.8103 1.335 19.1925C1.80973 19.6202 2.38104 19.9264 3 20.085V39.75C2.60254 39.7512 2.2217 39.9096 1.94065 40.1907C1.6596 40.4717 1.50119 40.8525 1.5 41.25V42.75C1.50119 43.1475 1.6596 43.5283 1.94065 43.8093C2.2217 44.0904 2.60254 44.2488 3 44.25H45C45.3975 44.2488 45.7783 44.0904 46.0593 43.8093C46.3404 43.5283 46.4988 43.1475 46.5 42.75V41.25C46.4988 40.8525 46.3404 40.4717 46.0593 40.1907C45.7783 39.9096 45.3975 39.7512 45 39.75V20.1C45.871 19.8333 46.6331 19.2933 47.1734 18.5598C47.7137 17.8264 48.0035 16.9385 48 16.0275V15.7875C47.9978 15.456 47.9549 15.1261 47.8725 14.805ZM42.57 9C42.7159 9.00173 42.8582 9.04497 42.9804 9.12466C43.1026 9.20435 43.1996 9.3172 43.26 9.45L45.96 14.25H41.115L39.03 9H42.57ZM16.5 21.75H7.5C7.10254 21.7512 6.7217 21.9096 6.44065 22.1907C6.1596 22.4717 6.00119 22.8525 6 23.25V39.75H4.5V20.2275C5.07375 20.1576 5.62603 19.9663 6.12005 19.6663C6.61406 19.3663 7.03847 18.9644 7.365 18.4875C7.73569 19.0277 8.23164 19.4701 8.81047 19.777C9.38929 20.0839 10.0338 20.2461 10.6889 20.2498C11.3441 20.2535 11.9904 20.0985 12.5726 19.7982C13.1549 19.4978 13.6558 19.061 14.0325 18.525C14.4073 19.058 14.9049 19.4929 15.4832 19.7932C16.0614 20.0934 16.7034 20.2502 17.355 20.2502C18.0066 20.2502 18.6486 20.0934 19.2268 19.7932C19.8051 19.4929 20.3027 19.058 20.6775 18.525C21.0523 19.058 21.5499 19.4929 22.1282 19.7932C22.7064 20.0934 23.3484 20.2502 24 20.2502C24.6516 20.2502 25.2936 20.0934 25.8718 19.7932C26.4501 19.4929 26.9477 19.058 27.3225 18.525C27.6973 19.058 28.1949 19.4929 28.7732 19.7932C29.3514 20.0934 29.9934 20.2502 30.645 20.2502C31.2966 20.2502 31.9386 20.0934 32.5168 19.7932C33.0951 19.4929 33.5927 19.058 33.9675 18.525C34.3416 19.0578 34.8385 19.4926 35.4162 19.7929C35.9938 20.0931 36.6352 20.2498 37.2863 20.2498C37.9373 20.2498 38.5787 20.0931 39.1563 19.7929C39.734 19.4926 40.2309 19.0578 40.605 18.525C40.774 18.7712 40.9731 18.9954 41.1975 19.1925C41.8375 19.7679 42.6438 20.1251 43.5 20.2125V39.75H18V23.25C17.9988 22.8525 17.8404 22.4717 17.5593 22.1907C17.2783 21.9096 16.8975 21.7512 16.5 21.75ZM16.5 23.25V39.75H7.5V23.25H16.5ZM13.2825 15.75V16.1775C13.2825 16.8588 13.0119 17.5121 12.5301 17.9939C12.0484 18.4756 11.395 18.7463 10.7137 18.7463C10.0325 18.7463 9.3791 18.4756 8.89737 17.9939C8.41564 17.5121 8.145 16.8588 8.145 16.1775V15.75H13.2825ZM8.4975 14.25L10.5825 9H14.6925L13.44 14.25H8.4975ZM19.9275 15.75V16.1775C19.9275 16.8598 19.6565 17.5141 19.174 17.9965C18.6916 18.479 18.0373 18.75 17.355 18.75C16.6727 18.75 16.0184 18.479 15.536 17.9965C15.0535 17.5141 14.7825 16.8598 14.7825 16.1775V15.75H19.9275ZM14.985 14.25L16.2375 9H20.4L19.9875 14.25H14.985ZM26.5725 15.75V16.1775C26.5725 16.8598 26.3015 17.5141 25.819 17.9965C25.3366 18.479 24.6823 18.75 24 18.75C23.3177 18.75 22.6634 18.479 22.181 17.9965C21.6985 17.5141 21.4275 16.8598 21.4275 16.1775V15.75H26.5725ZM21.4875 14.25L21.9075 9H26.0925L26.5125 14.25H21.4875ZM28.0125 14.25L27.6 9H31.7625L33.015 14.25H28.0125ZM33.2175 15.75V16.1775C33.2175 16.8598 32.9465 17.5141 32.464 17.9965C31.9816 18.479 31.3273 18.75 30.645 18.75C29.9627 18.75 29.3084 18.479 28.826 17.9965C28.3435 17.5141 28.0725 16.8598 28.0725 16.1775V15.75H33.2175ZM34.56 14.25L33.3075 9H37.4175L39.5025 14.25H34.56ZM39.855 15.75V16.1925C39.853 16.8738 39.5805 17.5264 39.0973 18.0067C38.6142 18.487 37.96 18.7557 37.2788 18.7537C36.5975 18.7518 35.9449 18.4792 35.4646 17.9961C34.9842 17.5129 34.7155 16.8588 34.7175 16.1775V15.75H39.855ZM7.5 6C7.5 5.80109 7.57902 5.61032 7.71967 5.46967C7.86032 5.32902 8.05109 5.25 8.25 5.25H39.75C39.9489 5.25 40.1397 5.32902 40.2803 5.46967C40.421 5.61032 40.5 5.80109 40.5 6V7.5H7.5V6ZM4.755 9.42C4.81685 9.29377 4.91292 9.18747 5.03227 9.11321C5.15162 9.03895 5.28943 8.99972 5.43 9H8.97L6.885 14.25H2.04L4.755 9.42ZM2.34 18.0825C2.07609 17.8401 1.86521 17.5458 1.72064 17.2179C1.57607 16.89 1.50095 16.5358 1.5 16.1775V15.75H6.645V16.065C6.65216 16.7165 6.42026 17.348 5.99319 17.84C5.56613 18.332 4.97351 18.6505 4.3275 18.735C3.96883 18.7746 3.60585 18.7368 3.26301 18.6242C2.92017 18.5117 2.60543 18.3269 2.34 18.0825ZM45 42.75H3V41.25H45V42.75ZM46.5 16.0275C46.5137 16.6835 46.286 17.3216 45.8601 17.8208C45.4343 18.3199 44.8399 18.6452 44.19 18.735C43.8314 18.7734 43.4687 18.735 43.1261 18.6226C42.7834 18.5101 42.4686 18.326 42.2025 18.0825C41.9386 17.8429 41.7271 17.5513 41.5813 17.2261C41.4354 16.9008 41.3584 16.5489 41.355 16.1925V15.75H46.5V16.0275Z" fill="black"/>
<path d="M13.875 32.625C14.4963 32.625 15 32.1213 15 31.5C15 30.8787 14.4963 30.375 13.875 30.375C13.2537 30.375 12.75 30.8787 12.75 31.5C12.75 32.1213 13.2537 32.625 13.875 32.625Z" fill="black"/>
<path d="M40.5 21.75H21C20.6022 21.75 20.2206 21.908 19.9393 22.1893C19.658 22.4706 19.5 22.8522 19.5 23.25V33C19.5 33.3978 19.658 33.7794 19.9393 34.0607C20.2206 34.342 20.6022 34.5 21 34.5H40.5C40.8978 34.5 41.2794 34.342 41.5607 34.0607C41.842 33.7794 42 33.3978 42 33V23.25C42 22.8522 41.842 22.4706 41.5607 22.1893C41.2794 21.908 40.8978 21.75 40.5 21.75ZM40.5 30H31.5V23.25H40.5V30ZM30 23.25V30H21V23.25H30ZM21 33V31.5H40.5V33H21Z" fill="black"/>
</g>
<defs>
<clipPath id="clip0_319_3512">
<rect width="48" height="48" fill="white"/>
</clipPath>
</defs>
</svg>
