<svg width="48" height="48" viewBox="0 0 48 48" fill="none" xmlns="http://www.w3.org/2000/svg">
<path d="M29.25 36C28.5083 36 27.7833 36.2199 27.1666 36.632C26.5499 37.044 26.0693 37.6297 25.7855 38.3149C25.5016 39.0002 25.4274 39.7542 25.5721 40.4816C25.7168 41.209 26.0739 41.8772 26.5984 42.4017C27.1228 42.9261 27.791 43.2833 28.5184 43.4279C29.2458 43.5726 29.9998 43.4984 30.6851 43.2145C31.3703 42.9307 31.956 42.4501 32.368 41.8334C32.7801 41.2167 33 40.4917 33 39.75C32.9988 38.7558 32.6033 37.8027 31.9003 37.0997C31.1973 36.3967 30.2442 36.0012 29.25 36ZM29.25 42C28.805 42 28.37 41.868 28 41.6208C27.63 41.3736 27.3416 41.0222 27.1713 40.611C27.001 40.1999 26.9564 39.7475 27.0432 39.311C27.1301 38.8746 27.3443 38.4737 27.659 38.159C27.9737 37.8443 28.3746 37.63 28.811 37.5432C29.2475 37.4564 29.6999 37.501 30.111 37.6713C30.5222 37.8416 30.8736 38.13 31.1208 38.5C31.368 38.87 31.5 39.305 31.5 39.75C31.5 40.3467 31.2629 40.919 30.841 41.341C30.419 41.7629 29.8467 42 29.25 42Z" fill="black"/>
<path d="M38.25 36C37.5083 36 36.7833 36.2199 36.1666 36.632C35.5499 37.044 35.0693 37.6297 34.7855 38.3149C34.5016 39.0002 34.4274 39.7542 34.5721 40.4816C34.7168 41.209 35.0739 41.8772 35.5984 42.4017C36.1228 42.9261 36.791 43.2833 37.5184 43.4279C38.2458 43.5726 38.9998 43.4984 39.6851 43.2145C40.3703 42.9307 40.956 42.4501 41.368 41.8334C41.7801 41.2167 42 40.4917 42 39.75C41.9988 38.7558 41.6033 37.8027 40.9003 37.0997C40.1973 36.3967 39.2442 36.0012 38.25 36ZM38.25 42C37.805 42 37.37 41.868 37 41.6208C36.63 41.3736 36.3416 41.0222 36.1713 40.611C36.001 40.1999 35.9564 39.7475 36.0432 39.311C36.1301 38.8746 36.3443 38.4737 36.659 38.159C36.9737 37.8443 37.3746 37.63 37.811 37.5432C38.2475 37.4564 38.6999 37.501 39.111 37.6713C39.5222 37.8416 39.8736 38.13 40.1208 38.5C40.368 38.87 40.5 39.305 40.5 39.75C40.5 40.3467 40.2629 40.919 39.841 41.341C39.419 41.7629 38.8467 42 38.25 42Z" fill="black"/>
<path d="M20.25 36C19.5083 36 18.7833 36.2199 18.1666 36.632C17.5499 37.044 17.0693 37.6297 16.7855 38.3149C16.5016 39.0002 16.4274 39.7542 16.5721 40.4816C16.7168 41.209 17.0739 41.8772 17.5984 42.4017C18.1228 42.9261 18.791 43.2833 19.5184 43.4279C20.2458 43.5726 20.9998 43.4984 21.6851 43.2145C22.3703 42.9307 22.956 42.4501 23.368 41.8334C23.7801 41.2167 24 40.4917 24 39.75C23.9988 38.7558 23.6033 37.8027 22.9003 37.0997C22.1973 36.3967 21.2442 36.0012 20.25 36ZM20.25 42C19.805 42 19.37 41.868 19 41.6208C18.63 41.3736 18.3416 41.0222 18.1713 40.611C18.001 40.1999 17.9564 39.7475 18.0432 39.311C18.1301 38.8746 18.3443 38.4737 18.659 38.159C18.9737 37.8443 19.3746 37.63 19.811 37.5432C20.2475 37.4564 20.6999 37.501 21.111 37.6713C21.5222 37.8416 21.8736 38.13 22.1208 38.5C22.368 38.87 22.5 39.305 22.5 39.75C22.5 40.3467 22.2629 40.919 21.841 41.341C21.419 41.7629 20.8467 42 20.25 42Z" fill="black"/>
<path d="M14.0625 34.2999L12.9375 33.3076C11.3668 35.0862 10.4999 37.3773 10.5 39.7501H12C12.0002 37.7427 12.7337 35.8045 14.0625 34.2999Z" fill="black"/>
<path d="M10.6367 41.3753C10.7299 41.9282 10.871 42.472 11.0582 43.0005L12.472 42.4995C12.3136 42.0524 12.1941 41.5924 12.115 41.1248L10.6367 41.3753Z" fill="black"/>
<path d="M38.25 30V31.5C39.4209 31.5011 40.5782 31.7513 41.645 32.234C42.7118 32.7168 43.6637 33.4209 44.4375 34.2998L45.5625 33.3075C44.6479 32.2691 43.5229 31.4372 42.2621 30.867C41.0014 30.2967 39.6337 30.0012 38.25 30Z" fill="black"/>
<path d="M35.25 30H36.75V31.5H35.25V30Z" fill="black"/>
<path d="M38.25 33.0001H33V31.4176C33.6342 30.7758 34.0904 29.9799 34.3236 29.1083C34.5567 28.2367 34.5589 27.3193 34.3298 26.4466L42.8108 11.7631C43.57 11.5283 44.266 11.1241 44.8463 10.5811C45.4266 10.0382 45.876 9.37055 46.1608 8.6286C46.4455 7.88664 46.5581 7.08973 46.49 6.29794C46.422 5.50615 46.175 4.74014 45.7678 4.05766C45.3607 3.37519 44.8039 2.79406 44.1394 2.35809C43.4749 1.92212 42.7202 1.64269 41.932 1.54086C41.1439 1.43902 40.3429 1.51745 39.5894 1.77023C38.836 2.02301 38.1498 2.44354 37.5825 3.00011H14.9175C14.4186 2.50934 13.8266 2.12338 13.1762 1.86498C12.5259 1.60658 11.8304 1.48096 11.1308 1.49552C10.4311 1.51008 9.74146 1.66453 9.10243 1.94977C8.4634 2.23501 7.88793 2.64527 7.40992 3.15637C6.9319 3.66747 6.56102 4.26907 6.31913 4.92574C6.07724 5.5824 5.96922 6.28084 6.00145 6.97989C6.03368 7.67895 6.2055 8.36449 6.50679 8.99611C6.80808 9.62773 7.23274 10.1927 7.75575 10.6576C7.5877 11.0853 7.50097 11.5406 7.5 12.0001V13.5001C7.30109 13.5001 7.11032 13.5791 6.96967 13.7198C6.82902 13.8604 6.75 14.0512 6.75 14.2501V16.5001H6C5.80109 16.5001 5.61032 16.5791 5.46967 16.7198C5.32902 16.8604 5.25 17.0512 5.25 17.2501V21.7501C5.25 21.949 5.32902 22.1398 5.46967 22.2804C5.61032 22.4211 5.80109 22.5001 6 22.5001H6.75V25.5001C6.75004 25.699 6.82909 25.8897 6.96975 26.0304L9.21975 28.2804L10.2802 27.2199L8.25 25.1896V22.5001H14.25V25.1896L12.2197 27.2199L13.2803 28.2804L15.5303 26.0304C15.6709 25.8897 15.75 25.699 15.75 25.5001V22.5001H16.5C16.6989 22.5001 16.8897 22.4211 17.0303 22.2804C17.171 22.1398 17.25 21.949 17.25 21.7501V17.2501C17.25 17.0512 17.171 16.8604 17.0303 16.7198C16.8897 16.5791 16.6989 16.5001 16.5 16.5001H15.75V14.2501C15.75 14.0512 15.671 13.8604 15.5303 13.7198C15.3897 13.5791 15.1989 13.5001 15 13.5001V12.0001C14.999 11.5406 14.9123 11.0853 14.7443 10.6576C14.802 10.6059 14.8612 10.5549 14.9175 10.5001H34.887L27.837 22.6981C26.9587 22.9422 26.1592 23.4111 25.5176 24.0587C24.876 24.7062 24.4144 25.5099 24.1784 26.3905C23.9424 27.271 23.9401 28.1978 24.1719 29.0795C24.4037 29.9611 24.8615 30.767 25.5 31.4176V33.0001H20.25C18.4598 33.0001 16.7429 33.7113 15.477 34.9771C14.2112 36.243 13.5 37.9599 13.5 39.7501C13.5 41.5403 14.2112 43.2572 15.477 44.5231C16.7429 45.789 18.4598 46.5001 20.25 46.5001H38.25C40.0402 46.5001 41.7571 45.789 43.023 44.5231C44.2888 43.2572 45 41.5403 45 39.7501C45 37.9599 44.2888 36.243 43.023 34.9771C41.7571 33.7113 40.0402 33.0001 38.25 33.0001ZM29.6737 22.5219L37.0042 9.82511C37.4605 10.4553 38.0513 10.9761 38.7337 11.3497C39.4162 11.7233 40.1732 11.9404 40.95 11.9851L33.5662 24.7696C33.1243 24.1301 32.5459 23.5968 31.8727 23.2081C31.1996 22.8194 30.4485 22.585 29.6737 22.5219ZM41.25 3.00011C41.9917 3.00011 42.7167 3.22004 43.3334 3.6321C43.9501 4.04415 44.4307 4.62982 44.7145 5.31505C44.9984 6.00027 45.0726 6.75427 44.9279 7.4817C44.7832 8.20913 44.4261 8.87731 43.9016 9.40176C43.3772 9.92621 42.709 10.2834 41.9816 10.4281C41.2542 10.5727 40.5002 10.4985 39.8149 10.2147C39.1297 9.93083 38.544 9.45018 38.132 8.8335C37.7199 8.21681 37.5 7.49179 37.5 6.75011C37.5012 5.75591 37.8967 4.80278 38.5997 4.09977C39.3027 3.39677 40.2558 3.0013 41.25 3.00011ZM7.5 6.75011C7.5 6.00843 7.71993 5.28341 8.13199 4.66672C8.54404 4.05004 9.12971 3.56939 9.81494 3.28556C10.5002 3.00173 11.2542 2.92747 11.9816 3.07216C12.709 3.21686 13.3772 3.57401 13.9017 4.09846C14.4261 4.62291 14.7833 5.29109 14.9279 6.01852C15.0726 6.74595 14.9984 7.49995 14.7145 8.18517C14.4307 8.87039 13.9501 9.45606 13.3334 9.86812C12.7167 10.2802 11.9917 10.5001 11.25 10.5001C10.2558 10.4989 9.30267 10.1034 8.59966 9.40044C7.89666 8.69744 7.50119 7.74431 7.5 6.75011ZM15.75 21.0001H6.75V18.0001H15.75V21.0001ZM8.25 16.5001V15.0001H14.25V16.5001H8.25ZM13.5 12.0001V13.5001H9V12.0001C9.0042 11.8375 9.02608 11.6758 9.06525 11.5179C9.74978 11.8355 10.4954 12.0001 11.25 12.0001C12.0046 12.0001 12.7502 11.8355 13.4347 11.5179C13.4739 11.6758 13.4958 11.8375 13.5 12.0001ZM15.9862 9.00011C16.3244 8.29824 16.5 7.52918 16.5 6.75011C16.5 5.97103 16.3244 5.20198 15.9862 4.50011H36.5138C35.9572 5.65663 35.8503 6.97869 36.2137 8.20961L35.754 9.00011H15.9862ZM29.25 24.0001C29.9917 24.0001 30.7167 24.22 31.3334 24.6321C31.9501 25.0442 32.4307 25.6298 32.7145 26.315C32.9984 27.0003 33.0726 27.7543 32.9279 28.4817C32.7833 29.2091 32.4261 29.8773 31.9016 30.4018C31.3772 30.9262 30.709 31.2834 29.9816 31.4281C29.2542 31.5728 28.5002 31.4985 27.8149 31.2147C27.1297 30.9308 26.544 30.4502 26.132 29.8335C25.7199 29.2168 25.5 28.4918 25.5 27.7501C25.5012 26.7559 25.8967 25.8028 26.5997 25.0998C27.3027 24.3968 28.2558 24.0013 29.25 24.0001ZM27 32.4864C27.7019 32.8245 28.4709 33.0001 29.25 33.0001C30.0291 33.0001 30.7981 32.8245 31.5 32.4864V33.0001H27V32.4864ZM38.25 45.0001H20.25C18.8576 45.0001 17.5223 44.447 16.5377 43.4624C15.5531 42.4779 15 41.1425 15 39.7501C15 38.3577 15.5531 37.0224 16.5377 36.0378C17.5223 35.0532 18.8576 34.5001 20.25 34.5001H38.25C39.6424 34.5001 40.9777 35.0532 41.9623 36.0378C42.9469 37.0224 43.5 38.3577 43.5 39.7501C43.5 41.1425 42.9469 42.4779 41.9623 43.4624C40.9777 44.447 39.6424 45.0001 38.25 45.0001Z" fill="black"/>
<path d="M19.5 39H21V40.5H19.5V39Z" fill="black"/>
<path d="M28.5 39H30V40.5H28.5V39Z" fill="black"/>
<path d="M37.5 39H39V40.5H37.5V39Z" fill="black"/>
<path d="M29.25 30C29.695 30 30.13 29.868 30.5 29.6208C30.87 29.3736 31.1584 29.0222 31.3287 28.611C31.499 28.1999 31.5436 27.7475 31.4568 27.311C31.37 26.8746 31.1557 26.4737 30.841 26.159C30.5263 25.8443 30.1254 25.6301 29.689 25.5432C29.2525 25.4564 28.8001 25.501 28.389 25.6713C27.9778 25.8416 27.6264 26.13 27.3792 26.5C27.132 26.87 27 27.305 27 27.75C27 28.3467 27.2371 28.919 27.659 29.341C28.081 29.7629 28.6533 30 29.25 30ZM29.25 27C29.3983 27 29.5433 27.044 29.6667 27.1264C29.79 27.2088 29.8861 27.3259 29.9429 27.463C29.9997 27.6 30.0145 27.7508 29.9856 27.8963C29.9567 28.0418 29.8852 28.1754 29.7803 28.2803C29.6754 28.3852 29.5418 28.4567 29.3963 28.4856C29.2508 28.5145 29.1 28.4997 28.963 28.4429C28.8259 28.3861 28.7088 28.29 28.6264 28.1667C28.544 28.0433 28.5 27.8983 28.5 27.75C28.5 27.5511 28.579 27.3603 28.7197 27.2197C28.8603 27.079 29.0511 27 29.25 27Z" fill="black"/>
<path d="M41.25 9C41.695 9 42.13 8.86804 42.5 8.62081C42.87 8.37357 43.1584 8.02217 43.3287 7.61104C43.499 7.1999 43.5436 6.74751 43.4568 6.31105C43.37 5.87459 43.1557 5.47368 42.841 5.15901C42.5263 4.84434 42.1254 4.63005 41.689 4.54323C41.2525 4.45642 40.8001 4.50097 40.389 4.67127C39.9778 4.84157 39.6264 5.12996 39.3792 5.49997C39.132 5.86998 39 6.30499 39 6.75C39 7.34674 39.2371 7.91903 39.659 8.34099C40.081 8.76295 40.6533 9 41.25 9ZM41.25 6C41.3983 6 41.5433 6.04399 41.6667 6.1264C41.79 6.20881 41.8861 6.32594 41.9429 6.46299C41.9997 6.60003 42.0145 6.75083 41.9856 6.89632C41.9567 7.0418 41.8852 7.17544 41.7803 7.28033C41.6754 7.38522 41.5418 7.45665 41.3963 7.48559C41.2508 7.51453 41.1 7.49968 40.963 7.44291C40.8259 7.38615 40.7088 7.29002 40.6264 7.16668C40.544 7.04334 40.5 6.89834 40.5 6.75C40.5 6.55109 40.579 6.36032 40.7197 6.21967C40.8603 6.07902 41.0511 6 41.25 6Z" fill="black"/>
<path d="M11.25 9C11.695 9 12.13 8.86804 12.5 8.62081C12.87 8.37357 13.1584 8.02217 13.3287 7.61104C13.499 7.1999 13.5436 6.74751 13.4568 6.31105C13.37 5.87459 13.1557 5.47368 12.841 5.15901C12.5263 4.84434 12.1254 4.63005 11.689 4.54323C11.2525 4.45642 10.8001 4.50097 10.389 4.67127C9.97783 4.84157 9.62643 5.12996 9.37919 5.49997C9.13196 5.86998 9 6.30499 9 6.75C9 7.34674 9.23705 7.91903 9.65901 8.34099C10.081 8.76295 10.6533 9 11.25 9ZM11.25 6C11.3983 6 11.5433 6.04399 11.6667 6.1264C11.79 6.20881 11.8861 6.32594 11.9429 6.46299C11.9997 6.60003 12.0145 6.75083 11.9856 6.89632C11.9567 7.0418 11.8852 7.17544 11.7803 7.28033C11.6754 7.38522 11.5418 7.45665 11.3963 7.48559C11.2508 7.51453 11.1 7.49968 10.963 7.44291C10.8259 7.38615 10.7088 7.29002 10.6264 7.16668C10.544 7.04334 10.5 6.89834 10.5 6.75C10.5 6.55109 10.579 6.36032 10.7197 6.21967C10.8603 6.07902 11.0511 6 11.25 6Z" fill="black"/>
<path d="M36.8516 25.1296L41.3516 17.3356L42.6506 18.0856L38.1506 25.8796L36.8516 25.1296Z" fill="black"/>
<path d="M42.1035 16.0361L42.8535 14.7371L44.1525 15.4871L43.4025 16.7861L42.1035 16.0361Z" fill="black"/>
</svg>
