<svg width="48" height="48" viewBox="0 0 48 48" fill="none" xmlns="http://www.w3.org/2000/svg">
<g clip-path="url(#clip0_319_3456)">
<path d="M18.4004 28.8C13.982 28.8 10.4004 32.3817 10.4004 36.8C10.4004 41.2184 13.982 44.8 18.4004 44.8C22.8188 44.8 26.4004 41.2184 26.4004 36.8C26.3957 32.3836 22.8168 28.8047 18.4004 28.8ZM18.4004 43.2C14.8656 43.2 12.0004 40.3348 12.0004 36.8C12.0004 33.2653 14.8656 30.4 18.4004 30.4C21.9352 30.4 24.8004 33.2653 24.8004 36.8C24.7965 40.3329 21.9332 43.1961 18.4004 43.2Z" fill="black"/>
<path d="M18.3992 34.4C19.3762 34.4 19.9992 34.8734 19.9992 35.2H21.5992C21.5992 34.0633 20.5922 33.1426 19.1992 32.8801V32H17.5992V32.8801C16.2062 33.1406 15.1992 34.0617 15.1992 35.2C15.1992 36.5465 16.6047 37.6 18.3992 37.6C19.3762 37.6 19.9992 38.0734 19.9992 38.4C19.9992 38.7266 19.3762 39.2 18.3992 39.2C17.4223 39.2 16.7992 38.7266 16.7992 38.4H15.1992C15.1992 39.5367 16.2062 40.4574 17.5992 40.7199V41.6H19.1992V40.7199C20.5922 40.4594 21.5992 39.5383 21.5992 38.4C21.5992 37.0535 20.1937 36 18.3992 36C17.4223 36 16.7992 35.5266 16.7992 35.2C16.7992 34.8734 17.4223 34.4 18.3992 34.4Z" fill="black"/>
<path d="M40.8 46.4H7.2V27.2H20C21.3254 27.2 22.4 26.1254 22.4 24.8V4.8H31.2V14.4H40.8V25.6H42.4V13.2688L32.3312 3.2H22.4V2.4C22.4 1.07461 21.3254 0 20 0H2.4C1.07461 0 0 1.07461 0 2.4V24.8C0 26.1254 1.07461 27.2 2.4 27.2H5.6V48H42.4V36.8H40.8V46.4ZM32.8 5.93125L39.6688 12.8H32.8V5.93125ZM1.6 24.8V2.4C1.6 1.9582 1.9582 1.6 2.4 1.6H20C20.4418 1.6 20.8 1.9582 20.8 2.4V24.8C20.8 25.2418 20.4418 25.6 20 25.6H2.4C1.9582 25.6 1.6 25.2418 1.6 24.8Z" fill="black"/>
<path d="M25.5996 20H27.1996V21.6H25.5996V20Z" fill="black"/>
<path d="M28.8008 20H38.4008V21.6H28.8008V20Z" fill="black"/>
<path d="M25.5996 16.8H27.1996V18.4H25.5996V16.8Z" fill="black"/>
<path d="M28.8008 16.8H38.4008V18.4H28.8008V16.8Z" fill="black"/>
<path d="M25.5996 23.2H27.1996V24.8H25.5996V23.2Z" fill="black"/>
<path d="M28.8008 23.2H38.4008V24.8H28.8008V23.2Z" fill="black"/>
<path d="M25.5996 26.3999H27.1996V27.9999H25.5996V26.3999Z" fill="black"/>
<path d="M28.8008 26.3999H38.4008V27.9999H28.8008V26.3999Z" fill="black"/>
<path d="M20.0004 2.3999H2.40039V7.9999H20.0004V2.3999ZM18.4004 6.3999H4.00039V3.9999H18.4004V6.3999Z" fill="black"/>
<path d="M6.39922 8.80005H4.79922C3.91562 8.80005 3.19922 9.51645 3.19922 10.4V12C3.19922 12.8836 3.91562 13.6 4.79922 13.6H6.39922C7.28281 13.6 7.99922 12.8836 7.99922 12V10.4C7.99922 9.51645 7.28281 8.80005 6.39922 8.80005ZM4.79922 12V10.4H6.39922V12H4.79922Z" fill="black"/>
<path d="M12.0008 8.80005H10.4008C9.51719 8.80005 8.80078 9.51645 8.80078 10.4V12C8.80078 12.8836 9.51719 13.6 10.4008 13.6H12.0008C12.8844 13.6 13.6008 12.8836 13.6008 12V10.4C13.6008 9.51645 12.8844 8.80005 12.0008 8.80005ZM10.4008 12V10.4H12.0008V12H10.4008Z" fill="black"/>
<path d="M17.6004 8.80005H16.0004C15.1168 8.80005 14.4004 9.51645 14.4004 10.4V12C14.4004 12.8836 15.1168 13.6 16.0004 13.6H17.6004C18.484 13.6 19.2004 12.8836 19.2004 12V10.4C19.2004 9.51645 18.484 8.80005 17.6004 8.80005ZM16.0004 12V10.4H17.6004V12H16.0004Z" fill="black"/>
<path d="M6.39922 14.3999H4.79922C3.91562 14.3999 3.19922 15.1163 3.19922 15.9999V17.5999C3.19922 18.4835 3.91562 19.1999 4.79922 19.1999H6.39922C7.28281 19.1999 7.99922 18.4835 7.99922 17.5999V15.9999C7.99922 15.1163 7.28281 14.3999 6.39922 14.3999ZM4.79922 17.5999V15.9999H6.39922V17.5999H4.79922Z" fill="black"/>
<path d="M12.0008 14.3999H10.4008C9.51719 14.3999 8.80078 15.1163 8.80078 15.9999V17.5999C8.80078 18.4835 9.51719 19.1999 10.4008 19.1999H12.0008C12.8844 19.1999 13.6008 18.4835 13.6008 17.5999V15.9999C13.6008 15.1163 12.8844 14.3999 12.0008 14.3999ZM10.4008 17.5999V15.9999H12.0008V17.5999H10.4008Z" fill="black"/>
<path d="M17.6004 14.3999H16.0004C15.1168 14.3999 14.4004 15.1163 14.4004 15.9999V17.5999C14.4004 18.4835 15.1168 19.1999 16.0004 19.1999H17.6004C18.484 19.1999 19.2004 18.4835 19.2004 17.5999V15.9999C19.2004 15.1163 18.484 14.3999 17.6004 14.3999ZM16.0004 17.5999V15.9999H17.6004V17.5999H16.0004Z" fill="black"/>
<path d="M6.39922 20H4.79922C3.91562 20 3.19922 20.7164 3.19922 21.6V23.2C3.19922 24.0836 3.91562 24.8 4.79922 24.8H6.39922C7.28281 24.8 7.99922 24.0836 7.99922 23.2V21.6C7.99922 20.7164 7.28281 20 6.39922 20ZM4.79922 23.2V21.6H6.39922V23.2H4.79922Z" fill="black"/>
<path d="M12.0008 20H10.4008C9.51719 20 8.80078 20.7164 8.80078 21.6V23.2C8.80078 24.0836 9.51719 24.8 10.4008 24.8H12.0008C12.8844 24.8 13.6008 24.0836 13.6008 23.2V21.6C13.6008 20.7164 12.8844 20 12.0008 20ZM10.4008 23.2V21.6H12.0008V23.2H10.4008Z" fill="black"/>
<path d="M17.6004 20H16.0004C15.1168 20 14.4004 20.7164 14.4004 21.6V23.2C14.4004 24.0836 15.1168 24.8 16.0004 24.8H17.6004C18.484 24.8 19.2004 24.0836 19.2004 23.2V21.6C19.2004 20.7164 18.484 20 17.6004 20ZM16.0004 23.2V21.6H17.6004V23.2H16.0004Z" fill="black"/>
<path d="M47.274 25.5267C46.3244 24.62 44.8303 24.62 43.8807 25.5267L30.1662 39.2407C30.0998 39.3079 30.0455 39.386 30.0061 39.472L28.0748 43.6657C27.9353 43.9696 27.9998 44.3286 28.2365 44.5649C28.4728 44.8017 28.8318 44.8661 29.1357 44.7267L33.3295 42.7954C33.4154 42.756 33.4936 42.7021 33.5607 42.6353L47.274 28.9208C48.2115 27.9837 48.2115 26.4638 47.274 25.5267ZM32.5295 41.4017L30.4334 42.3673L31.399 40.2712L41.6244 30.045L42.7557 31.1763L32.5295 41.4017ZM43.8893 30.0415L42.758 28.9106L43.3182 28.3505L44.4494 29.4817L43.8893 30.0415ZM46.1455 27.7856L45.5799 28.3513L44.4486 27.22L45.015 26.6544C45.3311 26.3521 45.8291 26.3521 46.1455 26.6544C46.4576 26.9669 46.4576 27.4731 46.1455 27.7856Z" fill="black"/>
</g>
<defs>
<clipPath id="clip0_319_3456">
<rect width="48" height="48" fill="white"/>
</clipPath>
</defs>
</svg>
