<svg width="48" height="48" viewBox="0 0 48 48" fill="none" xmlns="http://www.w3.org/2000/svg">
<g clip-path="url(#clip0_319_3388)">
<path d="M39.5294 24C39.5294 26.3353 41.4293 28.2353 43.7647 28.2353C46.1001 28.2353 48 26.3353 48 24C48 22.7485 47.454 21.6226 46.5882 20.8466V14.1176H40.3564L33.8824 20.5917V22.5882H31.0588V18.9377L33.8824 16.1142V9.05534L37.2906 5.64706H39.7722C40.355 7.29026 41.9242 8.47059 43.7647 8.47059C46.1001 8.47059 48 6.57064 48 4.23529C48 1.89995 46.1001 0 43.7647 0C41.9242 0 40.355 1.18033 39.7722 2.82353H36.1211L31.0588 7.88584V14.9447L29.0623 16.9412H25.4118V11.2941H20.3495L16.9412 7.88584V5.64706H20.0075C20.5903 7.29026 22.1595 8.47059 24 8.47059C26.3354 8.47059 28.2353 6.57064 28.2353 4.23529C28.2353 1.89995 26.3354 0 24 0C22.1595 0 20.5904 1.18033 20.0075 2.82353H14.1176V9.05534L19.18 14.1176H22.5882V16.9412C20.8406 16.9412 16.3554 16.9412 14.7024 16.9412L11.8789 14.1176H7.64358L5.64706 12.1211V8.22777C7.29026 7.64499 8.47059 6.07576 8.47059 4.23529C8.47059 1.89995 6.57064 0 4.23529 0C1.89995 0 0 1.89995 0 4.23529C0 6.07576 1.18033 7.64499 2.82353 8.22777V13.2906L6.47407 16.9412H10.7094L13.5329 19.7647H16.9412V22.5882H11.2941V27.6505L7.88584 31.0588H5.64706V27.9925C7.29026 27.4097 8.47059 25.8405 8.47059 24C8.47059 21.6646 6.57064 19.7647 4.23529 19.7647C1.89995 19.7647 0 21.6646 0 24C0 25.8405 1.18033 27.4097 2.82353 27.9925V33.8824H9.05534L14.1176 28.82V25.4118H16.9412V29.0623L14.1176 31.8858V38.9447L10.7094 42.3529H8.22777C7.64499 40.7097 6.07576 39.5294 4.23529 39.5294C1.89995 39.5294 0 41.4293 0 43.7647C0 46.1 1.89995 48 4.23529 48C6.07576 48 7.64499 46.8197 8.22777 45.1765H11.8789L16.9412 40.1142V33.0553L18.9377 31.0588H22.5882V36.7059H27.6505L31.0588 40.1142V42.3529H27.9925C27.4097 40.7097 25.8405 39.5294 24 39.5294C21.6646 39.5294 19.7647 41.4293 19.7647 43.7647C19.7647 46.1 21.6646 48 24 48C25.8405 48 27.4097 46.8197 27.9925 45.1765H33.8824V38.9447L28.82 33.8824H25.4118V31.0588H33.2976L36.1211 33.8824H40.3564L42.3529 35.8789V39.7722C40.7097 40.355 39.5294 41.9242 39.5294 43.7647C39.5294 46.1 41.4293 48 43.7647 48C46.1001 48 48 46.1 48 43.7647C48 41.9242 46.8197 40.355 45.1765 39.7722V34.7094L41.5259 31.0588H37.2906L34.4671 28.2353H31.0588V25.4118H36.7059V21.7612L41.5259 16.9412H43.7647V19.7647C41.4293 19.7647 39.5294 21.6646 39.5294 24ZM43.7647 2.82353C44.5432 2.82353 45.1765 3.45685 45.1765 4.23529C45.1765 5.01374 44.5432 5.64706 43.7647 5.64706C42.9862 5.64706 42.3529 5.01374 42.3529 4.23529C42.3529 3.45685 42.9862 2.82353 43.7647 2.82353ZM24 2.82353C24.7785 2.82353 25.4118 3.45685 25.4118 4.23529C25.4118 5.01374 24.7785 5.64706 24 5.64706C23.2216 5.64706 22.5882 5.01374 22.5882 4.23529C22.5882 3.45685 23.2216 2.82353 24 2.82353ZM4.23529 2.82353C5.01374 2.82353 5.64706 3.45685 5.64706 4.23529C5.64706 5.01374 5.01374 5.64706 4.23529 5.64706C3.45685 5.64706 2.82353 5.01374 2.82353 4.23529C2.82353 3.45685 3.45685 2.82353 4.23529 2.82353ZM4.23529 22.5882C5.01374 22.5882 5.64706 23.2216 5.64706 24C5.64706 24.7785 5.01374 25.4118 4.23529 25.4118C3.45685 25.4118 2.82353 24.7785 2.82353 24C2.82353 23.2216 3.45685 22.5882 4.23529 22.5882ZM4.23529 45.1765C3.45685 45.1765 2.82353 44.5432 2.82353 43.7647C2.82353 42.9862 3.45685 42.3529 4.23529 42.3529C5.01374 42.3529 5.64706 42.9862 5.64706 43.7647C5.64706 44.5432 5.01374 45.1765 4.23529 45.1765ZM24 45.1765C23.2216 45.1765 22.5882 44.5432 22.5882 43.7647C22.5882 42.9862 23.2216 42.3529 24 42.3529C24.7785 42.3529 25.4118 42.9862 25.4118 43.7647C25.4118 44.5432 24.7785 45.1765 24 45.1765ZM43.7647 45.1765C42.9862 45.1765 42.3529 44.5432 42.3529 43.7647C42.3529 42.9862 42.9862 42.3529 43.7647 42.3529C44.5432 42.3529 45.1765 42.9862 45.1765 43.7647C45.1765 44.5432 44.5432 45.1765 43.7647 45.1765ZM28.2353 28.2353H19.7647V19.7647H28.2353V28.2353ZM43.7647 25.4118C42.9862 25.4118 42.3529 24.7785 42.3529 24C42.3529 23.2216 42.9862 22.5882 43.7647 22.5882C44.5432 22.5882 45.1765 23.2216 45.1765 24C45.1765 24.7785 44.5432 25.4118 43.7647 25.4118Z" fill="black"/>
<path d="M22.5879 22.5881H25.4114V25.4117H22.5879V22.5881Z" fill="black"/>
</g>
<defs>
<clipPath id="clip0_319_3388">
<rect width="48" height="48" fill="white"/>
</clipPath>
</defs>
</svg>
