<svg width="32" height="32" viewBox="0 0 32 32" fill="none" xmlns="http://www.w3.org/2000/svg">
<g clip-path="url(#clip0_326_5857)">
<path d="M4.80005 11.2C4.80005 12.0837 5.51636 12.8 6.3999 12.8C7.28369 12.8 8 12.0837 8 11.2V10.928C8.16089 10.8713 8.31836 10.8059 8.47192 10.7317L8.66187 10.9226C8.96069 11.2253 9.36841 11.3953 9.7937 11.3948C10.4404 11.3933 11.0229 11.0024 11.2693 10.4043C11.5159 9.8064 11.3779 9.11865 10.9199 8.66187L10.729 8.47192C10.804 8.31836 10.8706 8.16089 10.928 8H11.2C12.0837 8 12.8 7.28369 12.8 6.3999C12.8 5.51636 12.0837 4.80005 11.2 4.80005H10.928C10.8713 4.63916 10.8059 4.48145 10.7317 4.32788L10.9226 4.13818C11.3806 3.6814 11.5186 2.99365 11.272 2.39551C11.0254 1.79761 10.4431 1.40674 9.79639 1.40527C9.37109 1.40479 8.96338 1.57471 8.66455 1.87744L8.47461 2.06836C8.32031 1.99414 8.16187 1.92847 8 1.87207V1.6001C8 0.716309 7.28369 0 6.3999 0C5.51636 0 4.80005 0.716309 4.80005 1.6001V1.87207C4.63916 1.92847 4.48145 1.99414 4.32788 2.06836L4.13818 1.87744C3.83936 1.57471 3.43164 1.40479 3.00635 1.40527C2.35913 1.40576 1.77563 1.79614 1.52856 2.39429C1.28125 2.99268 1.41895 3.68091 1.87744 4.13818L2.06836 4.32788C1.99414 4.48169 1.92871 4.63916 1.87207 4.80005H1.6001C0.716309 4.80005 0 5.51636 0 6.3999C0 7.28369 0.716309 8 1.6001 8H1.87207C1.92847 8.16089 1.99414 8.31836 2.06836 8.47192L1.87744 8.66187C1.57617 8.96143 1.40674 9.36865 1.40601 9.79346C1.40527 10.2183 1.57349 10.6257 1.87354 10.9265C2.16919 11.2339 2.58008 11.4036 3.00635 11.3948C3.43164 11.3953 3.83936 11.2253 4.13818 10.9226L4.32788 10.7317C4.48169 10.8059 4.63916 10.8713 4.80005 10.928V11.2ZM4.65234 9.69922C4.53516 9.63696 4.40454 9.60449 4.27197 9.60425C4.06152 9.604 3.85962 9.68823 3.71143 9.83789L3.38184 10.1697C3.28247 10.2705 3.14648 10.3271 3.00488 10.3269C2.86255 10.3328 2.72485 10.2759 2.62817 10.1711C2.42017 9.96289 2.42017 9.62524 2.62817 9.41699L2.95996 9.0874C3.20972 8.83911 3.26587 8.45581 3.09814 8.14624C2.98828 7.93945 2.89917 7.72266 2.83154 7.49878C2.72998 7.16309 2.42065 6.93335 2.06982 6.93335H1.6001C1.30542 6.93335 1.06665 6.69458 1.06665 6.3999C1.06665 6.10547 1.30542 5.8667 1.6001 5.8667H2.07104C2.42114 5.86548 2.72949 5.63574 2.83032 5.30029C2.89795 5.07617 2.9873 4.85913 3.09717 4.65234C3.2644 4.34253 3.20776 3.95972 2.9585 3.71143L2.62939 3.38184C2.42114 3.17358 2.42114 2.83594 2.62939 2.62769C2.73071 2.52979 2.86548 2.47412 3.00635 2.47192C3.14819 2.47168 3.28394 2.52856 3.38354 2.62939L3.71313 2.96118C3.96167 3.21021 4.34473 3.26636 4.6543 3.09912C4.86108 2.9895 5.07788 2.90015 5.30176 2.83252C5.6377 2.73071 5.86719 2.4209 5.8667 2.06982V1.6001C5.8667 1.30542 6.10547 1.06665 6.3999 1.06665C6.69458 1.06665 6.93335 1.30542 6.93335 1.6001V2.07104C6.93408 2.42163 7.16431 2.73071 7.50024 2.83154C7.72437 2.89917 7.94116 2.98828 8.14771 3.09814C8.45728 3.26562 8.84033 3.20923 9.08862 2.95947L9.41821 2.62769C9.51758 2.52686 9.65356 2.47021 9.79517 2.47046C10.0898 2.47046 10.3286 2.70923 10.3286 3.00366C10.3281 3.14502 10.2715 3.28052 10.1711 3.38037L9.83936 3.70996C9.58984 3.95825 9.53345 4.34155 9.70142 4.65112C9.81104 4.85791 9.90039 5.07471 9.96802 5.29858C10.0686 5.6355 10.3784 5.86646 10.7302 5.8667H11.2C11.4946 5.8667 11.7334 6.10547 11.7334 6.3999C11.7334 6.69458 11.4946 6.93335 11.2 6.93335H10.729C10.3784 6.93408 10.0693 7.16431 9.96851 7.50024C9.90015 7.72437 9.80981 7.94116 9.69922 8.14771C9.53198 8.45752 9.58838 8.84033 9.83789 9.08862L10.1697 9.41821C10.3213 9.57031 10.3669 9.79834 10.2854 9.99707C10.2039 10.1958 10.011 10.3262 9.79639 10.3279C9.65454 10.3281 9.5188 10.2715 9.41919 10.1707L9.0896 9.83887C8.84106 9.58936 8.45801 9.5332 8.14819 9.70068C7.94165 9.81055 7.72485 9.8999 7.50073 9.96753C7.16382 10.0684 6.93311 10.3784 6.93335 10.7302V11.2C6.93335 11.4946 6.69458 11.7334 6.3999 11.7334C6.10547 11.7334 5.8667 11.4946 5.8667 11.2V10.729C5.86597 10.3784 5.63599 10.0696 5.30029 9.96851C5.07593 9.90063 4.85889 9.81079 4.65234 9.7002V9.69922Z" fill="black"/>
<path d="M9.06567 6.3999C9.06567 4.92725 7.87183 3.7334 6.39893 3.7334C4.92627 3.7334 3.73242 4.92725 3.73242 6.3999C3.73242 7.8728 4.92627 9.06665 6.39893 9.06665C7.87109 9.06494 9.06396 7.87207 9.06567 6.3999ZM4.79907 6.3999C4.79907 5.51636 5.51538 4.80005 6.39893 4.80005C7.28271 4.80005 7.99902 5.51636 7.99902 6.3999C7.99902 7.28369 7.28271 8 6.39893 8C5.51538 8 4.79907 7.28369 4.79907 6.3999Z" fill="black"/>
<path d="M30.3992 4.80005H30.1272C30.0708 4.63916 30.0051 4.48145 29.9309 4.32788L30.1218 4.13818C30.5798 3.6814 30.7178 2.99365 30.4712 2.39551C30.2249 1.79761 29.6423 1.40674 28.9956 1.40527H28.9929C28.5676 1.40479 28.1599 1.57471 27.8611 1.87744L27.6714 2.06836C27.5176 1.99414 27.3601 1.92871 27.1992 1.87207V1.6001C27.1992 0.716309 26.4829 0 25.5994 0C24.7156 0 23.9993 0.716309 23.9993 1.6001V1.87207C23.8384 1.92847 23.6809 1.99414 23.5273 2.06836L23.3374 1.87744C23.0386 1.57471 22.6309 1.40479 22.2056 1.40527H22.2029C21.5562 1.40674 20.9739 1.79761 20.7273 2.39551C20.4807 2.99365 20.6187 3.6814 21.0767 4.13818L21.2676 4.32788C21.1934 4.48169 21.1279 4.63916 21.0713 4.80005H20.7993C19.9155 4.80005 19.1992 5.51636 19.1992 6.3999C19.1992 7.28369 19.9155 8 20.7993 8H21.0723C21.1289 8.16089 21.1943 8.31836 21.2686 8.47192L21.0776 8.66187C20.6196 9.11865 20.4819 9.8064 20.7283 10.4043C20.9749 11.0024 21.5571 11.3933 22.2041 11.3948H22.2068C22.6321 11.3953 23.0398 11.2253 23.3384 10.9226L23.5283 10.7317C23.6816 10.8059 23.8389 10.8713 23.9993 10.928V11.2C23.9993 12.0837 24.7156 12.8 25.5994 12.8C26.4829 12.8 27.1992 12.0837 27.1992 11.2V10.928C27.3601 10.8713 27.5178 10.8059 27.6714 10.7317L27.8611 10.9226C28.1599 11.2253 28.5676 11.3953 28.9929 11.3948H28.9956C29.6423 11.3933 30.2249 11.0024 30.4712 10.4043C30.7178 9.8064 30.5798 9.11865 30.1218 8.66187L29.9309 8.47192C30.0051 8.31836 30.0706 8.16089 30.1272 8H30.3992C31.283 8 31.9993 7.28369 31.9993 6.3999C31.9993 5.51636 31.283 4.80005 30.3992 4.80005ZM30.9326 6.3999C30.9326 6.69458 30.6938 6.93335 30.3992 6.93335H29.9282C29.5776 6.93408 29.2686 7.16431 29.1677 7.50024C29.1001 7.72437 29.011 7.94116 28.9011 8.14771C28.7339 8.45752 28.7903 8.84033 29.0398 9.08862L29.3716 9.41821C29.5232 9.57031 29.5688 9.79834 29.4873 9.99707C29.4058 10.1958 29.2129 10.3262 28.9983 10.3279C28.8564 10.3281 28.7207 10.2715 28.6211 10.1707L28.2915 9.83887C28.043 9.58936 27.6599 9.5332 27.3501 9.70068C27.1436 9.81055 26.9268 9.8999 26.7026 9.96753C26.3647 10.0674 26.1328 10.3777 26.1326 10.7302V11.2C26.1326 11.4946 25.8938 11.7334 25.5994 11.7334C25.3047 11.7334 25.0659 11.4946 25.0659 11.2V10.729C25.0652 10.3784 24.8352 10.0696 24.4995 9.96851C24.2751 9.90015 24.0581 9.81006 23.8516 9.69922C23.7344 9.63696 23.6038 9.60449 23.4712 9.60425C23.2607 9.604 23.0588 9.68823 22.9106 9.83789L22.5811 10.1697C22.4817 10.2705 22.3457 10.3271 22.2041 10.3269C21.9094 10.3269 21.6707 10.0881 21.6707 9.7937C21.6719 9.65186 21.7295 9.51636 21.8308 9.41699L22.1624 9.0874C22.4121 8.83911 22.4685 8.45581 22.3005 8.14624C22.1909 7.93945 22.1016 7.72266 22.0339 7.49878C21.9321 7.16187 21.6211 6.93188 21.269 6.93335H20.7993C20.5046 6.93335 20.2659 6.69458 20.2659 6.3999C20.2659 6.10547 20.5046 5.8667 20.7993 5.8667H21.2703C21.6208 5.86597 21.9297 5.63599 22.0308 5.30029C22.0981 5.07617 22.1875 4.85913 22.2974 4.65234C22.4646 4.34253 22.4082 3.95972 22.1587 3.71143L21.8269 3.38184C21.6753 3.22974 21.6296 3.00146 21.7112 2.80298C21.7927 2.60425 21.9856 2.47388 22.2004 2.47192C22.342 2.47168 22.4778 2.52856 22.5774 2.62939L22.907 2.96118C23.1558 3.21021 23.5386 3.26636 23.8484 3.09912C24.0549 2.9895 24.2717 2.90015 24.4958 2.83252C24.8337 2.73267 25.0657 2.42236 25.0659 2.06982V1.6001C25.0659 1.30542 25.3047 1.06665 25.5994 1.06665C25.8938 1.06665 26.1326 1.30542 26.1326 1.6001V2.07104C26.1333 2.42163 26.3635 2.73071 26.6995 2.83154C26.9236 2.89917 27.1404 2.98828 27.3469 3.09814C27.6567 3.26562 28.0398 3.20923 28.2878 2.95947L28.6174 2.62769C28.7168 2.52686 28.8528 2.47021 28.9944 2.47046C29.2891 2.47046 29.5278 2.70923 29.5278 3.00366C29.5266 3.14551 29.469 3.28101 29.3679 3.38037L29.0361 3.70996C28.7864 3.95825 28.7302 4.34155 28.8979 4.65112C29.0076 4.85791 29.0969 5.07471 29.1646 5.29858C29.2656 5.63647 29.5767 5.86768 29.9294 5.8667H30.3992C30.6938 5.8667 30.9326 6.10547 30.9326 6.3999Z" fill="black"/>
<path d="M25.6003 3.7334C24.1274 3.7334 22.9336 4.92725 22.9336 6.3999C22.9336 7.8728 24.1274 9.06665 25.6003 9.06665C27.073 9.06665 28.2668 7.8728 28.2668 6.3999C28.2651 4.92798 27.0723 3.73511 25.6003 3.7334ZM25.6003 8C24.7166 8 24.0002 7.28369 24.0002 6.3999C24.0002 5.51636 24.7166 4.80005 25.6003 4.80005C26.4839 4.80005 27.2002 5.51636 27.2002 6.3999C27.2002 6.82446 27.0317 7.2312 26.7317 7.53125C26.4316 7.83154 26.0247 8 25.6003 8Z" fill="black"/>
<path d="M25.0674 18.3269H23.9187C23.7698 17.8503 23.5779 17.3882 23.3452 16.946L24.157 16.1396C24.5583 15.74 24.7844 15.197 24.7852 14.6306C24.7859 14.0642 24.561 13.5208 24.1606 13.1201L23.6807 12.6399C23.2817 12.2385 22.7385 12.0137 22.1724 12.0154H22.1692C21.6018 12.0146 21.0579 12.2412 20.6589 12.6448L19.853 13.4565C19.4111 13.2239 18.949 13.032 18.4722 12.8833V11.7334C18.4722 10.5552 17.5171 9.6001 16.3389 9.6001H15.6609C14.4829 9.6001 13.5276 10.5552 13.5276 11.7334V12.8821C13.051 13.031 12.5889 13.2229 12.147 13.4556L11.3406 12.6438C10.9419 12.2402 10.3979 12.0134 9.83057 12.0144H9.82739C9.26172 12.0134 8.71924 12.2385 8.3208 12.6399L7.84082 13.1201C7.4397 13.521 7.21484 14.0649 7.21582 14.6318C7.2168 15.199 7.44336 15.7422 7.84546 16.1418L8.65723 16.9478C8.42456 17.3896 8.23267 17.8518 8.08398 18.3286H6.93408C5.75586 18.3286 4.80078 19.2837 4.80078 20.4619V21.1414C4.80078 22.3196 5.75586 23.2747 6.93408 23.2747H8.08276C8.23169 23.7515 8.42358 24.2136 8.65625 24.6555L7.84448 25.4619C7.4436 25.8616 7.21777 26.4041 7.21729 26.9702C7.21655 27.5361 7.44092 28.0793 7.84082 28.48L8.3208 28.96C8.71973 29.3616 9.26294 29.5867 9.8291 29.5845H9.83228C10.3997 29.5854 10.9436 29.3586 11.3425 28.9551L12.1484 28.1436C12.5903 28.3762 13.0525 28.5681 13.5293 28.7168V29.8667C13.5293 31.0449 14.4844 32 15.6626 32H16.342C17.5203 32 18.4753 31.0449 18.4753 29.8667V28.7178C18.9521 28.5691 19.4143 28.3772 19.8562 28.1445L20.6626 28.9563C21.0613 29.3599 21.6052 29.5867 22.1724 29.5857H22.1758C22.7407 29.5862 23.2827 29.3611 23.6807 28.96L24.1606 28.48C24.5618 28.0791 24.7866 27.5352 24.7856 26.968C24.7847 26.4011 24.5581 25.8577 24.156 25.4583L23.3442 24.6523C23.5769 24.2104 23.7688 23.7483 23.9175 23.2715H25.0674C26.2456 23.2715 27.2007 22.3164 27.2007 21.1382V20.4602C27.2007 19.282 26.2456 18.3269 25.0674 18.3269ZM26.134 21.1396C26.134 21.7288 25.6565 22.2063 25.0674 22.2063H23.8738C23.4277 22.2075 23.0354 22.501 22.9084 22.9285C22.7751 23.3621 22.6008 23.782 22.3879 24.1824C22.1738 24.5757 22.2444 25.063 22.5613 25.3792L23.405 26.2166C23.6057 26.4167 23.7188 26.6885 23.7188 26.9719C23.7188 27.2556 23.6057 27.5273 23.405 27.7275L22.925 28.2075C22.7256 28.4082 22.4539 28.5208 22.1709 28.52C21.8872 28.5203 21.6155 28.4067 21.4163 28.2048L20.5789 27.3601C20.2627 27.0437 19.7759 26.9734 19.3831 27.1873C18.9827 27.4004 18.5625 27.5747 18.1287 27.7078C17.7014 27.835 17.4082 28.2273 17.4072 28.6731V29.8667C17.4072 30.4558 16.9297 30.9333 16.3406 30.9333H15.6609C15.0718 30.9333 14.5942 30.4558 14.5942 29.8667V28.6731C14.5933 28.2271 14.2998 27.8347 13.8723 27.7078C13.4385 27.5745 13.0183 27.3999 12.6179 27.1868C12.4685 27.1069 12.3022 27.0652 12.1331 27.0652C11.866 27.0649 11.6099 27.1714 11.4216 27.3606L10.5842 28.2043C10.3848 28.406 10.1128 28.5195 9.8291 28.5195C9.5459 28.5203 9.27441 28.4077 9.07495 28.207L8.59497 27.7271C8.39453 27.5264 8.28223 27.2546 8.28271 26.9712C8.28345 26.6877 8.39648 26.4163 8.59741 26.2166L9.44067 25.3782C9.75732 25.062 9.82764 24.5752 9.61353 24.1824C9.40039 23.7817 9.22607 23.3618 9.09302 22.928C8.96582 22.5007 8.57349 22.2075 8.12769 22.2063H6.93408C6.34497 22.2063 5.86743 21.7288 5.86743 21.1396V20.4602C5.86743 19.8711 6.34497 19.3936 6.93408 19.3936H8.12769C8.57373 19.3926 8.96606 19.0989 9.09302 18.6714C9.22632 18.2378 9.40063 17.8181 9.61353 17.4175C9.82764 17.0244 9.75708 16.5371 9.44019 16.2207L8.59644 15.3835C8.39526 15.1836 8.28198 14.9121 8.28149 14.6287C8.28101 14.345 8.39331 14.073 8.59375 13.8726L9.07373 13.3926C9.27344 13.1919 9.54492 13.0793 9.82788 13.0801C10.1116 13.0798 10.3833 13.1934 10.5825 13.3953L11.4226 14.24C11.7388 14.5566 12.2256 14.627 12.6184 14.4128C13.0188 14.1997 13.439 14.0254 13.8728 13.8923C14.3 13.7651 14.5933 13.3728 14.5942 12.927V11.7334C14.5942 11.1443 15.0718 10.6667 15.6609 10.6667H16.3406C16.6233 10.6667 16.8948 10.7791 17.0947 10.979C17.2947 11.1792 17.4072 11.4504 17.4072 11.7334V12.927C17.4082 13.3728 17.7017 13.7654 18.1292 13.8923C18.563 14.0256 18.9832 14.2 19.3835 14.4133C19.7769 14.6267 20.2637 14.5559 20.5798 14.2395L21.4172 13.3958C21.6167 13.1938 21.8887 13.0803 22.1724 13.0806C22.4556 13.0798 22.7271 13.1924 22.9265 13.3931L23.4065 13.873C23.6072 14.0732 23.72 14.345 23.72 14.6282C23.72 14.9116 23.6072 15.1833 23.4065 15.3835L22.5608 16.2219C22.2441 16.5378 22.1738 17.0249 22.3879 17.4175C22.6011 17.8181 22.7754 18.2383 22.9084 18.6721C23.0356 19.0994 23.428 19.3926 23.8738 19.3936H25.0674C25.6565 19.3936 26.134 19.8711 26.134 20.4602V21.1396Z" fill="black"/>
<path d="M15.9995 14.9333C12.7595 14.9333 10.1328 17.5598 10.1328 20.8C10.1328 24.04 12.7595 26.6667 15.9995 26.6667C19.2395 26.6667 21.8662 24.04 21.8662 20.8C21.8623 17.5615 19.238 14.9373 15.9995 14.9333ZM14.3994 19.7334C14.3994 18.8496 15.116 18.1333 15.9995 18.1333C16.8831 18.1333 17.5996 18.8496 17.5996 19.7334C17.5996 20.6169 16.8831 21.3333 15.9995 21.3333C15.116 21.3333 14.3994 20.6169 14.3994 19.7334ZM18.9717 24.5632C18.9148 24.6079 18.8572 24.6511 18.7991 24.6934C18.7214 24.748 18.6428 24.8015 18.5632 24.8533C18.5029 24.8918 18.4421 24.929 18.3804 24.9648C18.2976 25.0117 18.2134 25.0554 18.1287 25.0977C18.0652 25.1284 18.0022 25.1606 17.9377 25.1887C17.8491 25.2278 17.759 25.2625 17.6709 25.2954C17.6064 25.3196 17.5425 25.3445 17.4768 25.366C17.3813 25.3967 17.2837 25.4219 17.1863 25.4463C17.1233 25.4624 17.0608 25.481 16.9973 25.4949C16.8879 25.5178 16.7771 25.5339 16.6667 25.5483C16.6226 25.5542 16.5793 25.5632 16.5349 25.5681V24C16.5349 23.7056 16.2961 23.4666 16.0017 23.4666C15.707 23.4666 15.4683 23.7056 15.4683 24V25.5681C15.4241 25.5632 15.3809 25.5542 15.3372 25.5483C15.2261 25.5327 15.1152 25.5168 15.0059 25.4949C14.9424 25.481 14.8801 25.4629 14.8171 25.4463C14.7195 25.4219 14.6218 25.3967 14.5259 25.366C14.4609 25.3445 14.3967 25.3196 14.3328 25.2954C14.2422 25.262 14.1521 25.2273 14.0662 25.1887C14.0017 25.1606 13.9387 25.1284 13.8752 25.0977C13.7905 25.0554 13.7063 25.0117 13.6235 24.9644C13.5615 24.929 13.5007 24.8918 13.4407 24.8533C13.3606 24.8027 13.282 24.7495 13.2048 24.6934C13.1465 24.6516 13.0889 24.6086 13.032 24.5637C12.9573 24.5051 12.8848 24.4431 12.8135 24.3792C12.76 24.3318 12.7068 24.2837 12.6533 24.2332C12.6289 24.2097 12.6069 24.1833 12.583 24.1594C13.3284 23.0076 14.6289 22.3379 15.9995 22.3999C17.3716 22.3364 18.6738 23.0068 19.4197 24.1599C19.3962 24.1841 19.374 24.2097 19.3499 24.2332C19.2966 24.2837 19.2432 24.3323 19.1899 24.3804C19.1184 24.4426 19.0459 24.5046 18.9717 24.5632ZM20.1077 23.2832C19.5388 22.52 18.748 21.9507 17.8438 21.6533C18.6304 20.9001 18.8799 19.7441 18.4741 18.7336C18.0684 17.7229 17.0886 17.0605 15.9995 17.0605C14.9104 17.0605 13.9307 17.7229 13.5249 18.7336C13.1191 19.7441 13.3687 20.9001 14.1553 21.6533C13.2517 21.9504 12.4617 22.5188 11.8928 23.281C10.6758 21.2666 11.0986 18.667 12.8914 17.1423C14.6841 15.6174 17.3181 15.6174 19.1108 17.1423C20.9036 18.667 21.3264 21.2666 20.1094 23.281L20.1077 23.2832Z" fill="black"/>
</g>
<defs>
<clipPath id="clip0_326_5857">
<rect width="32" height="32" fill="white"/>
</clipPath>
</defs>
</svg>
