<svg width="33" height="32" viewBox="0 0 33 32" fill="none" xmlns="http://www.w3.org/2000/svg">
<g clip-path="url(#clip0_326_5865)">
<path d="M4.51407 19.969C4.5907 20.0132 4.67688 20.0359 4.76382 20.0359C4.80713 20.0359 4.8507 20.0302 4.8932 20.0189L7.6747 19.273C7.80963 19.2368 7.92326 19.1458 7.98801 19.022C8.05276 18.8982 8.0627 18.753 8.01551 18.6215C7.82707 18.0971 7.68176 17.5527 7.58357 17.0034C7.55888 16.8657 7.47776 16.7447 7.3597 16.6697C7.24157 16.5946 7.09757 16.5727 6.96245 16.6087L4.1792 17.3546C4.0512 17.3889 3.94207 17.4727 3.87582 17.5874C3.80957 17.7022 3.79157 17.8386 3.82588 17.9665L4.2812 19.6656C4.31551 19.7936 4.39932 19.9027 4.51407 19.969ZM6.70876 17.7113C6.76563 17.958 6.83101 18.2029 6.90463 18.445L5.11701 18.9243L4.92038 18.1905L6.70876 17.7113ZM15.5822 25.0069L15.5609 25.0033C15.4944 24.9922 15.4268 24.9794 15.3543 24.9639L15.318 24.9565C15.2521 24.9434 15.1864 24.9286 15.1205 24.9137L15.0719 24.9021C15.0108 24.8876 14.9495 24.873 14.8883 24.8569C14.8804 24.8549 14.8724 24.853 14.8644 24.8513L14.8378 24.844C14.8356 24.8434 14.8334 24.8427 14.8311 24.8422C14.772 24.827 14.7112 24.81 14.6504 24.7932C14.6463 24.792 14.6421 24.791 14.6379 24.7899C14.6292 24.7877 14.6211 24.7857 14.6124 24.7828C14.6027 24.7795 14.5929 24.7766 14.5829 24.774C14.5367 24.7617 14.4879 24.7472 14.4295 24.7284C14.4272 24.7276 14.4248 24.7269 14.4224 24.7262L14.3539 24.7055C14.3017 24.6892 14.2511 24.673 14.1957 24.654L14.1197 24.6287C14.0959 24.6205 14.0723 24.6119 14.0486 24.6033C14.0211 24.5934 13.9935 24.5834 13.966 24.5739C13.9135 24.5557 13.8566 24.5465 13.801 24.5465C13.5749 24.5465 13.377 24.6984 13.3184 24.9167L12.5726 27.6982C12.5382 27.8262 12.5561 27.9626 12.6224 28.0774C12.6888 28.1922 12.7979 28.276 12.9259 28.3102L14.6267 28.7655C14.6693 28.777 14.7126 28.7825 14.7559 28.7825C14.8429 28.7825 14.9292 28.7598 15.0059 28.7155C15.1206 28.6492 15.2043 28.54 15.2386 28.412L15.9826 25.6287C16.019 25.4927 15.9963 25.3476 15.92 25.2292C15.8437 25.1107 15.721 25.03 15.5821 25.0069H15.5822ZM14.4024 27.671L13.6671 27.4743L14.1464 25.687C14.2068 25.7062 14.2606 25.7221 14.3131 25.7363C14.3387 25.7444 14.3631 25.7511 14.3889 25.7577C14.4523 25.7753 14.5156 25.7929 14.5774 25.8087L14.5848 25.8108C14.6055 25.8165 14.6254 25.8218 14.6451 25.8262C14.7104 25.8432 14.7758 25.8588 14.8411 25.8744L14.8803 25.8837L14.4024 27.671ZM30.5545 12.4479L28.2753 11.9304C28.0604 11.2199 27.7749 10.53 27.4237 9.87273L28.6678 7.89567C29.1866 7.07379 29.1598 6.21548 28.5988 5.65667L26.9368 3.99292C26.3756 3.43186 25.517 3.40529 24.6963 3.92336L22.7186 5.16779C22.0658 4.81917 21.3766 4.53379 20.6626 4.31679L20.1433 2.03842C19.9278 1.09167 19.3019 0.503418 18.5099 0.503418H16.1589C15.367 0.503418 14.7411 1.09161 14.5255 2.03854L14.0079 4.31667C13.2956 4.53298 12.6058 4.81836 11.9506 5.16786L9.97445 3.92329C9.1512 3.40529 8.29245 3.43223 7.73401 3.99286L6.07045 5.65642C5.51145 6.21529 5.4847 7.07298 6.00088 7.89504L7.24532 9.87273C6.89638 10.526 6.61113 11.2158 6.39426 11.9303L4.11595 12.4479C3.1692 12.6635 2.58095 13.2894 2.58095 14.0814V15.2577C2.58095 15.5336 2.80463 15.7573 3.08057 15.7573H8.5472C8.63382 17.3146 9.12357 18.7999 9.98257 20.1001L8.55582 21.5255C7.9372 21.2872 7.2082 21.4167 6.70995 21.9148L1.59532 27.0297C0.921383 27.7037 0.921383 28.8003 1.59513 29.474L3.11782 30.9985C3.45457 31.334 3.89682 31.5017 4.3392 31.5017C4.78157 31.5017 5.22451 31.3338 5.56176 30.9979L10.6783 25.8814L10.6789 25.8807C11.175 25.3827 11.3039 24.654 11.0662 24.0354L12.4927 22.6089C13.7928 23.4689 15.2782 23.9592 16.8358 24.0459V29.5125C16.8358 29.7885 17.0594 30.0122 17.3354 30.0122H18.51C19.3019 30.0122 19.9279 29.424 20.1434 28.4772L20.6628 26.197C21.3766 25.98 22.0659 25.6947 22.7186 25.346L24.6958 26.5901C25.5169 27.1084 26.3757 27.082 26.9368 26.5209L28.5986 24.8591C29.1596 24.298 29.1861 23.4393 28.6681 22.6187L27.4237 20.641C27.7747 19.9844 28.0602 19.295 28.2751 18.585L30.5549 18.0658C31.5016 17.8502 32.0898 17.2243 32.0898 16.4324V14.0814C32.0898 13.2895 31.5016 12.6636 30.5545 12.4479ZM9.97107 25.1755L4.85588 30.2907C4.57107 30.5744 4.10782 30.5744 3.82388 30.2915L2.30182 28.7677C2.01745 28.4834 2.01745 28.0207 2.30182 27.7363L7.41663 22.6215C7.55876 22.4794 7.74551 22.4082 7.93226 22.4082C8.11901 22.4082 8.30595 22.4794 8.44826 22.6217L9.97101 24.1427C10.2546 24.4274 10.2546 24.8908 9.97101 25.1755H9.97107ZM12.0818 21.6067L10.4648 23.2236L9.36732 22.1274L10.9845 20.5117C11.1589 20.3374 11.1802 20.062 11.0346 19.8631C10.0511 18.5195 9.53119 16.9269 9.53119 15.2577C9.53119 10.9535 13.0321 7.45186 17.3353 7.45186C21.6385 7.45186 25.1394 10.9535 25.1394 15.2577C25.1394 19.562 21.6385 23.0619 17.3353 23.0619C15.666 23.0619 14.0736 22.5415 12.7303 21.557C12.5314 21.4112 12.2559 21.4322 12.0816 21.6067H12.0818ZM31.0905 16.4324C31.0905 16.8715 30.5607 17.0397 30.333 17.0915L27.7659 17.6762C27.5861 17.717 27.4436 17.8537 27.3949 18.0315C27.1682 18.8599 26.8367 19.6604 26.4097 20.4107C26.3186 20.5708 26.3229 20.768 26.4211 20.9239L27.8228 23.1515C27.9473 23.3487 28.2034 23.8412 27.892 24.1526L26.2302 25.8144C25.9188 26.1258 25.4263 25.8698 25.2285 25.7449L23.0015 24.3435C22.8456 24.2454 22.6484 24.241 22.4883 24.3321C21.744 24.7557 20.9432 25.0873 20.1081 25.3176C19.9308 25.3665 19.7946 25.5089 19.7538 25.6883L19.1692 28.2555C19.1173 28.4833 18.9493 29.013 18.5101 29.013H17.8351V24.0468C22.4576 23.7869 26.1388 19.9444 26.1388 15.2579C26.1388 10.4027 22.1896 6.45273 17.3354 6.45273C12.6489 6.45273 8.80638 10.1347 8.54645 14.7582H3.58032V14.0815C3.58032 13.6424 4.11013 13.4742 4.33763 13.4224L6.90301 12.8396C7.08263 12.7989 7.2252 12.6625 7.27407 12.4849C7.50401 11.6494 7.83545 10.8481 8.25945 10.1033C8.35057 9.94317 8.3462 9.74598 8.24807 9.59004L6.84695 7.36348C6.72288 7.16586 6.46763 6.67267 6.77713 6.36317L8.44145 4.69892C8.75076 4.38823 9.24451 4.64467 9.44232 4.76904L11.6675 6.17042C11.8233 6.26867 12.0204 6.27311 12.1804 6.18217C12.9287 5.75717 13.7301 5.42561 14.5626 5.19648C14.7401 5.14767 14.8764 5.00511 14.9172 4.82548L15.5 2.26029C15.5519 2.03248 15.7199 1.50279 16.1591 1.50279H18.5101C18.9493 1.50279 19.1174 2.03254 19.1693 2.26042L19.7539 4.82579C19.7948 5.00511 19.9309 5.14748 20.1082 5.19642C20.9433 5.42673 21.7441 5.75823 22.4883 6.18192C22.6484 6.27298 22.8457 6.26873 23.0016 6.17054L25.2291 4.76879C25.4264 4.64429 25.9189 4.38817 26.2301 4.69942L27.8928 6.36392C28.2034 6.67323 27.9474 7.16529 27.8226 7.36304L26.4212 9.59004C26.3231 9.74598 26.3187 9.94317 26.4098 10.1033C26.8371 10.8541 27.1686 11.655 27.3949 12.484C27.4435 12.6621 27.5863 12.7988 27.7663 12.8396L30.333 13.4224C30.5608 13.4742 31.0906 13.6424 31.0906 14.0815V16.4325L31.0905 16.4324ZM23.7064 15.2577C23.7064 11.7439 20.8484 8.88511 17.3354 8.88511C13.8225 8.88511 10.9628 11.7439 10.9628 15.2577C10.9628 18.7716 13.8215 21.6287 17.3354 21.6287C20.8494 21.6287 23.7064 18.7707 23.7064 15.2577ZM14.6284 19.895V19.0207C14.6284 17.529 15.8428 16.3155 17.3354 16.3155C18.8281 16.3155 20.0407 17.529 20.0407 19.0207V19.8955C19.2456 20.3611 18.3215 20.6294 17.3354 20.6294C16.3494 20.6294 15.4239 20.3609 14.6284 19.895ZM15.8224 13.8014C15.8224 12.9672 16.5011 12.2885 17.3354 12.2885C18.1698 12.2885 18.8484 12.9672 18.8484 13.8014C18.8484 14.6357 18.1697 15.3162 17.3354 15.3162C16.5012 15.3162 15.8224 14.6367 15.8224 13.8014ZM11.962 15.2577C11.962 12.2949 14.3724 9.88436 17.3354 9.88436C20.2984 9.88436 22.7071 12.2948 22.7071 15.2577C22.7071 16.7844 22.0659 18.1632 21.0399 19.142V19.0207C21.0399 17.5676 20.1986 16.3079 18.9778 15.7014C19.5099 15.2401 19.8476 14.5597 19.8476 13.8014C19.8476 12.4162 18.7206 11.2892 17.3354 11.2892C15.9503 11.2892 14.8232 12.4162 14.8232 13.8014C14.8232 14.5595 15.1608 15.2398 15.6928 15.7012C14.4711 16.3076 13.6291 17.5675 13.6291 19.0207V19.1415C12.6032 18.1626 11.9621 16.784 11.9621 15.2577H11.962Z" fill="black"/>
</g>
<defs>
<clipPath id="clip0_326_5865">
<rect width="32" height="32" fill="white" transform="translate(0.333984)"/>
</clipPath>
</defs>
</svg>
