<svg width="32" height="32" viewBox="0 0 32 32" fill="none" xmlns="http://www.w3.org/2000/svg">
<g clip-path="url(#clip0_326_5904)">
<path d="M12.6154 6.46179H8.35197C7.95864 6.46882 7.64258 6.79191 7.64258 7.18523V24.9552C7.6496 25.3345 7.95864 25.6435 8.33792 25.6365C8.34495 25.6365 8.34495 25.6365 8.35197 25.6365H12.6154C13.0017 25.6365 13.3318 25.3415 13.3318 24.9552V7.18523C13.3248 6.79191 13.0087 6.46882 12.6154 6.46179ZM11.927 24.2318H9.04732V18.4021H11.927V24.2318ZM11.927 16.9973H9.04732V7.86653H11.927V16.9973Z" fill="black"/>
<path d="M5.0224 12.151H0.759011C0.379731 12.144 0.0636643 12.453 0.0566406 12.8323V12.8393V24.9552C0.0566406 25.3345 0.365684 25.6365 0.744964 25.6365C0.751987 25.6365 0.751987 25.6365 0.759011 25.6365H5.0224C5.4087 25.6365 5.74584 25.3415 5.74584 24.9552V12.8393C5.74584 12.453 5.4087 12.151 5.0224 12.151ZM4.3411 24.2318H1.46138V18.4021H4.3411V24.2318ZM4.3411 16.9974H1.46138V13.5557H4.3411V16.9974Z" fill="black"/>
<path d="M30.0549 21.7735H29.8371V18.7744C29.8301 18.5285 29.7037 18.2968 29.486 18.1703C29.2752 18.0439 29.0083 18.0369 28.7906 18.1493L28.5729 18.2616V0.723442C28.5799 0.330114 28.2709 0.0070237 27.8775 0H23.5369C23.1436 0.0070237 22.8205 0.330114 22.8134 0.723442V21.2678L21.8512 21.7735H20.917V3.95435C20.917 3.56102 20.601 3.23793 20.2076 3.2309H15.9443C15.5509 3.23793 15.2349 3.56102 15.2278 3.95435V23.7401C15.0874 24.1405 14.9609 24.5759 14.9609 25.0325C14.9609 26.5145 15.9653 27.8139 17.4052 28.1791V31.1923C17.4122 31.5786 17.7213 31.8806 18.1076 31.8806H18.1146H20.4324C20.7555 31.8876 21.0364 31.6699 21.1137 31.3538L21.8723 28.2915L28.7906 31.9157C28.8889 31.9719 29.0013 32 29.1137 32C29.2472 32 29.3736 31.9649 29.486 31.9017C29.6967 31.7752 29.8301 31.5505 29.8371 31.3047V28.1651H30.0549C31.0874 28.1791 31.9372 27.3433 31.9443 26.3108C31.9443 26.3038 31.9443 26.3038 31.9443 26.2968V23.6699C31.9443 22.6234 31.0944 21.7735 30.0549 21.7735ZM16.6326 4.63565H19.5123V16.9974H16.6326V4.63565ZM16.6326 18.4021H19.5123V21.7735H18.227C17.6721 21.7805 17.1242 21.928 16.6326 22.1949V18.4021ZM19.8775 30.4829H18.8099V28.3055H20.4254L19.8775 30.4829ZM21.3385 26.9008H18.227C17.2015 26.8938 16.3797 26.065 16.3797 25.0395C16.3797 24.014 17.2015 23.1852 18.227 23.1782H21.3385V26.9008ZM24.2182 1.40474H27.1681V16.9974H24.2182V1.40474ZM24.2182 18.4021H27.1681V18.9921L24.2182 20.5303V18.4021ZM28.4324 30.1457L22.7432 27.1677V22.9183L28.4324 19.9403V30.1457ZM30.5395 26.2968C30.5395 26.5566 30.3288 26.7603 30.0689 26.7603C30.0619 26.7603 30.0549 26.7603 30.0549 26.7603H29.8371V23.1782H30.0549C30.3218 23.1782 30.5395 23.396 30.5395 23.6699V26.2968Z" fill="black"/>
</g>
<defs>
<clipPath id="clip0_326_5904">
<rect width="32" height="32" fill="white"/>
</clipPath>
</defs>
</svg>
