<svg width="33" height="32" viewBox="0 0 33 32" fill="none" xmlns="http://www.w3.org/2000/svg">
<g clip-path="url(#clip0_326_5915)">
<path d="M25.834 4.49951C24.6473 4.49951 23.4873 4.85141 22.5006 5.51069C21.5139 6.16998 20.7448 7.10705 20.2907 8.20341C19.8366 9.29977 19.7178 10.5062 19.9493 11.6701C20.1808 12.8339 20.7522 13.903 21.5913 14.7422C22.4305 15.5813 23.4996 16.1527 24.6634 16.3842C25.8273 16.6157 27.0337 16.4969 28.1301 16.0428C29.2264 15.5887 30.1635 14.8196 30.8228 13.8329C31.4821 12.8462 31.834 11.6862 31.834 10.4995C31.8322 8.90876 31.1995 7.38367 30.0747 6.25883C28.9498 5.134 27.4247 4.50129 25.834 4.49951ZM29.8674 7.55695C29.4805 7.66262 29.0882 7.74764 28.6923 7.81165C28.5831 7.44717 28.4499 7.09035 28.2933 6.74356C28.491 6.68668 28.6854 6.61878 28.8756 6.54019C29.2526 6.83054 29.5865 7.17286 29.8674 7.55695ZM26.334 13.9405V12.9723C26.7984 12.9841 27.252 13.0113 27.6879 13.0545C27.5789 13.3904 27.4462 13.7182 27.2909 14.0354C26.9737 13.9877 26.6543 13.956 26.334 13.9405ZM24.3771 14.0354C24.2217 13.7182 24.0891 13.3904 23.9801 13.0544C24.4159 13.0113 24.8696 12.984 25.334 12.9723V13.9405C25.0136 13.956 24.6943 13.9876 24.3771 14.0354ZM25.334 7.05851V8.02675C24.8696 8.015 24.4159 7.98771 23.9801 7.94459C24.0891 7.60863 24.2217 7.28082 24.3771 6.96364C24.6943 7.01138 25.0136 7.04305 25.334 7.05851ZM27.2909 6.96364C27.4462 7.28082 27.5789 7.60863 27.6879 7.94459C27.252 7.98771 26.7984 8.015 26.334 8.02675V7.05851C26.6543 7.04305 26.9737 7.01138 27.2909 6.96364ZM26.334 9.02651C26.8836 9.01311 27.4225 8.98013 27.9374 8.92451C28.0043 9.27965 28.0483 9.63872 28.0692 9.99951H26.334V9.02651ZM25.334 9.02651V9.99951H23.5988C23.6196 9.63872 23.6637 9.27965 23.7306 8.92451C24.2454 8.98012 24.7843 9.0131 25.334 9.02651ZM22.5989 9.99951H20.8593C20.9139 9.46261 21.0559 8.93824 21.2797 8.44715C21.7583 8.59044 22.2455 8.70306 22.7384 8.78433C22.6657 9.18596 22.6191 9.59187 22.5989 9.99951ZM22.5989 10.9995C22.6191 11.4072 22.6657 11.8131 22.7384 12.2147C22.2455 12.296 21.7583 12.4086 21.2797 12.5519C21.0559 12.0608 20.9139 11.5364 20.8593 10.9995H22.5989ZM23.5988 10.9995H25.334V11.9725C24.7843 11.9859 24.2454 12.0189 23.7306 12.0745C23.6637 11.7194 23.6196 11.3603 23.5988 10.9995ZM26.334 11.9725V10.9995H28.0692C28.0483 11.3603 28.0043 11.7194 27.9374 12.0745C27.4225 12.0189 26.8836 11.9859 26.334 11.9725ZM29.069 10.9995H30.8086C30.754 11.5365 30.6121 12.0608 30.3883 12.5519C29.9097 12.4087 29.4225 12.296 28.9296 12.2147C29.0023 11.8131 29.0488 11.4072 29.069 10.9995ZM29.069 9.99955C29.0488 9.5919 29.0022 9.18599 28.9296 8.78437C29.4225 8.70308 29.9097 8.59045 30.3883 8.44715C30.6121 8.93826 30.754 9.46264 30.8086 9.99955H29.069ZM27.7042 5.86591C27.0906 6.00481 26.4632 6.07363 25.834 6.07106C25.2048 6.07361 24.5774 6.00478 23.9637 5.86589C25.1627 5.37739 26.5052 5.37742 27.7042 5.86591ZM22.7924 6.54023C22.9826 6.61881 23.1769 6.68671 23.3746 6.7436C23.2181 7.09039 23.0848 7.4472 22.9757 7.81168C22.5797 7.74768 22.1875 7.66266 21.8006 7.55698C22.0815 7.17289 22.4154 6.83058 22.7924 6.54023ZM21.8006 13.4421C22.1875 13.3364 22.5797 13.2514 22.9757 13.1874C23.0848 13.5519 23.2181 13.9087 23.3746 14.2555C23.1769 14.3124 22.9826 14.3803 22.7924 14.4589C22.4154 14.1685 22.0815 13.8262 21.8006 13.4421ZM23.9637 15.1332C25.1956 14.8596 26.4724 14.8596 27.7042 15.1332C26.5053 15.6217 25.1627 15.6217 23.9637 15.1332ZM28.8756 14.4589C28.6854 14.3803 28.491 14.3124 28.2933 14.2555C28.4499 13.9087 28.5831 13.5519 28.6923 13.1874C29.0882 13.2514 29.4805 13.3364 29.8674 13.4421C29.5865 13.8262 29.2526 14.1685 28.8756 14.4589Z" fill="black"/>
<path d="M31.334 18.4995H20.834C20.7683 18.4995 20.7033 18.5124 20.6426 18.5375C20.582 18.5626 20.5268 18.5995 20.4804 18.6459C20.434 18.6923 20.3971 18.7474 20.372 18.8081C20.3469 18.8688 20.334 18.9338 20.334 18.9995V21.4995H18.334V19.5005C18.3323 18.8951 18.1117 18.3108 17.7128 17.8553C17.314 17.3999 16.7639 17.1041 16.1641 17.0224L15.834 16.9785L15.8354 14.7002L19.5244 13.0324C19.6355 12.9822 19.7244 12.893 19.7744 12.7818C19.8244 12.6706 19.8321 12.5449 19.7959 12.4284L19.3662 11.0466C19.3343 10.9348 19.2624 10.8387 19.1644 10.7763C19.0663 10.7139 18.9488 10.6896 18.834 10.708V3.33567C18.834 3.24579 18.8098 3.15758 18.7639 3.0803C18.718 3.00301 18.6521 2.93951 18.5732 2.89646C18.0685 2.60598 17.4894 2.47054 16.9082 2.50706C16.4833 2.54725 16.0719 2.67741 15.7012 2.88889C15.4611 3.02639 15.1994 3.12192 14.9272 3.17136C14.4544 3.22474 13.9764 3.1266 13.563 2.89109C13.4868 2.85183 13.4017 2.83282 13.316 2.83591C13.2303 2.83899 13.1469 2.86406 13.0737 2.90871C13.0005 2.95335 12.94 3.01607 12.898 3.09085C12.856 3.16562 12.834 3.24993 12.834 3.33567V6.64451C12.834 6.73636 12.8592 6.82644 12.907 6.90486C12.9548 6.98329 13.0233 7.04703 13.105 7.08909C13.5851 7.34903 14.1206 7.48978 14.6665 7.49949C14.8028 7.49955 14.9389 7.48952 15.0737 7.46946C15.4515 7.40552 15.8157 7.27754 16.1504 7.09104C16.4046 6.93977 16.6884 6.84486 16.9824 6.81272C17.2739 6.79639 17.5653 6.84721 17.834 6.96128V10.9995H18.0019L15.0737 12.122C15.2421 11.8163 15.3316 11.4735 15.334 11.1245C15.334 10.5609 15.1101 10.0204 14.7116 9.62187C14.3131 9.22336 13.7726 8.99948 13.209 8.99948C12.6454 8.99948 12.1049 9.22336 11.7064 9.62187C11.3079 10.0204 11.084 10.5609 11.084 11.1245C11.0851 11.5231 11.1994 11.9132 11.4135 12.2495H11.334C10.8037 12.25 10.2953 12.4609 9.9204 12.8359C9.54545 13.2108 9.33455 13.7192 9.33398 14.2495V19.2495C9.33397 19.3151 9.34689 19.3802 9.37201 19.4408C9.39713 19.5015 9.43396 19.5566 9.48039 19.6031C9.52682 19.6495 9.58195 19.6863 9.64262 19.7115C9.70329 19.7366 9.76832 19.7495 9.83398 19.7495H10.834V24.4995H9.83398C9.76832 24.4995 9.70329 24.5124 9.64262 24.5375C9.58195 24.5626 9.52682 24.5995 9.48039 24.6459C9.43396 24.6923 9.39713 24.7474 9.37201 24.8081C9.34689 24.8688 9.33397 24.9338 9.33398 24.9995V27.4995H7.3341L7.33545 22.4995H8.33398C8.39965 22.4995 8.46468 22.4866 8.52535 22.4615C8.58602 22.4363 8.64114 22.3995 8.68758 22.3531C8.73401 22.3066 8.77084 22.2515 8.79596 22.1908C8.82108 22.1302 8.834 22.0651 8.83398 21.9995V17.4995C8.83342 16.9692 8.62252 16.4608 8.24757 16.0859C7.87262 15.7109 7.36424 15.5 6.83398 15.4995H6.62942C6.84356 15.1632 6.95784 14.7731 6.95898 14.3745C6.95898 13.8109 6.7351 13.2704 6.33659 12.8719C5.93807 12.4734 5.39757 12.2495 4.83398 12.2495C4.2704 12.2495 3.7299 12.4734 3.33138 12.8719C2.93287 13.2704 2.70898 13.8109 2.70898 14.3745C2.71013 14.7731 2.82441 15.1632 3.03854 15.4995H2.83398C2.30373 15.5 1.79535 15.7109 1.4204 16.0859C1.04545 16.4608 0.834551 16.9692 0.833984 17.4995V21.9995C0.833967 22.0651 0.846889 22.1302 0.87201 22.1908C0.897131 22.2515 0.93396 22.3066 0.980393 22.3531C1.02683 22.3995 1.08195 22.4363 1.14262 22.4615C1.20329 22.4866 1.26832 22.4995 1.33398 22.4995H2.33398V27.4995H1.33398C1.26832 27.4995 1.20329 27.5124 1.14262 27.5375C1.08195 27.5626 1.02683 27.5995 0.980393 27.6459C0.93396 27.6923 0.897131 27.7474 0.87201 27.8081C0.846889 27.8688 0.833967 27.9338 0.833984 27.9995V30.9995C0.833967 31.0651 0.846889 31.1302 0.87201 31.1908C0.897131 31.2515 0.93396 31.3066 0.980393 31.3531C1.02683 31.3995 1.08195 31.4363 1.14262 31.4615C1.20329 31.4866 1.26832 31.4995 1.33398 31.4995H31.334C31.3997 31.4995 31.4647 31.4866 31.5253 31.4615C31.586 31.4363 31.6411 31.3995 31.6876 31.3531C31.734 31.3066 31.7708 31.2515 31.796 31.1908C31.8211 31.1302 31.834 31.0651 31.834 30.9995V18.9995C31.834 18.9338 31.8211 18.8688 31.796 18.8081C31.7708 18.7474 31.734 18.6923 31.6876 18.6459C31.6411 18.5995 31.586 18.5626 31.5253 18.5375C31.4647 18.5124 31.3997 18.4995 31.334 18.4995ZM17.834 5.90548C17.5327 5.82316 17.2197 5.79278 16.9082 5.81563C16.4834 5.85597 16.0719 5.98613 15.7012 6.19747C15.4611 6.3352 15.1991 6.43081 14.9268 6.48018C14.5551 6.52754 14.1776 6.47374 13.834 6.32444V4.07151C14.2362 4.18902 14.6588 4.2194 15.0737 4.16062C15.4514 4.09688 15.8154 3.96889 16.1499 3.7822C16.4044 3.63111 16.6882 3.53629 16.9824 3.50413C17.2738 3.48646 17.5653 3.53661 17.834 3.65061V5.90548ZM13.209 9.99948C13.4315 9.99948 13.649 10.0655 13.834 10.1891C14.019 10.3127 14.1632 10.4884 14.2483 10.694C14.3335 10.8995 14.3558 11.1257 14.3124 11.344C14.269 11.5622 14.1618 11.7626 14.0045 11.92C13.8471 12.0773 13.6467 12.1845 13.4285 12.2279C13.2102 12.2713 12.984 12.249 12.7785 12.1638C12.5729 12.0787 12.3972 11.9345 12.2736 11.7495C12.15 11.5645 12.084 11.347 12.084 11.1245C12.0844 10.8262 12.203 10.5403 12.4139 10.3294C12.6248 10.1185 12.9107 9.99984 13.209 9.99948ZM10.334 18.7495V14.2495C10.3343 13.9844 10.4397 13.7302 10.6272 13.5427C10.8147 13.3552 11.0689 13.2498 11.334 13.2495H14.834C14.8952 13.2495 14.956 13.2382 15.0132 13.2163L18.5698 11.8528L18.7095 12.3035L15.1294 13.9219C15.0418 13.9615 14.9675 14.0255 14.9154 14.1063C14.8633 14.187 14.8355 14.2811 14.8354 14.3772L14.834 17.416C14.834 17.5372 14.878 17.6543 14.9578 17.7455C15.0377 17.8367 15.1479 17.8958 15.2681 17.9118L16.0322 18.0136C16.3921 18.0627 16.7221 18.2402 16.9614 18.5134C17.2006 18.7867 17.333 19.1373 17.334 19.5005V21.4995H16.3183L16.2695 19.947C16.2684 19.7035 16.1789 19.4687 16.0177 19.2862C15.8565 19.1037 15.6345 18.986 15.3931 18.9548L13.647 18.7529C13.5789 18.7446 13.5098 18.7505 13.4441 18.7704C13.3784 18.7903 13.3177 18.8237 13.2656 18.8684C13.2134 18.9128 13.1708 18.9675 13.1406 19.029C13.1104 19.0905 13.0931 19.1576 13.0899 19.2261C13.0678 19.6906 12.9041 23.1728 12.851 24.4995H11.834V14.7495H10.834V18.7495L10.334 18.7495ZM15.3183 21.4995H14.834C14.7683 21.4995 14.7033 21.5124 14.6426 21.5375C14.582 21.5626 14.5268 21.5995 14.4804 21.6459C14.434 21.6923 14.3971 21.7474 14.372 21.8081C14.3469 21.8688 14.334 21.9338 14.334 21.9995V24.4995H13.8516C13.8901 23.5552 13.9852 21.4793 14.0635 19.8125L15.27 19.9626L15.3183 21.4995ZM4.83398 13.2495C5.05649 13.2495 5.274 13.3155 5.459 13.4391C5.64401 13.5627 5.7882 13.7384 5.87335 13.944C5.9585 14.1495 5.98078 14.3757 5.93737 14.594C5.89396 14.8122 5.78681 15.0126 5.62948 15.17C5.47215 15.3273 5.27169 15.4345 5.05346 15.4779C4.83523 15.5213 4.60903 15.499 4.40347 15.4138C4.1979 15.3287 4.0222 15.1845 3.89858 14.9995C3.77496 14.8145 3.70898 14.597 3.70898 14.3745C3.70935 14.0762 3.828 13.7903 4.0389 13.5794C4.24979 13.3685 4.53573 13.2498 4.83398 13.2495ZM1.83398 21.4995V17.4995C1.83429 17.2344 1.93974 16.9802 2.12721 16.7927C2.31468 16.6052 2.56886 16.4998 2.83398 16.4995H6.83398C7.09911 16.4998 7.35328 16.6052 7.54075 16.7927C7.72823 16.9802 7.83368 17.2344 7.83398 17.4995V21.4995H7.33529L7.33398 17.4992L6.33398 17.4997V27.4995H5.33398V21.9995H4.33398V27.4995H3.33398V17.4995H2.33398V21.4995H1.83398ZM30.834 30.4995H1.83398V28.4995H9.83398C9.89965 28.4995 9.96468 28.4866 10.0253 28.4615C10.086 28.4363 10.1411 28.3995 10.1876 28.3531C10.234 28.3066 10.2708 28.2515 10.296 28.1908C10.3211 28.1302 10.334 28.0651 10.334 27.9995V25.4995H14.834C14.8997 25.4995 14.9647 25.4866 15.0253 25.4615C15.086 25.4363 15.1411 25.3995 15.1876 25.3531C15.234 25.3066 15.2708 25.2515 15.296 25.1908C15.3211 25.1302 15.334 25.0651 15.334 24.9995V22.4995H20.834C20.8997 22.4995 20.9647 22.4866 21.0253 22.4615C21.086 22.4363 21.1411 22.3995 21.1876 22.3531C21.234 22.3066 21.2708 22.2515 21.296 22.1908C21.3211 22.1302 21.334 22.0651 21.334 21.9995V19.4995H30.834V30.4995Z" fill="black"/>
<path d="M27.334 2.99951H28.834V3.99951H27.334V2.99951Z" fill="black"/>
<path d="M22.834 2.99951H24.334V3.99951H22.834V2.99951Z" fill="black"/>
<path d="M25.334 0.499512H26.334V1.99951H25.334V0.499512Z" fill="black"/>
<path d="M23.3555 1.73242L24.0626 1.02532L25.1232 2.08598L24.4161 2.79308L23.3555 1.73242Z" fill="black"/>
<path d="M26.5391 2.09021L27.5997 1.02955L28.3068 1.73666L27.2462 2.79732L26.5391 2.09021Z" fill="black"/>
</g>
<defs>
<clipPath id="clip0_326_5915">
<rect width="32" height="32" fill="white" transform="translate(0.333984)"/>
</clipPath>
</defs>
</svg>
