<svg width="33" height="32" viewBox="0 0 33 32" fill="none" xmlns="http://www.w3.org/2000/svg">
<path d="M29.666 19.5C28.737 19.5 27.9605 20.14 27.737 21H24.666C24.5335 21 24.406 21.0525 24.3125 21.1465L22.459 23H21.166V24H22.666C22.7985 24 22.926 23.9475 23.0195 23.8535L24.873 22H27.737C27.9605 22.86 28.737 23.5 29.666 23.5C30.769 23.5 31.666 22.603 31.666 21.5C31.666 20.397 30.769 19.5 29.666 19.5ZM29.666 22.5C29.1145 22.5 28.666 22.0515 28.666 21.5C28.666 20.9485 29.1145 20.5 29.666 20.5C30.2175 20.5 30.666 20.9485 30.666 21.5C30.666 22.0515 30.2175 22.5 29.666 22.5Z" fill="black"/>
<path d="M29.666 27.5C28.737 27.5 27.9605 28.14 27.737 29H24.873L23.0195 27.1465C22.926 27.0525 22.7985 27 22.666 27H21.166V28H22.459L24.3125 29.8535C24.406 29.9475 24.5335 30 24.666 30H27.737C27.9605 30.86 28.737 31.5 29.666 31.5C30.769 31.5 31.666 30.603 31.666 29.5C31.666 28.397 30.769 27.5 29.666 27.5ZM29.666 30.5C29.1145 30.5 28.666 30.0515 28.666 29.5C28.666 28.9485 29.1145 28.5 29.666 28.5C30.2175 28.5 30.666 28.9485 30.666 29.5C30.666 30.0515 30.2175 30.5 29.666 30.5Z" fill="black"/>
<path d="M26.166 27.5C27.269 27.5 28.166 26.603 28.166 25.5C28.166 24.397 27.269 23.5 26.166 23.5C25.237 23.5 24.4605 24.14 24.237 25H21.166V26H24.237C24.4605 26.86 25.237 27.5 26.166 27.5ZM26.166 24.5C26.7175 24.5 27.166 24.9485 27.166 25.5C27.166 26.0515 26.7175 26.5 26.166 26.5C25.6145 26.5 25.166 26.0515 25.166 25.5C25.166 24.9485 25.6145 24.5 26.166 24.5Z" fill="black"/>
<path d="M3.66602 31.5C4.59502 31.5 5.37152 30.86 5.59502 30H8.66602C8.79852 30 8.92602 29.9475 9.01952 29.8535L10.873 28H12.166V27H10.666C10.5335 27 10.406 27.0525 10.3125 27.1465L8.45902 29H5.59502C5.37152 28.14 4.59502 27.5 3.66602 27.5C2.56302 27.5 1.66602 28.397 1.66602 29.5C1.66602 30.603 2.56302 31.5 3.66602 31.5ZM3.66602 28.5C4.21752 28.5 4.66602 28.9485 4.66602 29.5C4.66602 30.0515 4.21752 30.5 3.66602 30.5C3.11452 30.5 2.66602 30.0515 2.66602 29.5C2.66602 28.9485 3.11452 28.5 3.66602 28.5Z" fill="black"/>
<path d="M1.66602 21.5C1.66602 22.603 2.56302 23.5 3.66602 23.5C4.59502 23.5 5.37152 22.86 5.59502 22H8.45902L10.3125 23.8535C10.406 23.9475 10.5335 24 10.666 24H12.166V23H10.873L9.01952 21.1465C8.92602 21.0525 8.79852 21 8.66602 21H5.59502C5.37152 20.14 4.59502 19.5 3.66602 19.5C2.56302 19.5 1.66602 20.397 1.66602 21.5ZM3.66602 20.5C4.21752 20.5 4.66602 20.9485 4.66602 21.5C4.66602 22.0515 4.21752 22.5 3.66602 22.5C3.11452 22.5 2.66602 22.0515 2.66602 21.5C2.66602 20.9485 3.11452 20.5 3.66602 20.5Z" fill="black"/>
<path d="M7.16602 23.5C6.06302 23.5 5.16602 24.397 5.16602 25.5C5.16602 26.603 6.06302 27.5 7.16602 27.5C8.09502 27.5 8.87152 26.86 9.09502 26H12.166V25H9.09502C8.87152 24.14 8.09502 23.5 7.16602 23.5ZM7.16602 26.5C6.61452 26.5 6.16602 26.0515 6.16602 25.5C6.16602 24.9485 6.61452 24.5 7.16602 24.5C7.71752 24.5 8.16602 24.9485 8.16602 25.5C8.16602 26.0515 7.71752 26.5 7.16602 26.5Z" fill="black"/>
<path d="M15.666 27H17.666C17.942 27 18.166 26.776 18.166 26.5V24.5C18.166 24.224 17.942 24 17.666 24H15.666C15.39 24 15.166 24.224 15.166 24.5V26.5C15.166 26.776 15.39 27 15.666 27ZM16.166 25H17.166V26H16.166V25Z" fill="black"/>
<path d="M10.166 10.5C10.166 14.084 13.082 17 16.666 17C20.25 17 23.166 14.084 23.166 10.5C23.166 6.916 20.25 4 16.666 4C13.082 4 10.166 6.916 10.166 10.5ZM15.666 15.9045V14C15.666 13.8105 15.559 13.6375 15.3895 13.5525L14.666 13.191V11.5C14.666 10.673 15.339 10 16.166 10H17.166C17.993 10 18.666 10.673 18.666 11.5V13.191L17.9425 13.553C17.773 13.6375 17.666 13.8105 17.666 14V15.9045C17.341 15.9645 17.008 16 16.666 16C16.324 16 15.991 15.9645 15.666 15.9045ZM16.666 9C16.1145 9 15.666 8.5515 15.666 8C15.666 7.4485 16.1145 7 16.666 7C17.2175 7 17.666 7.4485 17.666 8C17.666 8.5515 17.2175 9 16.666 9ZM22.166 10.5C22.166 12.8265 20.7115 14.8155 18.666 15.618V14.309L19.3895 13.947C19.559 13.8625 19.666 13.6895 19.666 13.5V11.5C19.666 10.5 19.072 9.6415 18.221 9.242C18.495 8.8995 18.666 8.4715 18.666 8C18.666 6.897 17.769 6 16.666 6C15.563 6 14.666 6.897 14.666 8C14.666 8.4715 14.837 8.8995 15.111 9.242C14.26 9.6415 13.666 10.5 13.666 11.5V13.5C13.666 13.6895 13.773 13.8625 13.9425 13.9475L14.666 14.309V15.618C12.6205 14.8155 11.166 12.8265 11.166 10.5C11.166 7.4675 13.6335 5 16.666 5C19.6985 5 22.166 7.4675 22.166 10.5Z" fill="black"/>
<path d="M14.666 0.5C14.39 0.5 14.166 0.724 14.166 1L14.158 1.8645C13.5255 2.048 12.911 2.3025 12.3285 2.6275L11.716 2.015C11.622 1.921 11.495 1.8685 11.3625 1.8685C11.23 1.8685 11.1025 1.921 11.009 2.015L8.18052 4.8435C8.08652 4.9375 8.03402 5.0645 8.03402 5.197C8.03402 5.3295 8.08652 5.457 8.18052 5.5505L8.78652 6.167C8.46802 6.7455 8.21352 7.3595 8.03102 8H7.16602C6.89002 8 6.66602 8.224 6.66602 8.5V12.5C6.66602 12.776 6.89002 13 7.16602 13L8.03052 13.008C8.21402 13.6405 8.46852 14.255 8.79352 14.8375L8.18102 15.45C8.08702 15.544 8.03452 15.671 8.03452 15.8035C8.03452 15.936 8.08702 16.0635 8.18102 16.157L11.0095 18.9855C11.197 19.173 11.529 19.173 11.7165 18.9855L12.333 18.3795C12.9115 18.698 13.5255 18.9525 14.166 19.135V20C14.166 20.276 14.39 20.5 14.666 20.5H16.166V22H13.666C13.39 22 13.166 22.224 13.166 22.5V28.5C13.166 28.776 13.39 29 13.666 29H19.666C19.942 29 20.166 28.776 20.166 28.5V22.5C20.166 22.224 19.942 22 19.666 22H17.166V20.5H18.666C18.942 20.5 19.166 20.276 19.166 20L19.174 19.1355C19.8065 18.952 20.421 18.6975 21.0035 18.3725L21.616 18.985C21.71 19.079 21.837 19.1315 21.9695 19.1315C22.102 19.1315 22.2295 19.079 22.323 18.985L25.1515 16.1565C25.2455 16.0625 25.298 15.9355 25.298 15.803C25.298 15.6705 25.2455 15.543 25.1515 15.4495L24.5455 14.833C24.864 14.2545 25.1185 13.6405 25.301 13H26.166C26.442 13 26.666 12.776 26.666 12.5V8.5C26.666 8.224 26.442 8 26.166 8L25.3015 7.992C25.118 7.3595 24.8635 6.745 24.5385 6.1625L25.151 5.55C25.245 5.456 25.2975 5.329 25.2975 5.1965C25.2975 5.064 25.245 4.9365 25.151 4.843L22.3225 2.0145C22.135 1.827 21.803 1.827 21.6155 2.0145L20.999 2.6205C20.4205 2.302 19.8065 2.0475 19.166 1.8655V1C19.166 0.724 18.942 0.5 18.666 0.5H14.666ZM19.166 28H14.166V23H19.166V28ZM20.516 3.4965C20.914 3.716 21.3935 3.651 21.7105 3.334L21.9695 3.075L24.091 5.1965L23.832 5.4555C23.5155 5.7725 23.4505 6.2525 23.6695 6.6495C23.9525 7.163 24.179 7.7085 24.3415 8.2705C24.468 8.707 24.8535 9 25.3005 9H25.666V12H25.3005C24.8535 12 24.468 12.293 24.3415 12.7295C24.1785 13.2915 23.9525 13.8365 23.6695 14.35C23.45 14.7475 23.515 15.2275 23.832 15.5445L24.091 15.8035L21.9695 17.925L21.7105 17.666C21.3935 17.3495 20.9135 17.285 20.5165 17.5035C20.003 17.7865 19.4575 18.013 18.8955 18.1755C18.459 18.302 18.166 18.6875 18.166 19.1345V19.5H15.166V19.1345C15.166 18.6875 14.873 18.302 14.4365 18.1755C13.8745 18.0125 13.3295 17.7865 12.816 17.5035C12.418 17.284 11.9385 17.3495 11.6215 17.666L11.3625 17.925L9.24102 15.8035L9.50002 15.5445C9.81652 15.2275 9.88152 14.7475 9.66252 14.3505C9.37952 13.837 9.15302 13.2915 8.99052 12.7295C8.86402 12.293 8.47852 12 8.03152 12H7.66602V9H8.03152C8.47852 9 8.86402 8.707 8.99052 8.2705C9.15352 7.7085 9.37952 7.1635 9.66252 6.65C9.88202 6.2525 9.81702 5.7725 9.50002 5.4555L9.24102 5.1965L11.3625 3.075L11.6215 3.334C11.9385 3.6505 12.4185 3.715 12.8155 3.4965C13.329 3.2135 13.8745 2.987 14.4365 2.8245C14.873 2.698 15.166 2.3125 15.166 1.8655V1.5H18.166V1.8655C18.166 2.3125 18.459 2.698 18.8955 2.8245C19.4575 2.9875 20.0025 3.2135 20.516 3.4965Z" fill="black"/>
</svg>
