<svg width="33" height="32" viewBox="0 0 33 32" fill="none" xmlns="http://www.w3.org/2000/svg">
<g clip-path="url(#clip0_326_5868)">
<path d="M15.44 19.3739C15.242 17.2323 14.9889 14.6366 14.9308 13.2333C14.9147 12.809 15.074 12.3968 15.3714 12.0938C16.0967 11.4035 17.2359 11.4035 17.9612 12.0938C18.2586 12.3968 18.4179 12.809 18.4018 13.2333C18.3433 14.6442 18.0865 17.2756 17.8926 19.3742C17.8081 20.0514 17.1906 20.532 16.5133 20.4475C15.952 20.3774 15.5099 19.9353 15.44 19.3739ZM16.1962 12.8851C16.1154 12.9641 16.0707 13.0729 16.0726 13.1859C16.1297 14.5622 16.3844 17.1771 16.5784 19.2716C16.5812 19.3056 16.7514 19.3053 16.7542 19.2718C16.9523 17.1331 17.2032 14.5551 17.2601 13.1859C17.2619 13.0729 17.2172 12.9641 17.1365 12.8851C16.8747 12.6304 16.4579 12.6304 16.1962 12.8851Z" fill="black"/>
<path d="M16.6669 23.5698C15.9222 23.5698 15.3184 22.9662 15.3184 22.2215C15.3183 21.4769 15.9219 20.8731 16.6666 20.873C17.4112 20.873 18.015 21.4766 18.0151 22.2213V22.2215C18.0141 22.9658 17.4111 23.5688 16.6669 23.5698ZM16.6669 22.0159C16.5534 22.0158 16.4613 22.1078 16.4612 22.2213C16.4611 22.3348 16.5531 22.4268 16.6666 22.4269C16.7801 22.427 16.8721 22.335 16.8722 22.2215C16.8721 22.1081 16.7803 22.0161 16.6669 22.0159Z" fill="black"/>
<path d="M16.666 0C7.82944 0 0.666016 7.16343 0.666016 16C0.666016 24.8366 7.82944 32 16.666 32C25.5026 32 32.666 24.8366 32.666 16C32.6544 7.16829 25.4977 0.0116429 16.666 0ZM28.3909 25.1084C28.0492 24.9787 27.7044 24.8527 27.3524 24.7341C27.5829 24.2994 27.5699 23.7759 27.3177 23.3532L25.4531 20.2079C25.7149 19.0124 25.8642 17.7949 25.8991 16.5714H31.5086C31.3922 19.674 30.3013 22.661 28.3909 25.1084ZM11.255 25.5104H16.0946V30.426C14.1352 29.1686 12.4816 27.4891 11.255 25.5104ZM17.2374 25.5104H22.077C20.8504 27.4892 19.1969 29.1687 17.2374 30.4261V25.5104ZM7.2433 24.3675C7.08552 24.3676 6.95752 24.2396 6.95744 24.0819C6.95744 24.0305 6.97123 23.9801 6.99752 23.9359L16.4202 8.04157C16.5011 7.90579 16.6767 7.86129 16.8124 7.94214C16.8534 7.9665 16.8875 8.00064 16.9119 8.04157L26.3346 23.9359C26.4152 24.0716 26.3704 24.2469 26.2347 24.3274C26.1906 24.3536 26.1401 24.3675 26.0887 24.3675H7.2433ZM1.82337 16.5714H7.43287C7.46773 17.7949 7.61709 19.0124 7.87887 20.2079L6.0143 23.3532C5.76223 23.7758 5.74909 24.2993 5.97959 24.734C5.62794 24.8524 5.28302 24.9784 4.94094 25.1082C3.03066 22.6608 1.93987 19.6739 1.82337 16.5714ZM4.96744 6.85807C6.30766 7.36164 7.68173 7.77029 9.0793 8.081C8.05387 10.3984 7.49459 12.8951 7.43323 15.4286H1.82337C1.94044 12.3115 3.04102 9.31143 4.96744 6.85807ZM23.2974 16.5714H24.7564C24.7339 17.2875 24.6702 18.0016 24.5654 18.7104L23.2974 16.5714ZM22.6199 15.4286L18.7202 8.85057C20.1936 8.76664 21.66 8.58871 23.1107 8.31779C24.135 10.5521 24.6948 12.9713 24.756 15.4285H22.6199V15.4286ZM18.0619 7.74C17.9049 7.362 17.6102 7.05771 17.2374 6.88871V1.53279C19.4702 2.95857 21.3058 4.92629 22.5732 7.25264C21.0822 7.51643 19.5749 7.67929 18.0619 7.74ZM16.0946 6.88871C15.7218 7.05771 15.4271 7.362 15.2702 7.74C13.7571 7.67929 12.2499 7.51643 10.7587 7.25264C12.0262 4.92629 13.8618 2.95857 16.0946 1.53279V6.88871ZM14.6118 8.85057L10.7122 15.4286H8.57602C8.63723 12.9714 9.19702 10.5522 10.2214 8.31786C11.672 8.58879 13.1384 8.76671 14.6118 8.85057ZM8.76666 18.7104C8.66187 18.0016 8.59809 17.2875 8.57573 16.5714H10.0347L8.76666 18.7104ZM25.8988 15.4286C25.8374 12.8951 25.2782 10.3984 24.2527 8.08093C25.6503 7.77022 27.0243 7.36157 28.3645 6.858C30.2909 9.31136 31.3916 12.3114 31.5087 15.4286H25.8988ZM27.5769 5.92964C26.3239 6.38 25.0419 6.74564 23.7398 7.02414C22.5808 4.791 20.9419 2.84207 18.9407 1.31707C22.2584 1.83343 25.3029 3.45943 27.5769 5.92964ZM14.3913 1.31707C12.3901 2.84207 10.7512 4.791 9.59223 7.02414C8.29009 6.74564 7.00816 6.37993 5.75502 5.92964C8.02916 3.45943 11.0737 1.83343 14.3913 1.31707ZM5.72387 26.0376C6.24287 25.8492 6.76959 25.6702 7.30616 25.5103H9.92623C11.0721 27.5289 12.6176 29.2926 14.4683 30.6935C11.1062 30.1889 8.01937 28.5454 5.72387 26.0376ZM18.8639 30.6935C20.7145 29.2925 22.2599 27.5289 23.4058 25.5104H26.0265C26.5635 25.6707 27.0899 25.8496 27.6081 26.0377C25.3127 28.5453 22.2259 30.1889 18.8639 30.6935Z" fill="black"/>
</g>
<defs>
<clipPath id="clip0_326_5868">
<rect width="32" height="32" fill="white" transform="translate(0.666016)"/>
</clipPath>
</defs>
</svg>
